%TF.GenerationSoftware,Altium Limited,Altium Designer,25.6.2 (33)*%
G04 Layer_Color=65535*
%FSLAX45Y45*%
%MOMM*%
%TF.SameCoordinates,D625FAC1-649B-4139-A42B-0E7AE4161345*%
%TF.FilePolarity,Positive*%
%TF.FileFunction,Legend,Top*%
%TF.Part,Single*%
G01*
G75*
%TA.AperFunction,NonConductor*%
%ADD41C,0.20000*%
%ADD42C,0.50000*%
%ADD43C,0.38100*%
%ADD44C,0.15000*%
%ADD45C,0.12700*%
%ADD46C,0.10000*%
%ADD47C,0.40000*%
%ADD48C,0.25400*%
G36*
X1798111Y3794556D02*
X348111D01*
Y5244555D01*
X1798111D01*
Y3794556D01*
D02*
G37*
%LPC*%
G36*
X1401778Y5112444D02*
X1388889D01*
Y5109222D01*
X1385667D01*
Y5106000D01*
X1382444D01*
Y5093111D01*
X1385667D01*
Y5089889D01*
X1388889D01*
Y5086666D01*
X1401778D01*
Y5089889D01*
X1405000D01*
Y5093111D01*
X1408222D01*
Y5106000D01*
X1405000D01*
Y5109222D01*
X1401778D01*
Y5112444D01*
D02*
G37*
G36*
X1369556D02*
X1356667D01*
Y5109222D01*
X1353444D01*
Y5106000D01*
X1350222D01*
Y5093111D01*
X1353444D01*
Y5089889D01*
X1356667D01*
Y5086666D01*
X1369556D01*
Y5089889D01*
X1372778D01*
Y5093111D01*
X1376000D01*
Y5106000D01*
X1372778D01*
Y5109222D01*
X1369556D01*
Y5112444D01*
D02*
G37*
G36*
X1305111D02*
X1292222D01*
Y5109222D01*
X1289000D01*
Y5106000D01*
X1285778D01*
Y5093111D01*
X1289000D01*
Y5089889D01*
X1292222D01*
Y5086666D01*
X1305111D01*
Y5089889D01*
X1308333D01*
Y5093111D01*
X1311555D01*
Y5106000D01*
X1308333D01*
Y5109222D01*
X1305111D01*
Y5112444D01*
D02*
G37*
G36*
X1272889D02*
X1260000D01*
Y5109222D01*
X1256778D01*
Y5106000D01*
X1253556D01*
Y5093111D01*
X1256778D01*
Y5089889D01*
X1260000D01*
Y5086666D01*
X1272889D01*
Y5089889D01*
X1276111D01*
Y5093111D01*
X1279333D01*
Y5106000D01*
X1276111D01*
Y5109222D01*
X1272889D01*
Y5112444D01*
D02*
G37*
G36*
X1208444D02*
X1195555D01*
Y5109222D01*
X1192333D01*
Y5106000D01*
X1189111D01*
Y5093111D01*
X1192333D01*
Y5089889D01*
X1195555D01*
Y5086666D01*
X1208444D01*
Y5089889D01*
X1211667D01*
Y5093111D01*
X1214889D01*
Y5106000D01*
X1211667D01*
Y5109222D01*
X1208444D01*
Y5112444D01*
D02*
G37*
G36*
X1144000D02*
X1131111D01*
Y5109222D01*
X1127889D01*
Y5106000D01*
X1124667D01*
Y5093111D01*
X1127889D01*
Y5089889D01*
X1131111D01*
Y5086666D01*
X1144000D01*
Y5089889D01*
X1147222D01*
Y5093111D01*
X1150444D01*
Y5106000D01*
X1147222D01*
Y5109222D01*
X1144000D01*
Y5112444D01*
D02*
G37*
G36*
X1079555D02*
X1066667D01*
Y5109222D01*
X1063444D01*
Y5106000D01*
X1060222D01*
Y5093111D01*
X1063444D01*
Y5089889D01*
X1066667D01*
Y5086666D01*
X1079555D01*
Y5089889D01*
X1082778D01*
Y5093111D01*
X1086000D01*
Y5106000D01*
X1082778D01*
Y5109222D01*
X1079555D01*
Y5112444D01*
D02*
G37*
G36*
X1047333D02*
X1034444D01*
Y5109222D01*
X1031222D01*
Y5106000D01*
X1028000D01*
Y5093111D01*
X1031222D01*
Y5089889D01*
X1034444D01*
Y5086666D01*
X1047333D01*
Y5089889D01*
X1050555D01*
Y5093111D01*
X1053778D01*
Y5106000D01*
X1050555D01*
Y5109222D01*
X1047333D01*
Y5112444D01*
D02*
G37*
G36*
X950667D02*
X937778D01*
Y5109222D01*
X934555D01*
Y5106000D01*
X931333D01*
Y5093111D01*
X934555D01*
Y5089889D01*
X937778D01*
Y5086666D01*
X950667D01*
Y5089889D01*
X953889D01*
Y5093111D01*
X957111D01*
Y5099555D01*
Y5102778D01*
Y5106000D01*
X953889D01*
Y5109222D01*
X950667D01*
Y5112444D01*
D02*
G37*
G36*
X854000D02*
X841111D01*
Y5109222D01*
X837889D01*
Y5106000D01*
X834667D01*
Y5093111D01*
X837889D01*
Y5089889D01*
X841111D01*
Y5086666D01*
X854000D01*
Y5089889D01*
X857222D01*
Y5093111D01*
X860444D01*
Y5106000D01*
X857222D01*
Y5109222D01*
X854000D01*
Y5112444D01*
D02*
G37*
G36*
X821778D02*
X808889D01*
Y5109222D01*
X805667D01*
Y5106000D01*
X802444D01*
Y5093111D01*
X805667D01*
Y5089889D01*
X808889D01*
Y5086666D01*
X821778D01*
Y5089889D01*
X825000D01*
Y5093111D01*
X828222D01*
Y5106000D01*
X825000D01*
Y5109222D01*
X821778D01*
Y5112444D01*
D02*
G37*
G36*
X789555D02*
X776666D01*
Y5109222D01*
X773444D01*
Y5106000D01*
X770222D01*
Y5093111D01*
X773444D01*
Y5089889D01*
X776666D01*
Y5086666D01*
X789555D01*
Y5089889D01*
X792778D01*
Y5093111D01*
X796000D01*
Y5106000D01*
X792778D01*
Y5109222D01*
X789555D01*
Y5112444D01*
D02*
G37*
G36*
X1305111Y5080222D02*
X1292222D01*
Y5077000D01*
X1289000D01*
Y5073778D01*
X1285778D01*
Y5060889D01*
X1289000D01*
Y5057667D01*
X1292222D01*
Y5054444D01*
X1305111D01*
Y5057667D01*
X1308333D01*
Y5060889D01*
X1311555D01*
Y5073778D01*
X1308333D01*
Y5077000D01*
X1305111D01*
Y5080222D01*
D02*
G37*
G36*
X1208444D02*
X1195555D01*
Y5077000D01*
X1192333D01*
Y5073778D01*
X1189111D01*
Y5060889D01*
X1192333D01*
Y5057667D01*
X1195555D01*
Y5054444D01*
X1208444D01*
Y5057667D01*
X1211667D01*
Y5060889D01*
X1214889D01*
Y5073778D01*
X1211667D01*
Y5077000D01*
X1208444D01*
Y5080222D01*
D02*
G37*
G36*
X1111778D02*
X1098889D01*
Y5077000D01*
X1095667D01*
Y5073778D01*
X1092444D01*
Y5060889D01*
X1095667D01*
Y5057667D01*
X1098889D01*
Y5054444D01*
X1111778D01*
Y5057667D01*
X1115000D01*
Y5060889D01*
X1118222D01*
Y5073778D01*
X1115000D01*
Y5077000D01*
X1111778D01*
Y5080222D01*
D02*
G37*
G36*
X1079555D02*
X1066667D01*
Y5077000D01*
X1063444D01*
Y5073778D01*
X1060222D01*
Y5060889D01*
X1063444D01*
Y5057667D01*
X1066667D01*
Y5054444D01*
X1079555D01*
Y5057667D01*
X1082778D01*
Y5060889D01*
X1086000D01*
Y5073778D01*
X1082778D01*
Y5077000D01*
X1079555D01*
Y5080222D01*
D02*
G37*
G36*
X982889D02*
X970000D01*
Y5077000D01*
X966778D01*
Y5073778D01*
X963555D01*
Y5060889D01*
X966778D01*
Y5057667D01*
X970000D01*
Y5054444D01*
X982889D01*
Y5057667D01*
X986111D01*
Y5060889D01*
X989333D01*
Y5073778D01*
X986111D01*
Y5077000D01*
X982889D01*
Y5080222D01*
D02*
G37*
G36*
X821778D02*
X808889D01*
Y5077000D01*
X805667D01*
Y5073778D01*
X802444D01*
Y5060889D01*
X805667D01*
Y5057667D01*
X808889D01*
Y5054444D01*
X821778D01*
Y5057667D01*
X825000D01*
Y5060889D01*
X828222D01*
Y5073778D01*
X825000D01*
Y5077000D01*
X821778D01*
Y5080222D01*
D02*
G37*
G36*
X1401778Y5048000D02*
X1388889D01*
Y5044778D01*
X1385667D01*
Y5041555D01*
X1382444D01*
Y5028667D01*
X1385667D01*
Y5025444D01*
X1388889D01*
Y5022222D01*
X1401778D01*
Y5025444D01*
X1405000D01*
Y5028667D01*
X1408222D01*
Y5041555D01*
X1405000D01*
Y5044778D01*
X1401778D01*
Y5048000D01*
D02*
G37*
G36*
X1337333D02*
X1324444D01*
Y5044778D01*
X1321222D01*
Y5041555D01*
X1318000D01*
Y5028667D01*
X1321222D01*
Y5025444D01*
X1324444D01*
Y5022222D01*
X1337333D01*
Y5025444D01*
X1340555D01*
Y5028667D01*
X1343778D01*
Y5041555D01*
X1340555D01*
Y5044778D01*
X1337333D01*
Y5048000D01*
D02*
G37*
G36*
X1272889D02*
X1260000D01*
Y5044778D01*
X1256778D01*
Y5041555D01*
X1253556D01*
Y5028667D01*
X1256778D01*
Y5025444D01*
X1260000D01*
Y5022222D01*
X1272889D01*
Y5025444D01*
X1276111D01*
Y5028667D01*
X1279333D01*
Y5041555D01*
X1276111D01*
Y5044778D01*
X1272889D01*
Y5048000D01*
D02*
G37*
G36*
X1208444D02*
X1195555D01*
Y5044778D01*
X1192333D01*
Y5041555D01*
X1189111D01*
Y5028667D01*
X1192333D01*
Y5025444D01*
X1195555D01*
Y5022222D01*
X1208444D01*
Y5025444D01*
X1211667D01*
Y5028667D01*
X1214889D01*
Y5041555D01*
X1211667D01*
Y5044778D01*
X1208444D01*
Y5048000D01*
D02*
G37*
G36*
X1176222D02*
X1163333D01*
Y5044778D01*
X1160111D01*
Y5041555D01*
X1156889D01*
Y5028667D01*
X1160111D01*
Y5025444D01*
X1163333D01*
Y5022222D01*
X1176222D01*
Y5025444D01*
X1179444D01*
Y5028667D01*
X1182667D01*
Y5038333D01*
Y5041555D01*
X1179444D01*
Y5044778D01*
X1176222D01*
Y5048000D01*
D02*
G37*
G36*
X1144000D02*
X1131111D01*
Y5044778D01*
X1127889D01*
Y5041555D01*
X1124667D01*
Y5028667D01*
X1127889D01*
Y5025444D01*
X1131111D01*
Y5022222D01*
X1144000D01*
Y5025444D01*
X1147222D01*
Y5028667D01*
X1150444D01*
Y5035111D01*
Y5038333D01*
Y5041555D01*
X1147222D01*
Y5044778D01*
X1144000D01*
Y5048000D01*
D02*
G37*
G36*
X1111778D02*
X1098889D01*
Y5044778D01*
X1095667D01*
Y5041555D01*
X1092444D01*
Y5028667D01*
X1095667D01*
Y5025444D01*
X1098889D01*
Y5022222D01*
X1111778D01*
Y5025444D01*
X1115000D01*
Y5028667D01*
X1118222D01*
Y5041555D01*
X1115000D01*
Y5044778D01*
X1111778D01*
Y5048000D01*
D02*
G37*
G36*
X1015111D02*
X1002222D01*
Y5044778D01*
X999000D01*
Y5041555D01*
X995778D01*
Y5035111D01*
Y5031889D01*
Y5028667D01*
X999000D01*
Y5025444D01*
X1002222D01*
Y5022222D01*
X1015111D01*
Y5025444D01*
X1018333D01*
Y5028667D01*
X1021555D01*
Y5041555D01*
X1018333D01*
Y5044778D01*
X1015111D01*
Y5048000D01*
D02*
G37*
G36*
X950667D02*
X937778D01*
Y5044778D01*
X934555D01*
Y5041555D01*
X931333D01*
Y5028667D01*
X934555D01*
Y5025444D01*
X937778D01*
Y5022222D01*
X950667D01*
Y5025444D01*
X953889D01*
Y5028667D01*
X957111D01*
Y5038333D01*
Y5041555D01*
X953889D01*
Y5044778D01*
X950667D01*
Y5048000D01*
D02*
G37*
G36*
X886222D02*
X873333D01*
Y5044778D01*
X870111D01*
Y5041555D01*
X866889D01*
Y5028667D01*
X870111D01*
Y5025444D01*
X873333D01*
Y5022222D01*
X886222D01*
Y5025444D01*
X889444D01*
Y5028667D01*
X892666D01*
Y5031889D01*
Y5041555D01*
X889444D01*
Y5044778D01*
X886222D01*
Y5048000D01*
D02*
G37*
G36*
X821778D02*
X808889D01*
Y5044778D01*
X805667D01*
Y5041555D01*
X802444D01*
Y5035111D01*
Y5031889D01*
Y5028667D01*
X805667D01*
Y5025444D01*
X808889D01*
Y5022222D01*
X821778D01*
Y5025444D01*
X825000D01*
Y5028667D01*
X828222D01*
Y5041555D01*
X825000D01*
Y5044778D01*
X821778D01*
Y5048000D01*
D02*
G37*
G36*
X757333D02*
X744444D01*
Y5044778D01*
X741222D01*
Y5041555D01*
X738000D01*
Y5028667D01*
X741222D01*
Y5025444D01*
X744444D01*
Y5022222D01*
X757333D01*
Y5025444D01*
X760556D01*
Y5028667D01*
X763778D01*
Y5041555D01*
X760556D01*
Y5044778D01*
X757333D01*
Y5048000D01*
D02*
G37*
G36*
X1337333Y5015778D02*
X1324444D01*
Y5012555D01*
X1321222D01*
Y5009333D01*
X1318000D01*
Y4996444D01*
X1321222D01*
Y4993222D01*
X1324444D01*
Y4990000D01*
X1337333D01*
Y4993222D01*
X1340555D01*
Y4996444D01*
X1343778D01*
Y5009333D01*
X1340555D01*
Y5012555D01*
X1337333D01*
Y5015778D01*
D02*
G37*
G36*
X1305111D02*
X1292222D01*
Y5012555D01*
X1289000D01*
Y5009333D01*
X1285778D01*
Y4996444D01*
X1289000D01*
Y4993222D01*
X1292222D01*
Y4990000D01*
X1305111D01*
Y4993222D01*
X1308333D01*
Y4996444D01*
X1311555D01*
Y5009333D01*
X1308333D01*
Y5012555D01*
X1305111D01*
Y5015778D01*
D02*
G37*
G36*
X1272889D02*
X1260000D01*
Y5012555D01*
X1256778D01*
Y5009333D01*
X1253556D01*
Y4996444D01*
X1256778D01*
Y4993222D01*
X1260000D01*
Y4990000D01*
X1272889D01*
Y4993222D01*
X1276111D01*
Y4996444D01*
X1279333D01*
Y5009333D01*
X1276111D01*
Y5012555D01*
X1272889D01*
Y5015778D01*
D02*
G37*
G36*
X1208444D02*
X1195555D01*
Y5012555D01*
X1192333D01*
Y5009333D01*
X1189111D01*
Y5006111D01*
Y5002889D01*
Y4996444D01*
X1192333D01*
Y4993222D01*
X1195555D01*
Y4990000D01*
X1208444D01*
Y4993222D01*
X1211667D01*
Y4996444D01*
X1214889D01*
Y5009333D01*
X1211667D01*
Y5012555D01*
X1208444D01*
Y5015778D01*
D02*
G37*
G36*
X1111778D02*
X1098889D01*
Y5012555D01*
X1095667D01*
Y5009333D01*
X1092444D01*
Y4996444D01*
X1095667D01*
Y4993222D01*
X1098889D01*
Y4990000D01*
X1111778D01*
Y4993222D01*
X1115000D01*
Y4996444D01*
X1118222D01*
Y5009333D01*
X1115000D01*
Y5012555D01*
X1111778D01*
Y5015778D01*
D02*
G37*
G36*
X1047333D02*
X1034444D01*
Y5012555D01*
X1031222D01*
Y5009333D01*
X1028000D01*
Y4996444D01*
X1031222D01*
Y4993222D01*
X1034444D01*
Y4990000D01*
X1047333D01*
Y4993222D01*
X1050555D01*
Y4996444D01*
X1053778D01*
Y5009333D01*
X1050555D01*
Y5012555D01*
X1047333D01*
Y5015778D01*
D02*
G37*
G36*
X950667D02*
X937778D01*
Y5012555D01*
X934555D01*
Y5009333D01*
X931333D01*
Y4996444D01*
X934555D01*
Y4993222D01*
X937778D01*
Y4990000D01*
X950667D01*
Y4993222D01*
X953889D01*
Y4996444D01*
X957111D01*
Y5006111D01*
Y5009333D01*
X953889D01*
Y5012555D01*
X950667D01*
Y5015778D01*
D02*
G37*
G36*
X918444D02*
X905555D01*
Y5012555D01*
X902333D01*
Y5009333D01*
X899111D01*
Y4996444D01*
X902333D01*
Y4993222D01*
X905555D01*
Y4990000D01*
X918444D01*
Y4993222D01*
X921667D01*
Y4996444D01*
X924889D01*
Y5009333D01*
X921667D01*
Y5012555D01*
X918444D01*
Y5015778D01*
D02*
G37*
G36*
X886222D02*
X873333D01*
Y5012555D01*
X870111D01*
Y5009333D01*
X866889D01*
Y4996444D01*
X870111D01*
Y4993222D01*
X873333D01*
Y4990000D01*
X886222D01*
Y4993222D01*
X889444D01*
Y4996444D01*
X892666D01*
Y5009333D01*
X889444D01*
Y5012555D01*
X886222D01*
Y5015778D01*
D02*
G37*
G36*
X821778D02*
X808889D01*
Y5012555D01*
X805667D01*
Y5009333D01*
X802444D01*
Y5006111D01*
Y4996444D01*
X805667D01*
Y4993222D01*
X808889D01*
Y4990000D01*
X821778D01*
Y4993222D01*
X825000D01*
Y4996444D01*
X828222D01*
Y5009333D01*
X825000D01*
Y5012555D01*
X821778D01*
Y5015778D01*
D02*
G37*
G36*
X789555D02*
X776666D01*
Y5012555D01*
X773444D01*
Y5009333D01*
X770222D01*
Y4996444D01*
X773444D01*
Y4993222D01*
X776666D01*
Y4990000D01*
X789555D01*
Y4993222D01*
X792778D01*
Y4996444D01*
X796000D01*
Y5009333D01*
X792778D01*
Y5012555D01*
X789555D01*
Y5015778D01*
D02*
G37*
G36*
X757333D02*
X744444D01*
Y5012555D01*
X741222D01*
Y5009333D01*
X738000D01*
Y5006111D01*
Y5002889D01*
Y4996444D01*
X741222D01*
Y4993222D01*
X744444D01*
Y4990000D01*
X757333D01*
Y4993222D01*
X760556D01*
Y4996444D01*
X763778D01*
Y5009333D01*
X760556D01*
Y5012555D01*
X757333D01*
Y5015778D01*
D02*
G37*
G36*
X1401778Y4983555D02*
X1388889D01*
Y4980333D01*
X1385667D01*
Y4977111D01*
X1382444D01*
Y4973889D01*
Y4970666D01*
Y4964222D01*
X1385667D01*
Y4961000D01*
X1388889D01*
Y4957778D01*
X1401778D01*
Y4961000D01*
X1405000D01*
Y4964222D01*
X1408222D01*
Y4977111D01*
X1405000D01*
Y4980333D01*
X1401778D01*
Y4983555D01*
D02*
G37*
G36*
X1272889D02*
X1260000D01*
Y4980333D01*
X1256778D01*
Y4977111D01*
X1253556D01*
Y4964222D01*
X1256778D01*
Y4961000D01*
X1260000D01*
Y4957778D01*
X1272889D01*
Y4961000D01*
X1276111D01*
Y4964222D01*
X1279333D01*
Y4977111D01*
X1276111D01*
Y4980333D01*
X1272889D01*
Y4983555D01*
D02*
G37*
G36*
X1240667D02*
X1227778D01*
Y4980333D01*
X1224555D01*
Y4977111D01*
X1221333D01*
Y4964222D01*
X1224555D01*
Y4961000D01*
X1227778D01*
Y4957778D01*
X1240667D01*
Y4961000D01*
X1243889D01*
Y4964222D01*
X1247111D01*
Y4977111D01*
X1243889D01*
Y4980333D01*
X1240667D01*
Y4983555D01*
D02*
G37*
G36*
X1144000D02*
X1131111D01*
Y4980333D01*
X1127889D01*
Y4977111D01*
X1124667D01*
Y4973889D01*
Y4964222D01*
X1127889D01*
Y4961000D01*
X1131111D01*
Y4957778D01*
X1144000D01*
Y4961000D01*
X1147222D01*
Y4964222D01*
X1150444D01*
Y4977111D01*
X1147222D01*
Y4980333D01*
X1144000D01*
Y4983555D01*
D02*
G37*
G36*
X1111778D02*
X1098889D01*
Y4980333D01*
X1095667D01*
Y4977111D01*
X1092444D01*
Y4964222D01*
X1095667D01*
Y4961000D01*
X1098889D01*
Y4957778D01*
X1111778D01*
Y4961000D01*
X1115000D01*
Y4964222D01*
X1118222D01*
Y4977111D01*
X1115000D01*
Y4980333D01*
X1111778D01*
Y4983555D01*
D02*
G37*
G36*
X1079555D02*
X1066667D01*
Y4980333D01*
X1063444D01*
Y4977111D01*
X1060222D01*
Y4964222D01*
X1063444D01*
Y4961000D01*
X1066667D01*
Y4957778D01*
X1079555D01*
Y4961000D01*
X1082778D01*
Y4964222D01*
X1086000D01*
Y4977111D01*
X1082778D01*
Y4980333D01*
X1079555D01*
Y4983555D01*
D02*
G37*
G36*
X1015111D02*
X1002222D01*
Y4980333D01*
X999000D01*
Y4977111D01*
X995778D01*
Y4964222D01*
X999000D01*
Y4961000D01*
X1002222D01*
Y4957778D01*
X1015111D01*
Y4961000D01*
X1018333D01*
Y4964222D01*
X1021555D01*
Y4977111D01*
X1018333D01*
Y4980333D01*
X1015111D01*
Y4983555D01*
D02*
G37*
G36*
X982889D02*
X970000D01*
Y4980333D01*
X966778D01*
Y4977111D01*
X963555D01*
Y4964222D01*
X966778D01*
Y4961000D01*
X970000D01*
Y4957778D01*
X982889D01*
Y4961000D01*
X986111D01*
Y4964222D01*
X989333D01*
Y4977111D01*
X986111D01*
Y4980333D01*
X982889D01*
Y4983555D01*
D02*
G37*
G36*
X886222D02*
X873333D01*
Y4980333D01*
X870111D01*
Y4977111D01*
X866889D01*
Y4964222D01*
X870111D01*
Y4961000D01*
X873333D01*
Y4957778D01*
X886222D01*
Y4961000D01*
X889444D01*
Y4964222D01*
X892666D01*
Y4977111D01*
X889444D01*
Y4980333D01*
X886222D01*
Y4983555D01*
D02*
G37*
G36*
X854000D02*
X841111D01*
Y4980333D01*
X837889D01*
Y4977111D01*
X834667D01*
Y4964222D01*
X837889D01*
Y4961000D01*
X841111D01*
Y4957778D01*
X854000D01*
Y4961000D01*
X857222D01*
Y4964222D01*
X860444D01*
Y4977111D01*
X857222D01*
Y4980333D01*
X854000D01*
Y4983555D01*
D02*
G37*
G36*
X821778D02*
X808889D01*
Y4980333D01*
X805667D01*
Y4977111D01*
X802444D01*
Y4964222D01*
X805667D01*
Y4961000D01*
X808889D01*
Y4957778D01*
X821778D01*
Y4961000D01*
X825000D01*
Y4964222D01*
X828222D01*
Y4977111D01*
X825000D01*
Y4980333D01*
X821778D01*
Y4983555D01*
D02*
G37*
G36*
X757333D02*
X744444D01*
Y4980333D01*
X741222D01*
Y4977111D01*
X738000D01*
Y4973889D01*
Y4964222D01*
X741222D01*
Y4961000D01*
X744444D01*
Y4957778D01*
X757333D01*
Y4961000D01*
X760556D01*
Y4964222D01*
X763778D01*
Y4977111D01*
X760556D01*
Y4980333D01*
X757333D01*
Y4983555D01*
D02*
G37*
G36*
X1369556Y4951333D02*
X1356667D01*
Y4948111D01*
X1353444D01*
Y4944889D01*
X1350222D01*
Y4938444D01*
Y4935222D01*
Y4932000D01*
X1353444D01*
Y4928778D01*
X1356667D01*
Y4925556D01*
X1369556D01*
Y4928778D01*
X1372778D01*
Y4932000D01*
X1376000D01*
Y4944889D01*
X1372778D01*
Y4948111D01*
X1369556D01*
Y4951333D01*
D02*
G37*
G36*
X1208444D02*
X1195555D01*
Y4948111D01*
X1192333D01*
Y4944889D01*
X1189111D01*
Y4935222D01*
Y4932000D01*
X1192333D01*
Y4928778D01*
X1195555D01*
Y4925556D01*
X1208444D01*
Y4928778D01*
X1211667D01*
Y4932000D01*
X1214889D01*
Y4944889D01*
X1211667D01*
Y4948111D01*
X1208444D01*
Y4951333D01*
D02*
G37*
G36*
X1079555D02*
X1066667D01*
Y4948111D01*
X1063444D01*
Y4944889D01*
X1060222D01*
Y4938444D01*
Y4935222D01*
Y4932000D01*
X1063444D01*
Y4928778D01*
X1066667D01*
Y4925556D01*
X1079555D01*
Y4928778D01*
X1082778D01*
Y4932000D01*
X1086000D01*
Y4944889D01*
X1082778D01*
Y4948111D01*
X1079555D01*
Y4951333D01*
D02*
G37*
G36*
X1015111D02*
X1002222D01*
Y4948111D01*
X999000D01*
Y4944889D01*
X995778D01*
Y4932000D01*
X999000D01*
Y4928778D01*
X1002222D01*
Y4925556D01*
X1015111D01*
Y4928778D01*
X1018333D01*
Y4932000D01*
X1021555D01*
Y4944889D01*
X1018333D01*
Y4948111D01*
X1015111D01*
Y4951333D01*
D02*
G37*
G36*
X982889D02*
X970000D01*
Y4948111D01*
X966778D01*
Y4944889D01*
X963555D01*
Y4932000D01*
X966778D01*
Y4928778D01*
X970000D01*
Y4925556D01*
X982889D01*
Y4928778D01*
X986111D01*
Y4932000D01*
X989333D01*
Y4944889D01*
X986111D01*
Y4948111D01*
X982889D01*
Y4951333D01*
D02*
G37*
G36*
X918444D02*
X905555D01*
Y4948111D01*
X902333D01*
Y4944889D01*
X899111D01*
Y4932000D01*
X902333D01*
Y4928778D01*
X905555D01*
Y4925556D01*
X918444D01*
Y4928778D01*
X921667D01*
Y4932000D01*
X924889D01*
Y4944889D01*
X921667D01*
Y4948111D01*
X918444D01*
Y4951333D01*
D02*
G37*
G36*
X886222D02*
X873333D01*
Y4948111D01*
X870111D01*
Y4944889D01*
X866889D01*
Y4932000D01*
X870111D01*
Y4928778D01*
X873333D01*
Y4925556D01*
X886222D01*
Y4928778D01*
X889444D01*
Y4932000D01*
X892666D01*
Y4944889D01*
X889444D01*
Y4948111D01*
X886222D01*
Y4951333D01*
D02*
G37*
G36*
X821778D02*
X808889D01*
Y4948111D01*
X805667D01*
Y4944889D01*
X802444D01*
Y4932000D01*
X805667D01*
Y4928778D01*
X808889D01*
Y4925556D01*
X821778D01*
Y4928778D01*
X825000D01*
Y4932000D01*
X828222D01*
Y4944889D01*
X825000D01*
Y4948111D01*
X821778D01*
Y4951333D01*
D02*
G37*
G36*
X789555D02*
X776666D01*
Y4948111D01*
X773444D01*
Y4944889D01*
X770222D01*
Y4932000D01*
X773444D01*
Y4928778D01*
X776666D01*
Y4925556D01*
X789555D01*
Y4928778D01*
X792778D01*
Y4932000D01*
X796000D01*
Y4944889D01*
X792778D01*
Y4948111D01*
X789555D01*
Y4951333D01*
D02*
G37*
G36*
X757333D02*
X744444D01*
Y4948111D01*
X741222D01*
Y4944889D01*
X738000D01*
Y4932000D01*
X741222D01*
Y4928778D01*
X744444D01*
Y4925556D01*
X757333D01*
Y4928778D01*
X760556D01*
Y4932000D01*
X763778D01*
Y4944889D01*
X760556D01*
Y4948111D01*
X757333D01*
Y4951333D01*
D02*
G37*
G36*
X1401778Y4919111D02*
X1388889D01*
Y4915889D01*
X1385667D01*
Y4912667D01*
X1382444D01*
Y4909444D01*
Y4906222D01*
Y4899778D01*
X1385667D01*
Y4896555D01*
X1388889D01*
Y4893333D01*
X1401778D01*
Y4896555D01*
X1405000D01*
Y4899778D01*
X1408222D01*
Y4912667D01*
X1405000D01*
Y4915889D01*
X1401778D01*
Y4919111D01*
D02*
G37*
G36*
X1337333D02*
X1324444D01*
Y4915889D01*
X1321222D01*
Y4912667D01*
X1318000D01*
Y4899778D01*
X1321222D01*
Y4896555D01*
X1324444D01*
Y4893333D01*
X1337333D01*
Y4896555D01*
X1340555D01*
Y4899778D01*
X1343778D01*
Y4912667D01*
X1340555D01*
Y4915889D01*
X1337333D01*
Y4919111D01*
D02*
G37*
G36*
X1272889D02*
X1260000D01*
Y4915889D01*
X1256778D01*
Y4912667D01*
X1253556D01*
Y4909444D01*
Y4906222D01*
Y4899778D01*
X1256778D01*
Y4896555D01*
X1260000D01*
Y4893333D01*
X1272889D01*
Y4896555D01*
X1276111D01*
Y4899778D01*
X1279333D01*
Y4912667D01*
X1276111D01*
Y4915889D01*
X1272889D01*
Y4919111D01*
D02*
G37*
G36*
X1208444D02*
X1195555D01*
Y4915889D01*
X1192333D01*
Y4912667D01*
X1189111D01*
Y4899778D01*
X1192333D01*
Y4896555D01*
X1195555D01*
Y4893333D01*
X1208444D01*
Y4896555D01*
X1211667D01*
Y4899778D01*
X1214889D01*
Y4912667D01*
X1211667D01*
Y4915889D01*
X1208444D01*
Y4919111D01*
D02*
G37*
G36*
X1144000D02*
X1131111D01*
Y4915889D01*
X1127889D01*
Y4912667D01*
X1124667D01*
Y4899778D01*
X1127889D01*
Y4896555D01*
X1131111D01*
Y4893333D01*
X1144000D01*
Y4896555D01*
X1147222D01*
Y4899778D01*
X1150444D01*
Y4912667D01*
X1147222D01*
Y4915889D01*
X1144000D01*
Y4919111D01*
D02*
G37*
G36*
X1079555D02*
X1066667D01*
Y4915889D01*
X1063444D01*
Y4912667D01*
X1060222D01*
Y4899778D01*
X1063444D01*
Y4896555D01*
X1066667D01*
Y4893333D01*
X1079555D01*
Y4896555D01*
X1082778D01*
Y4899778D01*
X1086000D01*
Y4912667D01*
X1082778D01*
Y4915889D01*
X1079555D01*
Y4919111D01*
D02*
G37*
G36*
X1015111D02*
X1002222D01*
Y4915889D01*
X999000D01*
Y4912667D01*
X995778D01*
Y4899778D01*
X999000D01*
Y4896555D01*
X1002222D01*
Y4893333D01*
X1015111D01*
Y4896555D01*
X1018333D01*
Y4899778D01*
X1021555D01*
Y4912667D01*
X1018333D01*
Y4915889D01*
X1015111D01*
Y4919111D01*
D02*
G37*
G36*
X950667D02*
X937778D01*
Y4915889D01*
X934555D01*
Y4912667D01*
X931333D01*
Y4899778D01*
X934555D01*
Y4896555D01*
X937778D01*
Y4893333D01*
X950667D01*
Y4896555D01*
X953889D01*
Y4899778D01*
X957111D01*
Y4912667D01*
X953889D01*
Y4915889D01*
X950667D01*
Y4919111D01*
D02*
G37*
G36*
X886222D02*
X873333D01*
Y4915889D01*
X870111D01*
Y4912667D01*
X866889D01*
Y4899778D01*
X870111D01*
Y4896555D01*
X873333D01*
Y4893333D01*
X886222D01*
Y4896555D01*
X889444D01*
Y4899778D01*
X892666D01*
Y4912667D01*
X889444D01*
Y4915889D01*
X886222D01*
Y4919111D01*
D02*
G37*
G36*
X821778D02*
X808889D01*
Y4915889D01*
X805667D01*
Y4912667D01*
X802444D01*
Y4899778D01*
X805667D01*
Y4896555D01*
X808889D01*
Y4893333D01*
X821778D01*
Y4896555D01*
X825000D01*
Y4899778D01*
X828222D01*
Y4906222D01*
Y4909444D01*
Y4912667D01*
X825000D01*
Y4915889D01*
X821778D01*
Y4919111D01*
D02*
G37*
G36*
X757333D02*
X744444D01*
Y4915889D01*
X741222D01*
Y4912667D01*
X738000D01*
Y4899778D01*
X741222D01*
Y4896555D01*
X744444D01*
Y4893333D01*
X757333D01*
Y4896555D01*
X760556D01*
Y4899778D01*
X763778D01*
Y4912667D01*
X760556D01*
Y4915889D01*
X757333D01*
Y4919111D01*
D02*
G37*
G36*
X1646667Y5115666D02*
X1466222D01*
Y5112444D01*
X1459778D01*
Y5109222D01*
X1456555D01*
Y5106000D01*
X1453333D01*
Y5102778D01*
X1450111D01*
Y5099555D01*
X1446889D01*
Y5093111D01*
X1443667D01*
Y4912667D01*
X1446889D01*
Y4906222D01*
X1450111D01*
Y4903000D01*
X1453333D01*
Y4899778D01*
X1456555D01*
Y4896555D01*
X1459778D01*
Y4893333D01*
X1466222D01*
Y4890111D01*
X1646667D01*
Y4893333D01*
X1653111D01*
Y4896555D01*
X1656333D01*
Y4899778D01*
X1659555D01*
Y4903000D01*
X1662778D01*
Y4906222D01*
X1666000D01*
Y4912667D01*
X1669222D01*
Y4948111D01*
Y4951333D01*
Y5093111D01*
X1666000D01*
Y5099555D01*
X1662778D01*
Y5102778D01*
X1659555D01*
Y5106000D01*
X1656333D01*
Y5109222D01*
X1653111D01*
Y5112444D01*
X1646667D01*
Y5115666D01*
D02*
G37*
G36*
X680000D02*
X499556D01*
Y5112444D01*
X493111D01*
Y5109222D01*
X489889D01*
Y5106000D01*
X486667D01*
Y5102778D01*
X483444D01*
Y5099555D01*
X480222D01*
Y5093111D01*
X477000D01*
Y4912667D01*
X480222D01*
Y4906222D01*
X483444D01*
Y4903000D01*
X486667D01*
Y4899778D01*
X489889D01*
Y4896555D01*
X493111D01*
Y4893333D01*
X499556D01*
Y4890111D01*
X680000D01*
Y4893333D01*
X686444D01*
Y4896555D01*
X689667D01*
Y4899778D01*
X692889D01*
Y4903000D01*
X696111D01*
Y4906222D01*
X699333D01*
Y4915889D01*
X702555D01*
Y5015778D01*
Y5019000D01*
Y5093111D01*
X699333D01*
Y5099555D01*
X696111D01*
Y5102778D01*
X692889D01*
Y5106000D01*
X689667D01*
Y5109222D01*
X686444D01*
Y5112444D01*
X680000D01*
Y5115666D01*
D02*
G37*
G36*
X1401778Y4886889D02*
X1388889D01*
Y4883667D01*
X1385667D01*
Y4880444D01*
X1382444D01*
Y4867555D01*
X1385667D01*
Y4864333D01*
X1388889D01*
Y4861111D01*
X1401778D01*
Y4864333D01*
X1405000D01*
Y4867555D01*
X1408222D01*
Y4880444D01*
X1405000D01*
Y4883667D01*
X1401778D01*
Y4886889D01*
D02*
G37*
G36*
X1337333D02*
X1324444D01*
Y4883667D01*
X1321222D01*
Y4880444D01*
X1318000D01*
Y4867555D01*
X1321222D01*
Y4864333D01*
X1324444D01*
Y4861111D01*
X1337333D01*
Y4864333D01*
X1340555D01*
Y4867555D01*
X1343778D01*
Y4880444D01*
X1340555D01*
Y4883667D01*
X1337333D01*
Y4886889D01*
D02*
G37*
G36*
X1015111D02*
X1002222D01*
Y4883667D01*
X999000D01*
Y4880444D01*
X995778D01*
Y4867555D01*
X999000D01*
Y4864333D01*
X1002222D01*
Y4861111D01*
X1015111D01*
Y4864333D01*
X1018333D01*
Y4867555D01*
X1021555D01*
Y4880444D01*
X1018333D01*
Y4883667D01*
X1015111D01*
Y4886889D01*
D02*
G37*
G36*
X982889D02*
X970000D01*
Y4883667D01*
X966778D01*
Y4880444D01*
X963555D01*
Y4867555D01*
X966778D01*
Y4864333D01*
X970000D01*
Y4861111D01*
X982889D01*
Y4864333D01*
X986111D01*
Y4867555D01*
X989333D01*
Y4880444D01*
X986111D01*
Y4883667D01*
X982889D01*
Y4886889D01*
D02*
G37*
G36*
X886222D02*
X873333D01*
Y4883667D01*
X870111D01*
Y4880444D01*
X866889D01*
Y4867555D01*
X870111D01*
Y4864333D01*
X873333D01*
Y4861111D01*
X886222D01*
Y4864333D01*
X889444D01*
Y4867555D01*
X892666D01*
Y4874000D01*
Y4877222D01*
Y4880444D01*
X889444D01*
Y4883667D01*
X886222D01*
Y4886889D01*
D02*
G37*
G36*
X757333D02*
X744444D01*
Y4883667D01*
X741222D01*
Y4880444D01*
X738000D01*
Y4867555D01*
X741222D01*
Y4864333D01*
X744444D01*
Y4861111D01*
X757333D01*
Y4864333D01*
X760556D01*
Y4867555D01*
X763778D01*
Y4880444D01*
X760556D01*
Y4883667D01*
X757333D01*
Y4886889D01*
D02*
G37*
G36*
X1595111Y4854666D02*
X1582222D01*
Y4851444D01*
X1579000D01*
Y4848222D01*
X1575778D01*
Y4845000D01*
Y4841778D01*
Y4835333D01*
X1579000D01*
Y4832111D01*
X1582222D01*
Y4828889D01*
X1595111D01*
Y4832111D01*
X1598333D01*
Y4835333D01*
X1601555D01*
Y4848222D01*
X1598333D01*
Y4851444D01*
X1595111D01*
Y4854666D01*
D02*
G37*
G36*
X1562889D02*
X1550000D01*
Y4851444D01*
X1546778D01*
Y4848222D01*
X1543555D01*
Y4835333D01*
X1546778D01*
Y4832111D01*
X1550000D01*
Y4828889D01*
X1562889D01*
Y4832111D01*
X1566111D01*
Y4835333D01*
X1569333D01*
Y4848222D01*
X1566111D01*
Y4851444D01*
X1562889D01*
Y4854666D01*
D02*
G37*
G36*
X1530666D02*
X1517778D01*
Y4851444D01*
X1514556D01*
Y4848222D01*
X1511333D01*
Y4835333D01*
X1514556D01*
Y4832111D01*
X1517778D01*
Y4828889D01*
X1530666D01*
Y4832111D01*
X1533889D01*
Y4835333D01*
X1537111D01*
Y4848222D01*
X1533889D01*
Y4851444D01*
X1530666D01*
Y4854666D01*
D02*
G37*
G36*
X1498444D02*
X1485555D01*
Y4851444D01*
X1482333D01*
Y4848222D01*
X1479111D01*
Y4835333D01*
X1482333D01*
Y4832111D01*
X1485555D01*
Y4828889D01*
X1498444D01*
Y4832111D01*
X1501667D01*
Y4835333D01*
X1504889D01*
Y4845000D01*
Y4848222D01*
X1501667D01*
Y4851444D01*
X1498444D01*
Y4854666D01*
D02*
G37*
G36*
X1466222D02*
X1453333D01*
Y4851444D01*
X1450111D01*
Y4848222D01*
X1446889D01*
Y4835333D01*
X1450111D01*
Y4832111D01*
X1453333D01*
Y4828889D01*
X1466222D01*
Y4832111D01*
X1469444D01*
Y4835333D01*
X1472667D01*
Y4848222D01*
X1469444D01*
Y4851444D01*
X1466222D01*
Y4854666D01*
D02*
G37*
G36*
X1401778D02*
X1388889D01*
Y4851444D01*
X1385667D01*
Y4848222D01*
X1382444D01*
Y4838555D01*
Y4835333D01*
X1385667D01*
Y4832111D01*
X1388889D01*
Y4828889D01*
X1401778D01*
Y4832111D01*
X1405000D01*
Y4835333D01*
X1408222D01*
Y4848222D01*
X1405000D01*
Y4851444D01*
X1401778D01*
Y4854666D01*
D02*
G37*
G36*
X1272889D02*
X1260000D01*
Y4851444D01*
X1256778D01*
Y4848222D01*
X1253556D01*
Y4835333D01*
X1256778D01*
Y4832111D01*
X1260000D01*
Y4828889D01*
X1272889D01*
Y4832111D01*
X1276111D01*
Y4835333D01*
X1279333D01*
Y4848222D01*
X1276111D01*
Y4851444D01*
X1272889D01*
Y4854666D01*
D02*
G37*
G36*
X1240667D02*
X1227778D01*
Y4851444D01*
X1224555D01*
Y4848222D01*
X1221333D01*
Y4841778D01*
Y4838555D01*
Y4835333D01*
X1224555D01*
Y4832111D01*
X1227778D01*
Y4828889D01*
X1240667D01*
Y4832111D01*
X1243889D01*
Y4835333D01*
X1247111D01*
Y4848222D01*
X1243889D01*
Y4851444D01*
X1240667D01*
Y4854666D01*
D02*
G37*
G36*
X1208444D02*
X1195555D01*
Y4851444D01*
X1192333D01*
Y4848222D01*
X1189111D01*
Y4835333D01*
X1192333D01*
Y4832111D01*
X1195555D01*
Y4828889D01*
X1208444D01*
Y4832111D01*
X1211667D01*
Y4835333D01*
X1214889D01*
Y4848222D01*
X1211667D01*
Y4851444D01*
X1208444D01*
Y4854666D01*
D02*
G37*
G36*
X1176222D02*
X1163333D01*
Y4851444D01*
X1160111D01*
Y4848222D01*
X1156889D01*
Y4835333D01*
X1160111D01*
Y4832111D01*
X1163333D01*
Y4828889D01*
X1176222D01*
Y4832111D01*
X1179444D01*
Y4835333D01*
X1182667D01*
Y4838555D01*
Y4841778D01*
Y4848222D01*
X1179444D01*
Y4851444D01*
X1176222D01*
Y4854666D01*
D02*
G37*
G36*
X1144000D02*
X1131111D01*
Y4851444D01*
X1127889D01*
Y4848222D01*
X1124667D01*
Y4835333D01*
X1127889D01*
Y4832111D01*
X1131111D01*
Y4828889D01*
X1144000D01*
Y4832111D01*
X1147222D01*
Y4835333D01*
X1150444D01*
Y4848222D01*
X1147222D01*
Y4851444D01*
X1144000D01*
Y4854666D01*
D02*
G37*
G36*
X1111778D02*
X1098889D01*
Y4851444D01*
X1095667D01*
Y4848222D01*
X1092444D01*
Y4835333D01*
X1095667D01*
Y4832111D01*
X1098889D01*
Y4828889D01*
X1111778D01*
Y4832111D01*
X1115000D01*
Y4835333D01*
X1118222D01*
Y4848222D01*
X1115000D01*
Y4851444D01*
X1111778D01*
Y4854666D01*
D02*
G37*
G36*
X1079555D02*
X1066667D01*
Y4851444D01*
X1063444D01*
Y4848222D01*
X1060222D01*
Y4835333D01*
X1063444D01*
Y4832111D01*
X1066667D01*
Y4828889D01*
X1079555D01*
Y4832111D01*
X1082778D01*
Y4835333D01*
X1086000D01*
Y4848222D01*
X1082778D01*
Y4851444D01*
X1079555D01*
Y4854666D01*
D02*
G37*
G36*
X950667D02*
X937778D01*
Y4851444D01*
X934555D01*
Y4848222D01*
X931333D01*
Y4835333D01*
X934555D01*
Y4832111D01*
X937778D01*
Y4828889D01*
X950667D01*
Y4832111D01*
X953889D01*
Y4835333D01*
X957111D01*
Y4848222D01*
X953889D01*
Y4851444D01*
X950667D01*
Y4854666D01*
D02*
G37*
G36*
X918444D02*
X905555D01*
Y4851444D01*
X902333D01*
Y4848222D01*
X899111D01*
Y4835333D01*
X902333D01*
Y4832111D01*
X905555D01*
Y4828889D01*
X918444D01*
Y4832111D01*
X921667D01*
Y4835333D01*
X924889D01*
Y4848222D01*
X921667D01*
Y4851444D01*
X918444D01*
Y4854666D01*
D02*
G37*
G36*
X854000D02*
X841111D01*
Y4851444D01*
X837889D01*
Y4848222D01*
X834667D01*
Y4835333D01*
X837889D01*
Y4832111D01*
X841111D01*
Y4828889D01*
X854000D01*
Y4832111D01*
X857222D01*
Y4835333D01*
X860444D01*
Y4848222D01*
X857222D01*
Y4851444D01*
X854000D01*
Y4854666D01*
D02*
G37*
G36*
X789555D02*
X776666D01*
Y4851444D01*
X773444D01*
Y4848222D01*
X770222D01*
Y4835333D01*
X773444D01*
Y4832111D01*
X776666D01*
Y4828889D01*
X789555D01*
Y4832111D01*
X792778D01*
Y4835333D01*
X796000D01*
Y4848222D01*
X792778D01*
Y4851444D01*
X789555D01*
Y4854666D01*
D02*
G37*
G36*
X692889D02*
X680000D01*
Y4851444D01*
X676778D01*
Y4848222D01*
X673555D01*
Y4835333D01*
X676778D01*
Y4832111D01*
X680000D01*
Y4828889D01*
X692889D01*
Y4832111D01*
X696111D01*
Y4835333D01*
X699333D01*
Y4848222D01*
X696111D01*
Y4851444D01*
X692889D01*
Y4854666D01*
D02*
G37*
G36*
X660667D02*
X647778D01*
Y4851444D01*
X644555D01*
Y4848222D01*
X641333D01*
Y4835333D01*
X644555D01*
Y4832111D01*
X647778D01*
Y4828889D01*
X660667D01*
Y4832111D01*
X663889D01*
Y4835333D01*
X667111D01*
Y4848222D01*
X663889D01*
Y4851444D01*
X660667D01*
Y4854666D01*
D02*
G37*
G36*
X628444D02*
X615556D01*
Y4851444D01*
X612333D01*
Y4848222D01*
X609111D01*
Y4835333D01*
X612333D01*
Y4832111D01*
X615556D01*
Y4828889D01*
X628444D01*
Y4832111D01*
X631667D01*
Y4835333D01*
X634889D01*
Y4848222D01*
X631667D01*
Y4851444D01*
X628444D01*
Y4854666D01*
D02*
G37*
G36*
X596222D02*
X583333D01*
Y4851444D01*
X580111D01*
Y4848222D01*
X576889D01*
Y4835333D01*
X580111D01*
Y4832111D01*
X583333D01*
Y4828889D01*
X596222D01*
Y4832111D01*
X599444D01*
Y4835333D01*
X602667D01*
Y4848222D01*
X599444D01*
Y4851444D01*
X596222D01*
Y4854666D01*
D02*
G37*
G36*
X564000D02*
X551111D01*
Y4851444D01*
X547889D01*
Y4848222D01*
X544667D01*
Y4835333D01*
X547889D01*
Y4832111D01*
X551111D01*
Y4828889D01*
X564000D01*
Y4832111D01*
X567222D01*
Y4835333D01*
X570444D01*
Y4848222D01*
X567222D01*
Y4851444D01*
X564000D01*
Y4854666D01*
D02*
G37*
G36*
X499556D02*
X486667D01*
Y4851444D01*
X483444D01*
Y4848222D01*
X480222D01*
Y4835333D01*
X483444D01*
Y4832111D01*
X486667D01*
Y4828889D01*
X499556D01*
Y4832111D01*
X502778D01*
Y4835333D01*
X506000D01*
Y4838555D01*
Y4848222D01*
X502778D01*
Y4851444D01*
X499556D01*
Y4854666D01*
D02*
G37*
G36*
X1627333Y4822444D02*
X1614444D01*
Y4819222D01*
X1611222D01*
Y4816000D01*
X1608000D01*
Y4803111D01*
X1611222D01*
Y4799889D01*
X1614444D01*
Y4796667D01*
X1627333D01*
Y4799889D01*
X1630556D01*
Y4803111D01*
X1633778D01*
Y4816000D01*
X1630556D01*
Y4819222D01*
X1627333D01*
Y4822444D01*
D02*
G37*
G36*
X1595111D02*
X1582222D01*
Y4819222D01*
X1579000D01*
Y4816000D01*
X1575778D01*
Y4803111D01*
X1579000D01*
Y4799889D01*
X1582222D01*
Y4796667D01*
X1595111D01*
Y4799889D01*
X1598333D01*
Y4803111D01*
X1601555D01*
Y4816000D01*
X1598333D01*
Y4819222D01*
X1595111D01*
Y4822444D01*
D02*
G37*
G36*
X1466222D02*
X1453333D01*
Y4819222D01*
X1450111D01*
Y4816000D01*
X1446889D01*
Y4803111D01*
X1450111D01*
Y4799889D01*
X1453333D01*
Y4796667D01*
X1466222D01*
Y4799889D01*
X1469444D01*
Y4803111D01*
X1472667D01*
Y4809556D01*
Y4812778D01*
Y4816000D01*
X1469444D01*
Y4819222D01*
X1466222D01*
Y4822444D01*
D02*
G37*
G36*
X1434000D02*
X1421111D01*
Y4819222D01*
X1417889D01*
Y4816000D01*
X1414666D01*
Y4803111D01*
X1417889D01*
Y4799889D01*
X1421111D01*
Y4796667D01*
X1434000D01*
Y4799889D01*
X1437222D01*
Y4803111D01*
X1440444D01*
Y4806333D01*
Y4809556D01*
Y4816000D01*
X1437222D01*
Y4819222D01*
X1434000D01*
Y4822444D01*
D02*
G37*
G36*
X1369556D02*
X1356667D01*
Y4819222D01*
X1353444D01*
Y4816000D01*
X1350222D01*
Y4803111D01*
X1353444D01*
Y4799889D01*
X1356667D01*
Y4796667D01*
X1369556D01*
Y4799889D01*
X1372778D01*
Y4803111D01*
X1376000D01*
Y4816000D01*
X1372778D01*
Y4819222D01*
X1369556D01*
Y4822444D01*
D02*
G37*
G36*
X1337333D02*
X1324444D01*
Y4819222D01*
X1321222D01*
Y4816000D01*
X1318000D01*
Y4803111D01*
X1321222D01*
Y4799889D01*
X1324444D01*
Y4796667D01*
X1337333D01*
Y4799889D01*
X1340555D01*
Y4803111D01*
X1343778D01*
Y4816000D01*
X1340555D01*
Y4819222D01*
X1337333D01*
Y4822444D01*
D02*
G37*
G36*
X1047333D02*
X1034444D01*
Y4819222D01*
X1031222D01*
Y4816000D01*
X1028000D01*
Y4803111D01*
X1031222D01*
Y4799889D01*
X1034444D01*
Y4796667D01*
X1047333D01*
Y4799889D01*
X1050555D01*
Y4803111D01*
X1053778D01*
Y4816000D01*
X1050555D01*
Y4819222D01*
X1047333D01*
Y4822444D01*
D02*
G37*
G36*
X1015111D02*
X1002222D01*
Y4819222D01*
X999000D01*
Y4816000D01*
X995778D01*
Y4803111D01*
X999000D01*
Y4799889D01*
X1002222D01*
Y4796667D01*
X1015111D01*
Y4799889D01*
X1018333D01*
Y4803111D01*
X1021555D01*
Y4806333D01*
Y4809556D01*
Y4816000D01*
X1018333D01*
Y4819222D01*
X1015111D01*
Y4822444D01*
D02*
G37*
G36*
X982889D02*
X970000D01*
Y4819222D01*
X966778D01*
Y4816000D01*
X963555D01*
Y4803111D01*
X966778D01*
Y4799889D01*
X970000D01*
Y4796667D01*
X982889D01*
Y4799889D01*
X986111D01*
Y4803111D01*
X989333D01*
Y4816000D01*
X986111D01*
Y4819222D01*
X982889D01*
Y4822444D01*
D02*
G37*
G36*
X950667D02*
X937778D01*
Y4819222D01*
X934555D01*
Y4816000D01*
X931333D01*
Y4803111D01*
X934555D01*
Y4799889D01*
X937778D01*
Y4796667D01*
X950667D01*
Y4799889D01*
X953889D01*
Y4803111D01*
X957111D01*
Y4816000D01*
X953889D01*
Y4819222D01*
X950667D01*
Y4822444D01*
D02*
G37*
G36*
X886222D02*
X873333D01*
Y4819222D01*
X870111D01*
Y4816000D01*
X866889D01*
Y4803111D01*
X870111D01*
Y4799889D01*
X873333D01*
Y4796667D01*
X886222D01*
Y4799889D01*
X889444D01*
Y4803111D01*
X892666D01*
Y4812778D01*
Y4816000D01*
X889444D01*
Y4819222D01*
X886222D01*
Y4822444D01*
D02*
G37*
G36*
X821778D02*
X808889D01*
Y4819222D01*
X805667D01*
Y4816000D01*
X802444D01*
Y4803111D01*
X805667D01*
Y4799889D01*
X808889D01*
Y4796667D01*
X821778D01*
Y4799889D01*
X825000D01*
Y4803111D01*
X828222D01*
Y4816000D01*
X825000D01*
Y4819222D01*
X821778D01*
Y4822444D01*
D02*
G37*
G36*
X789555D02*
X776666D01*
Y4819222D01*
X773444D01*
Y4816000D01*
X770222D01*
Y4803111D01*
X773444D01*
Y4799889D01*
X776666D01*
Y4796667D01*
X789555D01*
Y4799889D01*
X792778D01*
Y4803111D01*
X796000D01*
Y4816000D01*
X792778D01*
Y4819222D01*
X789555D01*
Y4822444D01*
D02*
G37*
G36*
X757333D02*
X744444D01*
Y4819222D01*
X741222D01*
Y4816000D01*
X738000D01*
Y4803111D01*
X741222D01*
Y4799889D01*
X744444D01*
Y4796667D01*
X757333D01*
Y4799889D01*
X760556D01*
Y4803111D01*
X763778D01*
Y4812778D01*
Y4816000D01*
X760556D01*
Y4819222D01*
X757333D01*
Y4822444D01*
D02*
G37*
G36*
X725111D02*
X712222D01*
Y4819222D01*
X709000D01*
Y4816000D01*
X705778D01*
Y4803111D01*
X709000D01*
Y4799889D01*
X712222D01*
Y4796667D01*
X725111D01*
Y4799889D01*
X728333D01*
Y4803111D01*
X731556D01*
Y4816000D01*
X728333D01*
Y4819222D01*
X725111D01*
Y4822444D01*
D02*
G37*
G36*
X660667D02*
X647778D01*
Y4819222D01*
X644555D01*
Y4816000D01*
X641333D01*
Y4803111D01*
X644555D01*
Y4799889D01*
X647778D01*
Y4796667D01*
X660667D01*
Y4799889D01*
X663889D01*
Y4803111D01*
X667111D01*
Y4816000D01*
X663889D01*
Y4819222D01*
X660667D01*
Y4822444D01*
D02*
G37*
G36*
X1659555Y4790222D02*
X1646667D01*
Y4787000D01*
X1643444D01*
Y4783778D01*
X1640222D01*
Y4770889D01*
X1643444D01*
Y4767667D01*
X1646667D01*
Y4764444D01*
X1659555D01*
Y4767667D01*
X1662778D01*
Y4770889D01*
X1666000D01*
Y4783778D01*
X1662778D01*
Y4787000D01*
X1659555D01*
Y4790222D01*
D02*
G37*
G36*
X1627333D02*
X1614444D01*
Y4787000D01*
X1611222D01*
Y4783778D01*
X1608000D01*
Y4770889D01*
X1611222D01*
Y4767667D01*
X1614444D01*
Y4764444D01*
X1627333D01*
Y4767667D01*
X1630556D01*
Y4770889D01*
X1633778D01*
Y4783778D01*
X1630556D01*
Y4787000D01*
X1627333D01*
Y4790222D01*
D02*
G37*
G36*
X1595111D02*
X1582222D01*
Y4787000D01*
X1579000D01*
Y4783778D01*
X1575778D01*
Y4770889D01*
X1579000D01*
Y4767667D01*
X1582222D01*
Y4764444D01*
X1595111D01*
Y4767667D01*
X1598333D01*
Y4770889D01*
X1601555D01*
Y4783778D01*
X1598333D01*
Y4787000D01*
X1595111D01*
Y4790222D01*
D02*
G37*
G36*
X1498444D02*
X1485555D01*
Y4787000D01*
X1482333D01*
Y4783778D01*
X1479111D01*
Y4770889D01*
X1482333D01*
Y4767667D01*
X1485555D01*
Y4764444D01*
X1498444D01*
Y4767667D01*
X1501667D01*
Y4770889D01*
X1504889D01*
Y4783778D01*
X1501667D01*
Y4787000D01*
X1498444D01*
Y4790222D01*
D02*
G37*
G36*
X1466222D02*
X1453333D01*
Y4787000D01*
X1450111D01*
Y4783778D01*
X1446889D01*
Y4770889D01*
X1450111D01*
Y4767667D01*
X1453333D01*
Y4764444D01*
X1466222D01*
Y4767667D01*
X1469444D01*
Y4770889D01*
X1472667D01*
Y4783778D01*
X1469444D01*
Y4787000D01*
X1466222D01*
Y4790222D01*
D02*
G37*
G36*
X1434000D02*
X1421111D01*
Y4787000D01*
X1417889D01*
Y4783778D01*
X1414666D01*
Y4770889D01*
X1417889D01*
Y4767667D01*
X1421111D01*
Y4764444D01*
X1434000D01*
Y4767667D01*
X1437222D01*
Y4770889D01*
X1440444D01*
Y4783778D01*
X1437222D01*
Y4787000D01*
X1434000D01*
Y4790222D01*
D02*
G37*
G36*
X1401778D02*
X1388889D01*
Y4787000D01*
X1385667D01*
Y4783778D01*
X1382444D01*
Y4770889D01*
X1385667D01*
Y4767667D01*
X1388889D01*
Y4764444D01*
X1401778D01*
Y4767667D01*
X1405000D01*
Y4770889D01*
X1408222D01*
Y4777333D01*
Y4780555D01*
Y4783778D01*
X1405000D01*
Y4787000D01*
X1401778D01*
Y4790222D01*
D02*
G37*
G36*
X1369556D02*
X1356667D01*
Y4787000D01*
X1353444D01*
Y4783778D01*
X1350222D01*
Y4770889D01*
X1353444D01*
Y4767667D01*
X1356667D01*
Y4764444D01*
X1369556D01*
Y4767667D01*
X1372778D01*
Y4770889D01*
X1376000D01*
Y4783778D01*
X1372778D01*
Y4787000D01*
X1369556D01*
Y4790222D01*
D02*
G37*
G36*
X1337333D02*
X1324444D01*
Y4787000D01*
X1321222D01*
Y4783778D01*
X1318000D01*
Y4770889D01*
X1321222D01*
Y4767667D01*
X1324444D01*
Y4764444D01*
X1337333D01*
Y4767667D01*
X1340555D01*
Y4770889D01*
X1343778D01*
Y4783778D01*
X1340555D01*
Y4787000D01*
X1337333D01*
Y4790222D01*
D02*
G37*
G36*
X1272889D02*
X1260000D01*
Y4787000D01*
X1256778D01*
Y4783778D01*
X1253556D01*
Y4770889D01*
X1256778D01*
Y4767667D01*
X1260000D01*
Y4764444D01*
X1272889D01*
Y4767667D01*
X1276111D01*
Y4770889D01*
X1279333D01*
Y4783778D01*
X1276111D01*
Y4787000D01*
X1272889D01*
Y4790222D01*
D02*
G37*
G36*
X1240667D02*
X1227778D01*
Y4787000D01*
X1224555D01*
Y4783778D01*
X1221333D01*
Y4770889D01*
X1224555D01*
Y4767667D01*
X1227778D01*
Y4764444D01*
X1240667D01*
Y4767667D01*
X1243889D01*
Y4770889D01*
X1247111D01*
Y4783778D01*
X1243889D01*
Y4787000D01*
X1240667D01*
Y4790222D01*
D02*
G37*
G36*
X1176222D02*
X1163333D01*
Y4787000D01*
X1160111D01*
Y4783778D01*
X1156889D01*
Y4770889D01*
X1160111D01*
Y4767667D01*
X1163333D01*
Y4764444D01*
X1176222D01*
Y4767667D01*
X1179444D01*
Y4770889D01*
X1182667D01*
Y4774111D01*
Y4783778D01*
X1179444D01*
Y4787000D01*
X1176222D01*
Y4790222D01*
D02*
G37*
G36*
X1144000D02*
X1131111D01*
Y4787000D01*
X1127889D01*
Y4783778D01*
X1124667D01*
Y4770889D01*
X1127889D01*
Y4767667D01*
X1131111D01*
Y4764444D01*
X1144000D01*
Y4767667D01*
X1147222D01*
Y4770889D01*
X1150444D01*
Y4783778D01*
X1147222D01*
Y4787000D01*
X1144000D01*
Y4790222D01*
D02*
G37*
G36*
X950667D02*
X937778D01*
Y4787000D01*
X934555D01*
Y4783778D01*
X931333D01*
Y4770889D01*
X934555D01*
Y4767667D01*
X937778D01*
Y4764444D01*
X950667D01*
Y4767667D01*
X953889D01*
Y4770889D01*
X957111D01*
Y4783778D01*
X953889D01*
Y4787000D01*
X950667D01*
Y4790222D01*
D02*
G37*
G36*
X757333D02*
X744444D01*
Y4787000D01*
X741222D01*
Y4783778D01*
X738000D01*
Y4770889D01*
X741222D01*
Y4767667D01*
X744444D01*
Y4764444D01*
X757333D01*
Y4767667D01*
X760556D01*
Y4770889D01*
X763778D01*
Y4783778D01*
X760556D01*
Y4787000D01*
X757333D01*
Y4790222D01*
D02*
G37*
G36*
X725111D02*
X712222D01*
Y4787000D01*
X709000D01*
Y4783778D01*
X705778D01*
Y4770889D01*
X709000D01*
Y4767667D01*
X712222D01*
Y4764444D01*
X725111D01*
Y4767667D01*
X728333D01*
Y4770889D01*
X731556D01*
Y4783778D01*
X728333D01*
Y4787000D01*
X725111D01*
Y4790222D01*
D02*
G37*
G36*
X692889D02*
X680000D01*
Y4787000D01*
X676778D01*
Y4783778D01*
X673555D01*
Y4777333D01*
Y4774111D01*
Y4770889D01*
X676778D01*
Y4767667D01*
X680000D01*
Y4764444D01*
X692889D01*
Y4767667D01*
X696111D01*
Y4770889D01*
X699333D01*
Y4783778D01*
X696111D01*
Y4787000D01*
X692889D01*
Y4790222D01*
D02*
G37*
G36*
X596222D02*
X583333D01*
Y4787000D01*
X580111D01*
Y4783778D01*
X576889D01*
Y4780555D01*
Y4777333D01*
Y4770889D01*
X580111D01*
Y4767667D01*
X583333D01*
Y4764444D01*
X596222D01*
Y4767667D01*
X599444D01*
Y4770889D01*
X602667D01*
Y4783778D01*
X599444D01*
Y4787000D01*
X596222D01*
Y4790222D01*
D02*
G37*
G36*
X499556D02*
X486667D01*
Y4787000D01*
X483444D01*
Y4783778D01*
X480222D01*
Y4770889D01*
X483444D01*
Y4767667D01*
X486667D01*
Y4764444D01*
X499556D01*
Y4767667D01*
X502778D01*
Y4770889D01*
X506000D01*
Y4783778D01*
X502778D01*
Y4787000D01*
X499556D01*
Y4790222D01*
D02*
G37*
G36*
X1659555Y4758000D02*
X1646667D01*
Y4754778D01*
X1643444D01*
Y4751555D01*
X1640222D01*
Y4738667D01*
X1643444D01*
Y4735444D01*
X1646667D01*
Y4732222D01*
X1659555D01*
Y4735444D01*
X1662778D01*
Y4738667D01*
X1666000D01*
Y4751555D01*
X1662778D01*
Y4754778D01*
X1659555D01*
Y4758000D01*
D02*
G37*
G36*
X1562889D02*
X1550000D01*
Y4754778D01*
X1546778D01*
Y4751555D01*
X1543555D01*
Y4738667D01*
X1546778D01*
Y4735444D01*
X1550000D01*
Y4732222D01*
X1562889D01*
Y4735444D01*
X1566111D01*
Y4738667D01*
X1569333D01*
Y4751555D01*
X1566111D01*
Y4754778D01*
X1562889D01*
Y4758000D01*
D02*
G37*
G36*
X1434000D02*
X1421111D01*
Y4754778D01*
X1417889D01*
Y4751555D01*
X1414666D01*
Y4738667D01*
X1417889D01*
Y4735444D01*
X1421111D01*
Y4732222D01*
X1434000D01*
Y4735444D01*
X1437222D01*
Y4738667D01*
X1440444D01*
Y4751555D01*
X1437222D01*
Y4754778D01*
X1434000D01*
Y4758000D01*
D02*
G37*
G36*
X1369556D02*
X1356667D01*
Y4754778D01*
X1353444D01*
Y4751555D01*
X1350222D01*
Y4738667D01*
X1353444D01*
Y4735444D01*
X1356667D01*
Y4732222D01*
X1369556D01*
Y4735444D01*
X1372778D01*
Y4738667D01*
X1376000D01*
Y4751555D01*
X1372778D01*
Y4754778D01*
X1369556D01*
Y4758000D01*
D02*
G37*
G36*
X1337333D02*
X1324444D01*
Y4754778D01*
X1321222D01*
Y4751555D01*
X1318000D01*
Y4738667D01*
X1321222D01*
Y4735444D01*
X1324444D01*
Y4732222D01*
X1337333D01*
Y4735444D01*
X1340555D01*
Y4738667D01*
X1343778D01*
Y4751555D01*
X1340555D01*
Y4754778D01*
X1337333D01*
Y4758000D01*
D02*
G37*
G36*
X1240667D02*
X1227778D01*
Y4754778D01*
X1224555D01*
Y4751555D01*
X1221333D01*
Y4738667D01*
X1224555D01*
Y4735444D01*
X1227778D01*
Y4732222D01*
X1240667D01*
Y4735444D01*
X1243889D01*
Y4738667D01*
X1247111D01*
Y4745111D01*
Y4748333D01*
Y4751555D01*
X1243889D01*
Y4754778D01*
X1240667D01*
Y4758000D01*
D02*
G37*
G36*
X1208444D02*
X1195555D01*
Y4754778D01*
X1192333D01*
Y4751555D01*
X1189111D01*
Y4745111D01*
Y4741889D01*
Y4738667D01*
X1192333D01*
Y4735444D01*
X1195555D01*
Y4732222D01*
X1208444D01*
Y4735444D01*
X1211667D01*
Y4738667D01*
X1214889D01*
Y4751555D01*
X1211667D01*
Y4754778D01*
X1208444D01*
Y4758000D01*
D02*
G37*
G36*
X1176222D02*
X1163333D01*
Y4754778D01*
X1160111D01*
Y4751555D01*
X1156889D01*
Y4738667D01*
X1160111D01*
Y4735444D01*
X1163333D01*
Y4732222D01*
X1176222D01*
Y4735444D01*
X1179444D01*
Y4738667D01*
X1182667D01*
Y4751555D01*
X1179444D01*
Y4754778D01*
X1176222D01*
Y4758000D01*
D02*
G37*
G36*
X1015111D02*
X1002222D01*
Y4754778D01*
X999000D01*
Y4751555D01*
X995778D01*
Y4738667D01*
X999000D01*
Y4735444D01*
X1002222D01*
Y4732222D01*
X1015111D01*
Y4735444D01*
X1018333D01*
Y4738667D01*
X1021555D01*
Y4751555D01*
X1018333D01*
Y4754778D01*
X1015111D01*
Y4758000D01*
D02*
G37*
G36*
X950667D02*
X937778D01*
Y4754778D01*
X934555D01*
Y4751555D01*
X931333D01*
Y4738667D01*
X934555D01*
Y4735444D01*
X937778D01*
Y4732222D01*
X950667D01*
Y4735444D01*
X953889D01*
Y4738667D01*
X957111D01*
Y4745111D01*
Y4748333D01*
Y4751555D01*
X953889D01*
Y4754778D01*
X950667D01*
Y4758000D01*
D02*
G37*
G36*
X918444D02*
X905555D01*
Y4754778D01*
X902333D01*
Y4751555D01*
X899111D01*
Y4738667D01*
X902333D01*
Y4735444D01*
X905555D01*
Y4732222D01*
X918444D01*
Y4735444D01*
X921667D01*
Y4738667D01*
X924889D01*
Y4751555D01*
X921667D01*
Y4754778D01*
X918444D01*
Y4758000D01*
D02*
G37*
G36*
X886222D02*
X873333D01*
Y4754778D01*
X870111D01*
Y4751555D01*
X866889D01*
Y4738667D01*
X870111D01*
Y4735444D01*
X873333D01*
Y4732222D01*
X886222D01*
Y4735444D01*
X889444D01*
Y4738667D01*
X892666D01*
Y4751555D01*
X889444D01*
Y4754778D01*
X886222D01*
Y4758000D01*
D02*
G37*
G36*
X854000D02*
X841111D01*
Y4754778D01*
X837889D01*
Y4751555D01*
X834667D01*
Y4738667D01*
X837889D01*
Y4735444D01*
X841111D01*
Y4732222D01*
X854000D01*
Y4735444D01*
X857222D01*
Y4738667D01*
X860444D01*
Y4751555D01*
X857222D01*
Y4754778D01*
X854000D01*
Y4758000D01*
D02*
G37*
G36*
X757333D02*
X744444D01*
Y4754778D01*
X741222D01*
Y4751555D01*
X738000D01*
Y4738667D01*
X741222D01*
Y4735444D01*
X744444D01*
Y4732222D01*
X757333D01*
Y4735444D01*
X760556D01*
Y4738667D01*
X763778D01*
Y4741889D01*
Y4751555D01*
X760556D01*
Y4754778D01*
X757333D01*
Y4758000D01*
D02*
G37*
G36*
X725111D02*
X712222D01*
Y4754778D01*
X709000D01*
Y4751555D01*
X705778D01*
Y4738667D01*
X709000D01*
Y4735444D01*
X712222D01*
Y4732222D01*
X725111D01*
Y4735444D01*
X728333D01*
Y4738667D01*
X731556D01*
Y4741889D01*
Y4745111D01*
Y4751555D01*
X728333D01*
Y4754778D01*
X725111D01*
Y4758000D01*
D02*
G37*
G36*
X564000D02*
X551111D01*
Y4754778D01*
X547889D01*
Y4751555D01*
X544667D01*
Y4738667D01*
X547889D01*
Y4735444D01*
X551111D01*
Y4732222D01*
X564000D01*
Y4735444D01*
X567222D01*
Y4738667D01*
X570444D01*
Y4751555D01*
X567222D01*
Y4754778D01*
X564000D01*
Y4758000D01*
D02*
G37*
G36*
X531778D02*
X518889D01*
Y4754778D01*
X515666D01*
Y4751555D01*
X512444D01*
Y4738667D01*
X515666D01*
Y4735444D01*
X518889D01*
Y4732222D01*
X531778D01*
Y4735444D01*
X535000D01*
Y4738667D01*
X538222D01*
Y4751555D01*
X535000D01*
Y4754778D01*
X531778D01*
Y4758000D01*
D02*
G37*
G36*
X1659555Y4725778D02*
X1646667D01*
Y4722555D01*
X1643444D01*
Y4719333D01*
X1640222D01*
Y4706444D01*
X1643444D01*
Y4703222D01*
X1646667D01*
Y4700000D01*
X1659555D01*
Y4703222D01*
X1662778D01*
Y4706444D01*
X1666000D01*
Y4719333D01*
X1662778D01*
Y4722555D01*
X1659555D01*
Y4725778D01*
D02*
G37*
G36*
X1627333D02*
X1614444D01*
Y4722555D01*
X1611222D01*
Y4719333D01*
X1608000D01*
Y4706444D01*
X1611222D01*
Y4703222D01*
X1614444D01*
Y4700000D01*
X1627333D01*
Y4703222D01*
X1630556D01*
Y4706444D01*
X1633778D01*
Y4719333D01*
X1630556D01*
Y4722555D01*
X1627333D01*
Y4725778D01*
D02*
G37*
G36*
X1562889D02*
X1550000D01*
Y4722555D01*
X1546778D01*
Y4719333D01*
X1543555D01*
Y4709666D01*
Y4706444D01*
X1546778D01*
Y4703222D01*
X1550000D01*
Y4700000D01*
X1562889D01*
Y4703222D01*
X1566111D01*
Y4706444D01*
X1569333D01*
Y4719333D01*
X1566111D01*
Y4722555D01*
X1562889D01*
Y4725778D01*
D02*
G37*
G36*
X1530666D02*
X1517778D01*
Y4722555D01*
X1514556D01*
Y4719333D01*
X1511333D01*
Y4706444D01*
X1514556D01*
Y4703222D01*
X1517778D01*
Y4700000D01*
X1530666D01*
Y4703222D01*
X1533889D01*
Y4706444D01*
X1537111D01*
Y4719333D01*
X1533889D01*
Y4722555D01*
X1530666D01*
Y4725778D01*
D02*
G37*
G36*
X1498444D02*
X1485555D01*
Y4722555D01*
X1482333D01*
Y4719333D01*
X1479111D01*
Y4716111D01*
Y4706444D01*
X1482333D01*
Y4703222D01*
X1485555D01*
Y4700000D01*
X1498444D01*
Y4703222D01*
X1501667D01*
Y4706444D01*
X1504889D01*
Y4719333D01*
X1501667D01*
Y4722555D01*
X1498444D01*
Y4725778D01*
D02*
G37*
G36*
X1466222D02*
X1453333D01*
Y4722555D01*
X1450111D01*
Y4719333D01*
X1446889D01*
Y4706444D01*
X1450111D01*
Y4703222D01*
X1453333D01*
Y4700000D01*
X1466222D01*
Y4703222D01*
X1469444D01*
Y4706444D01*
X1472667D01*
Y4719333D01*
X1469444D01*
Y4722555D01*
X1466222D01*
Y4725778D01*
D02*
G37*
G36*
X1434000D02*
X1421111D01*
Y4722555D01*
X1417889D01*
Y4719333D01*
X1414666D01*
Y4706444D01*
X1417889D01*
Y4703222D01*
X1421111D01*
Y4700000D01*
X1434000D01*
Y4703222D01*
X1437222D01*
Y4706444D01*
X1440444D01*
Y4719333D01*
X1437222D01*
Y4722555D01*
X1434000D01*
Y4725778D01*
D02*
G37*
G36*
X1369556D02*
X1356667D01*
Y4722555D01*
X1353444D01*
Y4719333D01*
X1350222D01*
Y4706444D01*
X1353444D01*
Y4703222D01*
X1356667D01*
Y4700000D01*
X1369556D01*
Y4703222D01*
X1372778D01*
Y4706444D01*
X1376000D01*
Y4719333D01*
X1372778D01*
Y4722555D01*
X1369556D01*
Y4725778D01*
D02*
G37*
G36*
X1337333D02*
X1324444D01*
Y4722555D01*
X1321222D01*
Y4719333D01*
X1318000D01*
Y4706444D01*
X1321222D01*
Y4703222D01*
X1324444D01*
Y4700000D01*
X1337333D01*
Y4703222D01*
X1340555D01*
Y4706444D01*
X1343778D01*
Y4719333D01*
X1340555D01*
Y4722555D01*
X1337333D01*
Y4725778D01*
D02*
G37*
G36*
X1305111D02*
X1292222D01*
Y4722555D01*
X1289000D01*
Y4719333D01*
X1285778D01*
Y4706444D01*
X1289000D01*
Y4703222D01*
X1292222D01*
Y4700000D01*
X1305111D01*
Y4703222D01*
X1308333D01*
Y4706444D01*
X1311555D01*
Y4719333D01*
X1308333D01*
Y4722555D01*
X1305111D01*
Y4725778D01*
D02*
G37*
G36*
X1272889D02*
X1260000D01*
Y4722555D01*
X1256778D01*
Y4719333D01*
X1253556D01*
Y4716111D01*
Y4712889D01*
Y4706444D01*
X1256778D01*
Y4703222D01*
X1260000D01*
Y4700000D01*
X1272889D01*
Y4703222D01*
X1276111D01*
Y4706444D01*
X1279333D01*
Y4719333D01*
X1276111D01*
Y4722555D01*
X1272889D01*
Y4725778D01*
D02*
G37*
G36*
X1240667D02*
X1227778D01*
Y4722555D01*
X1224555D01*
Y4719333D01*
X1221333D01*
Y4706444D01*
X1224555D01*
Y4703222D01*
X1227778D01*
Y4700000D01*
X1240667D01*
Y4703222D01*
X1243889D01*
Y4706444D01*
X1247111D01*
Y4719333D01*
X1243889D01*
Y4722555D01*
X1240667D01*
Y4725778D01*
D02*
G37*
G36*
X1208444D02*
X1195555D01*
Y4722555D01*
X1192333D01*
Y4719333D01*
X1189111D01*
Y4706444D01*
X1192333D01*
Y4703222D01*
X1195555D01*
Y4700000D01*
X1208444D01*
Y4703222D01*
X1211667D01*
Y4706444D01*
X1214889D01*
Y4712889D01*
Y4716111D01*
Y4719333D01*
X1211667D01*
Y4722555D01*
X1208444D01*
Y4725778D01*
D02*
G37*
G36*
X1079555D02*
X1066667D01*
Y4722555D01*
X1063444D01*
Y4719333D01*
X1060222D01*
Y4706444D01*
X1063444D01*
Y4703222D01*
X1066667D01*
Y4700000D01*
X1079555D01*
Y4703222D01*
X1082778D01*
Y4706444D01*
X1086000D01*
Y4709666D01*
Y4719333D01*
X1082778D01*
Y4722555D01*
X1079555D01*
Y4725778D01*
D02*
G37*
G36*
X1047333D02*
X1034444D01*
Y4722555D01*
X1031222D01*
Y4719333D01*
X1028000D01*
Y4706444D01*
X1031222D01*
Y4703222D01*
X1034444D01*
Y4700000D01*
X1047333D01*
Y4703222D01*
X1050555D01*
Y4706444D01*
X1053778D01*
Y4712889D01*
Y4716111D01*
Y4719333D01*
X1050555D01*
Y4722555D01*
X1047333D01*
Y4725778D01*
D02*
G37*
G36*
X886222D02*
X873333D01*
Y4722555D01*
X870111D01*
Y4719333D01*
X866889D01*
Y4706444D01*
X870111D01*
Y4703222D01*
X873333D01*
Y4700000D01*
X886222D01*
Y4703222D01*
X889444D01*
Y4706444D01*
X892666D01*
Y4719333D01*
X889444D01*
Y4722555D01*
X886222D01*
Y4725778D01*
D02*
G37*
G36*
X725111D02*
X712222D01*
Y4722555D01*
X709000D01*
Y4719333D01*
X705778D01*
Y4706444D01*
X709000D01*
Y4703222D01*
X712222D01*
Y4700000D01*
X725111D01*
Y4703222D01*
X728333D01*
Y4706444D01*
X731556D01*
Y4719333D01*
X728333D01*
Y4722555D01*
X725111D01*
Y4725778D01*
D02*
G37*
G36*
X692889D02*
X680000D01*
Y4722555D01*
X676778D01*
Y4719333D01*
X673555D01*
Y4706444D01*
X676778D01*
Y4703222D01*
X680000D01*
Y4700000D01*
X692889D01*
Y4703222D01*
X696111D01*
Y4706444D01*
X699333D01*
Y4712889D01*
Y4716111D01*
Y4719333D01*
X696111D01*
Y4722555D01*
X692889D01*
Y4725778D01*
D02*
G37*
G36*
X596222D02*
X583333D01*
Y4722555D01*
X580111D01*
Y4719333D01*
X576889D01*
Y4706444D01*
X580111D01*
Y4703222D01*
X583333D01*
Y4700000D01*
X596222D01*
Y4703222D01*
X599444D01*
Y4706444D01*
X602667D01*
Y4719333D01*
X599444D01*
Y4722555D01*
X596222D01*
Y4725778D01*
D02*
G37*
G36*
X531778D02*
X518889D01*
Y4722555D01*
X515666D01*
Y4719333D01*
X512444D01*
Y4706444D01*
X515666D01*
Y4703222D01*
X518889D01*
Y4700000D01*
X531778D01*
Y4703222D01*
X535000D01*
Y4706444D01*
X538222D01*
Y4719333D01*
X535000D01*
Y4722555D01*
X531778D01*
Y4725778D01*
D02*
G37*
G36*
X499556D02*
X486667D01*
Y4722555D01*
X483444D01*
Y4719333D01*
X480222D01*
Y4706444D01*
X483444D01*
Y4703222D01*
X486667D01*
Y4700000D01*
X499556D01*
Y4703222D01*
X502778D01*
Y4706444D01*
X506000D01*
Y4719333D01*
X502778D01*
Y4722555D01*
X499556D01*
Y4725778D01*
D02*
G37*
G36*
X1498444Y4693556D02*
X1485555D01*
Y4690333D01*
X1482333D01*
Y4687111D01*
X1479111D01*
Y4674222D01*
X1482333D01*
Y4671000D01*
X1485555D01*
Y4667778D01*
X1498444D01*
Y4671000D01*
X1501667D01*
Y4674222D01*
X1504889D01*
Y4687111D01*
X1501667D01*
Y4690333D01*
X1498444D01*
Y4693556D01*
D02*
G37*
G36*
X1434000D02*
X1421111D01*
Y4690333D01*
X1417889D01*
Y4687111D01*
X1414666D01*
Y4674222D01*
X1417889D01*
Y4671000D01*
X1421111D01*
Y4667778D01*
X1434000D01*
Y4671000D01*
X1437222D01*
Y4674222D01*
X1440444D01*
Y4687111D01*
X1437222D01*
Y4690333D01*
X1434000D01*
Y4693556D01*
D02*
G37*
G36*
X1401778D02*
X1388889D01*
Y4690333D01*
X1385667D01*
Y4687111D01*
X1382444D01*
Y4674222D01*
X1385667D01*
Y4671000D01*
X1388889D01*
Y4667778D01*
X1401778D01*
Y4671000D01*
X1405000D01*
Y4674222D01*
X1408222D01*
Y4687111D01*
X1405000D01*
Y4690333D01*
X1401778D01*
Y4693556D01*
D02*
G37*
G36*
X1305111D02*
X1292222D01*
Y4690333D01*
X1289000D01*
Y4687111D01*
X1285778D01*
Y4674222D01*
X1289000D01*
Y4671000D01*
X1292222D01*
Y4667778D01*
X1305111D01*
Y4671000D01*
X1308333D01*
Y4674222D01*
X1311555D01*
Y4680667D01*
Y4683889D01*
Y4687111D01*
X1308333D01*
Y4690333D01*
X1305111D01*
Y4693556D01*
D02*
G37*
G36*
X1240667D02*
X1227778D01*
Y4690333D01*
X1224555D01*
Y4687111D01*
X1221333D01*
Y4674222D01*
X1224555D01*
Y4671000D01*
X1227778D01*
Y4667778D01*
X1240667D01*
Y4671000D01*
X1243889D01*
Y4674222D01*
X1247111D01*
Y4687111D01*
X1243889D01*
Y4690333D01*
X1240667D01*
Y4693556D01*
D02*
G37*
G36*
X886222D02*
X873333D01*
Y4690333D01*
X870111D01*
Y4687111D01*
X866889D01*
Y4674222D01*
X870111D01*
Y4671000D01*
X873333D01*
Y4667778D01*
X886222D01*
Y4671000D01*
X889444D01*
Y4674222D01*
X892666D01*
Y4687111D01*
X889444D01*
Y4690333D01*
X886222D01*
Y4693556D01*
D02*
G37*
G36*
X821778D02*
X808889D01*
Y4690333D01*
X805667D01*
Y4687111D01*
X802444D01*
Y4674222D01*
X805667D01*
Y4671000D01*
X808889D01*
Y4667778D01*
X821778D01*
Y4671000D01*
X825000D01*
Y4674222D01*
X828222D01*
Y4677444D01*
Y4687111D01*
X825000D01*
Y4690333D01*
X821778D01*
Y4693556D01*
D02*
G37*
G36*
X660667D02*
X647778D01*
Y4690333D01*
X644555D01*
Y4687111D01*
X641333D01*
Y4674222D01*
X644555D01*
Y4671000D01*
X647778D01*
Y4667778D01*
X660667D01*
Y4671000D01*
X663889D01*
Y4674222D01*
X667111D01*
Y4687111D01*
X663889D01*
Y4690333D01*
X660667D01*
Y4693556D01*
D02*
G37*
G36*
X628444D02*
X615556D01*
Y4690333D01*
X612333D01*
Y4687111D01*
X609111D01*
Y4674222D01*
X612333D01*
Y4671000D01*
X615556D01*
Y4667778D01*
X628444D01*
Y4671000D01*
X631667D01*
Y4674222D01*
X634889D01*
Y4687111D01*
X631667D01*
Y4690333D01*
X628444D01*
Y4693556D01*
D02*
G37*
G36*
X596222D02*
X583333D01*
Y4690333D01*
X580111D01*
Y4687111D01*
X576889D01*
Y4674222D01*
X580111D01*
Y4671000D01*
X583333D01*
Y4667778D01*
X596222D01*
Y4671000D01*
X599444D01*
Y4674222D01*
X602667D01*
Y4687111D01*
X599444D01*
Y4690333D01*
X596222D01*
Y4693556D01*
D02*
G37*
G36*
X564000D02*
X551111D01*
Y4690333D01*
X547889D01*
Y4687111D01*
X544667D01*
Y4674222D01*
X547889D01*
Y4671000D01*
X551111D01*
Y4667778D01*
X564000D01*
Y4671000D01*
X567222D01*
Y4674222D01*
X570444D01*
Y4680667D01*
Y4683889D01*
Y4687111D01*
X567222D01*
Y4690333D01*
X564000D01*
Y4693556D01*
D02*
G37*
G36*
X531778D02*
X518889D01*
Y4690333D01*
X515666D01*
Y4687111D01*
X512444D01*
Y4683889D01*
Y4680667D01*
Y4674222D01*
X515666D01*
Y4671000D01*
X518889D01*
Y4667778D01*
X531778D01*
Y4671000D01*
X535000D01*
Y4674222D01*
X538222D01*
Y4687111D01*
X535000D01*
Y4690333D01*
X531778D01*
Y4693556D01*
D02*
G37*
G36*
X1659555Y4661333D02*
X1646667D01*
Y4658111D01*
X1643444D01*
Y4654889D01*
X1640222D01*
Y4651667D01*
Y4648444D01*
Y4642000D01*
X1643444D01*
Y4638778D01*
X1646667D01*
Y4635555D01*
X1659555D01*
Y4638778D01*
X1662778D01*
Y4642000D01*
X1666000D01*
Y4654889D01*
X1662778D01*
Y4658111D01*
X1659555D01*
Y4661333D01*
D02*
G37*
G36*
X1562889D02*
X1550000D01*
Y4658111D01*
X1546778D01*
Y4654889D01*
X1543555D01*
Y4642000D01*
X1546778D01*
Y4638778D01*
X1550000D01*
Y4635555D01*
X1562889D01*
Y4638778D01*
X1566111D01*
Y4642000D01*
X1569333D01*
Y4654889D01*
X1566111D01*
Y4658111D01*
X1562889D01*
Y4661333D01*
D02*
G37*
G36*
X1530666D02*
X1517778D01*
Y4658111D01*
X1514556D01*
Y4654889D01*
X1511333D01*
Y4642000D01*
X1514556D01*
Y4638778D01*
X1517778D01*
Y4635555D01*
X1530666D01*
Y4638778D01*
X1533889D01*
Y4642000D01*
X1537111D01*
Y4654889D01*
X1533889D01*
Y4658111D01*
X1530666D01*
Y4661333D01*
D02*
G37*
G36*
X1498444D02*
X1485555D01*
Y4658111D01*
X1482333D01*
Y4654889D01*
X1479111D01*
Y4642000D01*
X1482333D01*
Y4638778D01*
X1485555D01*
Y4635555D01*
X1498444D01*
Y4638778D01*
X1501667D01*
Y4642000D01*
X1504889D01*
Y4654889D01*
X1501667D01*
Y4658111D01*
X1498444D01*
Y4661333D01*
D02*
G37*
G36*
X1434000D02*
X1421111D01*
Y4658111D01*
X1417889D01*
Y4654889D01*
X1414666D01*
Y4642000D01*
X1417889D01*
Y4638778D01*
X1421111D01*
Y4635555D01*
X1434000D01*
Y4638778D01*
X1437222D01*
Y4642000D01*
X1440444D01*
Y4645222D01*
Y4654889D01*
X1437222D01*
Y4658111D01*
X1434000D01*
Y4661333D01*
D02*
G37*
G36*
X1401778D02*
X1388889D01*
Y4658111D01*
X1385667D01*
Y4654889D01*
X1382444D01*
Y4642000D01*
X1385667D01*
Y4638778D01*
X1388889D01*
Y4635555D01*
X1401778D01*
Y4638778D01*
X1405000D01*
Y4642000D01*
X1408222D01*
Y4654889D01*
X1405000D01*
Y4658111D01*
X1401778D01*
Y4661333D01*
D02*
G37*
G36*
X1369556D02*
X1356667D01*
Y4658111D01*
X1353444D01*
Y4654889D01*
X1350222D01*
Y4642000D01*
X1353444D01*
Y4638778D01*
X1356667D01*
Y4635555D01*
X1369556D01*
Y4638778D01*
X1372778D01*
Y4642000D01*
X1376000D01*
Y4654889D01*
X1372778D01*
Y4658111D01*
X1369556D01*
Y4661333D01*
D02*
G37*
G36*
X1337333D02*
X1324444D01*
Y4658111D01*
X1321222D01*
Y4654889D01*
X1318000D01*
Y4642000D01*
X1321222D01*
Y4638778D01*
X1324444D01*
Y4635555D01*
X1337333D01*
Y4638778D01*
X1340555D01*
Y4642000D01*
X1343778D01*
Y4651667D01*
Y4654889D01*
X1340555D01*
Y4658111D01*
X1337333D01*
Y4661333D01*
D02*
G37*
G36*
X1305111D02*
X1292222D01*
Y4658111D01*
X1289000D01*
Y4654889D01*
X1285778D01*
Y4642000D01*
X1289000D01*
Y4638778D01*
X1292222D01*
Y4635555D01*
X1305111D01*
Y4638778D01*
X1308333D01*
Y4642000D01*
X1311555D01*
Y4645222D01*
Y4648444D01*
Y4654889D01*
X1308333D01*
Y4658111D01*
X1305111D01*
Y4661333D01*
D02*
G37*
G36*
X854000D02*
X841111D01*
Y4658111D01*
X837889D01*
Y4654889D01*
X834667D01*
Y4642000D01*
X837889D01*
Y4638778D01*
X841111D01*
Y4635555D01*
X854000D01*
Y4638778D01*
X857222D01*
Y4642000D01*
X860444D01*
Y4654889D01*
X857222D01*
Y4658111D01*
X854000D01*
Y4661333D01*
D02*
G37*
G36*
X789555D02*
X776666D01*
Y4658111D01*
X773444D01*
Y4654889D01*
X770222D01*
Y4642000D01*
X773444D01*
Y4638778D01*
X776666D01*
Y4635555D01*
X789555D01*
Y4638778D01*
X792778D01*
Y4642000D01*
X796000D01*
Y4654889D01*
X792778D01*
Y4658111D01*
X789555D01*
Y4661333D01*
D02*
G37*
G36*
X692889D02*
X680000D01*
Y4658111D01*
X676778D01*
Y4654889D01*
X673555D01*
Y4642000D01*
X676778D01*
Y4638778D01*
X680000D01*
Y4635555D01*
X692889D01*
Y4638778D01*
X696111D01*
Y4642000D01*
X699333D01*
Y4654889D01*
X696111D01*
Y4658111D01*
X692889D01*
Y4661333D01*
D02*
G37*
G36*
X1659555Y4629111D02*
X1646667D01*
Y4625889D01*
X1643444D01*
Y4622667D01*
X1640222D01*
Y4609778D01*
X1643444D01*
Y4606555D01*
X1646667D01*
Y4603333D01*
X1659555D01*
Y4606555D01*
X1662778D01*
Y4609778D01*
X1666000D01*
Y4622667D01*
X1662778D01*
Y4625889D01*
X1659555D01*
Y4629111D01*
D02*
G37*
G36*
X1530666D02*
X1517778D01*
Y4625889D01*
X1514556D01*
Y4622667D01*
X1511333D01*
Y4619444D01*
Y4616222D01*
Y4609778D01*
X1514556D01*
Y4606555D01*
X1517778D01*
Y4603333D01*
X1530666D01*
Y4606555D01*
X1533889D01*
Y4609778D01*
X1537111D01*
Y4622667D01*
X1533889D01*
Y4625889D01*
X1530666D01*
Y4629111D01*
D02*
G37*
G36*
X1498444D02*
X1485555D01*
Y4625889D01*
X1482333D01*
Y4622667D01*
X1479111D01*
Y4609778D01*
X1482333D01*
Y4606555D01*
X1485555D01*
Y4603333D01*
X1498444D01*
Y4606555D01*
X1501667D01*
Y4609778D01*
X1504889D01*
Y4622667D01*
X1501667D01*
Y4625889D01*
X1498444D01*
Y4629111D01*
D02*
G37*
G36*
X1369556D02*
X1356667D01*
Y4625889D01*
X1353444D01*
Y4622667D01*
X1350222D01*
Y4609778D01*
X1353444D01*
Y4606555D01*
X1356667D01*
Y4603333D01*
X1369556D01*
Y4606555D01*
X1372778D01*
Y4609778D01*
X1376000D01*
Y4622667D01*
X1372778D01*
Y4625889D01*
X1369556D01*
Y4629111D01*
D02*
G37*
G36*
X1305111D02*
X1292222D01*
Y4625889D01*
X1289000D01*
Y4622667D01*
X1285778D01*
Y4613000D01*
Y4609778D01*
X1289000D01*
Y4606555D01*
X1292222D01*
Y4603333D01*
X1305111D01*
Y4606555D01*
X1308333D01*
Y4609778D01*
X1311555D01*
Y4622667D01*
X1308333D01*
Y4625889D01*
X1305111D01*
Y4629111D01*
D02*
G37*
G36*
X1240667D02*
X1227778D01*
Y4625889D01*
X1224555D01*
Y4622667D01*
X1221333D01*
Y4609778D01*
X1224555D01*
Y4606555D01*
X1227778D01*
Y4603333D01*
X1240667D01*
Y4606555D01*
X1243889D01*
Y4609778D01*
X1247111D01*
Y4622667D01*
X1243889D01*
Y4625889D01*
X1240667D01*
Y4629111D01*
D02*
G37*
G36*
X789555D02*
X776666D01*
Y4625889D01*
X773444D01*
Y4622667D01*
X770222D01*
Y4609778D01*
X773444D01*
Y4606555D01*
X776666D01*
Y4603333D01*
X789555D01*
Y4606555D01*
X792778D01*
Y4609778D01*
X796000D01*
Y4622667D01*
X792778D01*
Y4625889D01*
X789555D01*
Y4629111D01*
D02*
G37*
G36*
X757333D02*
X744444D01*
Y4625889D01*
X741222D01*
Y4622667D01*
X738000D01*
Y4609778D01*
X741222D01*
Y4606555D01*
X744444D01*
Y4603333D01*
X757333D01*
Y4606555D01*
X760556D01*
Y4609778D01*
X763778D01*
Y4622667D01*
X760556D01*
Y4625889D01*
X757333D01*
Y4629111D01*
D02*
G37*
G36*
X660667D02*
X647778D01*
Y4625889D01*
X644555D01*
Y4622667D01*
X641333D01*
Y4609778D01*
X644555D01*
Y4606555D01*
X647778D01*
Y4603333D01*
X660667D01*
Y4606555D01*
X663889D01*
Y4609778D01*
X667111D01*
Y4622667D01*
X663889D01*
Y4625889D01*
X660667D01*
Y4629111D01*
D02*
G37*
G36*
X564000D02*
X551111D01*
Y4625889D01*
X547889D01*
Y4622667D01*
X544667D01*
Y4609778D01*
X547889D01*
Y4606555D01*
X551111D01*
Y4603333D01*
X564000D01*
Y4606555D01*
X567222D01*
Y4609778D01*
X570444D01*
Y4622667D01*
X567222D01*
Y4625889D01*
X564000D01*
Y4629111D01*
D02*
G37*
G36*
X1595111Y4596889D02*
X1582222D01*
Y4593667D01*
X1579000D01*
Y4590444D01*
X1575778D01*
Y4577555D01*
X1579000D01*
Y4574333D01*
X1582222D01*
Y4571111D01*
X1595111D01*
Y4574333D01*
X1598333D01*
Y4577555D01*
X1601555D01*
Y4590444D01*
X1598333D01*
Y4593667D01*
X1595111D01*
Y4596889D01*
D02*
G37*
G36*
X1434000D02*
X1421111D01*
Y4593667D01*
X1417889D01*
Y4590444D01*
X1414666D01*
Y4577555D01*
X1417889D01*
Y4574333D01*
X1421111D01*
Y4571111D01*
X1434000D01*
Y4574333D01*
X1437222D01*
Y4577555D01*
X1440444D01*
Y4590444D01*
X1437222D01*
Y4593667D01*
X1434000D01*
Y4596889D01*
D02*
G37*
G36*
X1337333D02*
X1324444D01*
Y4593667D01*
X1321222D01*
Y4590444D01*
X1318000D01*
Y4577555D01*
X1321222D01*
Y4574333D01*
X1324444D01*
Y4571111D01*
X1337333D01*
Y4574333D01*
X1340555D01*
Y4577555D01*
X1343778D01*
Y4590444D01*
X1340555D01*
Y4593667D01*
X1337333D01*
Y4596889D01*
D02*
G37*
G36*
X1240667D02*
X1227778D01*
Y4593667D01*
X1224555D01*
Y4590444D01*
X1221333D01*
Y4577555D01*
X1224555D01*
Y4574333D01*
X1227778D01*
Y4571111D01*
X1240667D01*
Y4574333D01*
X1243889D01*
Y4577555D01*
X1247111D01*
Y4590444D01*
X1243889D01*
Y4593667D01*
X1240667D01*
Y4596889D01*
D02*
G37*
G36*
X918444D02*
X905555D01*
Y4593667D01*
X902333D01*
Y4590444D01*
X899111D01*
Y4577555D01*
X902333D01*
Y4574333D01*
X905555D01*
Y4571111D01*
X918444D01*
Y4574333D01*
X921667D01*
Y4577555D01*
X924889D01*
Y4590444D01*
X921667D01*
Y4593667D01*
X918444D01*
Y4596889D01*
D02*
G37*
G36*
X886222D02*
X873333D01*
Y4593667D01*
X870111D01*
Y4590444D01*
X866889D01*
Y4580778D01*
Y4577555D01*
X870111D01*
Y4574333D01*
X873333D01*
Y4571111D01*
X886222D01*
Y4574333D01*
X889444D01*
Y4577555D01*
X892666D01*
Y4590444D01*
X889444D01*
Y4593667D01*
X886222D01*
Y4596889D01*
D02*
G37*
G36*
X854000D02*
X841111D01*
Y4593667D01*
X837889D01*
Y4590444D01*
X834667D01*
Y4577555D01*
X837889D01*
Y4574333D01*
X841111D01*
Y4571111D01*
X854000D01*
Y4574333D01*
X857222D01*
Y4577555D01*
X860444D01*
Y4590444D01*
X857222D01*
Y4593667D01*
X854000D01*
Y4596889D01*
D02*
G37*
G36*
X821778D02*
X808889D01*
Y4593667D01*
X805667D01*
Y4590444D01*
X802444D01*
Y4580778D01*
Y4577555D01*
X805667D01*
Y4574333D01*
X808889D01*
Y4571111D01*
X821778D01*
Y4574333D01*
X825000D01*
Y4577555D01*
X828222D01*
Y4590444D01*
X825000D01*
Y4593667D01*
X821778D01*
Y4596889D01*
D02*
G37*
G36*
X692889D02*
X680000D01*
Y4593667D01*
X676778D01*
Y4590444D01*
X673555D01*
Y4577555D01*
X676778D01*
Y4574333D01*
X680000D01*
Y4571111D01*
X692889D01*
Y4574333D01*
X696111D01*
Y4577555D01*
X699333D01*
Y4590444D01*
X696111D01*
Y4593667D01*
X692889D01*
Y4596889D01*
D02*
G37*
G36*
X628444D02*
X615556D01*
Y4593667D01*
X612333D01*
Y4590444D01*
X609111D01*
Y4577555D01*
X612333D01*
Y4574333D01*
X615556D01*
Y4571111D01*
X628444D01*
Y4574333D01*
X631667D01*
Y4577555D01*
X634889D01*
Y4590444D01*
X631667D01*
Y4593667D01*
X628444D01*
Y4596889D01*
D02*
G37*
G36*
X596222D02*
X583333D01*
Y4593667D01*
X580111D01*
Y4590444D01*
X576889D01*
Y4577555D01*
X580111D01*
Y4574333D01*
X583333D01*
Y4571111D01*
X596222D01*
Y4574333D01*
X599444D01*
Y4577555D01*
X602667D01*
Y4590444D01*
X599444D01*
Y4593667D01*
X596222D01*
Y4596889D01*
D02*
G37*
G36*
X564000D02*
X551111D01*
Y4593667D01*
X547889D01*
Y4590444D01*
X544667D01*
Y4577555D01*
X547889D01*
Y4574333D01*
X551111D01*
Y4571111D01*
X564000D01*
Y4574333D01*
X567222D01*
Y4577555D01*
X570444D01*
Y4590444D01*
X567222D01*
Y4593667D01*
X564000D01*
Y4596889D01*
D02*
G37*
G36*
X531778D02*
X518889D01*
Y4593667D01*
X515666D01*
Y4590444D01*
X512444D01*
Y4587222D01*
Y4577555D01*
X515666D01*
Y4574333D01*
X518889D01*
Y4571111D01*
X531778D01*
Y4574333D01*
X535000D01*
Y4577555D01*
X538222D01*
Y4590444D01*
X535000D01*
Y4593667D01*
X531778D01*
Y4596889D01*
D02*
G37*
G36*
X1627333Y4564667D02*
X1614444D01*
Y4561444D01*
X1611222D01*
Y4558222D01*
X1608000D01*
Y4548556D01*
Y4545333D01*
X1611222D01*
Y4542111D01*
X1614444D01*
Y4538889D01*
X1627333D01*
Y4542111D01*
X1630556D01*
Y4545333D01*
X1633778D01*
Y4558222D01*
X1630556D01*
Y4561444D01*
X1627333D01*
Y4564667D01*
D02*
G37*
G36*
X1595111D02*
X1582222D01*
Y4561444D01*
X1579000D01*
Y4558222D01*
X1575778D01*
Y4545333D01*
X1579000D01*
Y4542111D01*
X1582222D01*
Y4538889D01*
X1595111D01*
Y4542111D01*
X1598333D01*
Y4545333D01*
X1601555D01*
Y4558222D01*
X1598333D01*
Y4561444D01*
X1595111D01*
Y4564667D01*
D02*
G37*
G36*
X1530666D02*
X1517778D01*
Y4561444D01*
X1514556D01*
Y4558222D01*
X1511333D01*
Y4545333D01*
X1514556D01*
Y4542111D01*
X1517778D01*
Y4538889D01*
X1530666D01*
Y4542111D01*
X1533889D01*
Y4545333D01*
X1537111D01*
Y4558222D01*
X1533889D01*
Y4561444D01*
X1530666D01*
Y4564667D01*
D02*
G37*
G36*
X1498444D02*
X1485555D01*
Y4561444D01*
X1482333D01*
Y4558222D01*
X1479111D01*
Y4545333D01*
X1482333D01*
Y4542111D01*
X1485555D01*
Y4538889D01*
X1498444D01*
Y4542111D01*
X1501667D01*
Y4545333D01*
X1504889D01*
Y4558222D01*
X1501667D01*
Y4561444D01*
X1498444D01*
Y4564667D01*
D02*
G37*
G36*
X1466222D02*
X1453333D01*
Y4561444D01*
X1450111D01*
Y4558222D01*
X1446889D01*
Y4545333D01*
X1450111D01*
Y4542111D01*
X1453333D01*
Y4538889D01*
X1466222D01*
Y4542111D01*
X1469444D01*
Y4545333D01*
X1472667D01*
Y4558222D01*
X1469444D01*
Y4561444D01*
X1466222D01*
Y4564667D01*
D02*
G37*
G36*
X1401778D02*
X1388889D01*
Y4561444D01*
X1385667D01*
Y4558222D01*
X1382444D01*
Y4545333D01*
X1385667D01*
Y4542111D01*
X1388889D01*
Y4538889D01*
X1401778D01*
Y4542111D01*
X1405000D01*
Y4545333D01*
X1408222D01*
Y4558222D01*
X1405000D01*
Y4561444D01*
X1401778D01*
Y4564667D01*
D02*
G37*
G36*
X1369556D02*
X1356667D01*
Y4561444D01*
X1353444D01*
Y4558222D01*
X1350222D01*
Y4545333D01*
X1353444D01*
Y4542111D01*
X1356667D01*
Y4538889D01*
X1369556D01*
Y4542111D01*
X1372778D01*
Y4545333D01*
X1376000D01*
Y4558222D01*
X1372778D01*
Y4561444D01*
X1369556D01*
Y4564667D01*
D02*
G37*
G36*
X1272889D02*
X1260000D01*
Y4561444D01*
X1256778D01*
Y4558222D01*
X1253556D01*
Y4545333D01*
X1256778D01*
Y4542111D01*
X1260000D01*
Y4538889D01*
X1272889D01*
Y4542111D01*
X1276111D01*
Y4545333D01*
X1279333D01*
Y4558222D01*
X1276111D01*
Y4561444D01*
X1272889D01*
Y4564667D01*
D02*
G37*
G36*
X854000D02*
X841111D01*
Y4561444D01*
X837889D01*
Y4558222D01*
X834667D01*
Y4545333D01*
X837889D01*
Y4542111D01*
X841111D01*
Y4538889D01*
X854000D01*
Y4542111D01*
X857222D01*
Y4545333D01*
X860444D01*
Y4558222D01*
X857222D01*
Y4561444D01*
X854000D01*
Y4564667D01*
D02*
G37*
G36*
X660667D02*
X647778D01*
Y4561444D01*
X644555D01*
Y4558222D01*
X641333D01*
Y4545333D01*
X644555D01*
Y4542111D01*
X647778D01*
Y4538889D01*
X660667D01*
Y4542111D01*
X663889D01*
Y4545333D01*
X667111D01*
Y4558222D01*
X663889D01*
Y4561444D01*
X660667D01*
Y4564667D01*
D02*
G37*
G36*
X628444D02*
X615556D01*
Y4561444D01*
X612333D01*
Y4558222D01*
X609111D01*
Y4545333D01*
X612333D01*
Y4542111D01*
X615556D01*
Y4538889D01*
X628444D01*
Y4542111D01*
X631667D01*
Y4545333D01*
X634889D01*
Y4558222D01*
X631667D01*
Y4561444D01*
X628444D01*
Y4564667D01*
D02*
G37*
G36*
X596222D02*
X583333D01*
Y4561444D01*
X580111D01*
Y4558222D01*
X576889D01*
Y4545333D01*
X580111D01*
Y4542111D01*
X583333D01*
Y4538889D01*
X596222D01*
Y4542111D01*
X599444D01*
Y4545333D01*
X602667D01*
Y4558222D01*
X599444D01*
Y4561444D01*
X596222D01*
Y4564667D01*
D02*
G37*
G36*
X564000D02*
X551111D01*
Y4561444D01*
X547889D01*
Y4558222D01*
X544667D01*
Y4555000D01*
Y4545333D01*
X547889D01*
Y4542111D01*
X551111D01*
Y4538889D01*
X564000D01*
Y4542111D01*
X567222D01*
Y4545333D01*
X570444D01*
Y4558222D01*
X567222D01*
Y4561444D01*
X564000D01*
Y4564667D01*
D02*
G37*
G36*
X1659555Y4532444D02*
X1646667D01*
Y4529222D01*
X1643444D01*
Y4526000D01*
X1640222D01*
Y4513111D01*
X1643444D01*
Y4509889D01*
X1646667D01*
Y4506667D01*
X1659555D01*
Y4509889D01*
X1662778D01*
Y4513111D01*
X1666000D01*
Y4516333D01*
Y4526000D01*
X1662778D01*
Y4529222D01*
X1659555D01*
Y4532444D01*
D02*
G37*
G36*
X1627333D02*
X1614444D01*
Y4529222D01*
X1611222D01*
Y4526000D01*
X1608000D01*
Y4513111D01*
X1611222D01*
Y4509889D01*
X1614444D01*
Y4506667D01*
X1627333D01*
Y4509889D01*
X1630556D01*
Y4513111D01*
X1633778D01*
Y4526000D01*
X1630556D01*
Y4529222D01*
X1627333D01*
Y4532444D01*
D02*
G37*
G36*
X1595111D02*
X1582222D01*
Y4529222D01*
X1579000D01*
Y4526000D01*
X1575778D01*
Y4513111D01*
X1579000D01*
Y4509889D01*
X1582222D01*
Y4506667D01*
X1595111D01*
Y4509889D01*
X1598333D01*
Y4513111D01*
X1601555D01*
Y4526000D01*
X1598333D01*
Y4529222D01*
X1595111D01*
Y4532444D01*
D02*
G37*
G36*
X1562889D02*
X1550000D01*
Y4529222D01*
X1546778D01*
Y4526000D01*
X1543555D01*
Y4513111D01*
X1546778D01*
Y4509889D01*
X1550000D01*
Y4506667D01*
X1562889D01*
Y4509889D01*
X1566111D01*
Y4513111D01*
X1569333D01*
Y4526000D01*
X1566111D01*
Y4529222D01*
X1562889D01*
Y4532444D01*
D02*
G37*
G36*
X1530666D02*
X1517778D01*
Y4529222D01*
X1514556D01*
Y4526000D01*
X1511333D01*
Y4522778D01*
Y4513111D01*
X1514556D01*
Y4509889D01*
X1517778D01*
Y4506667D01*
X1530666D01*
Y4509889D01*
X1533889D01*
Y4513111D01*
X1537111D01*
Y4526000D01*
X1533889D01*
Y4529222D01*
X1530666D01*
Y4532444D01*
D02*
G37*
G36*
X1466222D02*
X1453333D01*
Y4529222D01*
X1450111D01*
Y4526000D01*
X1446889D01*
Y4513111D01*
X1450111D01*
Y4509889D01*
X1453333D01*
Y4506667D01*
X1466222D01*
Y4509889D01*
X1469444D01*
Y4513111D01*
X1472667D01*
Y4526000D01*
X1469444D01*
Y4529222D01*
X1466222D01*
Y4532444D01*
D02*
G37*
G36*
X1434000D02*
X1421111D01*
Y4529222D01*
X1417889D01*
Y4526000D01*
X1414666D01*
Y4522778D01*
Y4513111D01*
X1417889D01*
Y4509889D01*
X1421111D01*
Y4506667D01*
X1434000D01*
Y4509889D01*
X1437222D01*
Y4513111D01*
X1440444D01*
Y4526000D01*
X1437222D01*
Y4529222D01*
X1434000D01*
Y4532444D01*
D02*
G37*
G36*
X1337333D02*
X1324444D01*
Y4529222D01*
X1321222D01*
Y4526000D01*
X1318000D01*
Y4513111D01*
X1321222D01*
Y4509889D01*
X1324444D01*
Y4506667D01*
X1337333D01*
Y4509889D01*
X1340555D01*
Y4513111D01*
X1343778D01*
Y4526000D01*
X1340555D01*
Y4529222D01*
X1337333D01*
Y4532444D01*
D02*
G37*
G36*
X1189111Y4661333D02*
X1086000D01*
Y4648444D01*
X1073111D01*
Y4558222D01*
X1060222D01*
Y4545333D01*
X1034444D01*
Y4532444D01*
X1021555D01*
Y4519556D01*
X1008667D01*
Y4506667D01*
X982889D01*
Y4519556D01*
X970000D01*
Y4532444D01*
X957111D01*
Y4558222D01*
X944222D01*
Y4480889D01*
X957111D01*
Y4468000D01*
X970000D01*
Y4455111D01*
X982889D01*
Y4442222D01*
X995778D01*
Y4429333D01*
X1008667D01*
Y4377778D01*
X1034444D01*
Y4390667D01*
X1021555D01*
Y4403556D01*
X1034444D01*
Y4416444D01*
X1047333D01*
Y4429333D01*
X1060222D01*
Y4416444D01*
X1073111D01*
Y4377778D01*
X1098889D01*
Y4390667D01*
X1086000D01*
Y4442222D01*
X1098889D01*
Y4455111D01*
X1111778D01*
Y4474444D01*
Y4477667D01*
Y4480889D01*
X1124667D01*
Y4519556D01*
X1137556D01*
Y4506667D01*
X1150444D01*
Y4532444D01*
X1124667D01*
Y4558222D01*
X1176222D01*
Y4571111D01*
X1137556D01*
Y4584000D01*
X1202000D01*
Y4648444D01*
X1189111D01*
Y4661333D01*
D02*
G37*
G36*
X854000Y4532444D02*
X841111D01*
Y4529222D01*
X837889D01*
Y4526000D01*
X834667D01*
Y4513111D01*
X837889D01*
Y4509889D01*
X841111D01*
Y4506667D01*
X854000D01*
Y4509889D01*
X857222D01*
Y4513111D01*
X860444D01*
Y4522778D01*
Y4526000D01*
X857222D01*
Y4529222D01*
X854000D01*
Y4532444D01*
D02*
G37*
G36*
X789555D02*
X776666D01*
Y4529222D01*
X773444D01*
Y4526000D01*
X770222D01*
Y4513111D01*
X773444D01*
Y4509889D01*
X776666D01*
Y4506667D01*
X789555D01*
Y4509889D01*
X792778D01*
Y4513111D01*
X796000D01*
Y4526000D01*
X792778D01*
Y4529222D01*
X789555D01*
Y4532444D01*
D02*
G37*
G36*
X725111D02*
X712222D01*
Y4529222D01*
X709000D01*
Y4526000D01*
X705778D01*
Y4513111D01*
X709000D01*
Y4509889D01*
X712222D01*
Y4506667D01*
X725111D01*
Y4509889D01*
X728333D01*
Y4513111D01*
X731556D01*
Y4526000D01*
X728333D01*
Y4529222D01*
X725111D01*
Y4532444D01*
D02*
G37*
G36*
X692889D02*
X680000D01*
Y4529222D01*
X676778D01*
Y4526000D01*
X673555D01*
Y4513111D01*
X676778D01*
Y4509889D01*
X680000D01*
Y4506667D01*
X692889D01*
Y4509889D01*
X696111D01*
Y4513111D01*
X699333D01*
Y4526000D01*
X696111D01*
Y4529222D01*
X692889D01*
Y4532444D01*
D02*
G37*
G36*
X596222D02*
X583333D01*
Y4529222D01*
X580111D01*
Y4526000D01*
X576889D01*
Y4513111D01*
X580111D01*
Y4509889D01*
X583333D01*
Y4506667D01*
X596222D01*
Y4509889D01*
X599444D01*
Y4513111D01*
X602667D01*
Y4526000D01*
X599444D01*
Y4529222D01*
X596222D01*
Y4532444D01*
D02*
G37*
G36*
X531778D02*
X518889D01*
Y4529222D01*
X515666D01*
Y4526000D01*
X512444D01*
Y4513111D01*
X515666D01*
Y4509889D01*
X518889D01*
Y4506667D01*
X531778D01*
Y4509889D01*
X535000D01*
Y4513111D01*
X538222D01*
Y4526000D01*
X535000D01*
Y4529222D01*
X531778D01*
Y4532444D01*
D02*
G37*
G36*
X499556D02*
X486667D01*
Y4529222D01*
X483444D01*
Y4526000D01*
X480222D01*
Y4513111D01*
X483444D01*
Y4509889D01*
X486667D01*
Y4506667D01*
X499556D01*
Y4509889D01*
X502778D01*
Y4513111D01*
X506000D01*
Y4519556D01*
Y4522778D01*
Y4526000D01*
X502778D01*
Y4529222D01*
X499556D01*
Y4532444D01*
D02*
G37*
G36*
X1659555Y4500222D02*
X1646667D01*
Y4497000D01*
X1643444D01*
Y4493778D01*
X1640222D01*
Y4480889D01*
X1643444D01*
Y4477667D01*
X1646667D01*
Y4474444D01*
X1659555D01*
Y4477667D01*
X1662778D01*
Y4480889D01*
X1666000D01*
Y4493778D01*
X1662778D01*
Y4497000D01*
X1659555D01*
Y4500222D01*
D02*
G37*
G36*
X1595111D02*
X1582222D01*
Y4497000D01*
X1579000D01*
Y4493778D01*
X1575778D01*
Y4480889D01*
X1579000D01*
Y4477667D01*
X1582222D01*
Y4474444D01*
X1595111D01*
Y4477667D01*
X1598333D01*
Y4480889D01*
X1601555D01*
Y4487333D01*
Y4490555D01*
Y4493778D01*
X1598333D01*
Y4497000D01*
X1595111D01*
Y4500222D01*
D02*
G37*
G36*
X1530666D02*
X1517778D01*
Y4497000D01*
X1514556D01*
Y4493778D01*
X1511333D01*
Y4480889D01*
X1514556D01*
Y4477667D01*
X1517778D01*
Y4474444D01*
X1530666D01*
Y4477667D01*
X1533889D01*
Y4480889D01*
X1537111D01*
Y4493778D01*
X1533889D01*
Y4497000D01*
X1530666D01*
Y4500222D01*
D02*
G37*
G36*
X1498444D02*
X1485555D01*
Y4497000D01*
X1482333D01*
Y4493778D01*
X1479111D01*
Y4484111D01*
Y4480889D01*
X1482333D01*
Y4477667D01*
X1485555D01*
Y4474444D01*
X1498444D01*
Y4477667D01*
X1501667D01*
Y4480889D01*
X1504889D01*
Y4493778D01*
X1501667D01*
Y4497000D01*
X1498444D01*
Y4500222D01*
D02*
G37*
G36*
X1434000D02*
X1421111D01*
Y4497000D01*
X1417889D01*
Y4493778D01*
X1414666D01*
Y4484111D01*
Y4480889D01*
X1417889D01*
Y4477667D01*
X1421111D01*
Y4474444D01*
X1434000D01*
Y4477667D01*
X1437222D01*
Y4480889D01*
X1440444D01*
Y4493778D01*
X1437222D01*
Y4497000D01*
X1434000D01*
Y4500222D01*
D02*
G37*
G36*
X1401778D02*
X1388889D01*
Y4497000D01*
X1385667D01*
Y4493778D01*
X1382444D01*
Y4480889D01*
X1385667D01*
Y4477667D01*
X1388889D01*
Y4474444D01*
X1401778D01*
Y4477667D01*
X1405000D01*
Y4480889D01*
X1408222D01*
Y4493778D01*
X1405000D01*
Y4497000D01*
X1401778D01*
Y4500222D01*
D02*
G37*
G36*
X1272889D02*
X1260000D01*
Y4497000D01*
X1256778D01*
Y4493778D01*
X1253556D01*
Y4480889D01*
X1256778D01*
Y4477667D01*
X1260000D01*
Y4474444D01*
X1272889D01*
Y4477667D01*
X1276111D01*
Y4480889D01*
X1279333D01*
Y4493778D01*
X1276111D01*
Y4497000D01*
X1272889D01*
Y4500222D01*
D02*
G37*
G36*
X918444D02*
X905555D01*
Y4497000D01*
X902333D01*
Y4493778D01*
X899111D01*
Y4480889D01*
X902333D01*
Y4477667D01*
X905555D01*
Y4474444D01*
X918444D01*
Y4477667D01*
X921667D01*
Y4480889D01*
X924889D01*
Y4493778D01*
X921667D01*
Y4497000D01*
X918444D01*
Y4500222D01*
D02*
G37*
G36*
X886222D02*
X873333D01*
Y4497000D01*
X870111D01*
Y4493778D01*
X866889D01*
Y4480889D01*
X870111D01*
Y4477667D01*
X873333D01*
Y4474444D01*
X886222D01*
Y4477667D01*
X889444D01*
Y4480889D01*
X892666D01*
Y4493778D01*
X889444D01*
Y4497000D01*
X886222D01*
Y4500222D01*
D02*
G37*
G36*
X854000D02*
X841111D01*
Y4497000D01*
X837889D01*
Y4493778D01*
X834667D01*
Y4480889D01*
X837889D01*
Y4477667D01*
X841111D01*
Y4474444D01*
X854000D01*
Y4477667D01*
X857222D01*
Y4480889D01*
X860444D01*
Y4493778D01*
X857222D01*
Y4497000D01*
X854000D01*
Y4500222D01*
D02*
G37*
G36*
X757333D02*
X744444D01*
Y4497000D01*
X741222D01*
Y4493778D01*
X738000D01*
Y4480889D01*
X741222D01*
Y4477667D01*
X744444D01*
Y4474444D01*
X757333D01*
Y4477667D01*
X760556D01*
Y4480889D01*
X763778D01*
Y4493778D01*
X760556D01*
Y4497000D01*
X757333D01*
Y4500222D01*
D02*
G37*
G36*
X725111D02*
X712222D01*
Y4497000D01*
X709000D01*
Y4493778D01*
X705778D01*
Y4484111D01*
Y4480889D01*
X709000D01*
Y4477667D01*
X712222D01*
Y4474444D01*
X725111D01*
Y4477667D01*
X728333D01*
Y4480889D01*
X731556D01*
Y4493778D01*
X728333D01*
Y4497000D01*
X725111D01*
Y4500222D01*
D02*
G37*
G36*
X660667D02*
X647778D01*
Y4497000D01*
X644555D01*
Y4493778D01*
X641333D01*
Y4480889D01*
X644555D01*
Y4477667D01*
X647778D01*
Y4474444D01*
X660667D01*
Y4477667D01*
X663889D01*
Y4480889D01*
X667111D01*
Y4493778D01*
X663889D01*
Y4497000D01*
X660667D01*
Y4500222D01*
D02*
G37*
G36*
X628444D02*
X615556D01*
Y4497000D01*
X612333D01*
Y4493778D01*
X609111D01*
Y4480889D01*
X612333D01*
Y4477667D01*
X615556D01*
Y4474444D01*
X628444D01*
Y4477667D01*
X631667D01*
Y4480889D01*
X634889D01*
Y4484111D01*
Y4487333D01*
Y4493778D01*
X631667D01*
Y4497000D01*
X628444D01*
Y4500222D01*
D02*
G37*
G36*
X499556D02*
X486667D01*
Y4497000D01*
X483444D01*
Y4493778D01*
X480222D01*
Y4480889D01*
X483444D01*
Y4477667D01*
X486667D01*
Y4474444D01*
X499556D01*
Y4477667D01*
X502778D01*
Y4480889D01*
X506000D01*
Y4493778D01*
X502778D01*
Y4497000D01*
X499556D01*
Y4500222D01*
D02*
G37*
G36*
X1562889Y4468000D02*
X1550000D01*
Y4464778D01*
X1546778D01*
Y4461555D01*
X1543555D01*
Y4448666D01*
X1546778D01*
Y4445444D01*
X1550000D01*
Y4442222D01*
X1562889D01*
Y4445444D01*
X1566111D01*
Y4448666D01*
X1569333D01*
Y4461555D01*
X1566111D01*
Y4464778D01*
X1562889D01*
Y4468000D01*
D02*
G37*
G36*
X1530666D02*
X1517778D01*
Y4464778D01*
X1514556D01*
Y4461555D01*
X1511333D01*
Y4448666D01*
X1514556D01*
Y4445444D01*
X1517778D01*
Y4442222D01*
X1530666D01*
Y4445444D01*
X1533889D01*
Y4448666D01*
X1537111D01*
Y4461555D01*
X1533889D01*
Y4464778D01*
X1530666D01*
Y4468000D01*
D02*
G37*
G36*
X1466222D02*
X1453333D01*
Y4464778D01*
X1450111D01*
Y4461555D01*
X1446889D01*
Y4448666D01*
X1450111D01*
Y4445444D01*
X1453333D01*
Y4442222D01*
X1466222D01*
Y4445444D01*
X1469444D01*
Y4448666D01*
X1472667D01*
Y4461555D01*
X1469444D01*
Y4464778D01*
X1466222D01*
Y4468000D01*
D02*
G37*
G36*
X1434000D02*
X1421111D01*
Y4464778D01*
X1417889D01*
Y4461555D01*
X1414666D01*
Y4448666D01*
X1417889D01*
Y4445444D01*
X1421111D01*
Y4442222D01*
X1434000D01*
Y4445444D01*
X1437222D01*
Y4448666D01*
X1440444D01*
Y4461555D01*
X1437222D01*
Y4464778D01*
X1434000D01*
Y4468000D01*
D02*
G37*
G36*
X1337333D02*
X1324444D01*
Y4464778D01*
X1321222D01*
Y4461555D01*
X1318000D01*
Y4448666D01*
X1321222D01*
Y4445444D01*
X1324444D01*
Y4442222D01*
X1337333D01*
Y4445444D01*
X1340555D01*
Y4448666D01*
X1343778D01*
Y4461555D01*
X1340555D01*
Y4464778D01*
X1337333D01*
Y4468000D01*
D02*
G37*
G36*
X1305111D02*
X1292222D01*
Y4464778D01*
X1289000D01*
Y4461555D01*
X1285778D01*
Y4448666D01*
X1289000D01*
Y4445444D01*
X1292222D01*
Y4442222D01*
X1305111D01*
Y4445444D01*
X1308333D01*
Y4448666D01*
X1311555D01*
Y4461555D01*
X1308333D01*
Y4464778D01*
X1305111D01*
Y4468000D01*
D02*
G37*
G36*
X1272889D02*
X1260000D01*
Y4464778D01*
X1256778D01*
Y4461555D01*
X1253556D01*
Y4448666D01*
X1256778D01*
Y4445444D01*
X1260000D01*
Y4442222D01*
X1272889D01*
Y4445444D01*
X1276111D01*
Y4448666D01*
X1279333D01*
Y4461555D01*
X1276111D01*
Y4464778D01*
X1272889D01*
Y4468000D01*
D02*
G37*
G36*
X886222D02*
X873333D01*
Y4464778D01*
X870111D01*
Y4461555D01*
X866889D01*
Y4448666D01*
X870111D01*
Y4445444D01*
X873333D01*
Y4442222D01*
X886222D01*
Y4445444D01*
X889444D01*
Y4448666D01*
X892666D01*
Y4451889D01*
Y4455111D01*
Y4461555D01*
X889444D01*
Y4464778D01*
X886222D01*
Y4468000D01*
D02*
G37*
G36*
X789555D02*
X776666D01*
Y4464778D01*
X773444D01*
Y4461555D01*
X770222D01*
Y4458333D01*
Y4455111D01*
Y4448666D01*
X773444D01*
Y4445444D01*
X776666D01*
Y4442222D01*
X789555D01*
Y4445444D01*
X792778D01*
Y4448666D01*
X796000D01*
Y4461555D01*
X792778D01*
Y4464778D01*
X789555D01*
Y4468000D01*
D02*
G37*
G36*
X757333D02*
X744444D01*
Y4464778D01*
X741222D01*
Y4461555D01*
X738000D01*
Y4455111D01*
Y4451889D01*
Y4448666D01*
X741222D01*
Y4445444D01*
X744444D01*
Y4442222D01*
X757333D01*
Y4445444D01*
X760556D01*
Y4448666D01*
X763778D01*
Y4461555D01*
X760556D01*
Y4464778D01*
X757333D01*
Y4468000D01*
D02*
G37*
G36*
X725111D02*
X712222D01*
Y4464778D01*
X709000D01*
Y4461555D01*
X705778D01*
Y4448666D01*
X709000D01*
Y4445444D01*
X712222D01*
Y4442222D01*
X725111D01*
Y4445444D01*
X728333D01*
Y4448666D01*
X731556D01*
Y4461555D01*
X728333D01*
Y4464778D01*
X725111D01*
Y4468000D01*
D02*
G37*
G36*
X692889D02*
X680000D01*
Y4464778D01*
X676778D01*
Y4461555D01*
X673555D01*
Y4448666D01*
X676778D01*
Y4445444D01*
X680000D01*
Y4442222D01*
X692889D01*
Y4445444D01*
X696111D01*
Y4448666D01*
X699333D01*
Y4461555D01*
X696111D01*
Y4464778D01*
X692889D01*
Y4468000D01*
D02*
G37*
G36*
X660667D02*
X647778D01*
Y4464778D01*
X644555D01*
Y4461555D01*
X641333D01*
Y4448666D01*
X644555D01*
Y4445444D01*
X647778D01*
Y4442222D01*
X660667D01*
Y4445444D01*
X663889D01*
Y4448666D01*
X667111D01*
Y4461555D01*
X663889D01*
Y4464778D01*
X660667D01*
Y4468000D01*
D02*
G37*
G36*
X531778D02*
X518889D01*
Y4464778D01*
X515666D01*
Y4461555D01*
X512444D01*
Y4448666D01*
X515666D01*
Y4445444D01*
X518889D01*
Y4442222D01*
X531778D01*
Y4445444D01*
X535000D01*
Y4448666D01*
X538222D01*
Y4458333D01*
Y4461555D01*
X535000D01*
Y4464778D01*
X531778D01*
Y4468000D01*
D02*
G37*
G36*
X1562889Y4435778D02*
X1550000D01*
Y4432556D01*
X1546778D01*
Y4429333D01*
X1543555D01*
Y4416444D01*
X1546778D01*
Y4413222D01*
X1550000D01*
Y4410000D01*
X1562889D01*
Y4413222D01*
X1566111D01*
Y4416444D01*
X1569333D01*
Y4429333D01*
X1566111D01*
Y4432556D01*
X1562889D01*
Y4435778D01*
D02*
G37*
G36*
X1434000D02*
X1421111D01*
Y4432556D01*
X1417889D01*
Y4429333D01*
X1414666D01*
Y4416444D01*
X1417889D01*
Y4413222D01*
X1421111D01*
Y4410000D01*
X1434000D01*
Y4413222D01*
X1437222D01*
Y4416444D01*
X1440444D01*
Y4429333D01*
X1437222D01*
Y4432556D01*
X1434000D01*
Y4435778D01*
D02*
G37*
G36*
X1401778D02*
X1388889D01*
Y4432556D01*
X1385667D01*
Y4429333D01*
X1382444D01*
Y4416444D01*
X1385667D01*
Y4413222D01*
X1388889D01*
Y4410000D01*
X1401778D01*
Y4413222D01*
X1405000D01*
Y4416444D01*
X1408222D01*
Y4429333D01*
X1405000D01*
Y4432556D01*
X1401778D01*
Y4435778D01*
D02*
G37*
G36*
X1240667D02*
X1227778D01*
Y4432556D01*
X1224555D01*
Y4429333D01*
X1221333D01*
Y4416444D01*
X1224555D01*
Y4413222D01*
X1227778D01*
Y4410000D01*
X1240667D01*
Y4413222D01*
X1243889D01*
Y4416444D01*
X1247111D01*
Y4429333D01*
X1243889D01*
Y4432556D01*
X1240667D01*
Y4435778D01*
D02*
G37*
G36*
X886222D02*
X873333D01*
Y4432556D01*
X870111D01*
Y4429333D01*
X866889D01*
Y4416444D01*
X870111D01*
Y4413222D01*
X873333D01*
Y4410000D01*
X886222D01*
Y4413222D01*
X889444D01*
Y4416444D01*
X892666D01*
Y4429333D01*
X889444D01*
Y4432556D01*
X886222D01*
Y4435778D01*
D02*
G37*
G36*
X854000D02*
X841111D01*
Y4432556D01*
X837889D01*
Y4429333D01*
X834667D01*
Y4416444D01*
X837889D01*
Y4413222D01*
X841111D01*
Y4410000D01*
X854000D01*
Y4413222D01*
X857222D01*
Y4416444D01*
X860444D01*
Y4429333D01*
X857222D01*
Y4432556D01*
X854000D01*
Y4435778D01*
D02*
G37*
G36*
X789555D02*
X776666D01*
Y4432556D01*
X773444D01*
Y4429333D01*
X770222D01*
Y4426111D01*
Y4416444D01*
X773444D01*
Y4413222D01*
X776666D01*
Y4410000D01*
X789555D01*
Y4413222D01*
X792778D01*
Y4416444D01*
X796000D01*
Y4429333D01*
X792778D01*
Y4432556D01*
X789555D01*
Y4435778D01*
D02*
G37*
G36*
X660667D02*
X647778D01*
Y4432556D01*
X644555D01*
Y4429333D01*
X641333D01*
Y4416444D01*
X644555D01*
Y4413222D01*
X647778D01*
Y4410000D01*
X660667D01*
Y4413222D01*
X663889D01*
Y4416444D01*
X667111D01*
Y4429333D01*
X663889D01*
Y4432556D01*
X660667D01*
Y4435778D01*
D02*
G37*
G36*
X564000D02*
X551111D01*
Y4432556D01*
X547889D01*
Y4429333D01*
X544667D01*
Y4416444D01*
X547889D01*
Y4413222D01*
X551111D01*
Y4410000D01*
X564000D01*
Y4413222D01*
X567222D01*
Y4416444D01*
X570444D01*
Y4429333D01*
X567222D01*
Y4432556D01*
X564000D01*
Y4435778D01*
D02*
G37*
G36*
X531778D02*
X518889D01*
Y4432556D01*
X515666D01*
Y4429333D01*
X512444D01*
Y4416444D01*
X515666D01*
Y4413222D01*
X518889D01*
Y4410000D01*
X531778D01*
Y4413222D01*
X535000D01*
Y4416444D01*
X538222D01*
Y4429333D01*
X535000D01*
Y4432556D01*
X531778D01*
Y4435778D01*
D02*
G37*
G36*
X1659555Y4403556D02*
X1646667D01*
Y4400333D01*
X1643444D01*
Y4397111D01*
X1640222D01*
Y4384222D01*
X1643444D01*
Y4381000D01*
X1646667D01*
Y4377778D01*
X1659555D01*
Y4381000D01*
X1662778D01*
Y4384222D01*
X1666000D01*
Y4397111D01*
X1662778D01*
Y4400333D01*
X1659555D01*
Y4403556D01*
D02*
G37*
G36*
X1627333D02*
X1614444D01*
Y4400333D01*
X1611222D01*
Y4397111D01*
X1608000D01*
Y4384222D01*
X1611222D01*
Y4381000D01*
X1614444D01*
Y4377778D01*
X1627333D01*
Y4381000D01*
X1630556D01*
Y4384222D01*
X1633778D01*
Y4397111D01*
X1630556D01*
Y4400333D01*
X1627333D01*
Y4403556D01*
D02*
G37*
G36*
X1562889D02*
X1550000D01*
Y4400333D01*
X1546778D01*
Y4397111D01*
X1543555D01*
Y4384222D01*
X1546778D01*
Y4381000D01*
X1550000D01*
Y4377778D01*
X1562889D01*
Y4381000D01*
X1566111D01*
Y4384222D01*
X1569333D01*
Y4397111D01*
X1566111D01*
Y4400333D01*
X1562889D01*
Y4403556D01*
D02*
G37*
G36*
X1530666D02*
X1517778D01*
Y4400333D01*
X1514556D01*
Y4397111D01*
X1511333D01*
Y4393889D01*
Y4384222D01*
X1514556D01*
Y4381000D01*
X1517778D01*
Y4377778D01*
X1530666D01*
Y4381000D01*
X1533889D01*
Y4384222D01*
X1537111D01*
Y4397111D01*
X1533889D01*
Y4400333D01*
X1530666D01*
Y4403556D01*
D02*
G37*
G36*
X1498444D02*
X1485555D01*
Y4400333D01*
X1482333D01*
Y4397111D01*
X1479111D01*
Y4384222D01*
X1482333D01*
Y4381000D01*
X1485555D01*
Y4377778D01*
X1498444D01*
Y4381000D01*
X1501667D01*
Y4384222D01*
X1504889D01*
Y4397111D01*
X1501667D01*
Y4400333D01*
X1498444D01*
Y4403556D01*
D02*
G37*
G36*
X1466222D02*
X1453333D01*
Y4400333D01*
X1450111D01*
Y4397111D01*
X1446889D01*
Y4384222D01*
X1450111D01*
Y4381000D01*
X1453333D01*
Y4377778D01*
X1466222D01*
Y4381000D01*
X1469444D01*
Y4384222D01*
X1472667D01*
Y4397111D01*
X1469444D01*
Y4400333D01*
X1466222D01*
Y4403556D01*
D02*
G37*
G36*
X1369556D02*
X1356667D01*
Y4400333D01*
X1353444D01*
Y4397111D01*
X1350222D01*
Y4387444D01*
Y4384222D01*
X1353444D01*
Y4381000D01*
X1356667D01*
Y4377778D01*
X1369556D01*
Y4381000D01*
X1372778D01*
Y4384222D01*
X1376000D01*
Y4397111D01*
X1372778D01*
Y4400333D01*
X1369556D01*
Y4403556D01*
D02*
G37*
G36*
X918444D02*
X905555D01*
Y4400333D01*
X902333D01*
Y4397111D01*
X899111D01*
Y4384222D01*
X902333D01*
Y4381000D01*
X905555D01*
Y4377778D01*
X918444D01*
Y4381000D01*
X921667D01*
Y4384222D01*
X924889D01*
Y4397111D01*
X921667D01*
Y4400333D01*
X918444D01*
Y4403556D01*
D02*
G37*
G36*
X789555D02*
X776666D01*
Y4400333D01*
X773444D01*
Y4397111D01*
X770222D01*
Y4384222D01*
X773444D01*
Y4381000D01*
X776666D01*
Y4377778D01*
X789555D01*
Y4381000D01*
X792778D01*
Y4384222D01*
X796000D01*
Y4387444D01*
Y4390667D01*
Y4397111D01*
X792778D01*
Y4400333D01*
X789555D01*
Y4403556D01*
D02*
G37*
G36*
X757333D02*
X744444D01*
Y4400333D01*
X741222D01*
Y4397111D01*
X738000D01*
Y4384222D01*
X741222D01*
Y4381000D01*
X744444D01*
Y4377778D01*
X757333D01*
Y4381000D01*
X760556D01*
Y4384222D01*
X763778D01*
Y4397111D01*
X760556D01*
Y4400333D01*
X757333D01*
Y4403556D01*
D02*
G37*
G36*
X725111D02*
X712222D01*
Y4400333D01*
X709000D01*
Y4397111D01*
X705778D01*
Y4393889D01*
Y4384222D01*
X709000D01*
Y4381000D01*
X712222D01*
Y4377778D01*
X725111D01*
Y4381000D01*
X728333D01*
Y4384222D01*
X731556D01*
Y4397111D01*
X728333D01*
Y4400333D01*
X725111D01*
Y4403556D01*
D02*
G37*
G36*
X692889D02*
X680000D01*
Y4400333D01*
X676778D01*
Y4397111D01*
X673555D01*
Y4384222D01*
X676778D01*
Y4381000D01*
X680000D01*
Y4377778D01*
X692889D01*
Y4381000D01*
X696111D01*
Y4384222D01*
X699333D01*
Y4397111D01*
X696111D01*
Y4400333D01*
X692889D01*
Y4403556D01*
D02*
G37*
G36*
X628444D02*
X615556D01*
Y4400333D01*
X612333D01*
Y4397111D01*
X609111D01*
Y4384222D01*
X612333D01*
Y4381000D01*
X615556D01*
Y4377778D01*
X628444D01*
Y4381000D01*
X631667D01*
Y4384222D01*
X634889D01*
Y4397111D01*
X631667D01*
Y4400333D01*
X628444D01*
Y4403556D01*
D02*
G37*
G36*
X564000D02*
X551111D01*
Y4400333D01*
X547889D01*
Y4397111D01*
X544667D01*
Y4384222D01*
X547889D01*
Y4381000D01*
X551111D01*
Y4377778D01*
X564000D01*
Y4381000D01*
X567222D01*
Y4384222D01*
X570444D01*
Y4397111D01*
X567222D01*
Y4400333D01*
X564000D01*
Y4403556D01*
D02*
G37*
G36*
X1659555Y4371333D02*
X1646667D01*
Y4368111D01*
X1643444D01*
Y4364889D01*
X1640222D01*
Y4352000D01*
X1643444D01*
Y4348778D01*
X1646667D01*
Y4345555D01*
X1659555D01*
Y4348778D01*
X1662778D01*
Y4352000D01*
X1666000D01*
Y4364889D01*
X1662778D01*
Y4368111D01*
X1659555D01*
Y4371333D01*
D02*
G37*
G36*
X1627333D02*
X1614444D01*
Y4368111D01*
X1611222D01*
Y4364889D01*
X1608000D01*
Y4352000D01*
X1611222D01*
Y4348778D01*
X1614444D01*
Y4345555D01*
X1627333D01*
Y4348778D01*
X1630556D01*
Y4352000D01*
X1633778D01*
Y4364889D01*
X1630556D01*
Y4368111D01*
X1627333D01*
Y4371333D01*
D02*
G37*
G36*
X1530666D02*
X1517778D01*
Y4368111D01*
X1514556D01*
Y4364889D01*
X1511333D01*
Y4352000D01*
X1514556D01*
Y4348778D01*
X1517778D01*
Y4345555D01*
X1530666D01*
Y4348778D01*
X1533889D01*
Y4352000D01*
X1537111D01*
Y4364889D01*
X1533889D01*
Y4368111D01*
X1530666D01*
Y4371333D01*
D02*
G37*
G36*
X1498444D02*
X1485555D01*
Y4368111D01*
X1482333D01*
Y4364889D01*
X1479111D01*
Y4352000D01*
X1482333D01*
Y4348778D01*
X1485555D01*
Y4345555D01*
X1498444D01*
Y4348778D01*
X1501667D01*
Y4352000D01*
X1504889D01*
Y4364889D01*
X1501667D01*
Y4368111D01*
X1498444D01*
Y4371333D01*
D02*
G37*
G36*
X1466222D02*
X1453333D01*
Y4368111D01*
X1450111D01*
Y4364889D01*
X1446889D01*
Y4352000D01*
X1450111D01*
Y4348778D01*
X1453333D01*
Y4345555D01*
X1466222D01*
Y4348778D01*
X1469444D01*
Y4352000D01*
X1472667D01*
Y4364889D01*
X1469444D01*
Y4368111D01*
X1466222D01*
Y4371333D01*
D02*
G37*
G36*
X1434000D02*
X1421111D01*
Y4368111D01*
X1417889D01*
Y4364889D01*
X1414666D01*
Y4352000D01*
X1417889D01*
Y4348778D01*
X1421111D01*
Y4345555D01*
X1434000D01*
Y4348778D01*
X1437222D01*
Y4352000D01*
X1440444D01*
Y4364889D01*
X1437222D01*
Y4368111D01*
X1434000D01*
Y4371333D01*
D02*
G37*
G36*
X1401778D02*
X1388889D01*
Y4368111D01*
X1385667D01*
Y4364889D01*
X1382444D01*
Y4352000D01*
X1385667D01*
Y4348778D01*
X1388889D01*
Y4345555D01*
X1401778D01*
Y4348778D01*
X1405000D01*
Y4352000D01*
X1408222D01*
Y4364889D01*
X1405000D01*
Y4368111D01*
X1401778D01*
Y4371333D01*
D02*
G37*
G36*
X1369556D02*
X1356667D01*
Y4368111D01*
X1353444D01*
Y4364889D01*
X1350222D01*
Y4352000D01*
X1353444D01*
Y4348778D01*
X1356667D01*
Y4345555D01*
X1369556D01*
Y4348778D01*
X1372778D01*
Y4352000D01*
X1376000D01*
Y4364889D01*
X1372778D01*
Y4368111D01*
X1369556D01*
Y4371333D01*
D02*
G37*
G36*
X1337333D02*
X1324444D01*
Y4368111D01*
X1321222D01*
Y4364889D01*
X1318000D01*
Y4352000D01*
X1321222D01*
Y4348778D01*
X1324444D01*
Y4345555D01*
X1337333D01*
Y4348778D01*
X1340555D01*
Y4352000D01*
X1343778D01*
Y4358444D01*
Y4361667D01*
Y4364889D01*
X1340555D01*
Y4368111D01*
X1337333D01*
Y4371333D01*
D02*
G37*
G36*
X1272889D02*
X1260000D01*
Y4368111D01*
X1256778D01*
Y4364889D01*
X1253556D01*
Y4352000D01*
X1256778D01*
Y4348778D01*
X1260000D01*
Y4345555D01*
X1272889D01*
Y4348778D01*
X1276111D01*
Y4352000D01*
X1279333D01*
Y4364889D01*
X1276111D01*
Y4368111D01*
X1272889D01*
Y4371333D01*
D02*
G37*
G36*
X1240667D02*
X1227778D01*
Y4368111D01*
X1224555D01*
Y4364889D01*
X1221333D01*
Y4352000D01*
X1224555D01*
Y4348778D01*
X1227778D01*
Y4345555D01*
X1240667D01*
Y4348778D01*
X1243889D01*
Y4352000D01*
X1247111D01*
Y4364889D01*
X1243889D01*
Y4368111D01*
X1240667D01*
Y4371333D01*
D02*
G37*
G36*
X918444D02*
X905555D01*
Y4368111D01*
X902333D01*
Y4364889D01*
X899111D01*
Y4352000D01*
X902333D01*
Y4348778D01*
X905555D01*
Y4345555D01*
X918444D01*
Y4348778D01*
X921667D01*
Y4352000D01*
X924889D01*
Y4364889D01*
X921667D01*
Y4368111D01*
X918444D01*
Y4371333D01*
D02*
G37*
G36*
X886222D02*
X873333D01*
Y4368111D01*
X870111D01*
Y4364889D01*
X866889D01*
Y4352000D01*
X870111D01*
Y4348778D01*
X873333D01*
Y4345555D01*
X886222D01*
Y4348778D01*
X889444D01*
Y4352000D01*
X892666D01*
Y4364889D01*
X889444D01*
Y4368111D01*
X886222D01*
Y4371333D01*
D02*
G37*
G36*
X757333D02*
X744444D01*
Y4368111D01*
X741222D01*
Y4364889D01*
X738000D01*
Y4352000D01*
X741222D01*
Y4348778D01*
X744444D01*
Y4345555D01*
X757333D01*
Y4348778D01*
X760556D01*
Y4352000D01*
X763778D01*
Y4364889D01*
X760556D01*
Y4368111D01*
X757333D01*
Y4371333D01*
D02*
G37*
G36*
X660667D02*
X647778D01*
Y4368111D01*
X644555D01*
Y4364889D01*
X641333D01*
Y4352000D01*
X644555D01*
Y4348778D01*
X647778D01*
Y4345555D01*
X660667D01*
Y4348778D01*
X663889D01*
Y4352000D01*
X667111D01*
Y4364889D01*
X663889D01*
Y4368111D01*
X660667D01*
Y4371333D01*
D02*
G37*
G36*
X628444D02*
X615556D01*
Y4368111D01*
X612333D01*
Y4364889D01*
X609111D01*
Y4352000D01*
X612333D01*
Y4348778D01*
X615556D01*
Y4345555D01*
X628444D01*
Y4348778D01*
X631667D01*
Y4352000D01*
X634889D01*
Y4364889D01*
X631667D01*
Y4368111D01*
X628444D01*
Y4371333D01*
D02*
G37*
G36*
X596222D02*
X583333D01*
Y4368111D01*
X580111D01*
Y4364889D01*
X576889D01*
Y4352000D01*
X580111D01*
Y4348778D01*
X583333D01*
Y4345555D01*
X596222D01*
Y4348778D01*
X599444D01*
Y4352000D01*
X602667D01*
Y4364889D01*
X599444D01*
Y4368111D01*
X596222D01*
Y4371333D01*
D02*
G37*
G36*
X564000D02*
X551111D01*
Y4368111D01*
X547889D01*
Y4364889D01*
X544667D01*
Y4352000D01*
X547889D01*
Y4348778D01*
X551111D01*
Y4345555D01*
X564000D01*
Y4348778D01*
X567222D01*
Y4352000D01*
X570444D01*
Y4355222D01*
Y4364889D01*
X567222D01*
Y4368111D01*
X564000D01*
Y4371333D01*
D02*
G37*
G36*
X499556D02*
X486667D01*
Y4368111D01*
X483444D01*
Y4364889D01*
X480222D01*
Y4361667D01*
Y4352000D01*
X483444D01*
Y4348778D01*
X486667D01*
Y4345555D01*
X499556D01*
Y4348778D01*
X502778D01*
Y4352000D01*
X506000D01*
Y4364889D01*
X502778D01*
Y4368111D01*
X499556D01*
Y4371333D01*
D02*
G37*
G36*
X1659555Y4339111D02*
X1646667D01*
Y4335889D01*
X1643444D01*
Y4332667D01*
X1640222D01*
Y4319778D01*
X1643444D01*
Y4316556D01*
X1646667D01*
Y4313333D01*
X1659555D01*
Y4316556D01*
X1662778D01*
Y4319778D01*
X1666000D01*
Y4332667D01*
X1662778D01*
Y4335889D01*
X1659555D01*
Y4339111D01*
D02*
G37*
G36*
X1595111D02*
X1582222D01*
Y4335889D01*
X1579000D01*
Y4332667D01*
X1575778D01*
Y4319778D01*
X1579000D01*
Y4316556D01*
X1582222D01*
Y4313333D01*
X1595111D01*
Y4316556D01*
X1598333D01*
Y4319778D01*
X1601555D01*
Y4332667D01*
X1598333D01*
Y4335889D01*
X1595111D01*
Y4339111D01*
D02*
G37*
G36*
X1498444D02*
X1485555D01*
Y4335889D01*
X1482333D01*
Y4332667D01*
X1479111D01*
Y4319778D01*
X1482333D01*
Y4316556D01*
X1485555D01*
Y4313333D01*
X1498444D01*
Y4316556D01*
X1501667D01*
Y4319778D01*
X1504889D01*
Y4332667D01*
X1501667D01*
Y4335889D01*
X1498444D01*
Y4339111D01*
D02*
G37*
G36*
X1466222D02*
X1453333D01*
Y4335889D01*
X1450111D01*
Y4332667D01*
X1446889D01*
Y4319778D01*
X1450111D01*
Y4316556D01*
X1453333D01*
Y4313333D01*
X1466222D01*
Y4316556D01*
X1469444D01*
Y4319778D01*
X1472667D01*
Y4332667D01*
X1469444D01*
Y4335889D01*
X1466222D01*
Y4339111D01*
D02*
G37*
G36*
X1401778D02*
X1388889D01*
Y4335889D01*
X1385667D01*
Y4332667D01*
X1382444D01*
Y4319778D01*
X1385667D01*
Y4316556D01*
X1388889D01*
Y4313333D01*
X1401778D01*
Y4316556D01*
X1405000D01*
Y4319778D01*
X1408222D01*
Y4329444D01*
Y4332667D01*
X1405000D01*
Y4335889D01*
X1401778D01*
Y4339111D01*
D02*
G37*
G36*
X1272889D02*
X1260000D01*
Y4335889D01*
X1256778D01*
Y4332667D01*
X1253556D01*
Y4319778D01*
X1256778D01*
Y4316556D01*
X1260000D01*
Y4313333D01*
X1272889D01*
Y4316556D01*
X1276111D01*
Y4319778D01*
X1279333D01*
Y4326222D01*
Y4329444D01*
Y4332667D01*
X1276111D01*
Y4335889D01*
X1272889D01*
Y4339111D01*
D02*
G37*
G36*
X1208444D02*
X1195555D01*
Y4335889D01*
X1192333D01*
Y4332667D01*
X1189111D01*
Y4319778D01*
X1192333D01*
Y4316556D01*
X1195555D01*
Y4313333D01*
X1208444D01*
Y4316556D01*
X1211667D01*
Y4319778D01*
X1214889D01*
Y4332667D01*
X1211667D01*
Y4335889D01*
X1208444D01*
Y4339111D01*
D02*
G37*
G36*
X1176222D02*
X1163333D01*
Y4335889D01*
X1160111D01*
Y4332667D01*
X1156889D01*
Y4319778D01*
X1160111D01*
Y4316556D01*
X1163333D01*
Y4313333D01*
X1176222D01*
Y4316556D01*
X1179444D01*
Y4319778D01*
X1182667D01*
Y4323000D01*
Y4332667D01*
X1179444D01*
Y4335889D01*
X1176222D01*
Y4339111D01*
D02*
G37*
G36*
X1144000D02*
X1131111D01*
Y4335889D01*
X1127889D01*
Y4332667D01*
X1124667D01*
Y4319778D01*
X1127889D01*
Y4316556D01*
X1131111D01*
Y4313333D01*
X1144000D01*
Y4316556D01*
X1147222D01*
Y4319778D01*
X1150444D01*
Y4332667D01*
X1147222D01*
Y4335889D01*
X1144000D01*
Y4339111D01*
D02*
G37*
G36*
X1079555D02*
X1066667D01*
Y4335889D01*
X1063444D01*
Y4332667D01*
X1060222D01*
Y4319778D01*
X1063444D01*
Y4316556D01*
X1066667D01*
Y4313333D01*
X1079555D01*
Y4316556D01*
X1082778D01*
Y4319778D01*
X1086000D01*
Y4332667D01*
X1082778D01*
Y4335889D01*
X1079555D01*
Y4339111D01*
D02*
G37*
G36*
X982889D02*
X970000D01*
Y4335889D01*
X966778D01*
Y4332667D01*
X963555D01*
Y4319778D01*
X966778D01*
Y4316556D01*
X970000D01*
Y4313333D01*
X982889D01*
Y4316556D01*
X986111D01*
Y4319778D01*
X989333D01*
Y4332667D01*
X986111D01*
Y4335889D01*
X982889D01*
Y4339111D01*
D02*
G37*
G36*
X950667D02*
X937778D01*
Y4335889D01*
X934555D01*
Y4332667D01*
X931333D01*
Y4319778D01*
X934555D01*
Y4316556D01*
X937778D01*
Y4313333D01*
X950667D01*
Y4316556D01*
X953889D01*
Y4319778D01*
X957111D01*
Y4332667D01*
X953889D01*
Y4335889D01*
X950667D01*
Y4339111D01*
D02*
G37*
G36*
X886222D02*
X873333D01*
Y4335889D01*
X870111D01*
Y4332667D01*
X866889D01*
Y4319778D01*
X870111D01*
Y4316556D01*
X873333D01*
Y4313333D01*
X886222D01*
Y4316556D01*
X889444D01*
Y4319778D01*
X892666D01*
Y4332667D01*
X889444D01*
Y4335889D01*
X886222D01*
Y4339111D01*
D02*
G37*
G36*
X821778D02*
X808889D01*
Y4335889D01*
X805667D01*
Y4332667D01*
X802444D01*
Y4329444D01*
Y4319778D01*
X805667D01*
Y4316556D01*
X808889D01*
Y4313333D01*
X821778D01*
Y4316556D01*
X825000D01*
Y4319778D01*
X828222D01*
Y4332667D01*
X825000D01*
Y4335889D01*
X821778D01*
Y4339111D01*
D02*
G37*
G36*
X692889D02*
X680000D01*
Y4335889D01*
X676778D01*
Y4332667D01*
X673555D01*
Y4319778D01*
X676778D01*
Y4316556D01*
X680000D01*
Y4313333D01*
X692889D01*
Y4316556D01*
X696111D01*
Y4319778D01*
X699333D01*
Y4332667D01*
X696111D01*
Y4335889D01*
X692889D01*
Y4339111D01*
D02*
G37*
G36*
X660667D02*
X647778D01*
Y4335889D01*
X644555D01*
Y4332667D01*
X641333D01*
Y4319778D01*
X644555D01*
Y4316556D01*
X647778D01*
Y4313333D01*
X660667D01*
Y4316556D01*
X663889D01*
Y4319778D01*
X667111D01*
Y4332667D01*
X663889D01*
Y4335889D01*
X660667D01*
Y4339111D01*
D02*
G37*
G36*
X628444D02*
X615556D01*
Y4335889D01*
X612333D01*
Y4332667D01*
X609111D01*
Y4319778D01*
X612333D01*
Y4316556D01*
X615556D01*
Y4313333D01*
X628444D01*
Y4316556D01*
X631667D01*
Y4319778D01*
X634889D01*
Y4332667D01*
X631667D01*
Y4335889D01*
X628444D01*
Y4339111D01*
D02*
G37*
G36*
X564000D02*
X551111D01*
Y4335889D01*
X547889D01*
Y4332667D01*
X544667D01*
Y4326222D01*
Y4323000D01*
Y4319778D01*
X547889D01*
Y4316556D01*
X551111D01*
Y4313333D01*
X564000D01*
Y4316556D01*
X567222D01*
Y4319778D01*
X570444D01*
Y4332667D01*
X567222D01*
Y4335889D01*
X564000D01*
Y4339111D01*
D02*
G37*
G36*
X1562889Y4306889D02*
X1550000D01*
Y4303667D01*
X1546778D01*
Y4300444D01*
X1543555D01*
Y4287556D01*
X1546778D01*
Y4284333D01*
X1550000D01*
Y4281111D01*
X1562889D01*
Y4284333D01*
X1566111D01*
Y4287556D01*
X1569333D01*
Y4300444D01*
X1566111D01*
Y4303667D01*
X1562889D01*
Y4306889D01*
D02*
G37*
G36*
X1466222D02*
X1453333D01*
Y4303667D01*
X1450111D01*
Y4300444D01*
X1446889D01*
Y4287556D01*
X1450111D01*
Y4284333D01*
X1453333D01*
Y4281111D01*
X1466222D01*
Y4284333D01*
X1469444D01*
Y4287556D01*
X1472667D01*
Y4300444D01*
X1469444D01*
Y4303667D01*
X1466222D01*
Y4306889D01*
D02*
G37*
G36*
X1434000D02*
X1421111D01*
Y4303667D01*
X1417889D01*
Y4300444D01*
X1414666D01*
Y4287556D01*
X1417889D01*
Y4284333D01*
X1421111D01*
Y4281111D01*
X1434000D01*
Y4284333D01*
X1437222D01*
Y4287556D01*
X1440444D01*
Y4300444D01*
X1437222D01*
Y4303667D01*
X1434000D01*
Y4306889D01*
D02*
G37*
G36*
X1369556D02*
X1356667D01*
Y4303667D01*
X1353444D01*
Y4300444D01*
X1350222D01*
Y4294000D01*
Y4290778D01*
Y4287556D01*
X1353444D01*
Y4284333D01*
X1356667D01*
Y4281111D01*
X1369556D01*
Y4284333D01*
X1372778D01*
Y4287556D01*
X1376000D01*
Y4300444D01*
X1372778D01*
Y4303667D01*
X1369556D01*
Y4306889D01*
D02*
G37*
G36*
X1337333D02*
X1324444D01*
Y4303667D01*
X1321222D01*
Y4300444D01*
X1318000D01*
Y4287556D01*
X1321222D01*
Y4284333D01*
X1324444D01*
Y4281111D01*
X1337333D01*
Y4284333D01*
X1340555D01*
Y4287556D01*
X1343778D01*
Y4300444D01*
X1340555D01*
Y4303667D01*
X1337333D01*
Y4306889D01*
D02*
G37*
G36*
X1305111D02*
X1292222D01*
Y4303667D01*
X1289000D01*
Y4300444D01*
X1285778D01*
Y4287556D01*
X1289000D01*
Y4284333D01*
X1292222D01*
Y4281111D01*
X1305111D01*
Y4284333D01*
X1308333D01*
Y4287556D01*
X1311555D01*
Y4300444D01*
X1308333D01*
Y4303667D01*
X1305111D01*
Y4306889D01*
D02*
G37*
G36*
X1047333D02*
X1034444D01*
Y4303667D01*
X1031222D01*
Y4300444D01*
X1028000D01*
Y4287556D01*
X1031222D01*
Y4284333D01*
X1034444D01*
Y4281111D01*
X1047333D01*
Y4284333D01*
X1050555D01*
Y4287556D01*
X1053778D01*
Y4300444D01*
X1050555D01*
Y4303667D01*
X1047333D01*
Y4306889D01*
D02*
G37*
G36*
X1015111D02*
X1002222D01*
Y4303667D01*
X999000D01*
Y4300444D01*
X995778D01*
Y4287556D01*
X999000D01*
Y4284333D01*
X1002222D01*
Y4281111D01*
X1015111D01*
Y4284333D01*
X1018333D01*
Y4287556D01*
X1021555D01*
Y4300444D01*
X1018333D01*
Y4303667D01*
X1015111D01*
Y4306889D01*
D02*
G37*
G36*
X982889D02*
X970000D01*
Y4303667D01*
X966778D01*
Y4300444D01*
X963555D01*
Y4287556D01*
X966778D01*
Y4284333D01*
X970000D01*
Y4281111D01*
X982889D01*
Y4284333D01*
X986111D01*
Y4287556D01*
X989333D01*
Y4300444D01*
X986111D01*
Y4303667D01*
X982889D01*
Y4306889D01*
D02*
G37*
G36*
X886222D02*
X873333D01*
Y4303667D01*
X870111D01*
Y4300444D01*
X866889D01*
Y4287556D01*
X870111D01*
Y4284333D01*
X873333D01*
Y4281111D01*
X886222D01*
Y4284333D01*
X889444D01*
Y4287556D01*
X892666D01*
Y4300444D01*
X889444D01*
Y4303667D01*
X886222D01*
Y4306889D01*
D02*
G37*
G36*
X725111D02*
X712222D01*
Y4303667D01*
X709000D01*
Y4300444D01*
X705778D01*
Y4287556D01*
X709000D01*
Y4284333D01*
X712222D01*
Y4281111D01*
X725111D01*
Y4284333D01*
X728333D01*
Y4287556D01*
X731556D01*
Y4300444D01*
X728333D01*
Y4303667D01*
X725111D01*
Y4306889D01*
D02*
G37*
G36*
X660667D02*
X647778D01*
Y4303667D01*
X644555D01*
Y4300444D01*
X641333D01*
Y4287556D01*
X644555D01*
Y4284333D01*
X647778D01*
Y4281111D01*
X660667D01*
Y4284333D01*
X663889D01*
Y4287556D01*
X667111D01*
Y4300444D01*
X663889D01*
Y4303667D01*
X660667D01*
Y4306889D01*
D02*
G37*
G36*
X596222D02*
X583333D01*
Y4303667D01*
X580111D01*
Y4300444D01*
X576889D01*
Y4287556D01*
X580111D01*
Y4284333D01*
X583333D01*
Y4281111D01*
X596222D01*
Y4284333D01*
X599444D01*
Y4287556D01*
X602667D01*
Y4290778D01*
Y4294000D01*
Y4300444D01*
X599444D01*
Y4303667D01*
X596222D01*
Y4306889D01*
D02*
G37*
G36*
X564000D02*
X551111D01*
Y4303667D01*
X547889D01*
Y4300444D01*
X544667D01*
Y4287556D01*
X547889D01*
Y4284333D01*
X551111D01*
Y4281111D01*
X564000D01*
Y4284333D01*
X567222D01*
Y4287556D01*
X570444D01*
Y4300444D01*
X567222D01*
Y4303667D01*
X564000D01*
Y4306889D01*
D02*
G37*
G36*
X531778D02*
X518889D01*
Y4303667D01*
X515666D01*
Y4300444D01*
X512444D01*
Y4287556D01*
X515666D01*
Y4284333D01*
X518889D01*
Y4281111D01*
X531778D01*
Y4284333D01*
X535000D01*
Y4287556D01*
X538222D01*
Y4300444D01*
X535000D01*
Y4303667D01*
X531778D01*
Y4306889D01*
D02*
G37*
G36*
X499556D02*
X486667D01*
Y4303667D01*
X483444D01*
Y4300444D01*
X480222D01*
Y4287556D01*
X483444D01*
Y4284333D01*
X486667D01*
Y4281111D01*
X499556D01*
Y4284333D01*
X502778D01*
Y4287556D01*
X506000D01*
Y4300444D01*
X502778D01*
Y4303667D01*
X499556D01*
Y4306889D01*
D02*
G37*
G36*
X1659555Y4274667D02*
X1646667D01*
Y4271444D01*
X1643444D01*
Y4268222D01*
X1640222D01*
Y4255333D01*
X1643444D01*
Y4252111D01*
X1646667D01*
Y4248889D01*
X1659555D01*
Y4252111D01*
X1662778D01*
Y4255333D01*
X1666000D01*
Y4268222D01*
X1662778D01*
Y4271444D01*
X1659555D01*
Y4274667D01*
D02*
G37*
G36*
X1627333D02*
X1614444D01*
Y4271444D01*
X1611222D01*
Y4268222D01*
X1608000D01*
Y4255333D01*
X1611222D01*
Y4252111D01*
X1614444D01*
Y4248889D01*
X1627333D01*
Y4252111D01*
X1630556D01*
Y4255333D01*
X1633778D01*
Y4268222D01*
X1630556D01*
Y4271444D01*
X1627333D01*
Y4274667D01*
D02*
G37*
G36*
X1498444D02*
X1485555D01*
Y4271444D01*
X1482333D01*
Y4268222D01*
X1479111D01*
Y4255333D01*
X1482333D01*
Y4252111D01*
X1485555D01*
Y4248889D01*
X1498444D01*
Y4252111D01*
X1501667D01*
Y4255333D01*
X1504889D01*
Y4268222D01*
X1501667D01*
Y4271444D01*
X1498444D01*
Y4274667D01*
D02*
G37*
G36*
X1466222D02*
X1453333D01*
Y4271444D01*
X1450111D01*
Y4268222D01*
X1446889D01*
Y4255333D01*
X1450111D01*
Y4252111D01*
X1453333D01*
Y4248889D01*
X1466222D01*
Y4252111D01*
X1469444D01*
Y4255333D01*
X1472667D01*
Y4268222D01*
X1469444D01*
Y4271444D01*
X1466222D01*
Y4274667D01*
D02*
G37*
G36*
X1434000D02*
X1421111D01*
Y4271444D01*
X1417889D01*
Y4268222D01*
X1414666D01*
Y4255333D01*
X1417889D01*
Y4252111D01*
X1421111D01*
Y4248889D01*
X1434000D01*
Y4252111D01*
X1437222D01*
Y4255333D01*
X1440444D01*
Y4268222D01*
X1437222D01*
Y4271444D01*
X1434000D01*
Y4274667D01*
D02*
G37*
G36*
X1401778D02*
X1388889D01*
Y4271444D01*
X1385667D01*
Y4268222D01*
X1382444D01*
Y4265000D01*
Y4255333D01*
X1385667D01*
Y4252111D01*
X1388889D01*
Y4248889D01*
X1401778D01*
Y4252111D01*
X1405000D01*
Y4255333D01*
X1408222D01*
Y4268222D01*
X1405000D01*
Y4271444D01*
X1401778D01*
Y4274667D01*
D02*
G37*
G36*
X1369556D02*
X1356667D01*
Y4271444D01*
X1353444D01*
Y4268222D01*
X1350222D01*
Y4255333D01*
X1353444D01*
Y4252111D01*
X1356667D01*
Y4248889D01*
X1369556D01*
Y4252111D01*
X1372778D01*
Y4255333D01*
X1376000D01*
Y4268222D01*
X1372778D01*
Y4271444D01*
X1369556D01*
Y4274667D01*
D02*
G37*
G36*
X1272889D02*
X1260000D01*
Y4271444D01*
X1256778D01*
Y4268222D01*
X1253556D01*
Y4255333D01*
X1256778D01*
Y4252111D01*
X1260000D01*
Y4248889D01*
X1272889D01*
Y4252111D01*
X1276111D01*
Y4255333D01*
X1279333D01*
Y4268222D01*
X1276111D01*
Y4271444D01*
X1272889D01*
Y4274667D01*
D02*
G37*
G36*
X1240667D02*
X1227778D01*
Y4271444D01*
X1224555D01*
Y4268222D01*
X1221333D01*
Y4255333D01*
X1224555D01*
Y4252111D01*
X1227778D01*
Y4248889D01*
X1240667D01*
Y4252111D01*
X1243889D01*
Y4255333D01*
X1247111D01*
Y4268222D01*
X1243889D01*
Y4271444D01*
X1240667D01*
Y4274667D01*
D02*
G37*
G36*
X1208444D02*
X1195555D01*
Y4271444D01*
X1192333D01*
Y4268222D01*
X1189111D01*
Y4255333D01*
X1192333D01*
Y4252111D01*
X1195555D01*
Y4248889D01*
X1208444D01*
Y4252111D01*
X1211667D01*
Y4255333D01*
X1214889D01*
Y4268222D01*
X1211667D01*
Y4271444D01*
X1208444D01*
Y4274667D01*
D02*
G37*
G36*
X1144000D02*
X1131111D01*
Y4271444D01*
X1127889D01*
Y4268222D01*
X1124667D01*
Y4255333D01*
X1127889D01*
Y4252111D01*
X1131111D01*
Y4248889D01*
X1144000D01*
Y4252111D01*
X1147222D01*
Y4255333D01*
X1150444D01*
Y4265000D01*
Y4268222D01*
X1147222D01*
Y4271444D01*
X1144000D01*
Y4274667D01*
D02*
G37*
G36*
X1079555D02*
X1066667D01*
Y4271444D01*
X1063444D01*
Y4268222D01*
X1060222D01*
Y4255333D01*
X1063444D01*
Y4252111D01*
X1066667D01*
Y4248889D01*
X1079555D01*
Y4252111D01*
X1082778D01*
Y4255333D01*
X1086000D01*
Y4268222D01*
X1082778D01*
Y4271444D01*
X1079555D01*
Y4274667D01*
D02*
G37*
G36*
X1047333D02*
X1034444D01*
Y4271444D01*
X1031222D01*
Y4268222D01*
X1028000D01*
Y4258556D01*
Y4255333D01*
X1031222D01*
Y4252111D01*
X1034444D01*
Y4248889D01*
X1047333D01*
Y4252111D01*
X1050555D01*
Y4255333D01*
X1053778D01*
Y4268222D01*
X1050555D01*
Y4271444D01*
X1047333D01*
Y4274667D01*
D02*
G37*
G36*
X950667D02*
X937778D01*
Y4271444D01*
X934555D01*
Y4268222D01*
X931333D01*
Y4255333D01*
X934555D01*
Y4252111D01*
X937778D01*
Y4248889D01*
X950667D01*
Y4252111D01*
X953889D01*
Y4255333D01*
X957111D01*
Y4268222D01*
X953889D01*
Y4271444D01*
X950667D01*
Y4274667D01*
D02*
G37*
G36*
X757333D02*
X744444D01*
Y4271444D01*
X741222D01*
Y4268222D01*
X738000D01*
Y4255333D01*
X741222D01*
Y4252111D01*
X744444D01*
Y4248889D01*
X757333D01*
Y4252111D01*
X760556D01*
Y4255333D01*
X763778D01*
Y4268222D01*
X760556D01*
Y4271444D01*
X757333D01*
Y4274667D01*
D02*
G37*
G36*
X692889D02*
X680000D01*
Y4271444D01*
X676778D01*
Y4268222D01*
X673555D01*
Y4255333D01*
X676778D01*
Y4252111D01*
X680000D01*
Y4248889D01*
X692889D01*
Y4252111D01*
X696111D01*
Y4255333D01*
X699333D01*
Y4268222D01*
X696111D01*
Y4271444D01*
X692889D01*
Y4274667D01*
D02*
G37*
G36*
X628444D02*
X615556D01*
Y4271444D01*
X612333D01*
Y4268222D01*
X609111D01*
Y4255333D01*
X612333D01*
Y4252111D01*
X615556D01*
Y4248889D01*
X628444D01*
Y4252111D01*
X631667D01*
Y4255333D01*
X634889D01*
Y4268222D01*
X631667D01*
Y4271444D01*
X628444D01*
Y4274667D01*
D02*
G37*
G36*
X499556D02*
X486667D01*
Y4271444D01*
X483444D01*
Y4268222D01*
X480222D01*
Y4255333D01*
X483444D01*
Y4252111D01*
X486667D01*
Y4248889D01*
X499556D01*
Y4252111D01*
X502778D01*
Y4255333D01*
X506000D01*
Y4258556D01*
Y4268222D01*
X502778D01*
Y4271444D01*
X499556D01*
Y4274667D01*
D02*
G37*
G36*
X1659555Y4242444D02*
X1646667D01*
Y4239222D01*
X1643444D01*
Y4236000D01*
X1640222D01*
Y4223111D01*
X1643444D01*
Y4219889D01*
X1646667D01*
Y4216667D01*
X1659555D01*
Y4219889D01*
X1662778D01*
Y4223111D01*
X1666000D01*
Y4236000D01*
X1662778D01*
Y4239222D01*
X1659555D01*
Y4242444D01*
D02*
G37*
G36*
X1627333D02*
X1614444D01*
Y4239222D01*
X1611222D01*
Y4236000D01*
X1608000D01*
Y4223111D01*
X1611222D01*
Y4219889D01*
X1614444D01*
Y4216667D01*
X1627333D01*
Y4219889D01*
X1630556D01*
Y4223111D01*
X1633778D01*
Y4236000D01*
X1630556D01*
Y4239222D01*
X1627333D01*
Y4242444D01*
D02*
G37*
G36*
X1562889D02*
X1550000D01*
Y4239222D01*
X1546778D01*
Y4236000D01*
X1543555D01*
Y4223111D01*
X1546778D01*
Y4219889D01*
X1550000D01*
Y4216667D01*
X1562889D01*
Y4219889D01*
X1566111D01*
Y4223111D01*
X1569333D01*
Y4226333D01*
Y4229555D01*
Y4236000D01*
X1566111D01*
Y4239222D01*
X1562889D01*
Y4242444D01*
D02*
G37*
G36*
X1434000D02*
X1421111D01*
Y4239222D01*
X1417889D01*
Y4236000D01*
X1414666D01*
Y4229555D01*
Y4226333D01*
Y4223111D01*
X1417889D01*
Y4219889D01*
X1421111D01*
Y4216667D01*
X1434000D01*
Y4219889D01*
X1437222D01*
Y4223111D01*
X1440444D01*
Y4236000D01*
X1437222D01*
Y4239222D01*
X1434000D01*
Y4242444D01*
D02*
G37*
G36*
X1369556D02*
X1356667D01*
Y4239222D01*
X1353444D01*
Y4236000D01*
X1350222D01*
Y4223111D01*
X1353444D01*
Y4219889D01*
X1356667D01*
Y4216667D01*
X1369556D01*
Y4219889D01*
X1372778D01*
Y4223111D01*
X1376000D01*
Y4236000D01*
X1372778D01*
Y4239222D01*
X1369556D01*
Y4242444D01*
D02*
G37*
G36*
X1337333D02*
X1324444D01*
Y4239222D01*
X1321222D01*
Y4236000D01*
X1318000D01*
Y4232778D01*
Y4229555D01*
Y4223111D01*
X1321222D01*
Y4219889D01*
X1324444D01*
Y4216667D01*
X1337333D01*
Y4219889D01*
X1340555D01*
Y4223111D01*
X1343778D01*
Y4236000D01*
X1340555D01*
Y4239222D01*
X1337333D01*
Y4242444D01*
D02*
G37*
G36*
X1240667D02*
X1227778D01*
Y4239222D01*
X1224555D01*
Y4236000D01*
X1221333D01*
Y4223111D01*
X1224555D01*
Y4219889D01*
X1227778D01*
Y4216667D01*
X1240667D01*
Y4219889D01*
X1243889D01*
Y4223111D01*
X1247111D01*
Y4236000D01*
X1243889D01*
Y4239222D01*
X1240667D01*
Y4242444D01*
D02*
G37*
G36*
X1208444D02*
X1195555D01*
Y4239222D01*
X1192333D01*
Y4236000D01*
X1189111D01*
Y4223111D01*
X1192333D01*
Y4219889D01*
X1195555D01*
Y4216667D01*
X1208444D01*
Y4219889D01*
X1211667D01*
Y4223111D01*
X1214889D01*
Y4236000D01*
X1211667D01*
Y4239222D01*
X1208444D01*
Y4242444D01*
D02*
G37*
G36*
X1176222D02*
X1163333D01*
Y4239222D01*
X1160111D01*
Y4236000D01*
X1156889D01*
Y4223111D01*
X1160111D01*
Y4219889D01*
X1163333D01*
Y4216667D01*
X1176222D01*
Y4219889D01*
X1179444D01*
Y4223111D01*
X1182667D01*
Y4236000D01*
X1179444D01*
Y4239222D01*
X1176222D01*
Y4242444D01*
D02*
G37*
G36*
X1079555D02*
X1066667D01*
Y4239222D01*
X1063444D01*
Y4236000D01*
X1060222D01*
Y4223111D01*
X1063444D01*
Y4219889D01*
X1066667D01*
Y4216667D01*
X1079555D01*
Y4219889D01*
X1082778D01*
Y4223111D01*
X1086000D01*
Y4236000D01*
X1082778D01*
Y4239222D01*
X1079555D01*
Y4242444D01*
D02*
G37*
G36*
X1015111D02*
X1002222D01*
Y4239222D01*
X999000D01*
Y4236000D01*
X995778D01*
Y4232778D01*
Y4223111D01*
X999000D01*
Y4219889D01*
X1002222D01*
Y4216667D01*
X1015111D01*
Y4219889D01*
X1018333D01*
Y4223111D01*
X1021555D01*
Y4236000D01*
X1018333D01*
Y4239222D01*
X1015111D01*
Y4242444D01*
D02*
G37*
G36*
X821778D02*
X808889D01*
Y4239222D01*
X805667D01*
Y4236000D01*
X802444D01*
Y4232778D01*
Y4223111D01*
X805667D01*
Y4219889D01*
X808889D01*
Y4216667D01*
X821778D01*
Y4219889D01*
X825000D01*
Y4223111D01*
X828222D01*
Y4236000D01*
X825000D01*
Y4239222D01*
X821778D01*
Y4242444D01*
D02*
G37*
G36*
X725111D02*
X712222D01*
Y4239222D01*
X709000D01*
Y4236000D01*
X705778D01*
Y4223111D01*
X709000D01*
Y4219889D01*
X712222D01*
Y4216667D01*
X725111D01*
Y4219889D01*
X728333D01*
Y4223111D01*
X731556D01*
Y4236000D01*
X728333D01*
Y4239222D01*
X725111D01*
Y4242444D01*
D02*
G37*
G36*
X660667D02*
X647778D01*
Y4239222D01*
X644555D01*
Y4236000D01*
X641333D01*
Y4223111D01*
X644555D01*
Y4219889D01*
X647778D01*
Y4216667D01*
X660667D01*
Y4219889D01*
X663889D01*
Y4223111D01*
X667111D01*
Y4236000D01*
X663889D01*
Y4239222D01*
X660667D01*
Y4242444D01*
D02*
G37*
G36*
X628444D02*
X615556D01*
Y4239222D01*
X612333D01*
Y4236000D01*
X609111D01*
Y4223111D01*
X612333D01*
Y4219889D01*
X615556D01*
Y4216667D01*
X628444D01*
Y4219889D01*
X631667D01*
Y4223111D01*
X634889D01*
Y4236000D01*
X631667D01*
Y4239222D01*
X628444D01*
Y4242444D01*
D02*
G37*
G36*
X596222D02*
X583333D01*
Y4239222D01*
X580111D01*
Y4236000D01*
X576889D01*
Y4223111D01*
X580111D01*
Y4219889D01*
X583333D01*
Y4216667D01*
X596222D01*
Y4219889D01*
X599444D01*
Y4223111D01*
X602667D01*
Y4236000D01*
X599444D01*
Y4239222D01*
X596222D01*
Y4242444D01*
D02*
G37*
G36*
X499556D02*
X486667D01*
Y4239222D01*
X483444D01*
Y4236000D01*
X480222D01*
Y4223111D01*
X483444D01*
Y4219889D01*
X486667D01*
Y4216667D01*
X499556D01*
Y4219889D01*
X502778D01*
Y4223111D01*
X506000D01*
Y4236000D01*
X502778D01*
Y4239222D01*
X499556D01*
Y4242444D01*
D02*
G37*
G36*
X1627333Y4210222D02*
X1614444D01*
Y4207000D01*
X1611222D01*
Y4203778D01*
X1608000D01*
Y4190889D01*
X1611222D01*
Y4187667D01*
X1614444D01*
Y4184445D01*
X1627333D01*
Y4187667D01*
X1630556D01*
Y4190889D01*
X1633778D01*
Y4203778D01*
X1630556D01*
Y4207000D01*
X1627333D01*
Y4210222D01*
D02*
G37*
G36*
X1530666D02*
X1517778D01*
Y4207000D01*
X1514556D01*
Y4203778D01*
X1511333D01*
Y4190889D01*
X1514556D01*
Y4187667D01*
X1517778D01*
Y4184445D01*
X1530666D01*
Y4187667D01*
X1533889D01*
Y4190889D01*
X1537111D01*
Y4203778D01*
X1533889D01*
Y4207000D01*
X1530666D01*
Y4210222D01*
D02*
G37*
G36*
X1498444D02*
X1485555D01*
Y4207000D01*
X1482333D01*
Y4203778D01*
X1479111D01*
Y4190889D01*
X1482333D01*
Y4187667D01*
X1485555D01*
Y4184445D01*
X1498444D01*
Y4187667D01*
X1501667D01*
Y4190889D01*
X1504889D01*
Y4203778D01*
X1501667D01*
Y4207000D01*
X1498444D01*
Y4210222D01*
D02*
G37*
G36*
X1466222D02*
X1453333D01*
Y4207000D01*
X1450111D01*
Y4203778D01*
X1446889D01*
Y4190889D01*
X1450111D01*
Y4187667D01*
X1453333D01*
Y4184445D01*
X1466222D01*
Y4187667D01*
X1469444D01*
Y4190889D01*
X1472667D01*
Y4203778D01*
X1469444D01*
Y4207000D01*
X1466222D01*
Y4210222D01*
D02*
G37*
G36*
X1434000D02*
X1421111D01*
Y4207000D01*
X1417889D01*
Y4203778D01*
X1414666D01*
Y4190889D01*
X1417889D01*
Y4187667D01*
X1421111D01*
Y4184445D01*
X1434000D01*
Y4187667D01*
X1437222D01*
Y4190889D01*
X1440444D01*
Y4203778D01*
X1437222D01*
Y4207000D01*
X1434000D01*
Y4210222D01*
D02*
G37*
G36*
X1401778D02*
X1388889D01*
Y4207000D01*
X1385667D01*
Y4203778D01*
X1382444D01*
Y4190889D01*
X1385667D01*
Y4187667D01*
X1388889D01*
Y4184445D01*
X1401778D01*
Y4187667D01*
X1405000D01*
Y4190889D01*
X1408222D01*
Y4203778D01*
X1405000D01*
Y4207000D01*
X1401778D01*
Y4210222D01*
D02*
G37*
G36*
X1369556D02*
X1356667D01*
Y4207000D01*
X1353444D01*
Y4203778D01*
X1350222D01*
Y4190889D01*
X1353444D01*
Y4187667D01*
X1356667D01*
Y4184445D01*
X1369556D01*
Y4187667D01*
X1372778D01*
Y4190889D01*
X1376000D01*
Y4203778D01*
X1372778D01*
Y4207000D01*
X1369556D01*
Y4210222D01*
D02*
G37*
G36*
X1337333D02*
X1324444D01*
Y4207000D01*
X1321222D01*
Y4203778D01*
X1318000D01*
Y4190889D01*
X1321222D01*
Y4187667D01*
X1324444D01*
Y4184445D01*
X1337333D01*
Y4187667D01*
X1340555D01*
Y4190889D01*
X1343778D01*
Y4203778D01*
X1340555D01*
Y4207000D01*
X1337333D01*
Y4210222D01*
D02*
G37*
G36*
X1305111D02*
X1292222D01*
Y4207000D01*
X1289000D01*
Y4203778D01*
X1285778D01*
Y4190889D01*
X1289000D01*
Y4187667D01*
X1292222D01*
Y4184445D01*
X1305111D01*
Y4187667D01*
X1308333D01*
Y4190889D01*
X1311555D01*
Y4203778D01*
X1308333D01*
Y4207000D01*
X1305111D01*
Y4210222D01*
D02*
G37*
G36*
X1272889D02*
X1260000D01*
Y4207000D01*
X1256778D01*
Y4203778D01*
X1253556D01*
Y4190889D01*
X1256778D01*
Y4187667D01*
X1260000D01*
Y4184445D01*
X1272889D01*
Y4187667D01*
X1276111D01*
Y4190889D01*
X1279333D01*
Y4203778D01*
X1276111D01*
Y4207000D01*
X1272889D01*
Y4210222D01*
D02*
G37*
G36*
X1240667D02*
X1227778D01*
Y4207000D01*
X1224555D01*
Y4203778D01*
X1221333D01*
Y4197333D01*
Y4194111D01*
Y4190889D01*
X1224555D01*
Y4187667D01*
X1227778D01*
Y4184445D01*
X1240667D01*
Y4187667D01*
X1243889D01*
Y4190889D01*
X1247111D01*
Y4203778D01*
X1243889D01*
Y4207000D01*
X1240667D01*
Y4210222D01*
D02*
G37*
G36*
X1208444D02*
X1195555D01*
Y4207000D01*
X1192333D01*
Y4203778D01*
X1189111D01*
Y4190889D01*
X1192333D01*
Y4187667D01*
X1195555D01*
Y4184445D01*
X1208444D01*
Y4187667D01*
X1211667D01*
Y4190889D01*
X1214889D01*
Y4203778D01*
X1211667D01*
Y4207000D01*
X1208444D01*
Y4210222D01*
D02*
G37*
G36*
X1144000D02*
X1131111D01*
Y4207000D01*
X1127889D01*
Y4203778D01*
X1124667D01*
Y4190889D01*
X1127889D01*
Y4187667D01*
X1131111D01*
Y4184445D01*
X1144000D01*
Y4187667D01*
X1147222D01*
Y4190889D01*
X1150444D01*
Y4203778D01*
X1147222D01*
Y4207000D01*
X1144000D01*
Y4210222D01*
D02*
G37*
G36*
X1047333D02*
X1034444D01*
Y4207000D01*
X1031222D01*
Y4203778D01*
X1028000D01*
Y4190889D01*
X1031222D01*
Y4187667D01*
X1034444D01*
Y4184445D01*
X1047333D01*
Y4187667D01*
X1050555D01*
Y4190889D01*
X1053778D01*
Y4203778D01*
X1050555D01*
Y4207000D01*
X1047333D01*
Y4210222D01*
D02*
G37*
G36*
X918444D02*
X905555D01*
Y4207000D01*
X902333D01*
Y4203778D01*
X899111D01*
Y4190889D01*
X902333D01*
Y4187667D01*
X905555D01*
Y4184445D01*
X918444D01*
Y4187667D01*
X921667D01*
Y4190889D01*
X924889D01*
Y4203778D01*
X921667D01*
Y4207000D01*
X918444D01*
Y4210222D01*
D02*
G37*
G36*
X854000D02*
X841111D01*
Y4207000D01*
X837889D01*
Y4203778D01*
X834667D01*
Y4190889D01*
X837889D01*
Y4187667D01*
X841111D01*
Y4184445D01*
X854000D01*
Y4187667D01*
X857222D01*
Y4190889D01*
X860444D01*
Y4203778D01*
X857222D01*
Y4207000D01*
X854000D01*
Y4210222D01*
D02*
G37*
G36*
X789555D02*
X776666D01*
Y4207000D01*
X773444D01*
Y4203778D01*
X770222D01*
Y4190889D01*
X773444D01*
Y4187667D01*
X776666D01*
Y4184445D01*
X789555D01*
Y4187667D01*
X792778D01*
Y4190889D01*
X796000D01*
Y4203778D01*
X792778D01*
Y4207000D01*
X789555D01*
Y4210222D01*
D02*
G37*
G36*
X757333D02*
X744444D01*
Y4207000D01*
X741222D01*
Y4203778D01*
X738000D01*
Y4190889D01*
X741222D01*
Y4187667D01*
X744444D01*
Y4184445D01*
X757333D01*
Y4187667D01*
X760556D01*
Y4190889D01*
X763778D01*
Y4200555D01*
Y4203778D01*
X760556D01*
Y4207000D01*
X757333D01*
Y4210222D01*
D02*
G37*
G36*
X725111D02*
X712222D01*
Y4207000D01*
X709000D01*
Y4203778D01*
X705778D01*
Y4190889D01*
X709000D01*
Y4187667D01*
X712222D01*
Y4184445D01*
X725111D01*
Y4187667D01*
X728333D01*
Y4190889D01*
X731556D01*
Y4203778D01*
X728333D01*
Y4207000D01*
X725111D01*
Y4210222D01*
D02*
G37*
G36*
X692889D02*
X680000D01*
Y4207000D01*
X676778D01*
Y4203778D01*
X673555D01*
Y4190889D01*
X676778D01*
Y4187667D01*
X680000D01*
Y4184445D01*
X692889D01*
Y4187667D01*
X696111D01*
Y4190889D01*
X699333D01*
Y4203778D01*
X696111D01*
Y4207000D01*
X692889D01*
Y4210222D01*
D02*
G37*
G36*
X660667D02*
X647778D01*
Y4207000D01*
X644555D01*
Y4203778D01*
X641333D01*
Y4190889D01*
X644555D01*
Y4187667D01*
X647778D01*
Y4184445D01*
X660667D01*
Y4187667D01*
X663889D01*
Y4190889D01*
X667111D01*
Y4203778D01*
X663889D01*
Y4207000D01*
X660667D01*
Y4210222D01*
D02*
G37*
G36*
X628444D02*
X615556D01*
Y4207000D01*
X612333D01*
Y4203778D01*
X609111D01*
Y4190889D01*
X612333D01*
Y4187667D01*
X615556D01*
Y4184445D01*
X628444D01*
Y4187667D01*
X631667D01*
Y4190889D01*
X634889D01*
Y4203778D01*
X631667D01*
Y4207000D01*
X628444D01*
Y4210222D01*
D02*
G37*
G36*
X564000D02*
X551111D01*
Y4207000D01*
X547889D01*
Y4203778D01*
X544667D01*
Y4200555D01*
Y4197333D01*
Y4190889D01*
X547889D01*
Y4187667D01*
X551111D01*
Y4184445D01*
X564000D01*
Y4187667D01*
X567222D01*
Y4190889D01*
X570444D01*
Y4203778D01*
X567222D01*
Y4207000D01*
X564000D01*
Y4210222D01*
D02*
G37*
G36*
X499556D02*
X486667D01*
Y4207000D01*
X483444D01*
Y4203778D01*
X480222D01*
Y4190889D01*
X483444D01*
Y4187667D01*
X486667D01*
Y4184445D01*
X499556D01*
Y4187667D01*
X502778D01*
Y4190889D01*
X506000D01*
Y4203778D01*
X502778D01*
Y4207000D01*
X499556D01*
Y4210222D01*
D02*
G37*
G36*
X1562889Y4178000D02*
X1550000D01*
Y4174778D01*
X1546778D01*
Y4171556D01*
X1543555D01*
Y4158667D01*
X1546778D01*
Y4155444D01*
X1550000D01*
Y4152222D01*
X1562889D01*
Y4155444D01*
X1566111D01*
Y4158667D01*
X1569333D01*
Y4171556D01*
X1566111D01*
Y4174778D01*
X1562889D01*
Y4178000D01*
D02*
G37*
G36*
X1530666D02*
X1517778D01*
Y4174778D01*
X1514556D01*
Y4171556D01*
X1511333D01*
Y4158667D01*
X1514556D01*
Y4155444D01*
X1517778D01*
Y4152222D01*
X1530666D01*
Y4155444D01*
X1533889D01*
Y4158667D01*
X1537111D01*
Y4171556D01*
X1533889D01*
Y4174778D01*
X1530666D01*
Y4178000D01*
D02*
G37*
G36*
X1401778D02*
X1388889D01*
Y4174778D01*
X1385667D01*
Y4171556D01*
X1382444D01*
Y4158667D01*
X1385667D01*
Y4155444D01*
X1388889D01*
Y4152222D01*
X1401778D01*
Y4155444D01*
X1405000D01*
Y4158667D01*
X1408222D01*
Y4171556D01*
X1405000D01*
Y4174778D01*
X1401778D01*
Y4178000D01*
D02*
G37*
G36*
X1369556D02*
X1356667D01*
Y4174778D01*
X1353444D01*
Y4171556D01*
X1350222D01*
Y4158667D01*
X1353444D01*
Y4155444D01*
X1356667D01*
Y4152222D01*
X1369556D01*
Y4155444D01*
X1372778D01*
Y4158667D01*
X1376000D01*
Y4171556D01*
X1372778D01*
Y4174778D01*
X1369556D01*
Y4178000D01*
D02*
G37*
G36*
X1305111D02*
X1292222D01*
Y4174778D01*
X1289000D01*
Y4171556D01*
X1285778D01*
Y4161889D01*
Y4158667D01*
X1289000D01*
Y4155444D01*
X1292222D01*
Y4152222D01*
X1305111D01*
Y4155444D01*
X1308333D01*
Y4158667D01*
X1311555D01*
Y4171556D01*
X1308333D01*
Y4174778D01*
X1305111D01*
Y4178000D01*
D02*
G37*
G36*
X1240667D02*
X1227778D01*
Y4174778D01*
X1224555D01*
Y4171556D01*
X1221333D01*
Y4158667D01*
X1224555D01*
Y4155444D01*
X1227778D01*
Y4152222D01*
X1240667D01*
Y4155444D01*
X1243889D01*
Y4158667D01*
X1247111D01*
Y4171556D01*
X1243889D01*
Y4174778D01*
X1240667D01*
Y4178000D01*
D02*
G37*
G36*
X1176222D02*
X1163333D01*
Y4174778D01*
X1160111D01*
Y4171556D01*
X1156889D01*
Y4161889D01*
Y4158667D01*
X1160111D01*
Y4155444D01*
X1163333D01*
Y4152222D01*
X1176222D01*
Y4155444D01*
X1179444D01*
Y4158667D01*
X1182667D01*
Y4171556D01*
X1179444D01*
Y4174778D01*
X1176222D01*
Y4178000D01*
D02*
G37*
G36*
X1144000D02*
X1131111D01*
Y4174778D01*
X1127889D01*
Y4171556D01*
X1124667D01*
Y4158667D01*
X1127889D01*
Y4155444D01*
X1131111D01*
Y4152222D01*
X1144000D01*
Y4155444D01*
X1147222D01*
Y4158667D01*
X1150444D01*
Y4171556D01*
X1147222D01*
Y4174778D01*
X1144000D01*
Y4178000D01*
D02*
G37*
G36*
X1111778D02*
X1098889D01*
Y4174778D01*
X1095667D01*
Y4171556D01*
X1092444D01*
Y4168333D01*
Y4165111D01*
Y4158667D01*
X1095667D01*
Y4155444D01*
X1098889D01*
Y4152222D01*
X1111778D01*
Y4155444D01*
X1115000D01*
Y4158667D01*
X1118222D01*
Y4171556D01*
X1115000D01*
Y4174778D01*
X1111778D01*
Y4178000D01*
D02*
G37*
G36*
X1079555D02*
X1066667D01*
Y4174778D01*
X1063444D01*
Y4171556D01*
X1060222D01*
Y4158667D01*
X1063444D01*
Y4155444D01*
X1066667D01*
Y4152222D01*
X1079555D01*
Y4155444D01*
X1082778D01*
Y4158667D01*
X1086000D01*
Y4171556D01*
X1082778D01*
Y4174778D01*
X1079555D01*
Y4178000D01*
D02*
G37*
G36*
X1047333D02*
X1034444D01*
Y4174778D01*
X1031222D01*
Y4171556D01*
X1028000D01*
Y4158667D01*
X1031222D01*
Y4155444D01*
X1034444D01*
Y4152222D01*
X1047333D01*
Y4155444D01*
X1050555D01*
Y4158667D01*
X1053778D01*
Y4171556D01*
X1050555D01*
Y4174778D01*
X1047333D01*
Y4178000D01*
D02*
G37*
G36*
X1015111D02*
X1002222D01*
Y4174778D01*
X999000D01*
Y4171556D01*
X995778D01*
Y4158667D01*
X999000D01*
Y4155444D01*
X1002222D01*
Y4152222D01*
X1015111D01*
Y4155444D01*
X1018333D01*
Y4158667D01*
X1021555D01*
Y4171556D01*
X1018333D01*
Y4174778D01*
X1015111D01*
Y4178000D01*
D02*
G37*
G36*
X950667D02*
X937778D01*
Y4174778D01*
X934555D01*
Y4171556D01*
X931333D01*
Y4158667D01*
X934555D01*
Y4155444D01*
X937778D01*
Y4152222D01*
X950667D01*
Y4155444D01*
X953889D01*
Y4158667D01*
X957111D01*
Y4171556D01*
X953889D01*
Y4174778D01*
X950667D01*
Y4178000D01*
D02*
G37*
G36*
X918444D02*
X905555D01*
Y4174778D01*
X902333D01*
Y4171556D01*
X899111D01*
Y4158667D01*
X902333D01*
Y4155444D01*
X905555D01*
Y4152222D01*
X918444D01*
Y4155444D01*
X921667D01*
Y4158667D01*
X924889D01*
Y4161889D01*
Y4171556D01*
X921667D01*
Y4174778D01*
X918444D01*
Y4178000D01*
D02*
G37*
G36*
X886222D02*
X873333D01*
Y4174778D01*
X870111D01*
Y4171556D01*
X866889D01*
Y4158667D01*
X870111D01*
Y4155444D01*
X873333D01*
Y4152222D01*
X886222D01*
Y4155444D01*
X889444D01*
Y4158667D01*
X892666D01*
Y4171556D01*
X889444D01*
Y4174778D01*
X886222D01*
Y4178000D01*
D02*
G37*
G36*
X854000D02*
X841111D01*
Y4174778D01*
X837889D01*
Y4171556D01*
X834667D01*
Y4158667D01*
X837889D01*
Y4155444D01*
X841111D01*
Y4152222D01*
X854000D01*
Y4155444D01*
X857222D01*
Y4158667D01*
X860444D01*
Y4171556D01*
X857222D01*
Y4174778D01*
X854000D01*
Y4178000D01*
D02*
G37*
G36*
X789555D02*
X776666D01*
Y4174778D01*
X773444D01*
Y4171556D01*
X770222D01*
Y4158667D01*
X773444D01*
Y4155444D01*
X776666D01*
Y4152222D01*
X789555D01*
Y4155444D01*
X792778D01*
Y4158667D01*
X796000D01*
Y4171556D01*
X792778D01*
Y4174778D01*
X789555D01*
Y4178000D01*
D02*
G37*
G36*
X757333D02*
X744444D01*
Y4174778D01*
X741222D01*
Y4171556D01*
X738000D01*
Y4158667D01*
X741222D01*
Y4155444D01*
X744444D01*
Y4152222D01*
X757333D01*
Y4155444D01*
X760556D01*
Y4158667D01*
X763778D01*
Y4171556D01*
X760556D01*
Y4174778D01*
X757333D01*
Y4178000D01*
D02*
G37*
G36*
X1659555Y4145778D02*
X1646667D01*
Y4142556D01*
X1643444D01*
Y4139333D01*
X1640222D01*
Y4126444D01*
X1643444D01*
Y4123222D01*
X1646667D01*
Y4120000D01*
X1659555D01*
Y4123222D01*
X1662778D01*
Y4126444D01*
X1666000D01*
Y4139333D01*
X1662778D01*
Y4142556D01*
X1659555D01*
Y4145778D01*
D02*
G37*
G36*
X1627333D02*
X1614444D01*
Y4142556D01*
X1611222D01*
Y4139333D01*
X1608000D01*
Y4126444D01*
X1611222D01*
Y4123222D01*
X1614444D01*
Y4120000D01*
X1627333D01*
Y4123222D01*
X1630556D01*
Y4126444D01*
X1633778D01*
Y4139333D01*
X1630556D01*
Y4142556D01*
X1627333D01*
Y4145778D01*
D02*
G37*
G36*
X1595111D02*
X1582222D01*
Y4142556D01*
X1579000D01*
Y4139333D01*
X1575778D01*
Y4126444D01*
X1579000D01*
Y4123222D01*
X1582222D01*
Y4120000D01*
X1595111D01*
Y4123222D01*
X1598333D01*
Y4126444D01*
X1601555D01*
Y4139333D01*
X1598333D01*
Y4142556D01*
X1595111D01*
Y4145778D01*
D02*
G37*
G36*
X1530666D02*
X1517778D01*
Y4142556D01*
X1514556D01*
Y4139333D01*
X1511333D01*
Y4136111D01*
Y4132889D01*
Y4126444D01*
X1514556D01*
Y4123222D01*
X1517778D01*
Y4120000D01*
X1530666D01*
Y4123222D01*
X1533889D01*
Y4126444D01*
X1537111D01*
Y4139333D01*
X1533889D01*
Y4142556D01*
X1530666D01*
Y4145778D01*
D02*
G37*
G36*
X1466222D02*
X1453333D01*
Y4142556D01*
X1450111D01*
Y4139333D01*
X1446889D01*
Y4126444D01*
X1450111D01*
Y4123222D01*
X1453333D01*
Y4120000D01*
X1466222D01*
Y4123222D01*
X1469444D01*
Y4126444D01*
X1472667D01*
Y4136111D01*
Y4139333D01*
X1469444D01*
Y4142556D01*
X1466222D01*
Y4145778D01*
D02*
G37*
G36*
X1401778D02*
X1388889D01*
Y4142556D01*
X1385667D01*
Y4139333D01*
X1382444D01*
Y4126444D01*
X1385667D01*
Y4123222D01*
X1388889D01*
Y4120000D01*
X1401778D01*
Y4123222D01*
X1405000D01*
Y4126444D01*
X1408222D01*
Y4139333D01*
X1405000D01*
Y4142556D01*
X1401778D01*
Y4145778D01*
D02*
G37*
G36*
X1337333D02*
X1324444D01*
Y4142556D01*
X1321222D01*
Y4139333D01*
X1318000D01*
Y4126444D01*
X1321222D01*
Y4123222D01*
X1324444D01*
Y4120000D01*
X1337333D01*
Y4123222D01*
X1340555D01*
Y4126444D01*
X1343778D01*
Y4132889D01*
Y4136111D01*
Y4139333D01*
X1340555D01*
Y4142556D01*
X1337333D01*
Y4145778D01*
D02*
G37*
G36*
X1305111D02*
X1292222D01*
Y4142556D01*
X1289000D01*
Y4139333D01*
X1285778D01*
Y4126444D01*
X1289000D01*
Y4123222D01*
X1292222D01*
Y4120000D01*
X1305111D01*
Y4123222D01*
X1308333D01*
Y4126444D01*
X1311555D01*
Y4136111D01*
Y4139333D01*
X1308333D01*
Y4142556D01*
X1305111D01*
Y4145778D01*
D02*
G37*
G36*
X1272889D02*
X1260000D01*
Y4142556D01*
X1256778D01*
Y4139333D01*
X1253556D01*
Y4126444D01*
X1256778D01*
Y4123222D01*
X1260000D01*
Y4120000D01*
X1272889D01*
Y4123222D01*
X1276111D01*
Y4126444D01*
X1279333D01*
Y4139333D01*
X1276111D01*
Y4142556D01*
X1272889D01*
Y4145778D01*
D02*
G37*
G36*
X1176222D02*
X1163333D01*
Y4142556D01*
X1160111D01*
Y4139333D01*
X1156889D01*
Y4126444D01*
X1160111D01*
Y4123222D01*
X1163333D01*
Y4120000D01*
X1176222D01*
Y4123222D01*
X1179444D01*
Y4126444D01*
X1182667D01*
Y4139333D01*
X1179444D01*
Y4142556D01*
X1176222D01*
Y4145778D01*
D02*
G37*
G36*
X1047333D02*
X1034444D01*
Y4142556D01*
X1031222D01*
Y4139333D01*
X1028000D01*
Y4126444D01*
X1031222D01*
Y4123222D01*
X1034444D01*
Y4120000D01*
X1047333D01*
Y4123222D01*
X1050555D01*
Y4126444D01*
X1053778D01*
Y4139333D01*
X1050555D01*
Y4142556D01*
X1047333D01*
Y4145778D01*
D02*
G37*
G36*
X982889D02*
X970000D01*
Y4142556D01*
X966778D01*
Y4139333D01*
X963555D01*
Y4126444D01*
X966778D01*
Y4123222D01*
X970000D01*
Y4120000D01*
X982889D01*
Y4123222D01*
X986111D01*
Y4126444D01*
X989333D01*
Y4129667D01*
Y4132889D01*
Y4139333D01*
X986111D01*
Y4142556D01*
X982889D01*
Y4145778D01*
D02*
G37*
G36*
X918444D02*
X905555D01*
Y4142556D01*
X902333D01*
Y4139333D01*
X899111D01*
Y4136111D01*
Y4126444D01*
X902333D01*
Y4123222D01*
X905555D01*
Y4120000D01*
X918444D01*
Y4123222D01*
X921667D01*
Y4126444D01*
X924889D01*
Y4139333D01*
X921667D01*
Y4142556D01*
X918444D01*
Y4145778D01*
D02*
G37*
G36*
X821778D02*
X808889D01*
Y4142556D01*
X805667D01*
Y4139333D01*
X802444D01*
Y4126444D01*
X805667D01*
Y4123222D01*
X808889D01*
Y4120000D01*
X821778D01*
Y4123222D01*
X825000D01*
Y4126444D01*
X828222D01*
Y4139333D01*
X825000D01*
Y4142556D01*
X821778D01*
Y4145778D01*
D02*
G37*
G36*
X789555D02*
X776666D01*
Y4142556D01*
X773444D01*
Y4139333D01*
X770222D01*
Y4126444D01*
X773444D01*
Y4123222D01*
X776666D01*
Y4120000D01*
X789555D01*
Y4123222D01*
X792778D01*
Y4126444D01*
X796000D01*
Y4139333D01*
X792778D01*
Y4142556D01*
X789555D01*
Y4145778D01*
D02*
G37*
G36*
X1659555Y4113555D02*
X1646667D01*
Y4110333D01*
X1643444D01*
Y4107111D01*
X1640222D01*
Y4094222D01*
X1643444D01*
Y4091000D01*
X1646667D01*
Y4087778D01*
X1659555D01*
Y4091000D01*
X1662778D01*
Y4094222D01*
X1666000D01*
Y4107111D01*
X1662778D01*
Y4110333D01*
X1659555D01*
Y4113555D01*
D02*
G37*
G36*
X1562889D02*
X1550000D01*
Y4110333D01*
X1546778D01*
Y4107111D01*
X1543555D01*
Y4094222D01*
X1546778D01*
Y4091000D01*
X1550000D01*
Y4087778D01*
X1562889D01*
Y4091000D01*
X1566111D01*
Y4094222D01*
X1569333D01*
Y4107111D01*
X1566111D01*
Y4110333D01*
X1562889D01*
Y4113555D01*
D02*
G37*
G36*
X1530666D02*
X1517778D01*
Y4110333D01*
X1514556D01*
Y4107111D01*
X1511333D01*
Y4100667D01*
Y4097444D01*
Y4094222D01*
X1514556D01*
Y4091000D01*
X1517778D01*
Y4087778D01*
X1530666D01*
Y4091000D01*
X1533889D01*
Y4094222D01*
X1537111D01*
Y4107111D01*
X1533889D01*
Y4110333D01*
X1530666D01*
Y4113555D01*
D02*
G37*
G36*
X1401778D02*
X1388889D01*
Y4110333D01*
X1385667D01*
Y4107111D01*
X1382444D01*
Y4094222D01*
X1385667D01*
Y4091000D01*
X1388889D01*
Y4087778D01*
X1401778D01*
Y4091000D01*
X1405000D01*
Y4094222D01*
X1408222D01*
Y4107111D01*
X1405000D01*
Y4110333D01*
X1401778D01*
Y4113555D01*
D02*
G37*
G36*
X1305111D02*
X1292222D01*
Y4110333D01*
X1289000D01*
Y4107111D01*
X1285778D01*
Y4094222D01*
X1289000D01*
Y4091000D01*
X1292222D01*
Y4087778D01*
X1305111D01*
Y4091000D01*
X1308333D01*
Y4094222D01*
X1311555D01*
Y4107111D01*
X1308333D01*
Y4110333D01*
X1305111D01*
Y4113555D01*
D02*
G37*
G36*
X1240667D02*
X1227778D01*
Y4110333D01*
X1224555D01*
Y4107111D01*
X1221333D01*
Y4094222D01*
X1224555D01*
Y4091000D01*
X1227778D01*
Y4087778D01*
X1240667D01*
Y4091000D01*
X1243889D01*
Y4094222D01*
X1247111D01*
Y4107111D01*
X1243889D01*
Y4110333D01*
X1240667D01*
Y4113555D01*
D02*
G37*
G36*
X1208444D02*
X1195555D01*
Y4110333D01*
X1192333D01*
Y4107111D01*
X1189111D01*
Y4094222D01*
X1192333D01*
Y4091000D01*
X1195555D01*
Y4087778D01*
X1208444D01*
Y4091000D01*
X1211667D01*
Y4094222D01*
X1214889D01*
Y4107111D01*
X1211667D01*
Y4110333D01*
X1208444D01*
Y4113555D01*
D02*
G37*
G36*
X1176222D02*
X1163333D01*
Y4110333D01*
X1160111D01*
Y4107111D01*
X1156889D01*
Y4094222D01*
X1160111D01*
Y4091000D01*
X1163333D01*
Y4087778D01*
X1176222D01*
Y4091000D01*
X1179444D01*
Y4094222D01*
X1182667D01*
Y4107111D01*
X1179444D01*
Y4110333D01*
X1176222D01*
Y4113555D01*
D02*
G37*
G36*
X1111778D02*
X1098889D01*
Y4110333D01*
X1095667D01*
Y4107111D01*
X1092444D01*
Y4094222D01*
X1095667D01*
Y4091000D01*
X1098889D01*
Y4087778D01*
X1111778D01*
Y4091000D01*
X1115000D01*
Y4094222D01*
X1118222D01*
Y4107111D01*
X1115000D01*
Y4110333D01*
X1111778D01*
Y4113555D01*
D02*
G37*
G36*
X1079555D02*
X1066667D01*
Y4110333D01*
X1063444D01*
Y4107111D01*
X1060222D01*
Y4094222D01*
X1063444D01*
Y4091000D01*
X1066667D01*
Y4087778D01*
X1079555D01*
Y4091000D01*
X1082778D01*
Y4094222D01*
X1086000D01*
Y4107111D01*
X1082778D01*
Y4110333D01*
X1079555D01*
Y4113555D01*
D02*
G37*
G36*
X1047333D02*
X1034444D01*
Y4110333D01*
X1031222D01*
Y4107111D01*
X1028000D01*
Y4094222D01*
X1031222D01*
Y4091000D01*
X1034444D01*
Y4087778D01*
X1047333D01*
Y4091000D01*
X1050555D01*
Y4094222D01*
X1053778D01*
Y4107111D01*
X1050555D01*
Y4110333D01*
X1047333D01*
Y4113555D01*
D02*
G37*
G36*
X757333D02*
X744444D01*
Y4110333D01*
X741222D01*
Y4107111D01*
X738000D01*
Y4094222D01*
X741222D01*
Y4091000D01*
X744444D01*
Y4087778D01*
X757333D01*
Y4091000D01*
X760556D01*
Y4094222D01*
X763778D01*
Y4107111D01*
X760556D01*
Y4110333D01*
X757333D01*
Y4113555D01*
D02*
G37*
G36*
X1627333Y4081333D02*
X1614444D01*
Y4078111D01*
X1611222D01*
Y4074889D01*
X1608000D01*
Y4062000D01*
X1611222D01*
Y4058778D01*
X1614444D01*
Y4055556D01*
X1627333D01*
Y4058778D01*
X1630556D01*
Y4062000D01*
X1633778D01*
Y4068444D01*
Y4071667D01*
Y4074889D01*
X1630556D01*
Y4078111D01*
X1627333D01*
Y4081333D01*
D02*
G37*
G36*
X1595111D02*
X1582222D01*
Y4078111D01*
X1579000D01*
Y4074889D01*
X1575778D01*
Y4062000D01*
X1579000D01*
Y4058778D01*
X1582222D01*
Y4055556D01*
X1595111D01*
Y4058778D01*
X1598333D01*
Y4062000D01*
X1601555D01*
Y4071667D01*
Y4074889D01*
X1598333D01*
Y4078111D01*
X1595111D01*
Y4081333D01*
D02*
G37*
G36*
X1530666D02*
X1517778D01*
Y4078111D01*
X1514556D01*
Y4074889D01*
X1511333D01*
Y4062000D01*
X1514556D01*
Y4058778D01*
X1517778D01*
Y4055556D01*
X1530666D01*
Y4058778D01*
X1533889D01*
Y4062000D01*
X1537111D01*
Y4074889D01*
X1533889D01*
Y4078111D01*
X1530666D01*
Y4081333D01*
D02*
G37*
G36*
X1498444D02*
X1485555D01*
Y4078111D01*
X1482333D01*
Y4074889D01*
X1479111D01*
Y4062000D01*
X1482333D01*
Y4058778D01*
X1485555D01*
Y4055556D01*
X1498444D01*
Y4058778D01*
X1501667D01*
Y4062000D01*
X1504889D01*
Y4068444D01*
Y4071667D01*
Y4074889D01*
X1501667D01*
Y4078111D01*
X1498444D01*
Y4081333D01*
D02*
G37*
G36*
X1466222D02*
X1453333D01*
Y4078111D01*
X1450111D01*
Y4074889D01*
X1446889D01*
Y4062000D01*
X1450111D01*
Y4058778D01*
X1453333D01*
Y4055556D01*
X1466222D01*
Y4058778D01*
X1469444D01*
Y4062000D01*
X1472667D01*
Y4074889D01*
X1469444D01*
Y4078111D01*
X1466222D01*
Y4081333D01*
D02*
G37*
G36*
X1434000D02*
X1421111D01*
Y4078111D01*
X1417889D01*
Y4074889D01*
X1414666D01*
Y4062000D01*
X1417889D01*
Y4058778D01*
X1421111D01*
Y4055556D01*
X1434000D01*
Y4058778D01*
X1437222D01*
Y4062000D01*
X1440444D01*
Y4074889D01*
X1437222D01*
Y4078111D01*
X1434000D01*
Y4081333D01*
D02*
G37*
G36*
X1401778D02*
X1388889D01*
Y4078111D01*
X1385667D01*
Y4074889D01*
X1382444D01*
Y4065222D01*
Y4062000D01*
X1385667D01*
Y4058778D01*
X1388889D01*
Y4055556D01*
X1401778D01*
Y4058778D01*
X1405000D01*
Y4062000D01*
X1408222D01*
Y4074889D01*
X1405000D01*
Y4078111D01*
X1401778D01*
Y4081333D01*
D02*
G37*
G36*
X1369556D02*
X1356667D01*
Y4078111D01*
X1353444D01*
Y4074889D01*
X1350222D01*
Y4062000D01*
X1353444D01*
Y4058778D01*
X1356667D01*
Y4055556D01*
X1369556D01*
Y4058778D01*
X1372778D01*
Y4062000D01*
X1376000D01*
Y4074889D01*
X1372778D01*
Y4078111D01*
X1369556D01*
Y4081333D01*
D02*
G37*
G36*
X1337333D02*
X1324444D01*
Y4078111D01*
X1321222D01*
Y4074889D01*
X1318000D01*
Y4062000D01*
X1321222D01*
Y4058778D01*
X1324444D01*
Y4055556D01*
X1337333D01*
Y4058778D01*
X1340555D01*
Y4062000D01*
X1343778D01*
Y4074889D01*
X1340555D01*
Y4078111D01*
X1337333D01*
Y4081333D01*
D02*
G37*
G36*
X1240667D02*
X1227778D01*
Y4078111D01*
X1224555D01*
Y4074889D01*
X1221333D01*
Y4062000D01*
X1224555D01*
Y4058778D01*
X1227778D01*
Y4055556D01*
X1240667D01*
Y4058778D01*
X1243889D01*
Y4062000D01*
X1247111D01*
Y4074889D01*
X1243889D01*
Y4078111D01*
X1240667D01*
Y4081333D01*
D02*
G37*
G36*
X1176222D02*
X1163333D01*
Y4078111D01*
X1160111D01*
Y4074889D01*
X1156889D01*
Y4062000D01*
X1160111D01*
Y4058778D01*
X1163333D01*
Y4055556D01*
X1176222D01*
Y4058778D01*
X1179444D01*
Y4062000D01*
X1182667D01*
Y4074889D01*
X1179444D01*
Y4078111D01*
X1176222D01*
Y4081333D01*
D02*
G37*
G36*
X1015111D02*
X1002222D01*
Y4078111D01*
X999000D01*
Y4074889D01*
X995778D01*
Y4062000D01*
X999000D01*
Y4058778D01*
X1002222D01*
Y4055556D01*
X1015111D01*
Y4058778D01*
X1018333D01*
Y4062000D01*
X1021555D01*
Y4074889D01*
X1018333D01*
Y4078111D01*
X1015111D01*
Y4081333D01*
D02*
G37*
G36*
X982889D02*
X970000D01*
Y4078111D01*
X966778D01*
Y4074889D01*
X963555D01*
Y4062000D01*
X966778D01*
Y4058778D01*
X970000D01*
Y4055556D01*
X982889D01*
Y4058778D01*
X986111D01*
Y4062000D01*
X989333D01*
Y4074889D01*
X986111D01*
Y4078111D01*
X982889D01*
Y4081333D01*
D02*
G37*
G36*
X950667D02*
X937778D01*
Y4078111D01*
X934555D01*
Y4074889D01*
X931333D01*
Y4062000D01*
X934555D01*
Y4058778D01*
X937778D01*
Y4055556D01*
X950667D01*
Y4058778D01*
X953889D01*
Y4062000D01*
X957111D01*
Y4074889D01*
X953889D01*
Y4078111D01*
X950667D01*
Y4081333D01*
D02*
G37*
G36*
X821778D02*
X808889D01*
Y4078111D01*
X805667D01*
Y4074889D01*
X802444D01*
Y4062000D01*
X805667D01*
Y4058778D01*
X808889D01*
Y4055556D01*
X821778D01*
Y4058778D01*
X825000D01*
Y4062000D01*
X828222D01*
Y4074889D01*
X825000D01*
Y4078111D01*
X821778D01*
Y4081333D01*
D02*
G37*
G36*
X789555D02*
X776666D01*
Y4078111D01*
X773444D01*
Y4074889D01*
X770222D01*
Y4062000D01*
X773444D01*
Y4058778D01*
X776666D01*
Y4055556D01*
X789555D01*
Y4058778D01*
X792778D01*
Y4062000D01*
X796000D01*
Y4074889D01*
X792778D01*
Y4078111D01*
X789555D01*
Y4081333D01*
D02*
G37*
G36*
X757333D02*
X744444D01*
Y4078111D01*
X741222D01*
Y4074889D01*
X738000D01*
Y4068444D01*
Y4065222D01*
Y4062000D01*
X741222D01*
Y4058778D01*
X744444D01*
Y4055556D01*
X757333D01*
Y4058778D01*
X760556D01*
Y4062000D01*
X763778D01*
Y4074889D01*
X760556D01*
Y4078111D01*
X757333D01*
Y4081333D01*
D02*
G37*
G36*
X1595111Y4049111D02*
X1582222D01*
Y4045889D01*
X1579000D01*
Y4042667D01*
X1575778D01*
Y4039444D01*
Y4029778D01*
X1579000D01*
Y4026556D01*
X1582222D01*
Y4023333D01*
X1595111D01*
Y4026556D01*
X1598333D01*
Y4029778D01*
X1601555D01*
Y4042667D01*
X1598333D01*
Y4045889D01*
X1595111D01*
Y4049111D01*
D02*
G37*
G36*
X1530666D02*
X1517778D01*
Y4045889D01*
X1514556D01*
Y4042667D01*
X1511333D01*
Y4029778D01*
X1514556D01*
Y4026556D01*
X1517778D01*
Y4023333D01*
X1530666D01*
Y4026556D01*
X1533889D01*
Y4029778D01*
X1537111D01*
Y4042667D01*
X1533889D01*
Y4045889D01*
X1530666D01*
Y4049111D01*
D02*
G37*
G36*
X1466222D02*
X1453333D01*
Y4045889D01*
X1450111D01*
Y4042667D01*
X1446889D01*
Y4029778D01*
X1450111D01*
Y4026556D01*
X1453333D01*
Y4023333D01*
X1466222D01*
Y4026556D01*
X1469444D01*
Y4029778D01*
X1472667D01*
Y4042667D01*
X1469444D01*
Y4045889D01*
X1466222D01*
Y4049111D01*
D02*
G37*
G36*
X1401778D02*
X1388889D01*
Y4045889D01*
X1385667D01*
Y4042667D01*
X1382444D01*
Y4029778D01*
X1385667D01*
Y4026556D01*
X1388889D01*
Y4023333D01*
X1401778D01*
Y4026556D01*
X1405000D01*
Y4029778D01*
X1408222D01*
Y4042667D01*
X1405000D01*
Y4045889D01*
X1401778D01*
Y4049111D01*
D02*
G37*
G36*
X1369556D02*
X1356667D01*
Y4045889D01*
X1353444D01*
Y4042667D01*
X1350222D01*
Y4029778D01*
X1353444D01*
Y4026556D01*
X1356667D01*
Y4023333D01*
X1369556D01*
Y4026556D01*
X1372778D01*
Y4029778D01*
X1376000D01*
Y4042667D01*
X1372778D01*
Y4045889D01*
X1369556D01*
Y4049111D01*
D02*
G37*
G36*
X1305111D02*
X1292222D01*
Y4045889D01*
X1289000D01*
Y4042667D01*
X1285778D01*
Y4029778D01*
X1289000D01*
Y4026556D01*
X1292222D01*
Y4023333D01*
X1305111D01*
Y4026556D01*
X1308333D01*
Y4029778D01*
X1311555D01*
Y4042667D01*
X1308333D01*
Y4045889D01*
X1305111D01*
Y4049111D01*
D02*
G37*
G36*
X1272889D02*
X1260000D01*
Y4045889D01*
X1256778D01*
Y4042667D01*
X1253556D01*
Y4029778D01*
X1256778D01*
Y4026556D01*
X1260000D01*
Y4023333D01*
X1272889D01*
Y4026556D01*
X1276111D01*
Y4029778D01*
X1279333D01*
Y4042667D01*
X1276111D01*
Y4045889D01*
X1272889D01*
Y4049111D01*
D02*
G37*
G36*
X1208444D02*
X1195555D01*
Y4045889D01*
X1192333D01*
Y4042667D01*
X1189111D01*
Y4029778D01*
X1192333D01*
Y4026556D01*
X1195555D01*
Y4023333D01*
X1208444D01*
Y4026556D01*
X1211667D01*
Y4029778D01*
X1214889D01*
Y4042667D01*
X1211667D01*
Y4045889D01*
X1208444D01*
Y4049111D01*
D02*
G37*
G36*
X1144000D02*
X1131111D01*
Y4045889D01*
X1127889D01*
Y4042667D01*
X1124667D01*
Y4029778D01*
X1127889D01*
Y4026556D01*
X1131111D01*
Y4023333D01*
X1144000D01*
Y4026556D01*
X1147222D01*
Y4029778D01*
X1150444D01*
Y4042667D01*
X1147222D01*
Y4045889D01*
X1144000D01*
Y4049111D01*
D02*
G37*
G36*
X1079555D02*
X1066667D01*
Y4045889D01*
X1063444D01*
Y4042667D01*
X1060222D01*
Y4029778D01*
X1063444D01*
Y4026556D01*
X1066667D01*
Y4023333D01*
X1079555D01*
Y4026556D01*
X1082778D01*
Y4029778D01*
X1086000D01*
Y4042667D01*
X1082778D01*
Y4045889D01*
X1079555D01*
Y4049111D01*
D02*
G37*
G36*
X982889D02*
X970000D01*
Y4045889D01*
X966778D01*
Y4042667D01*
X963555D01*
Y4029778D01*
X966778D01*
Y4026556D01*
X970000D01*
Y4023333D01*
X982889D01*
Y4026556D01*
X986111D01*
Y4029778D01*
X989333D01*
Y4033000D01*
Y4042667D01*
X986111D01*
Y4045889D01*
X982889D01*
Y4049111D01*
D02*
G37*
G36*
X950667D02*
X937778D01*
Y4045889D01*
X934555D01*
Y4042667D01*
X931333D01*
Y4029778D01*
X934555D01*
Y4026556D01*
X937778D01*
Y4023333D01*
X950667D01*
Y4026556D01*
X953889D01*
Y4029778D01*
X957111D01*
Y4042667D01*
X953889D01*
Y4045889D01*
X950667D01*
Y4049111D01*
D02*
G37*
G36*
X789555D02*
X776666D01*
Y4045889D01*
X773444D01*
Y4042667D01*
X770222D01*
Y4029778D01*
X773444D01*
Y4026556D01*
X776666D01*
Y4023333D01*
X789555D01*
Y4026556D01*
X792778D01*
Y4029778D01*
X796000D01*
Y4042667D01*
X792778D01*
Y4045889D01*
X789555D01*
Y4049111D01*
D02*
G37*
G36*
X757333D02*
X744444D01*
Y4045889D01*
X741222D01*
Y4042667D01*
X738000D01*
Y4029778D01*
X741222D01*
Y4026556D01*
X744444D01*
Y4023333D01*
X757333D01*
Y4026556D01*
X760556D01*
Y4029778D01*
X763778D01*
Y4042667D01*
X760556D01*
Y4045889D01*
X757333D01*
Y4049111D01*
D02*
G37*
G36*
X1659555Y4016889D02*
X1646667D01*
Y4013667D01*
X1643444D01*
Y4010444D01*
X1640222D01*
Y3997556D01*
X1643444D01*
Y3994333D01*
X1646667D01*
Y3991111D01*
X1659555D01*
Y3994333D01*
X1662778D01*
Y3997556D01*
X1666000D01*
Y4010444D01*
X1662778D01*
Y4013667D01*
X1659555D01*
Y4016889D01*
D02*
G37*
G36*
X1595111D02*
X1582222D01*
Y4013667D01*
X1579000D01*
Y4010444D01*
X1575778D01*
Y3997556D01*
X1579000D01*
Y3994333D01*
X1582222D01*
Y3991111D01*
X1595111D01*
Y3994333D01*
X1598333D01*
Y3997556D01*
X1601555D01*
Y4010444D01*
X1598333D01*
Y4013667D01*
X1595111D01*
Y4016889D01*
D02*
G37*
G36*
X1562889D02*
X1550000D01*
Y4013667D01*
X1546778D01*
Y4010444D01*
X1543555D01*
Y3997556D01*
X1546778D01*
Y3994333D01*
X1550000D01*
Y3991111D01*
X1562889D01*
Y3994333D01*
X1566111D01*
Y3997556D01*
X1569333D01*
Y4010444D01*
X1566111D01*
Y4013667D01*
X1562889D01*
Y4016889D01*
D02*
G37*
G36*
X1401778D02*
X1388889D01*
Y4013667D01*
X1385667D01*
Y4010444D01*
X1382444D01*
Y3997556D01*
X1385667D01*
Y3994333D01*
X1388889D01*
Y3991111D01*
X1401778D01*
Y3994333D01*
X1405000D01*
Y3997556D01*
X1408222D01*
Y4010444D01*
X1405000D01*
Y4013667D01*
X1401778D01*
Y4016889D01*
D02*
G37*
G36*
X1337333D02*
X1324444D01*
Y4013667D01*
X1321222D01*
Y4010444D01*
X1318000D01*
Y3997556D01*
X1321222D01*
Y3994333D01*
X1324444D01*
Y3991111D01*
X1337333D01*
Y3994333D01*
X1340555D01*
Y3997556D01*
X1343778D01*
Y4007222D01*
Y4010444D01*
X1340555D01*
Y4013667D01*
X1337333D01*
Y4016889D01*
D02*
G37*
G36*
X1305111D02*
X1292222D01*
Y4013667D01*
X1289000D01*
Y4010444D01*
X1285778D01*
Y3997556D01*
X1289000D01*
Y3994333D01*
X1292222D01*
Y3991111D01*
X1305111D01*
Y3994333D01*
X1308333D01*
Y3997556D01*
X1311555D01*
Y4010444D01*
X1308333D01*
Y4013667D01*
X1305111D01*
Y4016889D01*
D02*
G37*
G36*
X1176222D02*
X1163333D01*
Y4013667D01*
X1160111D01*
Y4010444D01*
X1156889D01*
Y4007222D01*
Y4004000D01*
Y3997556D01*
X1160111D01*
Y3994333D01*
X1163333D01*
Y3991111D01*
X1176222D01*
Y3994333D01*
X1179444D01*
Y3997556D01*
X1182667D01*
Y4010444D01*
X1179444D01*
Y4013667D01*
X1176222D01*
Y4016889D01*
D02*
G37*
G36*
X1111778D02*
X1098889D01*
Y4013667D01*
X1095667D01*
Y4010444D01*
X1092444D01*
Y3997556D01*
X1095667D01*
Y3994333D01*
X1098889D01*
Y3991111D01*
X1111778D01*
Y3994333D01*
X1115000D01*
Y3997556D01*
X1118222D01*
Y4010444D01*
X1115000D01*
Y4013667D01*
X1111778D01*
Y4016889D01*
D02*
G37*
G36*
X1079555D02*
X1066667D01*
Y4013667D01*
X1063444D01*
Y4010444D01*
X1060222D01*
Y3997556D01*
X1063444D01*
Y3994333D01*
X1066667D01*
Y3991111D01*
X1079555D01*
Y3994333D01*
X1082778D01*
Y3997556D01*
X1086000D01*
Y4010444D01*
X1082778D01*
Y4013667D01*
X1079555D01*
Y4016889D01*
D02*
G37*
G36*
X1015111D02*
X1002222D01*
Y4013667D01*
X999000D01*
Y4010444D01*
X995778D01*
Y3997556D01*
X999000D01*
Y3994333D01*
X1002222D01*
Y3991111D01*
X1015111D01*
Y3994333D01*
X1018333D01*
Y3997556D01*
X1021555D01*
Y4010444D01*
X1018333D01*
Y4013667D01*
X1015111D01*
Y4016889D01*
D02*
G37*
G36*
X982889D02*
X970000D01*
Y4013667D01*
X966778D01*
Y4010444D01*
X963555D01*
Y3997556D01*
X966778D01*
Y3994333D01*
X970000D01*
Y3991111D01*
X982889D01*
Y3994333D01*
X986111D01*
Y3997556D01*
X989333D01*
Y4010444D01*
X986111D01*
Y4013667D01*
X982889D01*
Y4016889D01*
D02*
G37*
G36*
X950667D02*
X937778D01*
Y4013667D01*
X934555D01*
Y4010444D01*
X931333D01*
Y4007222D01*
Y3997556D01*
X934555D01*
Y3994333D01*
X937778D01*
Y3991111D01*
X950667D01*
Y3994333D01*
X953889D01*
Y3997556D01*
X957111D01*
Y4010444D01*
X953889D01*
Y4013667D01*
X950667D01*
Y4016889D01*
D02*
G37*
G36*
X918444D02*
X905555D01*
Y4013667D01*
X902333D01*
Y4010444D01*
X899111D01*
Y3997556D01*
X902333D01*
Y3994333D01*
X905555D01*
Y3991111D01*
X918444D01*
Y3994333D01*
X921667D01*
Y3997556D01*
X924889D01*
Y4010444D01*
X921667D01*
Y4013667D01*
X918444D01*
Y4016889D01*
D02*
G37*
G36*
X854000D02*
X841111D01*
Y4013667D01*
X837889D01*
Y4010444D01*
X834667D01*
Y3997556D01*
X837889D01*
Y3994333D01*
X841111D01*
Y3991111D01*
X854000D01*
Y3994333D01*
X857222D01*
Y3997556D01*
X860444D01*
Y4010444D01*
X857222D01*
Y4013667D01*
X854000D01*
Y4016889D01*
D02*
G37*
G36*
X821778D02*
X808889D01*
Y4013667D01*
X805667D01*
Y4010444D01*
X802444D01*
Y3997556D01*
X805667D01*
Y3994333D01*
X808889D01*
Y3991111D01*
X821778D01*
Y3994333D01*
X825000D01*
Y3997556D01*
X828222D01*
Y4004000D01*
Y4007222D01*
Y4010444D01*
X825000D01*
Y4013667D01*
X821778D01*
Y4016889D01*
D02*
G37*
G36*
X789555D02*
X776666D01*
Y4013667D01*
X773444D01*
Y4010444D01*
X770222D01*
Y3997556D01*
X773444D01*
Y3994333D01*
X776666D01*
Y3991111D01*
X789555D01*
Y3994333D01*
X792778D01*
Y3997556D01*
X796000D01*
Y4010444D01*
X792778D01*
Y4013667D01*
X789555D01*
Y4016889D01*
D02*
G37*
G36*
X757333D02*
X744444D01*
Y4013667D01*
X741222D01*
Y4010444D01*
X738000D01*
Y3997556D01*
X741222D01*
Y3994333D01*
X744444D01*
Y3991111D01*
X757333D01*
Y3994333D01*
X760556D01*
Y3997556D01*
X763778D01*
Y4010444D01*
X760556D01*
Y4013667D01*
X757333D01*
Y4016889D01*
D02*
G37*
G36*
X1659555Y3984667D02*
X1646667D01*
Y3981444D01*
X1643444D01*
Y3978222D01*
X1640222D01*
Y3965333D01*
X1643444D01*
Y3962111D01*
X1646667D01*
Y3958889D01*
X1659555D01*
Y3962111D01*
X1662778D01*
Y3965333D01*
X1666000D01*
Y3978222D01*
X1662778D01*
Y3981444D01*
X1659555D01*
Y3984667D01*
D02*
G37*
G36*
X1595111D02*
X1582222D01*
Y3981444D01*
X1579000D01*
Y3978222D01*
X1575778D01*
Y3965333D01*
X1579000D01*
Y3962111D01*
X1582222D01*
Y3958889D01*
X1595111D01*
Y3962111D01*
X1598333D01*
Y3965333D01*
X1601555D01*
Y3978222D01*
X1598333D01*
Y3981444D01*
X1595111D01*
Y3984667D01*
D02*
G37*
G36*
X1530666D02*
X1517778D01*
Y3981444D01*
X1514556D01*
Y3978222D01*
X1511333D01*
Y3971778D01*
Y3968555D01*
Y3965333D01*
X1514556D01*
Y3962111D01*
X1517778D01*
Y3958889D01*
X1530666D01*
Y3962111D01*
X1533889D01*
Y3965333D01*
X1537111D01*
Y3978222D01*
X1533889D01*
Y3981444D01*
X1530666D01*
Y3984667D01*
D02*
G37*
G36*
X1434000D02*
X1421111D01*
Y3981444D01*
X1417889D01*
Y3978222D01*
X1414666D01*
Y3971778D01*
Y3968555D01*
Y3965333D01*
X1417889D01*
Y3962111D01*
X1421111D01*
Y3958889D01*
X1434000D01*
Y3962111D01*
X1437222D01*
Y3965333D01*
X1440444D01*
Y3978222D01*
X1437222D01*
Y3981444D01*
X1434000D01*
Y3984667D01*
D02*
G37*
G36*
X1369556D02*
X1356667D01*
Y3981444D01*
X1353444D01*
Y3978222D01*
X1350222D01*
Y3965333D01*
X1353444D01*
Y3962111D01*
X1356667D01*
Y3958889D01*
X1369556D01*
Y3962111D01*
X1372778D01*
Y3965333D01*
X1376000D01*
Y3978222D01*
X1372778D01*
Y3981444D01*
X1369556D01*
Y3984667D01*
D02*
G37*
G36*
X1272889D02*
X1260000D01*
Y3981444D01*
X1256778D01*
Y3978222D01*
X1253556D01*
Y3965333D01*
X1256778D01*
Y3962111D01*
X1260000D01*
Y3958889D01*
X1272889D01*
Y3962111D01*
X1276111D01*
Y3965333D01*
X1279333D01*
Y3978222D01*
X1276111D01*
Y3981444D01*
X1272889D01*
Y3984667D01*
D02*
G37*
G36*
X1208444D02*
X1195555D01*
Y3981444D01*
X1192333D01*
Y3978222D01*
X1189111D01*
Y3971778D01*
Y3968555D01*
Y3965333D01*
X1192333D01*
Y3962111D01*
X1195555D01*
Y3958889D01*
X1208444D01*
Y3962111D01*
X1211667D01*
Y3965333D01*
X1214889D01*
Y3978222D01*
X1211667D01*
Y3981444D01*
X1208444D01*
Y3984667D01*
D02*
G37*
G36*
X1176222D02*
X1163333D01*
Y3981444D01*
X1160111D01*
Y3978222D01*
X1156889D01*
Y3965333D01*
X1160111D01*
Y3962111D01*
X1163333D01*
Y3958889D01*
X1176222D01*
Y3962111D01*
X1179444D01*
Y3965333D01*
X1182667D01*
Y3978222D01*
X1179444D01*
Y3981444D01*
X1176222D01*
Y3984667D01*
D02*
G37*
G36*
X1144000D02*
X1131111D01*
Y3981444D01*
X1127889D01*
Y3978222D01*
X1124667D01*
Y3968555D01*
Y3965333D01*
X1127889D01*
Y3962111D01*
X1131111D01*
Y3958889D01*
X1144000D01*
Y3962111D01*
X1147222D01*
Y3965333D01*
X1150444D01*
Y3978222D01*
X1147222D01*
Y3981444D01*
X1144000D01*
Y3984667D01*
D02*
G37*
G36*
X1111778D02*
X1098889D01*
Y3981444D01*
X1095667D01*
Y3978222D01*
X1092444D01*
Y3965333D01*
X1095667D01*
Y3962111D01*
X1098889D01*
Y3958889D01*
X1111778D01*
Y3962111D01*
X1115000D01*
Y3965333D01*
X1118222D01*
Y3978222D01*
X1115000D01*
Y3981444D01*
X1111778D01*
Y3984667D01*
D02*
G37*
G36*
X982889D02*
X970000D01*
Y3981444D01*
X966778D01*
Y3978222D01*
X963555D01*
Y3975000D01*
Y3965333D01*
X966778D01*
Y3962111D01*
X970000D01*
Y3958889D01*
X982889D01*
Y3962111D01*
X986111D01*
Y3965333D01*
X989333D01*
Y3978222D01*
X986111D01*
Y3981444D01*
X982889D01*
Y3984667D01*
D02*
G37*
G36*
X950667D02*
X937778D01*
Y3981444D01*
X934555D01*
Y3978222D01*
X931333D01*
Y3965333D01*
X934555D01*
Y3962111D01*
X937778D01*
Y3958889D01*
X950667D01*
Y3962111D01*
X953889D01*
Y3965333D01*
X957111D01*
Y3978222D01*
X953889D01*
Y3981444D01*
X950667D01*
Y3984667D01*
D02*
G37*
G36*
X789555D02*
X776666D01*
Y3981444D01*
X773444D01*
Y3978222D01*
X770222D01*
Y3965333D01*
X773444D01*
Y3962111D01*
X776666D01*
Y3958889D01*
X789555D01*
Y3962111D01*
X792778D01*
Y3965333D01*
X796000D01*
Y3978222D01*
X792778D01*
Y3981444D01*
X789555D01*
Y3984667D01*
D02*
G37*
G36*
X1659555Y3952444D02*
X1646667D01*
Y3949222D01*
X1643444D01*
Y3946000D01*
X1640222D01*
Y3933111D01*
X1643444D01*
Y3929889D01*
X1646667D01*
Y3926667D01*
X1659555D01*
Y3929889D01*
X1662778D01*
Y3933111D01*
X1666000D01*
Y3946000D01*
X1662778D01*
Y3949222D01*
X1659555D01*
Y3952444D01*
D02*
G37*
G36*
X1627333D02*
X1614444D01*
Y3949222D01*
X1611222D01*
Y3946000D01*
X1608000D01*
Y3933111D01*
X1611222D01*
Y3929889D01*
X1614444D01*
Y3926667D01*
X1627333D01*
Y3929889D01*
X1630556D01*
Y3933111D01*
X1633778D01*
Y3946000D01*
X1630556D01*
Y3949222D01*
X1627333D01*
Y3952444D01*
D02*
G37*
G36*
X1562889D02*
X1550000D01*
Y3949222D01*
X1546778D01*
Y3946000D01*
X1543555D01*
Y3933111D01*
X1546778D01*
Y3929889D01*
X1550000D01*
Y3926667D01*
X1562889D01*
Y3929889D01*
X1566111D01*
Y3933111D01*
X1569333D01*
Y3946000D01*
X1566111D01*
Y3949222D01*
X1562889D01*
Y3952444D01*
D02*
G37*
G36*
X1530666D02*
X1517778D01*
Y3949222D01*
X1514556D01*
Y3946000D01*
X1511333D01*
Y3933111D01*
X1514556D01*
Y3929889D01*
X1517778D01*
Y3926667D01*
X1530666D01*
Y3929889D01*
X1533889D01*
Y3933111D01*
X1537111D01*
Y3946000D01*
X1533889D01*
Y3949222D01*
X1530666D01*
Y3952444D01*
D02*
G37*
G36*
X1401778D02*
X1388889D01*
Y3949222D01*
X1385667D01*
Y3946000D01*
X1382444D01*
Y3933111D01*
X1385667D01*
Y3929889D01*
X1388889D01*
Y3926667D01*
X1401778D01*
Y3929889D01*
X1405000D01*
Y3933111D01*
X1408222D01*
Y3942778D01*
Y3946000D01*
X1405000D01*
Y3949222D01*
X1401778D01*
Y3952444D01*
D02*
G37*
G36*
X1305111D02*
X1292222D01*
Y3949222D01*
X1289000D01*
Y3946000D01*
X1285778D01*
Y3933111D01*
X1289000D01*
Y3929889D01*
X1292222D01*
Y3926667D01*
X1305111D01*
Y3929889D01*
X1308333D01*
Y3933111D01*
X1311555D01*
Y3936333D01*
Y3946000D01*
X1308333D01*
Y3949222D01*
X1305111D01*
Y3952444D01*
D02*
G37*
G36*
X1272889D02*
X1260000D01*
Y3949222D01*
X1256778D01*
Y3946000D01*
X1253556D01*
Y3933111D01*
X1256778D01*
Y3929889D01*
X1260000D01*
Y3926667D01*
X1272889D01*
Y3929889D01*
X1276111D01*
Y3933111D01*
X1279333D01*
Y3946000D01*
X1276111D01*
Y3949222D01*
X1272889D01*
Y3952444D01*
D02*
G37*
G36*
X1208444D02*
X1195555D01*
Y3949222D01*
X1192333D01*
Y3946000D01*
X1189111D01*
Y3933111D01*
X1192333D01*
Y3929889D01*
X1195555D01*
Y3926667D01*
X1208444D01*
Y3929889D01*
X1211667D01*
Y3933111D01*
X1214889D01*
Y3942778D01*
Y3946000D01*
X1211667D01*
Y3949222D01*
X1208444D01*
Y3952444D01*
D02*
G37*
G36*
X1111778D02*
X1098889D01*
Y3949222D01*
X1095667D01*
Y3946000D01*
X1092444D01*
Y3936333D01*
Y3933111D01*
X1095667D01*
Y3929889D01*
X1098889D01*
Y3926667D01*
X1111778D01*
Y3929889D01*
X1115000D01*
Y3933111D01*
X1118222D01*
Y3946000D01*
X1115000D01*
Y3949222D01*
X1111778D01*
Y3952444D01*
D02*
G37*
G36*
X1047333D02*
X1034444D01*
Y3949222D01*
X1031222D01*
Y3946000D01*
X1028000D01*
Y3933111D01*
X1031222D01*
Y3929889D01*
X1034444D01*
Y3926667D01*
X1047333D01*
Y3929889D01*
X1050555D01*
Y3933111D01*
X1053778D01*
Y3946000D01*
X1050555D01*
Y3949222D01*
X1047333D01*
Y3952444D01*
D02*
G37*
G36*
X1015111D02*
X1002222D01*
Y3949222D01*
X999000D01*
Y3946000D01*
X995778D01*
Y3939555D01*
Y3936333D01*
Y3933111D01*
X999000D01*
Y3929889D01*
X1002222D01*
Y3926667D01*
X1015111D01*
Y3929889D01*
X1018333D01*
Y3933111D01*
X1021555D01*
Y3946000D01*
X1018333D01*
Y3949222D01*
X1015111D01*
Y3952444D01*
D02*
G37*
G36*
X982889D02*
X970000D01*
Y3949222D01*
X966778D01*
Y3946000D01*
X963555D01*
Y3933111D01*
X966778D01*
Y3929889D01*
X970000D01*
Y3926667D01*
X982889D01*
Y3929889D01*
X986111D01*
Y3933111D01*
X989333D01*
Y3946000D01*
X986111D01*
Y3949222D01*
X982889D01*
Y3952444D01*
D02*
G37*
G36*
X950667D02*
X937778D01*
Y3949222D01*
X934555D01*
Y3946000D01*
X931333D01*
Y3933111D01*
X934555D01*
Y3929889D01*
X937778D01*
Y3926667D01*
X950667D01*
Y3929889D01*
X953889D01*
Y3933111D01*
X957111D01*
Y3946000D01*
X953889D01*
Y3949222D01*
X950667D01*
Y3952444D01*
D02*
G37*
G36*
X918444D02*
X905555D01*
Y3949222D01*
X902333D01*
Y3946000D01*
X899111D01*
Y3933111D01*
X902333D01*
Y3929889D01*
X905555D01*
Y3926667D01*
X918444D01*
Y3929889D01*
X921667D01*
Y3933111D01*
X924889D01*
Y3946000D01*
X921667D01*
Y3949222D01*
X918444D01*
Y3952444D01*
D02*
G37*
G36*
X854000D02*
X841111D01*
Y3949222D01*
X837889D01*
Y3946000D01*
X834667D01*
Y3933111D01*
X837889D01*
Y3929889D01*
X841111D01*
Y3926667D01*
X854000D01*
Y3929889D01*
X857222D01*
Y3933111D01*
X860444D01*
Y3946000D01*
X857222D01*
Y3949222D01*
X854000D01*
Y3952444D01*
D02*
G37*
G36*
X789555D02*
X776666D01*
Y3949222D01*
X773444D01*
Y3946000D01*
X770222D01*
Y3933111D01*
X773444D01*
Y3929889D01*
X776666D01*
Y3926667D01*
X789555D01*
Y3929889D01*
X792778D01*
Y3933111D01*
X796000D01*
Y3936333D01*
Y3946000D01*
X792778D01*
Y3949222D01*
X789555D01*
Y3952444D01*
D02*
G37*
G36*
X757333D02*
X744444D01*
Y3949222D01*
X741222D01*
Y3946000D01*
X738000D01*
Y3933111D01*
X741222D01*
Y3929889D01*
X744444D01*
Y3926667D01*
X757333D01*
Y3929889D01*
X760556D01*
Y3933111D01*
X763778D01*
Y3946000D01*
X760556D01*
Y3949222D01*
X757333D01*
Y3952444D01*
D02*
G37*
G36*
X680000Y4149000D02*
X499556D01*
Y4145778D01*
X493111D01*
Y4142556D01*
X489889D01*
Y4139333D01*
X486667D01*
Y4136111D01*
X483444D01*
Y4132889D01*
X480222D01*
Y4126444D01*
X477000D01*
Y3946000D01*
X480222D01*
Y3939555D01*
X483444D01*
Y3936333D01*
X486667D01*
Y3933111D01*
X489889D01*
Y3929889D01*
X493111D01*
Y3926667D01*
X499556D01*
Y3923445D01*
X680000D01*
Y3926667D01*
X686444D01*
Y3929889D01*
X689667D01*
Y3933111D01*
X692889D01*
Y3936333D01*
X696111D01*
Y3939555D01*
X699333D01*
Y3949222D01*
X702555D01*
Y4126444D01*
X699333D01*
Y4132889D01*
X696111D01*
Y4136111D01*
X692889D01*
Y4139333D01*
X689667D01*
Y4142556D01*
X686444D01*
Y4145778D01*
X680000D01*
Y4149000D01*
D02*
G37*
%LPD*%
G36*
X1614444Y5080222D02*
X1620889D01*
Y5077000D01*
X1624111D01*
Y5073778D01*
X1627333D01*
Y5070556D01*
X1630556D01*
Y5067333D01*
X1633778D01*
Y5060889D01*
X1637000D01*
Y4948111D01*
X1633778D01*
Y4938444D01*
X1630556D01*
Y4935222D01*
X1627333D01*
Y4932000D01*
X1624111D01*
Y4928778D01*
X1620889D01*
Y4925556D01*
X1614444D01*
Y4922333D01*
X1498444D01*
Y4925556D01*
X1492000D01*
Y4928778D01*
X1488778D01*
Y4932000D01*
X1485555D01*
Y4935222D01*
X1482333D01*
Y4938444D01*
X1479111D01*
Y4944889D01*
X1475889D01*
Y5060889D01*
X1479111D01*
Y5067333D01*
X1482333D01*
Y5070556D01*
X1485555D01*
Y5073778D01*
X1488778D01*
Y5077000D01*
X1492000D01*
Y5080222D01*
X1498444D01*
Y5083444D01*
X1614444D01*
Y5080222D01*
D02*
G37*
%LPC*%
G36*
X1582222Y5051222D02*
X1530666D01*
Y5048000D01*
X1524222D01*
Y5044778D01*
X1521000D01*
Y5041555D01*
X1517778D01*
Y5038333D01*
X1514556D01*
Y5035111D01*
X1511333D01*
Y5028667D01*
X1508111D01*
Y4977111D01*
X1511333D01*
Y4970666D01*
X1514556D01*
Y4967444D01*
X1517778D01*
Y4964222D01*
X1521000D01*
Y4961000D01*
X1524222D01*
Y4957778D01*
X1530666D01*
Y4954555D01*
X1582222D01*
Y4957778D01*
X1588667D01*
Y4961000D01*
X1591889D01*
Y4964222D01*
X1595111D01*
Y4967444D01*
X1598333D01*
Y4970666D01*
X1601555D01*
Y4980333D01*
X1604778D01*
Y5028667D01*
X1601555D01*
Y5035111D01*
X1598333D01*
Y5038333D01*
X1595111D01*
Y5041555D01*
X1591889D01*
Y5044778D01*
X1588667D01*
Y5048000D01*
X1582222D01*
Y5051222D01*
D02*
G37*
%LPD*%
G36*
X647778Y5080222D02*
X654222D01*
Y5077000D01*
X657444D01*
Y5073778D01*
X660667D01*
Y5070556D01*
X663889D01*
Y5067333D01*
X667111D01*
Y5060889D01*
X670333D01*
Y4948111D01*
X667111D01*
Y4938444D01*
X663889D01*
Y4935222D01*
X660667D01*
Y4932000D01*
X657444D01*
Y4928778D01*
X654222D01*
Y4925556D01*
X647778D01*
Y4922333D01*
X531778D01*
Y4925556D01*
X525333D01*
Y4928778D01*
X522111D01*
Y4932000D01*
X518889D01*
Y4935222D01*
X515666D01*
Y4938444D01*
X512444D01*
Y4944889D01*
X509222D01*
Y5060889D01*
X512444D01*
Y5067333D01*
X515666D01*
Y5070556D01*
X518889D01*
Y5073778D01*
X522111D01*
Y5077000D01*
X525333D01*
Y5080222D01*
X531778D01*
Y5083444D01*
X647778D01*
Y5080222D01*
D02*
G37*
%LPC*%
G36*
X615556Y5051222D02*
X564000D01*
Y5048000D01*
X557555D01*
Y5044778D01*
X554333D01*
Y5041555D01*
X551111D01*
Y5038333D01*
X547889D01*
Y5035111D01*
X544667D01*
Y5028667D01*
X541444D01*
Y4977111D01*
X544667D01*
Y4970666D01*
X547889D01*
Y4967444D01*
X551111D01*
Y4964222D01*
X554333D01*
Y4961000D01*
X557555D01*
Y4957778D01*
X564000D01*
Y4954555D01*
X615556D01*
Y4957778D01*
X622000D01*
Y4961000D01*
X625222D01*
Y4964222D01*
X628444D01*
Y4967444D01*
X631667D01*
Y4970666D01*
X634889D01*
Y4977111D01*
X638111D01*
Y5028667D01*
X634889D01*
Y5035111D01*
X631667D01*
Y5038333D01*
X628444D01*
Y5041555D01*
X625222D01*
Y5044778D01*
X622000D01*
Y5048000D01*
X615556D01*
Y5051222D01*
D02*
G37*
%LPD*%
G36*
X1111778Y4622667D02*
X1098889D01*
Y4635555D01*
X1111778D01*
Y4622667D01*
D02*
G37*
G36*
X647778Y4113555D02*
X654222D01*
Y4110333D01*
X657444D01*
Y4107111D01*
X660667D01*
Y4103889D01*
X663889D01*
Y4100667D01*
X667111D01*
Y4094222D01*
X670333D01*
Y3981444D01*
X667111D01*
Y3971778D01*
X663889D01*
Y3968555D01*
X660667D01*
Y3965333D01*
X657444D01*
Y3962111D01*
X654222D01*
Y3958889D01*
X647778D01*
Y3955667D01*
X531778D01*
Y3958889D01*
X525333D01*
Y3962111D01*
X522111D01*
Y3965333D01*
X518889D01*
Y3968555D01*
X515666D01*
Y3971778D01*
X512444D01*
Y3978222D01*
X509222D01*
Y4094222D01*
X512444D01*
Y4100667D01*
X515666D01*
Y4103889D01*
X518889D01*
Y4107111D01*
X522111D01*
Y4110333D01*
X525333D01*
Y4113555D01*
X531778D01*
Y4116778D01*
X647778D01*
Y4113555D01*
D02*
G37*
%LPC*%
G36*
X615556Y4084555D02*
X564000D01*
Y4081333D01*
X557555D01*
Y4078111D01*
X554333D01*
Y4074889D01*
X551111D01*
Y4071667D01*
X547889D01*
Y4068444D01*
X544667D01*
Y4062000D01*
X541444D01*
Y4010444D01*
X544667D01*
Y4004000D01*
X547889D01*
Y4000778D01*
X551111D01*
Y3997556D01*
X554333D01*
Y3994333D01*
X557555D01*
Y3991111D01*
X564000D01*
Y3987889D01*
X615556D01*
Y3991111D01*
X622000D01*
Y3994333D01*
X625222D01*
Y3997556D01*
X628444D01*
Y4000778D01*
X631667D01*
Y4004000D01*
X634889D01*
Y4010444D01*
X638111D01*
Y4062000D01*
X634889D01*
Y4068444D01*
X631667D01*
Y4071667D01*
X628444D01*
Y4074889D01*
X625222D01*
Y4078111D01*
X622000D01*
Y4081333D01*
X615556D01*
Y4084555D01*
D02*
G37*
%LPD*%
D41*
X7611500Y8732600D02*
G03*
X7611500Y8732600I-10000J0D01*
G01*
X6083300Y5118100D02*
G03*
X6083300Y4991100I0J-63500D01*
G01*
X8976200Y8911100D02*
G03*
X8976200Y8911100I-10000J0D01*
G01*
X6343000Y393700D02*
G03*
X6343000Y393700I-10000J0D01*
G01*
X6561900Y1511300D02*
G03*
X6561900Y1511300I-250000J0D01*
G01*
X8174800Y1500600D02*
G03*
X8174800Y1500600I-250000J0D01*
G01*
X356500Y9262600D02*
Y12022600D01*
X8406500Y9262600D02*
Y12022600D01*
X801500Y12467600D02*
X7961500D01*
X801500Y8817600D02*
X7961500D01*
X6083300Y5118100D02*
Y5282100D01*
Y4827100D02*
Y4991100D01*
X2527300Y4827100D02*
X6083300D01*
X2527300D02*
Y5282100D01*
X6083300D01*
X6871979Y851217D02*
Y1841217D01*
X7321979D01*
Y851217D02*
Y1841217D01*
X6871979Y851217D02*
X7321979D01*
X2796003Y3354801D02*
Y3604801D01*
Y3354801D02*
X4326362D01*
Y3604801D01*
X2796003D02*
X4326362D01*
X601881Y271415D02*
X1271881D01*
Y635420D01*
X1358883D01*
Y2209420D01*
X1271881D02*
X1358883D01*
X1271881D02*
Y2671415D01*
X601881D02*
X1271881D01*
X601881Y271415D02*
Y2671415D01*
X8724200Y8959600D02*
Y9912600D01*
X9207200D01*
X8724200Y8959600D02*
X9207200D01*
Y9912600D01*
X6381500Y635700D02*
X7334500D01*
Y152700D02*
Y635700D01*
X6381500Y152700D02*
Y635700D01*
Y152700D02*
X7334500D01*
X4842195Y3717300D02*
X4936805D01*
X4842195Y3877300D02*
X4936805D01*
X5552395Y1270008D02*
Y1778008D01*
X5801395D01*
Y1270008D02*
Y1778008D01*
X5552395Y1270008D02*
X5801395D01*
X5734400Y2206100D02*
Y2226100D01*
X5619400Y2206100D02*
Y2226100D01*
X4112660Y4448400D02*
X4142340D01*
X4112660Y4238400D02*
X4142340D01*
X8357500Y2772500D02*
Y2792500D01*
X8242500Y2772500D02*
Y2792500D01*
X5898800Y5832000D02*
Y5852000D01*
X6013800Y5832000D02*
Y5852000D01*
X319613Y5790485D02*
X1171613D01*
X319613D02*
Y7240486D01*
X1171613D01*
Y5790485D02*
Y7240486D01*
X4090000Y8632500D02*
X4110000D01*
X4090000Y8517500D02*
X4110000D01*
X6499413Y6318821D02*
X9299413D01*
X6499413Y3468821D02*
Y6318821D01*
X9299413Y3468821D02*
Y6318821D01*
X6499413Y3468821D02*
X9299413D01*
X5132803Y6898101D02*
Y7148101D01*
Y6898101D02*
X6663162D01*
Y7148101D01*
X5132803D02*
X6663162D01*
X4839286Y4144000D02*
X4933897D01*
X4839286Y3984000D02*
X4933897D01*
D42*
X6052300Y5602100D02*
G03*
X6052300Y5602100I-25000J0D01*
G01*
X6971979Y746217D02*
G03*
X6971979Y746217I-25000J0D01*
G01*
D43*
X8719660Y599440D02*
G03*
X8719660Y599440I-10000J0D01*
G01*
D44*
X6130059Y2571378D02*
G03*
X6178069Y2201703I119941J-172378D01*
G01*
X6321931D02*
G03*
X6369941Y2571378I-71931J197297D01*
G01*
X8803069Y2948297D02*
G03*
X8755059Y2578622I71931J-197297D01*
G01*
X8994941D02*
G03*
X8946931Y2948297I-119941J172378D01*
G01*
X6130059Y2571378D02*
X6155000D01*
X6345000D02*
X6369941D01*
X8755059Y2578622D02*
X8780000D01*
X8970000D02*
X8994941D01*
D45*
X3468000Y6519500D02*
G03*
X3235000Y6286500I0J-233000D01*
G01*
D02*
G03*
X3468000Y6053500I233000J0D01*
G01*
X4385000Y6286500D02*
G03*
X4152000Y6519500I-233000J0D01*
G01*
Y6053500D02*
G03*
X4385000Y6286500I0J233000D01*
G01*
X9187300Y660400D02*
Y1739900D01*
X8467300Y660400D02*
X9287300D01*
Y723900D01*
Y1739900D01*
X9187300D02*
X9287300D01*
X8467300D02*
X9187300D01*
X8467300Y660400D02*
Y1739900D01*
X3468000Y6519500D02*
X4152000D01*
X3468000Y6053500D02*
X4152000D01*
D46*
X4131300Y6781000D02*
Y6881000D01*
X3971300Y6781000D02*
Y6881000D01*
X4131300Y6581000D02*
Y6681000D01*
X3971300Y6581000D02*
Y6681000D01*
Y6581000D02*
X4131300D01*
X3971300Y6881000D02*
X4131300D01*
X3636000Y6781000D02*
Y6881000D01*
X3476000Y6781000D02*
Y6881000D01*
X3636000Y6581000D02*
Y6681000D01*
X3476000Y6581000D02*
Y6681000D01*
Y6581000D02*
X3636000D01*
X3476000Y6881000D02*
X3636000D01*
X4164800Y4009400D02*
X4264800D01*
X4164800Y4169400D02*
X4264800D01*
X3964800Y4009400D02*
X4064800D01*
X3964800Y4169400D02*
X4064800D01*
X3964800Y4009400D02*
Y4169400D01*
X4264800Y4009400D02*
Y4169400D01*
X4850600Y4288800D02*
X4950600D01*
X4850600Y4448800D02*
X4950600D01*
X4650600Y4288800D02*
X4750600D01*
X4650600Y4448800D02*
X4750600D01*
X4650600Y4288800D02*
Y4448800D01*
X4950600Y4288800D02*
Y4448800D01*
X5177800Y6365100D02*
Y6465100D01*
X5337800Y6365100D02*
Y6465100D01*
X5177800Y6565100D02*
Y6665100D01*
X5337800Y6565100D02*
Y6665100D01*
X5177800D02*
X5337800D01*
X5177800Y6365100D02*
X5337800D01*
X6216443Y2131278D02*
X6285000D01*
X6250722Y2097000D02*
Y2165557D01*
X8908557Y3018722D02*
X8840000D01*
X8874278Y3053000D02*
Y2984443D01*
D47*
X465000Y5459961D02*
Y5340000D01*
X524980D01*
X544974Y5359994D01*
Y5439968D01*
X524980Y5459961D01*
X465000D01*
X584961Y5340000D02*
Y5419974D01*
X624948Y5459961D01*
X664935Y5419974D01*
Y5340000D01*
Y5399981D01*
X584961D01*
X704922Y5459961D02*
X784896D01*
X744909D01*
Y5340000D01*
X824883D02*
Y5419974D01*
X864870Y5459961D01*
X904857Y5419974D01*
Y5340000D01*
Y5399981D01*
X824883D01*
X1064806Y5459961D02*
Y5340000D01*
X1144780D01*
X1244747Y5459961D02*
X1204760D01*
X1184767Y5439968D01*
Y5359994D01*
X1204760Y5340000D01*
X1244747D01*
X1264741Y5359994D01*
Y5439968D01*
X1244747Y5459961D01*
X1384702Y5439968D02*
X1364708Y5459961D01*
X1324722D01*
X1304728Y5439968D01*
Y5359994D01*
X1324722Y5340000D01*
X1364708D01*
X1384702Y5359994D01*
Y5399981D01*
X1344715D01*
X1504663Y5439968D02*
X1484670Y5459961D01*
X1444683D01*
X1424689Y5439968D01*
Y5359994D01*
X1444683Y5340000D01*
X1484670D01*
X1504663Y5359994D01*
Y5399981D01*
X1464676D01*
X1624624Y5459961D02*
X1544650D01*
Y5340000D01*
X1624624D01*
X1544650Y5399981D02*
X1584637D01*
X1664611Y5340000D02*
Y5459961D01*
X1724592D01*
X1744586Y5439968D01*
Y5399981D01*
X1724592Y5379987D01*
X1664611D01*
X1704598D02*
X1744586Y5340000D01*
D48*
X6291277Y1181100D02*
Y1114455D01*
X6257955Y1147777D02*
X6324600D01*
X7945423Y1830800D02*
Y1897445D01*
X7978745Y1864123D02*
X7912100D01*
X3235960Y6776671D02*
Y6751279D01*
X3286743Y6700495D01*
X3337527Y6751279D01*
Y6776671D01*
X3286743Y6700495D02*
Y6624320D01*
X3388311D02*
X3439094D01*
X3413703D01*
Y6776671D01*
X3388311Y6751279D01*
X8746866Y10201175D02*
Y10099608D01*
X8797649Y10048825D01*
X8848433Y10099608D01*
Y10201175D01*
X8899216Y10048825D02*
Y10201175D01*
X8975392D01*
X9000784Y10175784D01*
Y10125000D01*
X8975392Y10099608D01*
X8899216D01*
X8950000D02*
X9000784Y10048825D01*
X9153134D02*
X9051567D01*
X9153134Y10150392D01*
Y10175784D01*
X9127742Y10201175D01*
X9076959D01*
X9051567Y10175784D01*
X5740458Y812775D02*
Y711208D01*
X5791241Y660425D01*
X5842025Y711208D01*
Y812775D01*
X5892808Y660425D02*
Y812775D01*
X5968984D01*
X5994376Y787383D01*
Y736600D01*
X5968984Y711208D01*
X5892808D01*
X5943592D02*
X5994376Y660425D01*
X6045159D02*
X6095943D01*
X6070551D01*
Y812775D01*
X6045159Y787383D01*
X5895340Y6055360D02*
Y6207711D01*
X5971515D01*
X5996907Y6182319D01*
Y6131535D01*
X5971515Y6106143D01*
X5895340D01*
X5946123D02*
X5996907Y6055360D01*
X6047691Y6207711D02*
X6149258D01*
Y6182319D01*
X6047691Y6080752D01*
Y6055360D01*
X4683760Y4254500D02*
Y4406851D01*
X4759935D01*
X4785327Y4381459D01*
Y4330675D01*
X4759935Y4305283D01*
X4683760D01*
X4734543D02*
X4785327Y4254500D01*
X4937678Y4406851D02*
X4886894Y4381459D01*
X4836111Y4330675D01*
Y4279892D01*
X4861503Y4254500D01*
X4912286D01*
X4937678Y4279892D01*
Y4305283D01*
X4912286Y4330675D01*
X4836111D01*
X4686300Y3987800D02*
Y4140151D01*
X4762475D01*
X4787867Y4114759D01*
Y4063975D01*
X4762475Y4038583D01*
X4686300D01*
X4737083D02*
X4787867Y3987800D01*
X4940218Y4140151D02*
X4838651D01*
Y4063975D01*
X4889434Y4089367D01*
X4914826D01*
X4940218Y4063975D01*
Y4013192D01*
X4914826Y3987800D01*
X4864043D01*
X4838651Y4013192D01*
X3987800Y8737600D02*
Y8889951D01*
X4063975D01*
X4089367Y8864559D01*
Y8813775D01*
X4063975Y8788383D01*
X3987800D01*
X4038583D02*
X4089367Y8737600D01*
X4216326D02*
Y8889951D01*
X4140151Y8813775D01*
X4241718D01*
X5615940Y2430780D02*
Y2583131D01*
X5692115D01*
X5717507Y2557739D01*
Y2506955D01*
X5692115Y2481563D01*
X5615940D01*
X5666723D02*
X5717507Y2430780D01*
X5869858D02*
X5768291D01*
X5869858Y2532347D01*
Y2557739D01*
X5844466Y2583131D01*
X5793683D01*
X5768291Y2557739D01*
X8237220Y2997200D02*
Y3149551D01*
X8313395D01*
X8338787Y3124159D01*
Y3073375D01*
X8313395Y3047983D01*
X8237220D01*
X8288003D02*
X8338787Y2997200D01*
X8389571D02*
X8440354D01*
X8414963D01*
Y3149551D01*
X8389571Y3124159D01*
X8465820Y1844040D02*
Y1996391D01*
X8541995D01*
X8567387Y1970999D01*
Y1920215D01*
X8541995Y1894823D01*
X8465820D01*
X8618171Y1844040D02*
X8668954D01*
X8643563D01*
Y1996391D01*
X8618171Y1970999D01*
X3901440Y4686251D02*
Y4533900D01*
X4003007D01*
X4053791D02*
X4104574D01*
X4079183D01*
Y4686251D01*
X4053791Y4660859D01*
X5250147Y7386271D02*
X5199363D01*
X5224755D01*
Y7259312D01*
X5199363Y7233920D01*
X5173972D01*
X5148580Y7259312D01*
X5402498Y7386271D02*
X5351714Y7360879D01*
X5300931Y7310095D01*
Y7259312D01*
X5326323Y7233920D01*
X5377106D01*
X5402498Y7259312D01*
Y7284703D01*
X5377106Y7310095D01*
X5300931D01*
X6598887Y6576011D02*
X6548103D01*
X6573495D01*
Y6449052D01*
X6548103Y6423660D01*
X6522712D01*
X6497320Y6449052D01*
X6751238Y6576011D02*
X6649671D01*
Y6499835D01*
X6700454Y6525227D01*
X6725846D01*
X6751238Y6499835D01*
Y6449052D01*
X6725846Y6423660D01*
X6675063D01*
X6649671Y6449052D01*
X2913347Y3842971D02*
X2862563D01*
X2887955D01*
Y3716012D01*
X2862563Y3690620D01*
X2837172D01*
X2811780Y3716012D01*
X3040306Y3690620D02*
Y3842971D01*
X2964131Y3766795D01*
X3065698D01*
X706087Y2923491D02*
X655303D01*
X680695D01*
Y2796532D01*
X655303Y2771140D01*
X629912D01*
X604520Y2796532D01*
X756871Y2898099D02*
X782263Y2923491D01*
X833046D01*
X858438Y2898099D01*
Y2872707D01*
X833046Y2847315D01*
X807654D01*
X833046D01*
X858438Y2821923D01*
Y2796532D01*
X833046Y2771140D01*
X782263D01*
X756871Y2796532D01*
X419067Y7495491D02*
X368283D01*
X393675D01*
Y7368532D01*
X368283Y7343140D01*
X342892D01*
X317500Y7368532D01*
X571418Y7343140D02*
X469851D01*
X571418Y7444707D01*
Y7470099D01*
X546026Y7495491D01*
X495243D01*
X469851Y7470099D01*
X5651467Y2034491D02*
X5600683D01*
X5626075D01*
Y1907532D01*
X5600683Y1882140D01*
X5575292D01*
X5549900Y1907532D01*
X5702251Y1882140D02*
X5753034D01*
X5727643D01*
Y2034491D01*
X5702251Y2009099D01*
X6870700Y2097991D02*
X6921483D01*
X6896092D01*
Y1945640D01*
X6870700D01*
X6921483D01*
X7099226Y2072599D02*
X7073834Y2097991D01*
X7023051D01*
X6997659Y2072599D01*
Y1971032D01*
X7023051Y1945640D01*
X7073834D01*
X7099226Y1971032D01*
X7251577Y1945640D02*
X7150010D01*
X7251577Y2047207D01*
Y2072599D01*
X7226185Y2097991D01*
X7175401D01*
X7150010Y2072599D01*
X2524760Y5880051D02*
X2575543D01*
X2550152D01*
Y5727700D01*
X2524760D01*
X2575543D01*
X2753286Y5854659D02*
X2727894Y5880051D01*
X2677111D01*
X2651719Y5854659D01*
Y5753092D01*
X2677111Y5727700D01*
X2727894D01*
X2753286Y5753092D01*
X2804070Y5727700D02*
X2854853D01*
X2829461D01*
Y5880051D01*
X2804070Y5854659D01*
X897258Y12726175D02*
Y12573825D01*
X973433D01*
X998825Y12599217D01*
Y12700784D01*
X973433Y12726175D01*
X897258D01*
X1151175Y12700784D02*
X1125784Y12726175D01*
X1075000D01*
X1049608Y12700784D01*
Y12675392D01*
X1075000Y12650000D01*
X1125784D01*
X1151175Y12624608D01*
Y12599217D01*
X1125784Y12573825D01*
X1075000D01*
X1049608Y12599217D01*
X1201959Y12573825D02*
X1252742D01*
X1227351D01*
Y12726175D01*
X1201959Y12700784D01*
X6042660Y2862531D02*
Y2710180D01*
X6118835D01*
X6144227Y2735572D01*
Y2837139D01*
X6118835Y2862531D01*
X6042660D01*
X6296578Y2710180D02*
X6195011D01*
X6296578Y2811747D01*
Y2837139D01*
X6271186Y2862531D01*
X6220403D01*
X6195011Y2837139D01*
X8669020Y3291791D02*
Y3139440D01*
X8745195D01*
X8770587Y3164832D01*
Y3266399D01*
X8745195Y3291791D01*
X8669020D01*
X8821371Y3139440D02*
X8872154D01*
X8846763D01*
Y3291791D01*
X8821371Y3266399D01*
X5300947Y6873199D02*
X5275555Y6898591D01*
X5224772D01*
X5199380Y6873199D01*
Y6771632D01*
X5224772Y6746240D01*
X5275555D01*
X5300947Y6771632D01*
X5351731Y6898591D02*
X5453298D01*
Y6873199D01*
X5351731Y6771632D01*
Y6746240D01*
X4772627Y4655779D02*
X4747235Y4681171D01*
X4696452D01*
X4671060Y4655779D01*
Y4554212D01*
X4696452Y4528820D01*
X4747235D01*
X4772627Y4554212D01*
X4924978Y4681171D02*
X4874194Y4655779D01*
X4823411Y4604995D01*
Y4554212D01*
X4848803Y4528820D01*
X4899586D01*
X4924978Y4554212D01*
Y4579603D01*
X4899586Y4604995D01*
X4823411D01*
X6174707Y1978619D02*
X6149315Y2004011D01*
X6098532D01*
X6073140Y1978619D01*
Y1877052D01*
X6098532Y1851660D01*
X6149315D01*
X6174707Y1877052D01*
X6327058Y2004011D02*
X6225491D01*
Y1927835D01*
X6276274Y1953227D01*
X6301666D01*
X6327058Y1927835D01*
Y1877052D01*
X6301666Y1851660D01*
X6250883D01*
X6225491Y1877052D01*
X7787607Y2125939D02*
X7762215Y2151331D01*
X7711432D01*
X7686040Y2125939D01*
Y2024372D01*
X7711432Y1998980D01*
X7762215D01*
X7787607Y2024372D01*
X7914566Y1998980D02*
Y2151331D01*
X7838391Y2075155D01*
X7939958D01*
X3599147Y7089099D02*
X3573755Y7114491D01*
X3522972D01*
X3497580Y7089099D01*
Y6987532D01*
X3522972Y6962140D01*
X3573755D01*
X3599147Y6987532D01*
X3649931Y7089099D02*
X3675323Y7114491D01*
X3726106D01*
X3751498Y7089099D01*
Y7063707D01*
X3726106Y7038315D01*
X3700714D01*
X3726106D01*
X3751498Y7012923D01*
Y6987532D01*
X3726106Y6962140D01*
X3675323D01*
X3649931Y6987532D01*
X4094447Y7089099D02*
X4069055Y7114491D01*
X4018272D01*
X3992880Y7089099D01*
Y6987532D01*
X4018272Y6962140D01*
X4069055D01*
X4094447Y6987532D01*
X4246798Y6962140D02*
X4145231D01*
X4246798Y7063707D01*
Y7089099D01*
X4221406Y7114491D01*
X4170623D01*
X4145231Y7089099D01*
X4086827Y4376379D02*
X4061435Y4401771D01*
X4010652D01*
X3985260Y4376379D01*
Y4274812D01*
X4010652Y4249420D01*
X4061435D01*
X4086827Y4274812D01*
X4137611Y4249420D02*
X4188394D01*
X4163003D01*
Y4401771D01*
X4137611Y4376379D01*
%TF.MD5,eb02c3887e85ec79e78ba4f3483b6502*%
M02*
