%TF.GenerationSoftware,Altium Limited,Altium Designer,25.6.2 (33)*%
G04 Layer_Color=128*
%FSLAX45Y45*%
%MOMM*%
%TF.SameCoordinates,D625FAC1-649B-4139-A42B-0E7AE4161345*%
%TF.FilePolarity,Positive*%
%TF.FileFunction,Drillmap*%
%TF.Part,Single*%
G01*
G75*
%TA.AperFunction,NonConductor*%
%ADD45C,0.12700*%
D45*
X195000Y12660000D02*
X405000D01*
X300000Y12555000D02*
Y12765000D01*
X195000Y280000D02*
X405000D01*
X300000Y175000D02*
Y385000D01*
X9095000Y280000D02*
X9305000D01*
X9200000Y175000D02*
Y385000D01*
X6477800Y7023100D02*
X6577800D01*
X6527800Y6973100D02*
Y7073100D01*
X6574401Y4393810D02*
X6674401D01*
X6624401Y4343810D02*
Y4443810D01*
X6529500Y9042600D02*
X6629500D01*
X6579500Y8992600D02*
Y9092600D01*
X7545500Y9042600D02*
X7645500D01*
X7595500Y8992600D02*
Y9092600D01*
X431600Y6794500D02*
X533600D01*
X482600Y6743500D02*
Y6845500D01*
X8825000Y2621000D02*
X8925000D01*
X8875000Y2571000D02*
Y2671000D01*
X4138300Y5435600D02*
X4218300D01*
X4178300Y5395600D02*
Y5475600D01*
X4392300Y4673600D02*
X4472300D01*
X4432300Y4633600D02*
Y4713600D01*
X6200000Y2529000D02*
X6300000D01*
X6250000Y2479000D02*
Y2579000D01*
X7887300Y1375600D02*
X7962300D01*
X7924800Y1338100D02*
Y1413100D01*
X6274400Y1636300D02*
X6349400D01*
X6311900Y1598800D02*
Y1673800D01*
X8822300Y977900D02*
X8932300D01*
X8877300Y922900D02*
Y1032900D01*
X6822500Y393700D02*
X6893500D01*
X6858000Y358200D02*
Y429200D01*
X8930700Y9182100D02*
X9001700D01*
X8966200Y9146600D02*
Y9217600D01*
X1180900Y787400D02*
X1282900D01*
X1231900Y736400D02*
Y838400D01*
X4141000Y3479800D02*
X4241000D01*
X4191000Y3429800D02*
Y3529800D01*
X506500Y12192600D02*
X756500D01*
X631500Y12067600D02*
Y12317600D01*
X8006500Y12192600D02*
X8256500D01*
X8131500Y12067600D02*
Y12317600D01*
X8006500Y9092600D02*
X8256500D01*
X8131500Y8967600D02*
Y9217600D01*
X506500Y9092600D02*
X756500D01*
X631500Y8967600D02*
Y9217600D01*
X3735500Y9042600D02*
X3835500D01*
X3785500Y8992600D02*
Y9092600D01*
X3989500Y9042600D02*
X4089500D01*
X4039500Y8992600D02*
Y9092600D01*
X4243500Y9042600D02*
X4343500D01*
X4293500Y8992600D02*
Y9092600D01*
X4497500Y9042600D02*
X4597500D01*
X4547500Y8992600D02*
Y9092600D01*
X4751500Y9042600D02*
X4851500D01*
X4801500Y8992600D02*
Y9092600D01*
X5005500Y9042600D02*
X5105500D01*
X5055500Y8992600D02*
Y9092600D01*
X5259500Y9042600D02*
X5359500D01*
X5309500Y8992600D02*
Y9092600D01*
X5513500Y9042600D02*
X5613500D01*
X5563500Y8992600D02*
Y9092600D01*
X5767500Y9042600D02*
X5867500D01*
X5817500Y8992600D02*
Y9092600D01*
X6021500Y9042600D02*
X6121500D01*
X6071500Y8992600D02*
Y9092600D01*
X6275500Y9042600D02*
X6375500D01*
X6325500Y8992600D02*
Y9092600D01*
X6783500Y9042600D02*
X6883500D01*
X6833500Y8992600D02*
Y9092600D01*
X7037500Y9042600D02*
X7137500D01*
X7087500Y8992600D02*
Y9092600D01*
X7291500Y9042600D02*
X7391500D01*
X7341500Y8992600D02*
Y9092600D01*
X8930700Y9436100D02*
X9001700D01*
X8966200Y9400600D02*
Y9471600D01*
X3376300Y5435600D02*
X3456300D01*
X3416300Y5395600D02*
Y5475600D01*
X5154300Y5435600D02*
X5234300D01*
X5194300Y5395600D02*
Y5475600D01*
X3122300Y5435600D02*
X3202300D01*
X3162300Y5395600D02*
Y5475600D01*
X4900300Y5435600D02*
X4980300D01*
X4940300Y5395600D02*
Y5475600D01*
X8930700Y9690100D02*
X9001700D01*
X8966200Y9654600D02*
Y9725600D01*
X5969800Y7023100D02*
X6069800D01*
X6019800Y6973100D02*
Y7073100D01*
X6574401Y4643811D02*
X6674401D01*
X6624401Y4593811D02*
Y4693811D01*
X5625900Y1651000D02*
X5727900D01*
X5676900Y1600000D02*
Y1702000D01*
X4392300Y5435600D02*
X4472300D01*
X4432300Y5395600D02*
Y5475600D01*
X431608Y6286492D02*
X533608D01*
X482608Y6235492D02*
Y6337492D01*
X3887000Y3479800D02*
X3987000D01*
X3937000Y3429800D02*
Y3529800D01*
X1180900Y1041400D02*
X1282900D01*
X1231900Y990400D02*
Y1092400D01*
X2868300Y5435600D02*
X2948300D01*
X2908300Y5395600D02*
Y5475600D01*
X4646300Y5435600D02*
X4726300D01*
X4686300Y5395600D02*
Y5475600D01*
X9105000Y12660000D02*
X9315000D01*
X9210000Y12555000D02*
Y12765000D01*
X5916300Y5435600D02*
X5996300D01*
X5956300Y5395600D02*
Y5475600D01*
X5662300Y5435600D02*
X5742300D01*
X5702300Y5395600D02*
Y5475600D01*
X5408300Y5435600D02*
X5488300D01*
X5448300Y5395600D02*
Y5475600D01*
X3884300Y5435600D02*
X3964300D01*
X3924300Y5395600D02*
Y5475600D01*
X3630300Y5435600D02*
X3710300D01*
X3670300Y5395600D02*
Y5475600D01*
X2614300Y5435600D02*
X2694300D01*
X2654300Y5395600D02*
Y5475600D01*
X5916300Y4673600D02*
X5996300D01*
X5956300Y4633600D02*
Y4713600D01*
X5662300Y4673600D02*
X5742300D01*
X5702300Y4633600D02*
Y4713600D01*
X5408300Y4673600D02*
X5488300D01*
X5448300Y4633600D02*
Y4713600D01*
X5154300Y4673600D02*
X5234300D01*
X5194300Y4633600D02*
Y4713600D01*
X4900300Y4673600D02*
X4980300D01*
X4940300Y4633600D02*
Y4713600D01*
X4646300Y4673600D02*
X4726300D01*
X4686300Y4633600D02*
Y4713600D01*
X4138300Y4673600D02*
X4218300D01*
X4178300Y4633600D02*
Y4713600D01*
X3884300Y4673600D02*
X3964300D01*
X3924300Y4633600D02*
Y4713600D01*
X3630300Y4673600D02*
X3710300D01*
X3670300Y4633600D02*
Y4713600D01*
X3376300Y4673600D02*
X3456300D01*
X3416300Y4633600D02*
Y4713600D01*
X3122300Y4673600D02*
X3202300D01*
X3162300Y4633600D02*
Y4713600D01*
X2868300Y4673600D02*
X2948300D01*
X2908300Y4633600D02*
Y4713600D01*
X2614300Y4673600D02*
X2694300D01*
X2654300Y4633600D02*
Y4713600D01*
X6574401Y4893804D02*
X6674401D01*
X6624401Y4843804D02*
Y4943804D01*
X1180900Y1295400D02*
X1282900D01*
X1231900Y1244400D02*
Y1346400D01*
X3125003Y3479801D02*
X3225003D01*
X3175003Y3429801D02*
Y3529800D01*
X5715800Y7023100D02*
X5815800D01*
X5765800Y6973100D02*
Y7073100D01*
X3532000Y6286500D02*
X3600000D01*
X3566000Y6252500D02*
Y6320500D01*
X1180900Y1549400D02*
X1282900D01*
X1231900Y1498400D02*
Y1600400D01*
X2871003Y3479801D02*
X2971003D01*
X2921003Y3429801D02*
Y3529800D01*
X431600Y6540500D02*
X533600D01*
X482600Y6489500D02*
Y6591500D01*
X3633000Y3479800D02*
X3733000D01*
X3683000Y3429800D02*
Y3529800D01*
X1180900Y1803400D02*
X1282900D01*
X1231900Y1752400D02*
Y1854400D01*
X3379000Y3479800D02*
X3479000D01*
X3429000Y3429800D02*
Y3529800D01*
X1180900Y2057400D02*
X1282900D01*
X1231900Y2006400D02*
Y2108400D01*
X6574401Y5143797D02*
X6674401D01*
X6624401Y5093797D02*
Y5193797D01*
X4020000Y6286500D02*
X4088000D01*
X4054000Y6252500D02*
Y6320500D01*
X5461803Y7023101D02*
X5561803D01*
X5511803Y6973101D02*
Y7073100D01*
X7054500Y1600200D02*
X7169500D01*
X7112000Y1542700D02*
Y1657700D01*
X7054500Y1346200D02*
X7169500D01*
X7112000Y1288700D02*
Y1403700D01*
X7054500Y1092200D02*
X7169500D01*
X7112000Y1034700D02*
Y1149700D01*
X7887300Y1625600D02*
X7962300D01*
X7924800Y1588100D02*
Y1663100D01*
X8822300Y1485900D02*
X8932300D01*
X8877300Y1430900D02*
Y1540900D01*
X6274400Y1386300D02*
X6349400D01*
X6311900Y1348800D02*
Y1423800D01*
X5625900Y1397000D02*
X5727900D01*
X5676900Y1346000D02*
Y1448000D01*
X7076500Y393700D02*
X7147500D01*
X7112000Y358200D02*
Y429200D01*
X6568500Y393700D02*
X6639500D01*
X6604000Y358200D02*
Y429200D01*
X6200000Y2275000D02*
X6300000D01*
X6250000Y2225000D02*
Y2325000D01*
X8825000Y2875000D02*
X8925000D01*
X8875000Y2825000D02*
Y2925000D01*
X9124399Y3918810D02*
X9224399D01*
X9174399Y3868810D02*
Y3968809D01*
X9124399Y4168811D02*
X9224399D01*
X9174399Y4118811D02*
Y4218810D01*
X9124399Y4418812D02*
X9224399D01*
X9174399Y4368812D02*
Y4468811D01*
X9124399Y4668796D02*
X9224399D01*
X9174399Y4618796D02*
Y4718796D01*
X9124399Y4918797D02*
X9224399D01*
X9174399Y4868797D02*
Y4968797D01*
X9124399Y5168798D02*
X9224399D01*
X9174399Y5118798D02*
Y5218798D01*
X9124399Y5418799D02*
X9224399D01*
X9174399Y5368800D02*
Y5468799D01*
X6574401Y5393798D02*
X6674401D01*
X6624401Y5343798D02*
Y5443798D01*
X6223800Y7023100D02*
X6323800D01*
X6273800Y6973100D02*
Y7073100D01*
X5207803Y7023101D02*
X5307803D01*
X5257803Y6973101D02*
Y7073100D01*
X6064440Y4475000D02*
X6135560D01*
X6100000Y4439440D02*
Y4510560D01*
X5464440Y3800000D02*
X5535560D01*
X5500000Y3764440D02*
Y3835560D01*
X5864440Y3450000D02*
X5935560D01*
X5900000Y3414440D02*
Y3485560D01*
X6164440Y3675000D02*
X6235560D01*
X6200000Y3639440D02*
Y3710560D01*
%TF.MD5,555a0ca095287281a7e19112156c63bf*%
M02*
