M48
;Layer_Color=9474304
;FILE_FORMAT=4:4
METRIC,LZ
;TYPE=PLATED
T01F00S00C0.6800
T02F00S00C0.7100
T03F00S00C0.7112
T04F00S00C0.7500
T05F00S00C0.8000
T06F00S00C1.0000
T07F00S00C1.0200
T08F00S00C1.1000
T09F00S00C1.1500
T10F00S00C2.5000
;TYPE=NON_PLATED
T11F00S00C2.1000
%
T01
X003566Y0062865
X004054
T02
X006604Y0003937
X006858
X007112
X0089662Y0091821
Y0094361
Y0096901
T03
X0059Y00345
X0062Y003675
X0061Y004475
X0055Y0038
T04
X0063119Y0013863
Y0016363
X0079248Y0016256
Y0013756
T05
X0057023Y0046736
X0059563
X0054483
X0051943
X0049403
X0046863
X0044323
X0041783
X0039243
X0036703
X0034163
X0031623
X0029083
X0026543
Y0054356
X0029083
X0031623
X0034163
X0036703
X0039243
X0041783
X0044323
X0046863
X0049403
X0051943
X0054483
X0057023
X0059563
T06
X00625Y002275
Y002529
X0066244Y00439381
Y00464381
Y0048938
Y0051438
X0091744Y0051688
Y0049188
Y0046688
Y00441881
Y00416881
Y00391881
X008875Y002875
Y002621
X004191Y0034798
X003937
X003683
X003429
X003175Y0034798
X002921
X0052578Y0070231
X0055118
X0055635Y0090426
X0053095
X0050555
X0048015
X0045475
X0042935
X0040395
X0037855
X0058175
X0060715
X0063255
X0065795
X0068335
X0070875
X0073415
X0075955
X0065278Y0070231
X0062738
X0060198
X0057658
X0066244Y0053938
X0091744Y0054188
T07
X0012319Y0007874
Y0010414
X0056769Y001397
Y001651
X0012319Y0015494
Y0012954
Y0018034
Y0020574
X00048261Y00628649
X0004826Y0065405
Y0067945
T08
X0088773Y0009779
Y0014859
T09
X007112Y0010922
Y0013462
Y0016002
T10
X0006315Y0090926
X0081315
Y0121926
X0006315
T11
X0003Y00028
X0092
X00921Y01266
X0003
M30
