%TF.GenerationSoftware,Altium Limited,Altium Designer,25.6.2 (33)*%
G04 Layer_Color=8388736*
%FSLAX45Y45*%
%MOMM*%
%TF.SameCoordinates,105D10E8-5C4D-4F19-AFCE-DBFBABB2216B*%
%TF.FilePolarity,Negative*%
%TF.FileFunction,Soldermask,Top*%
%TF.Part,Single*%
G01*
G75*
%TA.AperFunction,SMDPad,CuDef*%
%ADD10R,1.15606X1.75822*%
G04:AMPARAMS|DCode=50|XSize=0.9032mm|YSize=1.4532mm|CornerRadius=0.2766mm|HoleSize=0mm|Usage=FLASHONLY|Rotation=180.000|XOffset=0mm|YOffset=0mm|HoleType=Round|Shape=RoundedRectangle|*
%AMROUNDEDRECTD50*
21,1,0.90320,0.90000,0,0,180.0*
21,1,0.35000,1.45320,0,0,180.0*
1,1,0.55320,-0.17500,0.45000*
1,1,0.55320,0.17500,0.45000*
1,1,0.55320,0.17500,-0.45000*
1,1,0.55320,-0.17500,-0.45000*
%
%ADD50ROUNDEDRECTD50*%
G04:AMPARAMS|DCode=51|XSize=0.9032mm|YSize=1.4532mm|CornerRadius=0.2766mm|HoleSize=0mm|Usage=FLASHONLY|Rotation=270.000|XOffset=0mm|YOffset=0mm|HoleType=Round|Shape=RoundedRectangle|*
%AMROUNDEDRECTD51*
21,1,0.90320,0.90000,0,0,270.0*
21,1,0.35000,1.45320,0,0,270.0*
1,1,0.55320,-0.45000,-0.17500*
1,1,0.55320,-0.45000,0.17500*
1,1,0.55320,0.45000,0.17500*
1,1,0.55320,0.45000,-0.17500*
%
%ADD51ROUNDEDRECTD51*%
%ADD52R,1.05320X1.55320*%
%ADD53R,1.55320X1.05320*%
%ADD54R,1.95320X1.70320*%
%TA.AperFunction,WasherPad*%
%ADD55C,0.20320*%
%TA.AperFunction,ComponentPad*%
%ADD56C,1.80320*%
%ADD57C,1.85320*%
%ADD58C,1.71120*%
%ADD59R,1.71120X1.71120*%
%ADD60C,1.82320*%
%ADD61C,1.70320*%
%ADD62C,1.60320*%
%ADD63C,1.30320*%
%ADD64R,1.85320X1.85320*%
%ADD65C,1.42120*%
%ADD66R,1.42120X1.42120*%
%ADD67R,1.82320X1.82320*%
%ADD68C,5.20320*%
%ADD69R,1.60320X1.60320*%
%ADD70C,1.28320*%
%ADD71R,1.80320X1.80320*%
%ADD72C,1.95320*%
%ADD73R,1.95320X1.95320*%
%ADD74R,1.30320X1.30320*%
%ADD75R,1.42120X1.42120*%
D10*
X5029200Y4064000D02*
D03*
X4743983D02*
D03*
X4746892Y3797300D02*
D03*
X5032108D02*
D03*
D50*
X4895600Y4368800D02*
D03*
X4209800Y4089400D02*
D03*
X4705600Y4368800D02*
D03*
X4019800Y4089400D02*
D03*
D51*
X3556000Y6826000D02*
D03*
X4051300D02*
D03*
X3556000Y6636000D02*
D03*
X5257800Y6420100D02*
D03*
X4051300Y6636000D02*
D03*
X5257800Y6610100D02*
D03*
D52*
X4017500Y8575000D02*
D03*
X4182500D02*
D03*
D53*
X5956300Y5924500D02*
D03*
X5676900Y2133600D02*
D03*
X8300000Y2700000D02*
D03*
X5956300Y5759500D02*
D03*
X5676900Y2298600D02*
D03*
X8300000Y2865000D02*
D03*
D54*
X4265000Y4343400D02*
D03*
X3990000D02*
D03*
D55*
X300000Y12660000D02*
D03*
Y280000D02*
D03*
X9200000D02*
D03*
X9210000Y12660000D02*
D03*
D56*
X6527800Y7023100D02*
D03*
X4191000Y3479800D02*
D03*
X6019800Y7023100D02*
D03*
X3937000Y3479800D02*
D03*
X3175003Y3479801D02*
D03*
X5765800Y7023100D02*
D03*
X3683000Y3479800D02*
D03*
X3429000D02*
D03*
X5511803Y7023101D02*
D03*
X6273800Y7023100D02*
D03*
D57*
X6624401Y4393810D02*
D03*
Y4643811D02*
D03*
Y4893804D02*
D03*
Y5143797D02*
D03*
X8877300Y1485900D02*
D03*
X9174399Y3918810D02*
D03*
Y4168811D02*
D03*
Y4418812D02*
D03*
Y4668796D02*
D03*
Y4918797D02*
D03*
Y5168798D02*
D03*
Y5418799D02*
D03*
X6624401Y5393798D02*
D03*
D58*
X6579500Y9042600D02*
D03*
X3785500D02*
D03*
X4039500D02*
D03*
X4293500D02*
D03*
X4547500D02*
D03*
X4801500D02*
D03*
X5055500D02*
D03*
X5309500D02*
D03*
X5563500D02*
D03*
X5817500D02*
D03*
X6071500D02*
D03*
X6325500D02*
D03*
X6833500D02*
D03*
X7087500D02*
D03*
X7341500D02*
D03*
D59*
X7595500D02*
D03*
D60*
X482600Y6794500D02*
D03*
X5676900Y1651000D02*
D03*
X482608Y6286492D02*
D03*
X1231900Y1041400D02*
D03*
Y1295400D02*
D03*
Y1549400D02*
D03*
X482600Y6540500D02*
D03*
X1231900Y1803400D02*
D03*
Y2057400D02*
D03*
X5676900Y1397000D02*
D03*
D61*
X8875000Y2621000D02*
D03*
X6250000Y2529000D02*
D03*
Y2275000D02*
D03*
X8875000Y2875000D02*
D03*
D62*
X4178300Y5435600D02*
D03*
X4432300Y4673600D02*
D03*
X3416300Y5435600D02*
D03*
X5194300D02*
D03*
X3162300D02*
D03*
X4940300D02*
D03*
X4432300D02*
D03*
X2908300D02*
D03*
X4686300D02*
D03*
X5702300D02*
D03*
X5448300D02*
D03*
X3924300D02*
D03*
X3670300D02*
D03*
X2654300D02*
D03*
X5956300Y4673600D02*
D03*
X5702300D02*
D03*
X5448300D02*
D03*
X5194300D02*
D03*
X4940300D02*
D03*
X4686300D02*
D03*
X4178300D02*
D03*
X3924300D02*
D03*
X3670300D02*
D03*
X3416300D02*
D03*
X3162300D02*
D03*
X2908300D02*
D03*
X2654300D02*
D03*
D63*
X7924800Y1375600D02*
D03*
X6311900Y1636300D02*
D03*
D64*
X8877300Y977900D02*
D03*
D65*
X6858000Y393700D02*
D03*
X8966200Y9436100D02*
D03*
Y9690100D02*
D03*
X7112000Y393700D02*
D03*
D66*
X8966200Y9182100D02*
D03*
D67*
X1231900Y787400D02*
D03*
D68*
X631500Y12192600D02*
D03*
X8131500D02*
D03*
Y9092600D02*
D03*
X631500D02*
D03*
D69*
X5956300Y5435600D02*
D03*
D70*
X3566000Y6286500D02*
D03*
X4054000D02*
D03*
D71*
X2921003Y3479801D02*
D03*
X5257803Y7023101D02*
D03*
D72*
X7112000Y1600200D02*
D03*
Y1346200D02*
D03*
D73*
Y1092200D02*
D03*
D74*
X7924800Y1625600D02*
D03*
X6311900Y1386300D02*
D03*
D75*
X6604000Y393700D02*
D03*
%TF.MD5,f3d11dd950dc7ac8b80b806c90298dd5*%
M02*
