%TF.GenerationSoftware,Altium Limited,Altium Designer,25.6.2 (33)*%
G04 Layer_Physical_Order=2*
G04 Layer_Color=16711680*
%FSLAX45Y45*%
%MOMM*%
%TF.SameCoordinates,105D10E8-5C4D-4F19-AFCE-DBFBABB2216B*%
%TF.FilePolarity,Positive*%
%TF.FileFunction,Copper,L2,Bot,Signal*%
%TF.Part,Single*%
G01*
G75*
%TA.AperFunction,Conductor*%
%ADD16C,0.30000*%
%ADD17C,0.25400*%
%ADD18C,0.50000*%
%TA.AperFunction,ComponentPad*%
%ADD19C,1.60000*%
%ADD20C,1.65000*%
%ADD21C,1.50800*%
%ADD22R,1.50800X1.50800*%
%ADD23C,1.62000*%
%ADD24C,1.50000*%
%ADD25C,1.40000*%
%ADD26C,1.10000*%
%ADD27R,1.65000X1.65000*%
%ADD28C,1.21800*%
%ADD29R,1.21800X1.21800*%
%ADD30R,1.62000X1.62000*%
%ADD31C,5.00000*%
%ADD32R,1.40000X1.40000*%
%ADD33C,1.08000*%
%ADD34R,1.60000X1.60000*%
%ADD35C,1.75000*%
%ADD36R,1.75000X1.75000*%
%ADD37R,1.10000X1.10000*%
%ADD38R,1.21800X1.21800*%
%TA.AperFunction,ViaPad*%
%ADD39C,1.27000*%
%TA.AperFunction,SMDPad,CuDef*%
G04:AMPARAMS|DCode=40|XSize=0.92mm|YSize=1.38mm|CornerRadius=0.115mm|HoleSize=0mm|Usage=FLASHONLY|Rotation=90.000|XOffset=0mm|YOffset=0mm|HoleType=Round|Shape=RoundedRectangle|*
%AMROUNDEDRECTD40*
21,1,0.92000,1.15000,0,0,90.0*
21,1,0.69000,1.38000,0,0,90.0*
1,1,0.23000,0.57500,0.34500*
1,1,0.23000,0.57500,-0.34500*
1,1,0.23000,-0.57500,-0.34500*
1,1,0.23000,-0.57500,0.34500*
%
%ADD40ROUNDEDRECTD40*%
G36*
X9446154Y53496D02*
X53446D01*
Y12887904D01*
X9446154D01*
Y53496D01*
D02*
G37*
%LPC*%
G36*
X9210000Y12856345D02*
X9171695Y12852573D01*
X9134862Y12841400D01*
X9100916Y12823254D01*
X9071163Y12798837D01*
X9046745Y12769084D01*
X9028600Y12735138D01*
X9017427Y12698305D01*
X9013655Y12660000D01*
X9017427Y12621695D01*
X9028600Y12584862D01*
X9046745Y12550916D01*
X9071163Y12521163D01*
X9100916Y12496745D01*
X9134862Y12478601D01*
X9171695Y12467427D01*
X9210000Y12463655D01*
X9248305Y12467427D01*
X9285138Y12478601D01*
X9319083Y12496745D01*
X9348837Y12521163D01*
X9373255Y12550916D01*
X9391399Y12584862D01*
X9402573Y12621695D01*
X9406345Y12660000D01*
X9402573Y12698305D01*
X9391399Y12735138D01*
X9373255Y12769084D01*
X9348837Y12798837D01*
X9319083Y12823254D01*
X9285138Y12841400D01*
X9248305Y12852573D01*
X9210000Y12856345D01*
D02*
G37*
G36*
X300000D02*
X261695Y12852573D01*
X224862Y12841400D01*
X190916Y12823254D01*
X161163Y12798837D01*
X136745Y12769084D01*
X118600Y12735138D01*
X107427Y12698305D01*
X103655Y12660000D01*
X107427Y12621695D01*
X118600Y12584862D01*
X136745Y12550916D01*
X161163Y12521163D01*
X190916Y12496745D01*
X224862Y12478601D01*
X261695Y12467427D01*
X300000Y12463655D01*
X338305Y12467427D01*
X375138Y12478601D01*
X409084Y12496745D01*
X438837Y12521163D01*
X463255Y12550916D01*
X481399Y12584862D01*
X492573Y12621695D01*
X496345Y12660000D01*
X492573Y12698305D01*
X481399Y12735138D01*
X463255Y12769084D01*
X438837Y12798837D01*
X409084Y12823254D01*
X375138Y12841400D01*
X338305Y12852573D01*
X300000Y12856345D01*
D02*
G37*
G36*
X8153175Y12468000D02*
X8109826D01*
X8067011Y12461219D01*
X8025783Y12447823D01*
X7987159Y12428143D01*
X7952089Y12402663D01*
X7921437Y12372011D01*
X7895957Y12336941D01*
X7876277Y12298317D01*
X7862881Y12257090D01*
X7856100Y12214275D01*
Y12170925D01*
X7862881Y12128110D01*
X7876277Y12086883D01*
X7895957Y12048259D01*
X7921437Y12013189D01*
X7952089Y11982537D01*
X7987159Y11957057D01*
X8025783Y11937377D01*
X8067011Y11923981D01*
X8109826Y11917200D01*
X8153175D01*
X8195990Y11923981D01*
X8237217Y11937377D01*
X8275841Y11957057D01*
X8310911Y11982537D01*
X8341563Y12013189D01*
X8367043Y12048259D01*
X8386723Y12086883D01*
X8400119Y12128110D01*
X8406900Y12170925D01*
Y12214275D01*
X8400119Y12257090D01*
X8386723Y12298317D01*
X8367043Y12336941D01*
X8341563Y12372011D01*
X8310911Y12402663D01*
X8275841Y12428143D01*
X8237217Y12447823D01*
X8195990Y12461219D01*
X8153175Y12468000D01*
D02*
G37*
G36*
X653174D02*
X609825D01*
X567010Y12461219D01*
X525783Y12447823D01*
X487159Y12428143D01*
X452089Y12402663D01*
X421437Y12372011D01*
X395957Y12336941D01*
X376277Y12298317D01*
X362881Y12257090D01*
X356100Y12214275D01*
Y12170925D01*
X362881Y12128110D01*
X376277Y12086883D01*
X395957Y12048259D01*
X421437Y12013189D01*
X452089Y11982537D01*
X487159Y11957057D01*
X525783Y11937377D01*
X567010Y11923981D01*
X609825Y11917200D01*
X653174D01*
X695989Y11923981D01*
X737217Y11937377D01*
X775841Y11957057D01*
X810911Y11982537D01*
X841563Y12013189D01*
X867043Y12048259D01*
X886723Y12086883D01*
X900119Y12128110D01*
X906900Y12170925D01*
Y12214275D01*
X900119Y12257090D01*
X886723Y12298317D01*
X867043Y12336941D01*
X841563Y12372011D01*
X810911Y12402663D01*
X775841Y12428143D01*
X737217Y12447823D01*
X695989Y12461219D01*
X653174Y12468000D01*
D02*
G37*
G36*
X8977562Y9776400D02*
X8954838D01*
X8932889Y9770519D01*
X8913211Y9759157D01*
X8897143Y9743089D01*
X8896218Y9741487D01*
X7690100D01*
X7670435Y9737576D01*
X7653764Y9726436D01*
X7305164Y9377836D01*
X7294024Y9361165D01*
X7290113Y9341500D01*
Y9129325D01*
X7279607Y9123260D01*
X7260840Y9104492D01*
X7247569Y9081507D01*
X7240700Y9055870D01*
Y9029329D01*
X7247569Y9003693D01*
X7260840Y8980707D01*
X7279607Y8961940D01*
X7290113Y8955875D01*
Y8612785D01*
X5983464Y7306136D01*
X5972324Y7289465D01*
X5968413Y7269800D01*
Y7115137D01*
X5955083Y7107441D01*
X5935459Y7087817D01*
X5921583Y7063783D01*
X5914400Y7036976D01*
Y7009224D01*
X5921583Y6982417D01*
X5935459Y6958383D01*
X5955083Y6938759D01*
X5979117Y6924883D01*
X6005924Y6917700D01*
X6033676D01*
X6060483Y6924883D01*
X6084517Y6938759D01*
X6104141Y6958383D01*
X6118017Y6982417D01*
X6125200Y7009224D01*
Y7036976D01*
X6118017Y7063783D01*
X6104141Y7087817D01*
X6084517Y7107441D01*
X6071187Y7115137D01*
Y7248515D01*
X7377836Y8555163D01*
X7388976Y8571835D01*
X7392887Y8591500D01*
Y8955875D01*
X7403392Y8961940D01*
X7422160Y8980707D01*
X7435430Y9003693D01*
X7442300Y9029329D01*
Y9055870D01*
X7435430Y9081507D01*
X7422160Y9104492D01*
X7403392Y9123260D01*
X7392887Y9129325D01*
Y9320215D01*
X7711385Y9638713D01*
X8896218D01*
X8897143Y9637111D01*
X8913211Y9621043D01*
X8932889Y9609681D01*
X8954838Y9603800D01*
X8977562D01*
X8999511Y9609681D01*
X9019189Y9621043D01*
X9035257Y9637111D01*
X9046619Y9656789D01*
X9052500Y9678738D01*
Y9701462D01*
X9046619Y9723411D01*
X9035257Y9743089D01*
X9019189Y9759157D01*
X8999511Y9770519D01*
X8977562Y9776400D01*
D02*
G37*
G36*
Y9522400D02*
X8954838D01*
X8932889Y9516519D01*
X8913211Y9505157D01*
X8897143Y9489089D01*
X8885781Y9469411D01*
X8879900Y9447462D01*
Y9424738D01*
X8885781Y9402789D01*
X8897143Y9383111D01*
X8913211Y9367043D01*
X8932889Y9355681D01*
X8954838Y9349800D01*
X8977562D01*
X8999511Y9355681D01*
X9019189Y9367043D01*
X9035257Y9383111D01*
X9046619Y9402789D01*
X9052500Y9424738D01*
Y9447462D01*
X9046619Y9469411D01*
X9035257Y9489089D01*
X9019189Y9505157D01*
X8999511Y9516519D01*
X8977562Y9522400D01*
D02*
G37*
G36*
X9052500Y9268400D02*
X8978900D01*
Y9194800D01*
X9052500D01*
Y9268400D01*
D02*
G37*
G36*
X8953500D02*
X8879900D01*
Y9194800D01*
X8953500D01*
Y9268400D01*
D02*
G37*
G36*
X9052500Y9169400D02*
X8978900D01*
Y9095800D01*
X9052500D01*
Y9169400D01*
D02*
G37*
G36*
X8953500D02*
X8879900D01*
Y9095800D01*
X8953500D01*
Y9169400D01*
D02*
G37*
G36*
X7696300Y9143400D02*
X7608200D01*
Y9055300D01*
X7696300D01*
Y9143400D01*
D02*
G37*
G36*
X6592770D02*
X6592200D01*
Y9055300D01*
X6680300D01*
Y9055870D01*
X6673430Y9081507D01*
X6660160Y9104492D01*
X6641392Y9123260D01*
X6618407Y9136530D01*
X6592770Y9143400D01*
D02*
G37*
G36*
X7582800D02*
X7494700D01*
Y9055300D01*
X7582800D01*
Y9143400D01*
D02*
G37*
G36*
X6566800D02*
X6566229D01*
X6540593Y9136530D01*
X6517607Y9123260D01*
X6498840Y9104492D01*
X6485569Y9081507D01*
X6478700Y9055870D01*
Y9055300D01*
X6566800D01*
Y9143400D01*
D02*
G37*
G36*
X7696300Y9029900D02*
X7608200D01*
Y8941800D01*
X7696300D01*
Y9029900D01*
D02*
G37*
G36*
X7582800D02*
X7494700D01*
Y8941800D01*
X7582800D01*
Y9029900D01*
D02*
G37*
G36*
X7100770Y9143400D02*
X7074229D01*
X7048593Y9136530D01*
X7025607Y9123260D01*
X7006840Y9104492D01*
X6993569Y9081507D01*
X6986700Y9055870D01*
Y9029329D01*
X6993569Y9003693D01*
X7006840Y8980707D01*
X7025607Y8961940D01*
X7048593Y8948669D01*
X7074229Y8941800D01*
X7100770D01*
X7126407Y8948669D01*
X7149392Y8961940D01*
X7168160Y8980707D01*
X7181430Y9003693D01*
X7188300Y9029329D01*
Y9055870D01*
X7181430Y9081507D01*
X7168160Y9104492D01*
X7149392Y9123260D01*
X7126407Y9136530D01*
X7100770Y9143400D01*
D02*
G37*
G36*
X6775000Y9341191D02*
X3675000D01*
X3659237Y9338056D01*
X3645873Y9329127D01*
X2879173Y8562427D01*
X2870244Y8549063D01*
X2867109Y8533300D01*
Y5521976D01*
X2849723Y5511939D01*
X2831961Y5494177D01*
X2819402Y5472423D01*
X2812900Y5448160D01*
Y5423040D01*
X2819402Y5398777D01*
X2831961Y5377023D01*
X2849723Y5359261D01*
X2871477Y5346702D01*
X2895740Y5340200D01*
X2920860D01*
X2945123Y5346702D01*
X2966877Y5359261D01*
X2984639Y5377023D01*
X2997198Y5398777D01*
X3003700Y5423040D01*
Y5448160D01*
X2997198Y5472423D01*
X2984639Y5494177D01*
X2966877Y5511939D01*
X2949491Y5521976D01*
Y8516238D01*
X3692062Y9258809D01*
X6757938D01*
X6792308Y9224438D01*
Y9135212D01*
X6771607Y9123260D01*
X6752840Y9104492D01*
X6739569Y9081507D01*
X6732700Y9055870D01*
Y9029329D01*
X6739569Y9003693D01*
X6752840Y8980707D01*
X6771607Y8961940D01*
X6794593Y8948669D01*
X6820229Y8941800D01*
X6846770D01*
X6872407Y8948669D01*
X6895392Y8961940D01*
X6914160Y8980707D01*
X6927430Y9003693D01*
X6934300Y9029329D01*
Y9055870D01*
X6927430Y9081507D01*
X6914160Y9104492D01*
X6895392Y9123260D01*
X6874691Y9135212D01*
Y9241500D01*
X6871556Y9257264D01*
X6862627Y9270627D01*
X6804127Y9329127D01*
X6790764Y9338056D01*
X6775000Y9341191D01*
D02*
G37*
G36*
X6680300Y9029900D02*
X6592200D01*
Y8941800D01*
X6592770D01*
X6618407Y8948669D01*
X6641392Y8961940D01*
X6660160Y8980707D01*
X6673430Y9003693D01*
X6680300Y9029329D01*
Y9029900D01*
D02*
G37*
G36*
X6566800D02*
X6478700D01*
Y9029329D01*
X6485569Y9003693D01*
X6498840Y8980707D01*
X6517607Y8961940D01*
X6540593Y8948669D01*
X6566229Y8941800D01*
X6566800D01*
Y9029900D01*
D02*
G37*
G36*
X6084770Y9143400D02*
X6058229D01*
X6032593Y9136530D01*
X6009607Y9123260D01*
X5990840Y9104492D01*
X5977569Y9081507D01*
X5970700Y9055870D01*
Y9029329D01*
X5977569Y9003693D01*
X5990840Y8980707D01*
X6009607Y8961940D01*
X6032593Y8948669D01*
X6058229Y8941800D01*
X6084770D01*
X6110407Y8948669D01*
X6133392Y8961940D01*
X6152160Y8980707D01*
X6165430Y9003693D01*
X6172300Y9029329D01*
Y9055870D01*
X6165430Y9081507D01*
X6152160Y9104492D01*
X6133392Y9123260D01*
X6110407Y9136530D01*
X6084770Y9143400D01*
D02*
G37*
G36*
X5830770D02*
X5804229D01*
X5778593Y9136530D01*
X5755607Y9123260D01*
X5736840Y9104492D01*
X5723569Y9081507D01*
X5716700Y9055870D01*
Y9029329D01*
X5723569Y9003693D01*
X5736840Y8980707D01*
X5755607Y8961940D01*
X5778593Y8948669D01*
X5804229Y8941800D01*
X5830770D01*
X5856407Y8948669D01*
X5879392Y8961940D01*
X5898160Y8980707D01*
X5911430Y9003693D01*
X5918300Y9029329D01*
Y9055870D01*
X5911430Y9081507D01*
X5898160Y9104492D01*
X5879392Y9123260D01*
X5856407Y9136530D01*
X5830770Y9143400D01*
D02*
G37*
G36*
X5576770D02*
X5550229D01*
X5524593Y9136530D01*
X5501607Y9123260D01*
X5482840Y9104492D01*
X5469569Y9081507D01*
X5462700Y9055870D01*
Y9029329D01*
X5469569Y9003693D01*
X5482840Y8980707D01*
X5501607Y8961940D01*
X5524593Y8948669D01*
X5550229Y8941800D01*
X5576770D01*
X5602407Y8948669D01*
X5625392Y8961940D01*
X5644160Y8980707D01*
X5657430Y9003693D01*
X5664300Y9029329D01*
Y9055870D01*
X5657430Y9081507D01*
X5644160Y9104492D01*
X5625392Y9123260D01*
X5602407Y9136530D01*
X5576770Y9143400D01*
D02*
G37*
G36*
X5322770D02*
X5296229D01*
X5270593Y9136530D01*
X5247607Y9123260D01*
X5228840Y9104492D01*
X5215569Y9081507D01*
X5208700Y9055870D01*
Y9029329D01*
X5215569Y9003693D01*
X5228840Y8980707D01*
X5247607Y8961940D01*
X5270593Y8948669D01*
X5296229Y8941800D01*
X5322770D01*
X5348407Y8948669D01*
X5371392Y8961940D01*
X5390160Y8980707D01*
X5403430Y9003693D01*
X5410300Y9029329D01*
Y9055870D01*
X5403430Y9081507D01*
X5390160Y9104492D01*
X5371392Y9123260D01*
X5348407Y9136530D01*
X5322770Y9143400D01*
D02*
G37*
G36*
X5068770D02*
X5042229D01*
X5016593Y9136530D01*
X4993607Y9123260D01*
X4974840Y9104492D01*
X4961569Y9081507D01*
X4954700Y9055870D01*
Y9029329D01*
X4961569Y9003693D01*
X4974840Y8980707D01*
X4993607Y8961940D01*
X5016593Y8948669D01*
X5042229Y8941800D01*
X5068770D01*
X5094407Y8948669D01*
X5117392Y8961940D01*
X5136160Y8980707D01*
X5149430Y9003693D01*
X5156300Y9029329D01*
Y9055870D01*
X5149430Y9081507D01*
X5136160Y9104492D01*
X5117392Y9123260D01*
X5094407Y9136530D01*
X5068770Y9143400D01*
D02*
G37*
G36*
X4814770D02*
X4788229D01*
X4762593Y9136530D01*
X4739607Y9123260D01*
X4720840Y9104492D01*
X4707569Y9081507D01*
X4700700Y9055870D01*
Y9029329D01*
X4707569Y9003693D01*
X4720840Y8980707D01*
X4739607Y8961940D01*
X4762593Y8948669D01*
X4788229Y8941800D01*
X4814770D01*
X4840407Y8948669D01*
X4863392Y8961940D01*
X4882160Y8980707D01*
X4895430Y9003693D01*
X4902300Y9029329D01*
Y9055870D01*
X4895430Y9081507D01*
X4882160Y9104492D01*
X4863392Y9123260D01*
X4840407Y9136530D01*
X4814770Y9143400D01*
D02*
G37*
G36*
X4560770D02*
X4534229D01*
X4508593Y9136530D01*
X4485607Y9123260D01*
X4466840Y9104492D01*
X4453569Y9081507D01*
X4446700Y9055870D01*
Y9029329D01*
X4453569Y9003693D01*
X4466840Y8980707D01*
X4485607Y8961940D01*
X4508593Y8948669D01*
X4534229Y8941800D01*
X4560770D01*
X4586407Y8948669D01*
X4609392Y8961940D01*
X4628160Y8980707D01*
X4641430Y9003693D01*
X4648300Y9029329D01*
Y9055870D01*
X4641430Y9081507D01*
X4628160Y9104492D01*
X4609392Y9123260D01*
X4586407Y9136530D01*
X4560770Y9143400D01*
D02*
G37*
G36*
X4306770D02*
X4280229D01*
X4254593Y9136530D01*
X4231607Y9123260D01*
X4212840Y9104492D01*
X4199569Y9081507D01*
X4192700Y9055870D01*
Y9029329D01*
X4199569Y9003693D01*
X4212840Y8980707D01*
X4231607Y8961940D01*
X4254593Y8948669D01*
X4280229Y8941800D01*
X4306770D01*
X4332407Y8948669D01*
X4355392Y8961940D01*
X4374160Y8980707D01*
X4387430Y9003693D01*
X4394300Y9029329D01*
Y9055870D01*
X4387430Y9081507D01*
X4374160Y9104492D01*
X4355392Y9123260D01*
X4332407Y9136530D01*
X4306770Y9143400D01*
D02*
G37*
G36*
X4052770D02*
X4026229D01*
X4000593Y9136530D01*
X3977607Y9123260D01*
X3958840Y9104492D01*
X3945569Y9081507D01*
X3938700Y9055870D01*
Y9029329D01*
X3945569Y9003693D01*
X3958840Y8980707D01*
X3977607Y8961940D01*
X4000593Y8948669D01*
X4026229Y8941800D01*
X4052770D01*
X4078407Y8948669D01*
X4101392Y8961940D01*
X4120160Y8980707D01*
X4133430Y9003693D01*
X4140300Y9029329D01*
Y9055870D01*
X4133430Y9081507D01*
X4120160Y9104492D01*
X4101392Y9123260D01*
X4078407Y9136530D01*
X4052770Y9143400D01*
D02*
G37*
G36*
X3798770D02*
X3772229D01*
X3746593Y9136530D01*
X3723607Y9123260D01*
X3704840Y9104492D01*
X3691569Y9081507D01*
X3684700Y9055870D01*
Y9029329D01*
X3691569Y9003693D01*
X3704840Y8980707D01*
X3723607Y8961940D01*
X3746593Y8948669D01*
X3772229Y8941800D01*
X3798770D01*
X3824407Y8948669D01*
X3847392Y8961940D01*
X3866160Y8980707D01*
X3879430Y9003693D01*
X3886300Y9029329D01*
Y9055870D01*
X3879430Y9081507D01*
X3866160Y9104492D01*
X3847392Y9123260D01*
X3824407Y9136530D01*
X3798770Y9143400D01*
D02*
G37*
G36*
X8153175Y9368000D02*
X8109826D01*
X8067011Y9361219D01*
X8025783Y9347823D01*
X7987159Y9328143D01*
X7952089Y9302663D01*
X7921437Y9272011D01*
X7895957Y9236941D01*
X7876277Y9198317D01*
X7862881Y9157090D01*
X7856100Y9114275D01*
Y9070925D01*
X7862881Y9028110D01*
X7876277Y8986883D01*
X7895957Y8948259D01*
X7921437Y8913189D01*
X7952089Y8882537D01*
X7987159Y8857057D01*
X8025783Y8837377D01*
X8067011Y8823981D01*
X8109826Y8817200D01*
X8153175D01*
X8195990Y8823981D01*
X8237217Y8837377D01*
X8275841Y8857057D01*
X8310911Y8882537D01*
X8341563Y8913189D01*
X8367043Y8948259D01*
X8386723Y8986883D01*
X8400119Y9028110D01*
X8406900Y9070925D01*
Y9114275D01*
X8400119Y9157090D01*
X8386723Y9198317D01*
X8367043Y9236941D01*
X8341563Y9272011D01*
X8310911Y9302663D01*
X8275841Y9328143D01*
X8237217Y9347823D01*
X8195990Y9361219D01*
X8153175Y9368000D01*
D02*
G37*
G36*
X653174D02*
X609825D01*
X567010Y9361219D01*
X525783Y9347823D01*
X487159Y9328143D01*
X452089Y9302663D01*
X421437Y9272011D01*
X395957Y9236941D01*
X376277Y9198317D01*
X362881Y9157090D01*
X356100Y9114275D01*
Y9070925D01*
X362881Y9028110D01*
X376277Y8986883D01*
X395957Y8948259D01*
X421437Y8913189D01*
X452089Y8882537D01*
X487159Y8857057D01*
X525783Y8837377D01*
X567010Y8823981D01*
X609825Y8817200D01*
X653174D01*
X695989Y8823981D01*
X737217Y8837377D01*
X775841Y8857057D01*
X810911Y8882537D01*
X841563Y8913189D01*
X867043Y8948259D01*
X886723Y8986883D01*
X900119Y9028110D01*
X906900Y9070925D01*
Y9114275D01*
X900119Y9157090D01*
X886723Y9198317D01*
X867043Y9236941D01*
X841563Y9272011D01*
X810911Y9302663D01*
X775841Y9328143D01*
X737217Y9347823D01*
X695989Y9361219D01*
X653174Y9368000D01*
D02*
G37*
G36*
X6541676Y7128500D02*
X6540500D01*
Y7035800D01*
X6633200D01*
Y7036976D01*
X6626017Y7063783D01*
X6612141Y7087817D01*
X6592517Y7107441D01*
X6568483Y7121317D01*
X6541676Y7128500D01*
D02*
G37*
G36*
X6515100D02*
X6513924D01*
X6487117Y7121317D01*
X6463083Y7107441D01*
X6443459Y7087817D01*
X6429583Y7063783D01*
X6422400Y7036976D01*
Y7035800D01*
X6515100D01*
Y7128500D01*
D02*
G37*
G36*
X5363203Y7128500D02*
X5152403D01*
Y6917701D01*
X5363203D01*
Y7128500D01*
D02*
G37*
G36*
X6633200Y7010400D02*
X6540500D01*
Y6917700D01*
X6541676D01*
X6568483Y6924883D01*
X6592517Y6938759D01*
X6612141Y6958383D01*
X6626017Y6982417D01*
X6633200Y7009224D01*
Y7010400D01*
D02*
G37*
G36*
X6515100D02*
X6422400D01*
Y7009224D01*
X6429583Y6982417D01*
X6443459Y6958383D01*
X6463083Y6938759D01*
X6487117Y6924883D01*
X6513924Y6917700D01*
X6515100D01*
Y7010400D01*
D02*
G37*
G36*
X6287676Y7128500D02*
X6259924D01*
X6233117Y7121317D01*
X6209083Y7107441D01*
X6189459Y7087817D01*
X6175583Y7063783D01*
X6168400Y7036976D01*
Y7009224D01*
X6175583Y6982417D01*
X6189459Y6958383D01*
X6209083Y6938759D01*
X6233117Y6924883D01*
X6259924Y6917700D01*
X6287676D01*
X6314483Y6924883D01*
X6338517Y6938759D01*
X6358141Y6958383D01*
X6372017Y6982417D01*
X6379200Y7009224D01*
Y7036976D01*
X6372017Y7063783D01*
X6358141Y7087817D01*
X6338517Y7107441D01*
X6314483Y7121317D01*
X6287676Y7128500D01*
D02*
G37*
G36*
X496608Y6900900D02*
X495300D01*
Y6807200D01*
X589000D01*
Y6808508D01*
X581749Y6835569D01*
X567741Y6859831D01*
X547931Y6879641D01*
X523669Y6893649D01*
X496608Y6900900D01*
D02*
G37*
G36*
X469900D02*
X468592D01*
X441531Y6893649D01*
X417269Y6879641D01*
X397459Y6859831D01*
X383451Y6835569D01*
X376200Y6808508D01*
Y6807200D01*
X469900D01*
Y6900900D01*
D02*
G37*
G36*
X589000Y6781800D02*
X495300D01*
Y6688100D01*
X496608D01*
X523669Y6695351D01*
X547931Y6709359D01*
X567741Y6729169D01*
X581749Y6753431D01*
X589000Y6780492D01*
Y6781800D01*
D02*
G37*
G36*
X469900D02*
X376200D01*
Y6780492D01*
X383451Y6753431D01*
X397459Y6729169D01*
X417269Y6709359D01*
X441531Y6695351D01*
X468592Y6688100D01*
X469900D01*
Y6781800D01*
D02*
G37*
G36*
X496608Y6646900D02*
X468592D01*
X441531Y6639649D01*
X417269Y6625641D01*
X397459Y6605831D01*
X383451Y6581569D01*
X376200Y6554508D01*
Y6526492D01*
X383451Y6499431D01*
X397459Y6475169D01*
X417269Y6455359D01*
X441531Y6441351D01*
X468592Y6434100D01*
X496608D01*
X523669Y6441351D01*
X547931Y6455359D01*
X567741Y6475169D01*
X581749Y6499431D01*
X589000Y6526492D01*
Y6554508D01*
X581749Y6581569D01*
X567741Y6605831D01*
X547931Y6625641D01*
X523669Y6639649D01*
X496608Y6646900D01*
D02*
G37*
G36*
X4064453Y6365900D02*
X4043547D01*
X4023353Y6360489D01*
X4005248Y6350036D01*
X3990464Y6335253D01*
X3980011Y6317147D01*
X3974600Y6296953D01*
Y6276047D01*
X3980011Y6255853D01*
X3990464Y6237747D01*
X4005248Y6222964D01*
X4023353Y6212511D01*
X4043547Y6207100D01*
X4064453D01*
X4084647Y6212511D01*
X4102753Y6222964D01*
X4117536Y6237747D01*
X4127989Y6255853D01*
X4133400Y6276047D01*
Y6296953D01*
X4127989Y6317147D01*
X4117536Y6335253D01*
X4102753Y6350036D01*
X4084647Y6360489D01*
X4064453Y6365900D01*
D02*
G37*
G36*
X3576453D02*
X3555547D01*
X3535353Y6360489D01*
X3517247Y6350036D01*
X3502464Y6335253D01*
X3492011Y6317147D01*
X3486600Y6296953D01*
Y6276047D01*
X3492011Y6255853D01*
X3502464Y6237747D01*
X3517247Y6222964D01*
X3535353Y6212511D01*
X3555547Y6207100D01*
X3576453D01*
X3596647Y6212511D01*
X3614752Y6222964D01*
X3629536Y6237747D01*
X3639989Y6255853D01*
X3645400Y6276047D01*
Y6296953D01*
X3639989Y6317147D01*
X3629536Y6335253D01*
X3614752Y6350036D01*
X3596647Y6360489D01*
X3576453Y6365900D01*
D02*
G37*
G36*
X4191000Y5530962D02*
Y5448300D01*
X4273662D01*
X4267198Y5472423D01*
X4254639Y5494177D01*
X4236877Y5511939D01*
X4215123Y5524498D01*
X4191000Y5530962D01*
D02*
G37*
G36*
X4165600D02*
X4141477Y5524498D01*
X4119723Y5511939D01*
X4101961Y5494177D01*
X4089402Y5472423D01*
X4082938Y5448300D01*
X4165600D01*
Y5530962D01*
D02*
G37*
G36*
X4273662Y5422900D02*
X4191000D01*
Y5340238D01*
X4215123Y5346702D01*
X4236877Y5359261D01*
X4254639Y5377023D01*
X4267198Y5398777D01*
X4273662Y5422900D01*
D02*
G37*
G36*
X4165600D02*
X4082938D01*
X4089402Y5398777D01*
X4101961Y5377023D01*
X4119723Y5359261D01*
X4141477Y5346702D01*
X4165600Y5340238D01*
Y5422900D01*
D02*
G37*
G36*
X6051700Y5531000D02*
X5860900D01*
Y5340200D01*
X6051700D01*
Y5531000D01*
D02*
G37*
G36*
X5779676Y7128500D02*
X5751924D01*
X5725117Y7121317D01*
X5701083Y7107441D01*
X5681459Y7087817D01*
X5667583Y7063783D01*
X5660400Y7036976D01*
Y7009224D01*
X5667583Y6982417D01*
X5681459Y6958383D01*
X5701083Y6938759D01*
X5724609Y6925177D01*
Y6782862D01*
X5673173Y6731427D01*
X5664244Y6718063D01*
X5661109Y6702300D01*
Y5521976D01*
X5643723Y5511939D01*
X5625961Y5494177D01*
X5613402Y5472423D01*
X5606900Y5448160D01*
Y5423040D01*
X5613402Y5398777D01*
X5625961Y5377023D01*
X5643723Y5359261D01*
X5665477Y5346702D01*
X5689740Y5340200D01*
X5714860D01*
X5739123Y5346702D01*
X5760877Y5359261D01*
X5778639Y5377023D01*
X5791198Y5398777D01*
X5797700Y5423040D01*
Y5448160D01*
X5791198Y5472423D01*
X5778639Y5494177D01*
X5760877Y5511939D01*
X5743491Y5521976D01*
Y6685238D01*
X5794927Y6736673D01*
X5803856Y6750037D01*
X5806991Y6765800D01*
Y6925177D01*
X5830517Y6938759D01*
X5850141Y6958383D01*
X5864017Y6982417D01*
X5871200Y7009224D01*
Y7036976D01*
X5864017Y7063783D01*
X5850141Y7087817D01*
X5830517Y7107441D01*
X5806483Y7121317D01*
X5779676Y7128500D01*
D02*
G37*
G36*
X5525679Y7128500D02*
X5497927D01*
X5471120Y7121317D01*
X5447086Y7107441D01*
X5427462Y7087818D01*
X5413586Y7063783D01*
X5406403Y7036977D01*
Y7009224D01*
X5413586Y6982418D01*
X5427462Y6958383D01*
X5447086Y6938760D01*
X5470612Y6925177D01*
Y6778865D01*
X5419173Y6727427D01*
X5410244Y6714063D01*
X5407109Y6698300D01*
Y5521976D01*
X5389723Y5511939D01*
X5371961Y5494177D01*
X5359402Y5472423D01*
X5352900Y5448160D01*
Y5423040D01*
X5359402Y5398777D01*
X5371961Y5377023D01*
X5389723Y5359261D01*
X5411477Y5346702D01*
X5435740Y5340200D01*
X5460860D01*
X5485123Y5346702D01*
X5506877Y5359261D01*
X5524639Y5377023D01*
X5537198Y5398777D01*
X5543700Y5423040D01*
Y5448160D01*
X5537198Y5472423D01*
X5524639Y5494177D01*
X5506877Y5511939D01*
X5489491Y5521976D01*
Y6681238D01*
X5540930Y6732676D01*
X5549859Y6746040D01*
X5552994Y6761803D01*
Y6925177D01*
X5576520Y6938760D01*
X5596144Y6958383D01*
X5610020Y6982418D01*
X5617203Y7009224D01*
Y7036977D01*
X5610020Y7063783D01*
X5596144Y7087818D01*
X5576520Y7107441D01*
X5552486Y7121317D01*
X5525679Y7128500D01*
D02*
G37*
G36*
X5206860Y5531000D02*
X5181740D01*
X5157477Y5524498D01*
X5135723Y5511939D01*
X5117961Y5494177D01*
X5105402Y5472423D01*
X5098900Y5448160D01*
Y5423040D01*
X5105402Y5398777D01*
X5117961Y5377023D01*
X5135723Y5359261D01*
X5157477Y5346702D01*
X5181740Y5340200D01*
X5206860D01*
X5231123Y5346702D01*
X5252877Y5359261D01*
X5270639Y5377023D01*
X5283198Y5398777D01*
X5289700Y5423040D01*
Y5448160D01*
X5283198Y5472423D01*
X5270639Y5494177D01*
X5252877Y5511939D01*
X5231123Y5524498D01*
X5206860Y5531000D01*
D02*
G37*
G36*
X4952860D02*
X4927740D01*
X4903477Y5524498D01*
X4881723Y5511939D01*
X4863961Y5494177D01*
X4851402Y5472423D01*
X4844900Y5448160D01*
Y5423040D01*
X4851402Y5398777D01*
X4863961Y5377023D01*
X4881723Y5359261D01*
X4903477Y5346702D01*
X4927740Y5340200D01*
X4952860D01*
X4977123Y5346702D01*
X4998877Y5359261D01*
X5016639Y5377023D01*
X5029198Y5398777D01*
X5035700Y5423040D01*
Y5448160D01*
X5029198Y5472423D01*
X5016639Y5494177D01*
X4998877Y5511939D01*
X4977123Y5524498D01*
X4952860Y5531000D01*
D02*
G37*
G36*
X4698860D02*
X4673740D01*
X4649477Y5524498D01*
X4627723Y5511939D01*
X4609961Y5494177D01*
X4597402Y5472423D01*
X4590900Y5448160D01*
Y5423040D01*
X4597402Y5398777D01*
X4609961Y5377023D01*
X4627723Y5359261D01*
X4649477Y5346702D01*
X4673740Y5340200D01*
X4698860D01*
X4723123Y5346702D01*
X4744877Y5359261D01*
X4762639Y5377023D01*
X4775198Y5398777D01*
X4781700Y5423040D01*
Y5448160D01*
X4775198Y5472423D01*
X4762639Y5494177D01*
X4744877Y5511939D01*
X4723123Y5524498D01*
X4698860Y5531000D01*
D02*
G37*
G36*
X3936860D02*
X3911740D01*
X3887477Y5524498D01*
X3865723Y5511939D01*
X3847961Y5494177D01*
X3835402Y5472423D01*
X3828900Y5448160D01*
Y5423040D01*
X3835402Y5398777D01*
X3847961Y5377023D01*
X3865723Y5359261D01*
X3887477Y5346702D01*
X3911740Y5340200D01*
X3936860D01*
X3961123Y5346702D01*
X3982877Y5359261D01*
X4000639Y5377023D01*
X4013198Y5398777D01*
X4019700Y5423040D01*
Y5448160D01*
X4013198Y5472423D01*
X4000639Y5494177D01*
X3982877Y5511939D01*
X3961123Y5524498D01*
X3936860Y5531000D01*
D02*
G37*
G36*
X3682860D02*
X3657740D01*
X3633477Y5524498D01*
X3611723Y5511939D01*
X3593961Y5494177D01*
X3581402Y5472423D01*
X3574900Y5448160D01*
Y5423040D01*
X3581402Y5398777D01*
X3593961Y5377023D01*
X3611723Y5359261D01*
X3633477Y5346702D01*
X3657740Y5340200D01*
X3682860D01*
X3707123Y5346702D01*
X3728877Y5359261D01*
X3746639Y5377023D01*
X3759198Y5398777D01*
X3765700Y5423040D01*
Y5448160D01*
X3759198Y5472423D01*
X3746639Y5494177D01*
X3728877Y5511939D01*
X3707123Y5524498D01*
X3682860Y5531000D01*
D02*
G37*
G36*
X3428860D02*
X3403740D01*
X3379477Y5524498D01*
X3357723Y5511939D01*
X3339961Y5494177D01*
X3327402Y5472423D01*
X3320900Y5448160D01*
Y5423040D01*
X3327402Y5398777D01*
X3339961Y5377023D01*
X3357723Y5359261D01*
X3379477Y5346702D01*
X3403740Y5340200D01*
X3428860D01*
X3453123Y5346702D01*
X3474877Y5359261D01*
X3492639Y5377023D01*
X3505198Y5398777D01*
X3511700Y5423040D01*
Y5448160D01*
X3505198Y5472423D01*
X3492639Y5494177D01*
X3474877Y5511939D01*
X3453123Y5524498D01*
X3428860Y5531000D01*
D02*
G37*
G36*
X6338770Y9143400D02*
X6312229D01*
X6286593Y9136530D01*
X6263607Y9123260D01*
X6244840Y9104492D01*
X6231569Y9081507D01*
X6224700Y9055870D01*
Y9029329D01*
X6231569Y9003693D01*
X6244840Y8980707D01*
X6263607Y8961940D01*
X6286593Y8948669D01*
X6286653Y8948653D01*
Y8341591D01*
X6208909Y8263847D01*
X3650000D01*
X3635134Y8260889D01*
X3622531Y8252469D01*
X3134831Y7764769D01*
X3126411Y7752166D01*
X3123453Y7737300D01*
Y5523330D01*
X3103723Y5511939D01*
X3085961Y5494177D01*
X3073402Y5472423D01*
X3066900Y5448160D01*
Y5423040D01*
X3073402Y5398777D01*
X3085961Y5377023D01*
X3103723Y5359261D01*
X3125477Y5346702D01*
X3149740Y5340200D01*
X3174860D01*
X3199123Y5346702D01*
X3220877Y5359261D01*
X3238639Y5377023D01*
X3251198Y5398777D01*
X3257700Y5423040D01*
Y5448160D01*
X3251198Y5472423D01*
X3238639Y5494177D01*
X3220877Y5511939D01*
X3201147Y5523330D01*
Y7721209D01*
X3666091Y8186154D01*
X6225000D01*
X6239866Y8189111D01*
X6252469Y8197531D01*
X6352968Y8298031D01*
X6361389Y8310634D01*
X6361880Y8313100D01*
X6364346Y8325500D01*
Y8948653D01*
X6364407Y8948669D01*
X6387392Y8961940D01*
X6406160Y8980707D01*
X6419430Y9003693D01*
X6426300Y9029329D01*
Y9055870D01*
X6419430Y9081507D01*
X6406160Y9104492D01*
X6387392Y9123260D01*
X6364407Y9136530D01*
X6338770Y9143400D01*
D02*
G37*
G36*
X2666860Y5531000D02*
X2641740D01*
X2617477Y5524498D01*
X2595723Y5511939D01*
X2577961Y5494177D01*
X2565402Y5472423D01*
X2558900Y5448160D01*
Y5423040D01*
X2565402Y5398777D01*
X2577961Y5377023D01*
X2595723Y5359261D01*
X2617477Y5346702D01*
X2641740Y5340200D01*
X2666860D01*
X2691123Y5346702D01*
X2712877Y5359261D01*
X2730639Y5377023D01*
X2743198Y5398777D01*
X2749700Y5423040D01*
Y5448160D01*
X2743198Y5472423D01*
X2730639Y5494177D01*
X2712877Y5511939D01*
X2691123Y5524498D01*
X2666860Y5531000D01*
D02*
G37*
G36*
X9188604Y5526699D02*
X9160194D01*
X9132751Y5519346D01*
X9108147Y5505141D01*
X9088057Y5485052D01*
X9073852Y5460447D01*
X9066499Y5433005D01*
Y5404594D01*
X9073852Y5377152D01*
X9088057Y5352547D01*
X9108147Y5332458D01*
X9132751Y5318253D01*
X9160194Y5310899D01*
X9188604D01*
X9216047Y5318253D01*
X9240651Y5332458D01*
X9260740Y5352547D01*
X9274946Y5377152D01*
X9282299Y5404594D01*
Y5433005D01*
X9274946Y5460447D01*
X9260740Y5485052D01*
X9240651Y5505141D01*
X9216047Y5519346D01*
X9188604Y5526699D01*
D02*
G37*
G36*
X6638606Y5501698D02*
X6610196D01*
X6582753Y5494345D01*
X6558149Y5480139D01*
X6538060Y5460050D01*
X6523854Y5435446D01*
X6516501Y5408003D01*
Y5379592D01*
X6523854Y5352150D01*
X6538060Y5327546D01*
X6558149Y5307456D01*
X6582753Y5293251D01*
X6610196Y5285898D01*
X6638606D01*
X6666049Y5293251D01*
X6690653Y5307456D01*
X6710743Y5327546D01*
X6724948Y5352150D01*
X6732301Y5379592D01*
Y5408003D01*
X6724948Y5435446D01*
X6710743Y5460050D01*
X6690653Y5480139D01*
X6666049Y5494345D01*
X6638606Y5501698D01*
D02*
G37*
G36*
X496616Y6392892D02*
X468600D01*
X441539Y6385641D01*
X417277Y6371633D01*
X397467Y6351823D01*
X383459Y6327561D01*
X376208Y6300500D01*
Y6272484D01*
X383459Y6245423D01*
X397467Y6221161D01*
X417277Y6201351D01*
X441539Y6187343D01*
X468600Y6180092D01*
X496616D01*
X523677Y6187343D01*
X547939Y6201351D01*
X567749Y6221161D01*
X575800Y6235105D01*
X1017223D01*
X2088664Y5163664D01*
X2105335Y5152524D01*
X2125000Y5148613D01*
X4339600D01*
X4359265Y5152524D01*
X4375936Y5163664D01*
X4468636Y5256364D01*
X4479776Y5273035D01*
X4483687Y5292700D01*
Y5355110D01*
X4490877Y5359261D01*
X4508639Y5377023D01*
X4521198Y5398777D01*
X4527700Y5423040D01*
Y5448160D01*
X4521198Y5472423D01*
X4508639Y5494177D01*
X4490877Y5511939D01*
X4469123Y5524498D01*
X4444860Y5531000D01*
X4419740D01*
X4395477Y5524498D01*
X4373723Y5511939D01*
X4355961Y5494177D01*
X4343402Y5472423D01*
X4336900Y5448160D01*
Y5423040D01*
X4343402Y5398777D01*
X4355961Y5377023D01*
X4373723Y5359261D01*
X4380913Y5355110D01*
Y5313985D01*
X4318315Y5251387D01*
X2146285D01*
X1074844Y6322828D01*
X1058173Y6333968D01*
X1038508Y6337879D01*
X575800D01*
X567749Y6351823D01*
X547939Y6371633D01*
X523677Y6385641D01*
X496616Y6392892D01*
D02*
G37*
G36*
X9188604Y5276698D02*
X9160194D01*
X9132751Y5269345D01*
X9108147Y5255140D01*
X9088057Y5235050D01*
X9073852Y5210446D01*
X9066499Y5183004D01*
Y5154593D01*
X9073852Y5127151D01*
X9088057Y5102546D01*
X9108147Y5082457D01*
X9132751Y5068251D01*
X9160194Y5060898D01*
X9188604D01*
X9216047Y5068251D01*
X9240651Y5082457D01*
X9260740Y5102546D01*
X9274946Y5127151D01*
X9282299Y5154593D01*
Y5183004D01*
X9274946Y5210446D01*
X9260740Y5235050D01*
X9240651Y5255140D01*
X9216047Y5269345D01*
X9188604Y5276698D01*
D02*
G37*
G36*
Y5026697D02*
X9160194D01*
X9132751Y5019344D01*
X9108147Y5005139D01*
X9088057Y4985049D01*
X9073852Y4960445D01*
X9066499Y4933003D01*
Y4904592D01*
X9073852Y4877150D01*
X9088057Y4852545D01*
X9108147Y4832456D01*
X9132751Y4818250D01*
X9160194Y4810897D01*
X9188604D01*
X9216047Y4818250D01*
X9240651Y4832456D01*
X9260740Y4852545D01*
X9274946Y4877150D01*
X9282299Y4904592D01*
Y4933003D01*
X9274946Y4960445D01*
X9260740Y4985049D01*
X9240651Y5005139D01*
X9216047Y5019344D01*
X9188604Y5026697D01*
D02*
G37*
G36*
X6638606Y5001704D02*
X6610196D01*
X6582753Y4994351D01*
X6558149Y4980145D01*
X6538060Y4960056D01*
X6523854Y4935452D01*
X6523732Y4934995D01*
X5922504D01*
X5906741Y4931860D01*
X5893377Y4922930D01*
X5734251Y4763804D01*
X5714860Y4769000D01*
X5689740D01*
X5665477Y4762498D01*
X5643723Y4749939D01*
X5625961Y4732177D01*
X5613402Y4710423D01*
X5606900Y4686160D01*
Y4661040D01*
X5613402Y4636777D01*
X5625961Y4615023D01*
X5643723Y4597261D01*
X5665477Y4584702D01*
X5689740Y4578200D01*
X5714860D01*
X5739123Y4584702D01*
X5760877Y4597261D01*
X5778639Y4615023D01*
X5791198Y4636777D01*
X5797700Y4661040D01*
Y4686160D01*
X5792504Y4705551D01*
X5939566Y4852612D01*
X6523732D01*
X6523854Y4852156D01*
X6538060Y4827552D01*
X6558149Y4807462D01*
X6582753Y4793257D01*
X6610196Y4785904D01*
X6638606D01*
X6666049Y4793257D01*
X6690653Y4807462D01*
X6710743Y4827552D01*
X6724948Y4852156D01*
X6732301Y4879599D01*
Y4908009D01*
X6724948Y4935452D01*
X6710743Y4960056D01*
X6690653Y4980145D01*
X6666049Y4994351D01*
X6638606Y5001704D01*
D02*
G37*
G36*
X4445000Y4768962D02*
Y4686300D01*
X4527662D01*
X4521198Y4710423D01*
X4508639Y4732177D01*
X4490877Y4749939D01*
X4469123Y4762498D01*
X4445000Y4768962D01*
D02*
G37*
G36*
X4419600D02*
X4395477Y4762498D01*
X4373723Y4749939D01*
X4355961Y4732177D01*
X4343402Y4710423D01*
X4336938Y4686300D01*
X4419600D01*
Y4768962D01*
D02*
G37*
G36*
X4527662Y4660900D02*
X4445000D01*
Y4578238D01*
X4469123Y4584702D01*
X4490877Y4597261D01*
X4508639Y4615023D01*
X4521198Y4636777D01*
X4527662Y4660900D01*
D02*
G37*
G36*
X4419600D02*
X4336938D01*
X4343402Y4636777D01*
X4355961Y4615023D01*
X4373723Y4597261D01*
X4395477Y4584702D01*
X4419600Y4578238D01*
Y4660900D01*
D02*
G37*
G36*
X5460860Y4769000D02*
X5435740D01*
X5411477Y4762498D01*
X5389723Y4749939D01*
X5371961Y4732177D01*
X5359402Y4710423D01*
X5352900Y4686160D01*
Y4661040D01*
X5359402Y4636777D01*
X5371961Y4615023D01*
X5389723Y4597261D01*
X5411477Y4584702D01*
X5435740Y4578200D01*
X5460860D01*
X5485123Y4584702D01*
X5506877Y4597261D01*
X5524639Y4615023D01*
X5537198Y4636777D01*
X5543700Y4661040D01*
Y4686160D01*
X5537198Y4710423D01*
X5524639Y4732177D01*
X5506877Y4749939D01*
X5485123Y4762498D01*
X5460860Y4769000D01*
D02*
G37*
G36*
X5206860D02*
X5181740D01*
X5157477Y4762498D01*
X5135723Y4749939D01*
X5117961Y4732177D01*
X5105402Y4710423D01*
X5098900Y4686160D01*
Y4661040D01*
X5105402Y4636777D01*
X5117961Y4615023D01*
X5135723Y4597261D01*
X5157477Y4584702D01*
X5181740Y4578200D01*
X5206860D01*
X5231123Y4584702D01*
X5252877Y4597261D01*
X5270639Y4615023D01*
X5283198Y4636777D01*
X5289700Y4661040D01*
Y4686160D01*
X5283198Y4710423D01*
X5270639Y4732177D01*
X5252877Y4749939D01*
X5231123Y4762498D01*
X5206860Y4769000D01*
D02*
G37*
G36*
X4952860D02*
X4927740D01*
X4903477Y4762498D01*
X4881723Y4749939D01*
X4863961Y4732177D01*
X4851402Y4710423D01*
X4844900Y4686160D01*
Y4661040D01*
X4851402Y4636777D01*
X4863961Y4615023D01*
X4881723Y4597261D01*
X4903477Y4584702D01*
X4927740Y4578200D01*
X4952860D01*
X4977123Y4584702D01*
X4998877Y4597261D01*
X5016639Y4615023D01*
X5029198Y4636777D01*
X5035700Y4661040D01*
Y4686160D01*
X5029198Y4710423D01*
X5016639Y4732177D01*
X4998877Y4749939D01*
X4977123Y4762498D01*
X4952860Y4769000D01*
D02*
G37*
G36*
X4698860D02*
X4673740D01*
X4649477Y4762498D01*
X4627723Y4749939D01*
X4609961Y4732177D01*
X4597402Y4710423D01*
X4590900Y4686160D01*
Y4661040D01*
X4597402Y4636777D01*
X4609961Y4615023D01*
X4627723Y4597261D01*
X4649477Y4584702D01*
X4673740Y4578200D01*
X4698860D01*
X4723123Y4584702D01*
X4744877Y4597261D01*
X4762639Y4615023D01*
X4775198Y4636777D01*
X4781700Y4661040D01*
Y4686160D01*
X4775198Y4710423D01*
X4762639Y4732177D01*
X4744877Y4749939D01*
X4723123Y4762498D01*
X4698860Y4769000D01*
D02*
G37*
G36*
X4190860D02*
X4165740D01*
X4141477Y4762498D01*
X4119723Y4749939D01*
X4101961Y4732177D01*
X4089402Y4710423D01*
X4082900Y4686160D01*
Y4661040D01*
X4089402Y4636777D01*
X4101961Y4615023D01*
X4119723Y4597261D01*
X4141477Y4584702D01*
X4165740Y4578200D01*
X4190860D01*
X4215123Y4584702D01*
X4236877Y4597261D01*
X4254639Y4615023D01*
X4267198Y4636777D01*
X4273700Y4661040D01*
Y4686160D01*
X4267198Y4710423D01*
X4254639Y4732177D01*
X4236877Y4749939D01*
X4215123Y4762498D01*
X4190860Y4769000D01*
D02*
G37*
G36*
X3936860D02*
X3911740D01*
X3887477Y4762498D01*
X3865723Y4749939D01*
X3847961Y4732177D01*
X3835402Y4710423D01*
X3828900Y4686160D01*
Y4661040D01*
X3835402Y4636777D01*
X3847961Y4615023D01*
X3865723Y4597261D01*
X3887477Y4584702D01*
X3911740Y4578200D01*
X3936860D01*
X3961123Y4584702D01*
X3982877Y4597261D01*
X4000639Y4615023D01*
X4013198Y4636777D01*
X4019700Y4661040D01*
Y4686160D01*
X4013198Y4710423D01*
X4000639Y4732177D01*
X3982877Y4749939D01*
X3961123Y4762498D01*
X3936860Y4769000D01*
D02*
G37*
G36*
X3682860D02*
X3657740D01*
X3633477Y4762498D01*
X3611723Y4749939D01*
X3593961Y4732177D01*
X3581402Y4710423D01*
X3574900Y4686160D01*
Y4661040D01*
X3581402Y4636777D01*
X3593961Y4615023D01*
X3611723Y4597261D01*
X3633477Y4584702D01*
X3657740Y4578200D01*
X3682860D01*
X3707123Y4584702D01*
X3728877Y4597261D01*
X3746639Y4615023D01*
X3759198Y4636777D01*
X3765700Y4661040D01*
Y4686160D01*
X3759198Y4710423D01*
X3746639Y4732177D01*
X3728877Y4749939D01*
X3707123Y4762498D01*
X3682860Y4769000D01*
D02*
G37*
G36*
X3428860D02*
X3403740D01*
X3379477Y4762498D01*
X3357723Y4749939D01*
X3339961Y4732177D01*
X3327402Y4710423D01*
X3320900Y4686160D01*
Y4661040D01*
X3327402Y4636777D01*
X3339961Y4615023D01*
X3357723Y4597261D01*
X3379477Y4584702D01*
X3403740Y4578200D01*
X3428860D01*
X3453123Y4584702D01*
X3474877Y4597261D01*
X3492639Y4615023D01*
X3505198Y4636777D01*
X3511700Y4661040D01*
Y4686160D01*
X3505198Y4710423D01*
X3492639Y4732177D01*
X3474877Y4749939D01*
X3453123Y4762498D01*
X3428860Y4769000D01*
D02*
G37*
G36*
X3174860D02*
X3149740D01*
X3125477Y4762498D01*
X3103723Y4749939D01*
X3085961Y4732177D01*
X3073402Y4710423D01*
X3066900Y4686160D01*
Y4661040D01*
X3073402Y4636777D01*
X3085961Y4615023D01*
X3103723Y4597261D01*
X3125477Y4584702D01*
X3149740Y4578200D01*
X3174860D01*
X3199123Y4584702D01*
X3220877Y4597261D01*
X3238639Y4615023D01*
X3251198Y4636777D01*
X3257700Y4661040D01*
Y4686160D01*
X3251198Y4710423D01*
X3238639Y4732177D01*
X3220877Y4749939D01*
X3199123Y4762498D01*
X3174860Y4769000D01*
D02*
G37*
G36*
X2920860D02*
X2895740D01*
X2871477Y4762498D01*
X2849723Y4749939D01*
X2831961Y4732177D01*
X2819402Y4710423D01*
X2812900Y4686160D01*
Y4661040D01*
X2819402Y4636777D01*
X2831961Y4615023D01*
X2849723Y4597261D01*
X2871477Y4584702D01*
X2895740Y4578200D01*
X2920860D01*
X2945123Y4584702D01*
X2966877Y4597261D01*
X2984639Y4615023D01*
X2997198Y4636777D01*
X3003700Y4661040D01*
Y4686160D01*
X2997198Y4710423D01*
X2984639Y4732177D01*
X2966877Y4749939D01*
X2945123Y4762498D01*
X2920860Y4769000D01*
D02*
G37*
G36*
X2666860D02*
X2641740D01*
X2617477Y4762498D01*
X2595723Y4749939D01*
X2577961Y4732177D01*
X2565402Y4710423D01*
X2558900Y4686160D01*
Y4661040D01*
X2565402Y4636777D01*
X2577961Y4615023D01*
X2595723Y4597261D01*
X2617477Y4584702D01*
X2641740Y4578200D01*
X2666860D01*
X2691123Y4584702D01*
X2712877Y4597261D01*
X2730639Y4615023D01*
X2743198Y4636777D01*
X2749700Y4661040D01*
Y4686160D01*
X2743198Y4710423D01*
X2730639Y4732177D01*
X2712877Y4749939D01*
X2691123Y4762498D01*
X2666860Y4769000D01*
D02*
G37*
G36*
X9188604Y4776696D02*
X9160194D01*
X9132751Y4769343D01*
X9108147Y4755138D01*
X9088057Y4735048D01*
X9073852Y4710444D01*
X9066499Y4683002D01*
Y4654591D01*
X9073852Y4627148D01*
X9088057Y4602544D01*
X9108147Y4582455D01*
X9132751Y4568249D01*
X9160194Y4560896D01*
X9188604D01*
X9216047Y4568249D01*
X9240651Y4582455D01*
X9260740Y4602544D01*
X9274946Y4627148D01*
X9282299Y4654591D01*
Y4683002D01*
X9274946Y4710444D01*
X9260740Y4735048D01*
X9240651Y4755138D01*
X9216047Y4769343D01*
X9188604Y4776696D01*
D02*
G37*
G36*
X6638606Y4751711D02*
X6610196D01*
X6582753Y4744358D01*
X6558149Y4730152D01*
X6538060Y4710063D01*
X6523854Y4685459D01*
X6516501Y4658016D01*
Y4629606D01*
X6520944Y4613026D01*
X6434305Y4526387D01*
X6172985D01*
X6171138Y4529586D01*
X6154586Y4546138D01*
X6134314Y4557842D01*
X6111704Y4563900D01*
X6088296D01*
X6065686Y4557842D01*
X6045414Y4546138D01*
X6028862Y4529586D01*
X6027491Y4527212D01*
X6017158Y4509314D01*
X6011100Y4486704D01*
Y4463296D01*
X6017158Y4440686D01*
X6027491Y4422788D01*
X6028862Y4420414D01*
X6045414Y4403862D01*
X6065686Y4392158D01*
X6088296Y4386100D01*
X6111704D01*
X6134314Y4392158D01*
X6154586Y4403862D01*
X6171138Y4420414D01*
X6172985Y4423613D01*
X6455590D01*
X6475256Y4427524D01*
X6491927Y4438664D01*
X6593616Y4540353D01*
X6610196Y4535911D01*
X6638606D01*
X6666049Y4543264D01*
X6690653Y4557469D01*
X6710743Y4577559D01*
X6724948Y4602163D01*
X6732301Y4629606D01*
Y4658016D01*
X6724948Y4685459D01*
X6710743Y4710063D01*
X6690653Y4730152D01*
X6666049Y4744358D01*
X6638606Y4751711D01*
D02*
G37*
G36*
Y4501710D02*
X6637101D01*
Y4406510D01*
X6732301D01*
Y4408015D01*
X6724948Y4435458D01*
X6710743Y4460062D01*
X6690653Y4480151D01*
X6666049Y4494357D01*
X6638606Y4501710D01*
D02*
G37*
G36*
X6611701D02*
X6610196D01*
X6582753Y4494357D01*
X6558149Y4480151D01*
X6538060Y4460062D01*
X6523854Y4435458D01*
X6521185Y4425496D01*
D01*
X6516501Y4408015D01*
Y4406510D01*
X6611701D01*
Y4408015D01*
Y4501710D01*
D02*
G37*
G36*
X9188604Y4526712D02*
X9160194D01*
X9132751Y4519358D01*
X9108147Y4505153D01*
X9088057Y4485064D01*
X9073852Y4460459D01*
X9066499Y4433017D01*
Y4404606D01*
X9073852Y4377164D01*
X9088057Y4352559D01*
X9108147Y4332470D01*
X9132751Y4318265D01*
X9160194Y4310912D01*
X9188604D01*
X9216047Y4318265D01*
X9240651Y4332470D01*
X9260740Y4352559D01*
X9274946Y4377164D01*
X9282299Y4404606D01*
Y4433017D01*
X9274946Y4460459D01*
X9260740Y4485064D01*
X9240651Y4505153D01*
X9216047Y4519358D01*
X9188604Y4526712D01*
D02*
G37*
G36*
X6732301Y4381110D02*
X6637101D01*
Y4285910D01*
X6638606D01*
X6666049Y4293263D01*
X6690653Y4307468D01*
X6710743Y4327558D01*
X6724948Y4352162D01*
X6732301Y4379605D01*
Y4381110D01*
D02*
G37*
G36*
X6611701D02*
X6516501D01*
Y4379605D01*
X6523854Y4352162D01*
X6538060Y4327558D01*
X6558149Y4307468D01*
X6582753Y4293263D01*
X6610196Y4285910D01*
X6611701D01*
Y4381110D01*
D02*
G37*
G36*
X6638606Y5251697D02*
X6610196D01*
X6582753Y5244344D01*
X6558149Y5230138D01*
X6538060Y5210049D01*
X6523854Y5185445D01*
X6516501Y5158002D01*
Y5129591D01*
X6523854Y5102149D01*
X6538060Y5077545D01*
X6558149Y5057455D01*
X6582753Y5043250D01*
X6610196Y5035897D01*
X6638606D01*
X6666049Y5043250D01*
X6690653Y5057455D01*
X6710743Y5077545D01*
X6724948Y5102149D01*
X6725070Y5102605D01*
X6789141D01*
X6983808Y4907938D01*
Y4392062D01*
X6779038Y4187291D01*
X6095962D01*
X5997491Y4285762D01*
Y4414750D01*
Y4535250D01*
Y4587224D01*
X6014877Y4597261D01*
X6032639Y4615023D01*
X6045198Y4636777D01*
X6051700Y4661040D01*
Y4686160D01*
X6045198Y4710423D01*
X6032639Y4732177D01*
X6014877Y4749939D01*
X5993123Y4762498D01*
X5968860Y4769000D01*
X5943740D01*
X5919477Y4762498D01*
X5897723Y4749939D01*
X5879961Y4732177D01*
X5867402Y4710423D01*
X5860900Y4686160D01*
Y4661040D01*
X5867402Y4636777D01*
X5879961Y4615023D01*
X5897723Y4597261D01*
X5915109Y4587224D01*
Y4268700D01*
X5918244Y4252937D01*
X5927173Y4239573D01*
X6049774Y4116973D01*
X6063137Y4108044D01*
X6078900Y4104908D01*
X6796100D01*
X6811863Y4108044D01*
X6825227Y4116973D01*
X7054127Y4345873D01*
X7063056Y4359237D01*
X7066191Y4375000D01*
Y4925000D01*
X7063056Y4940763D01*
X7054127Y4954127D01*
X6835330Y5172923D01*
X6821967Y5181852D01*
X6806203Y5184988D01*
X6725070D01*
X6724948Y5185445D01*
X6710743Y5210049D01*
X6690653Y5230138D01*
X6666049Y5244344D01*
X6638606Y5251697D01*
D02*
G37*
G36*
X9188604Y4276711D02*
X9160194D01*
X9132751Y4269357D01*
X9108147Y4255152D01*
X9088057Y4235063D01*
X9073852Y4210458D01*
X9066499Y4183016D01*
Y4154605D01*
X9073852Y4127163D01*
X9088057Y4102558D01*
X9108147Y4082469D01*
X9132751Y4068264D01*
X9160194Y4060911D01*
X9188604D01*
X9216047Y4068264D01*
X9240651Y4082469D01*
X9260740Y4102558D01*
X9274946Y4127163D01*
X9282299Y4154605D01*
Y4183016D01*
X9274946Y4210458D01*
X9260740Y4235063D01*
X9240651Y4255152D01*
X9216047Y4269357D01*
X9188604Y4276711D01*
D02*
G37*
G36*
Y4026709D02*
X9160194D01*
X9132751Y4019356D01*
X9108147Y4005151D01*
X9088057Y3985062D01*
X9073852Y3960457D01*
X9066499Y3933015D01*
Y3904604D01*
X9073852Y3877162D01*
X9088057Y3852557D01*
X9108147Y3832468D01*
X9132751Y3818263D01*
X9160194Y3810910D01*
X9188604D01*
X9216047Y3818263D01*
X9240651Y3832468D01*
X9260740Y3852557D01*
X9274946Y3877162D01*
X9282299Y3904604D01*
Y3933015D01*
X9274946Y3960457D01*
X9260740Y3985062D01*
X9240651Y4005151D01*
X9216047Y4019356D01*
X9188604Y4026709D01*
D02*
G37*
G36*
X4204876Y3585200D02*
X4203700D01*
Y3492500D01*
X4296400D01*
Y3493676D01*
X4289217Y3520483D01*
X4275341Y3544517D01*
X4255717Y3564141D01*
X4231683Y3578017D01*
X4204876Y3585200D01*
D02*
G37*
G36*
X4178300D02*
X4177124D01*
X4150317Y3578017D01*
X4126283Y3564141D01*
X4106659Y3544517D01*
X4092783Y3520483D01*
X4085600Y3493676D01*
Y3492500D01*
X4178300D01*
Y3585200D01*
D02*
G37*
G36*
X4296400Y3467100D02*
X4203700D01*
Y3374400D01*
X4204876D01*
X4231683Y3381583D01*
X4255717Y3395459D01*
X4275341Y3415083D01*
X4289217Y3439117D01*
X4296400Y3465924D01*
Y3467100D01*
D02*
G37*
G36*
X4178300D02*
X4085600D01*
Y3465924D01*
X4092783Y3439117D01*
X4106659Y3415083D01*
X4126283Y3395459D01*
X4150317Y3381583D01*
X4177124Y3374400D01*
X4178300D01*
Y3467100D01*
D02*
G37*
G36*
X3950876Y3585200D02*
X3923124D01*
X3896317Y3578017D01*
X3872283Y3564141D01*
X3852659Y3544517D01*
X3838783Y3520483D01*
X3831600Y3493676D01*
Y3465924D01*
X3838783Y3439117D01*
X3852659Y3415083D01*
X3872283Y3395459D01*
X3896317Y3381583D01*
X3923124Y3374400D01*
X3950876D01*
X3977683Y3381583D01*
X4001717Y3395459D01*
X4021341Y3415083D01*
X4035217Y3439117D01*
X4042400Y3465924D01*
Y3493676D01*
X4035217Y3520483D01*
X4021341Y3544517D01*
X4001717Y3564141D01*
X3977683Y3578017D01*
X3950876Y3585200D01*
D02*
G37*
G36*
X3442876D02*
X3415124D01*
X3388317Y3578017D01*
X3364283Y3564141D01*
X3344659Y3544517D01*
X3330783Y3520483D01*
X3323600Y3493676D01*
Y3465924D01*
X3330783Y3439117D01*
X3344659Y3415083D01*
X3364283Y3395459D01*
X3388317Y3381583D01*
X3415124Y3374400D01*
X3442876D01*
X3469683Y3381583D01*
X3493717Y3395459D01*
X3513341Y3415083D01*
X3527217Y3439117D01*
X3534400Y3465924D01*
Y3493676D01*
X3527217Y3520483D01*
X3513341Y3544517D01*
X3493717Y3564141D01*
X3469683Y3578017D01*
X3442876Y3585200D01*
D02*
G37*
G36*
X5511704Y3888900D02*
X5488296D01*
X5465686Y3882842D01*
X5445414Y3871138D01*
X5428862Y3854586D01*
X5417158Y3834314D01*
X5411100Y3811704D01*
Y3788296D01*
X5417158Y3765686D01*
X5428862Y3745414D01*
X5445414Y3728862D01*
X5465686Y3717158D01*
X5488296Y3711100D01*
X5511704D01*
X5534314Y3717158D01*
X5554586Y3728862D01*
X5560847Y3735123D01*
X5767205D01*
X5848613Y3653715D01*
Y3522985D01*
X5845414Y3521138D01*
X5828862Y3504586D01*
X5817158Y3484314D01*
X5811100Y3461704D01*
Y3438296D01*
X5817158Y3415686D01*
X5828862Y3395414D01*
X5845414Y3378862D01*
X5865686Y3367158D01*
X5888296Y3361100D01*
X5911704D01*
X5934314Y3367158D01*
X5954586Y3378862D01*
X5971138Y3395414D01*
X5982841Y3415686D01*
X5988900Y3438296D01*
Y3461704D01*
X5982841Y3484314D01*
X5971138Y3504586D01*
X5954586Y3521138D01*
X5951387Y3522985D01*
Y3675001D01*
X5947476Y3694666D01*
X5936336Y3711337D01*
X5824826Y3822847D01*
X5808155Y3833986D01*
X5788490Y3837898D01*
X5580773D01*
X5571138Y3854586D01*
X5554586Y3871138D01*
X5534314Y3882842D01*
X5511704Y3888900D01*
D02*
G37*
G36*
X6211704Y3763900D02*
X6188296D01*
X6165686Y3757842D01*
X6145414Y3746138D01*
X6128862Y3729586D01*
X6117158Y3709314D01*
X6111100Y3686704D01*
Y3663296D01*
X6117158Y3640686D01*
X6128862Y3620414D01*
X6145414Y3603862D01*
X6158809Y3596129D01*
Y3417062D01*
X6032938Y3291192D01*
X3929862D01*
X3781369Y3439685D01*
X3788400Y3465924D01*
Y3493676D01*
X3781217Y3520483D01*
X3767341Y3544517D01*
X3747717Y3564141D01*
X3723683Y3578017D01*
X3696876Y3585200D01*
X3669124D01*
X3642317Y3578017D01*
X3618283Y3564141D01*
X3598659Y3544517D01*
X3584783Y3520483D01*
X3577600Y3493676D01*
Y3465924D01*
X3584783Y3439117D01*
X3598659Y3415083D01*
X3618283Y3395459D01*
X3642317Y3381583D01*
X3669124Y3374400D01*
X3696876D01*
X3723115Y3381431D01*
X3883673Y3220873D01*
X3897037Y3211944D01*
X3912800Y3208809D01*
X6050000D01*
X6065763Y3211944D01*
X6079127Y3220873D01*
X6229127Y3370873D01*
X6238056Y3384237D01*
X6241191Y3400000D01*
Y3596129D01*
X6254586Y3603862D01*
X6271138Y3620414D01*
X6282842Y3640686D01*
X6288900Y3663296D01*
Y3686704D01*
X6282842Y3709314D01*
X6271138Y3729586D01*
X6254586Y3746138D01*
X6234314Y3757842D01*
X6211704Y3763900D01*
D02*
G37*
G36*
X8888218Y2975400D02*
X8861782D01*
X8836247Y2968558D01*
X8813353Y2955340D01*
X8794660Y2936647D01*
X8781442Y2913753D01*
X8774600Y2888218D01*
Y2861782D01*
X8781442Y2836247D01*
X8794660Y2813353D01*
X8813353Y2794660D01*
X8836247Y2781442D01*
X8861782Y2774600D01*
X8888218D01*
X8913753Y2781442D01*
X8936647Y2794660D01*
X8955340Y2813353D01*
X8968558Y2836247D01*
X8975400Y2861782D01*
Y2888218D01*
X8968558Y2913753D01*
X8955340Y2936647D01*
X8936647Y2955340D01*
X8913753Y2968558D01*
X8888218Y2975400D01*
D02*
G37*
G36*
Y2721400D02*
X8887700D01*
Y2633700D01*
X8975400D01*
Y2634218D01*
X8968558Y2659753D01*
X8955340Y2682647D01*
X8936647Y2701340D01*
X8913753Y2714558D01*
X8888218Y2721400D01*
D02*
G37*
G36*
X8862300D02*
X8861782D01*
X8836247Y2714558D01*
X8813353Y2701340D01*
X8794660Y2682647D01*
X8781442Y2659753D01*
X8774600Y2634218D01*
Y2633700D01*
X8862300D01*
Y2721400D01*
D02*
G37*
G36*
X6263218Y2629400D02*
X6262700D01*
Y2541700D01*
X6350400D01*
Y2542218D01*
X6343558Y2567753D01*
X6330340Y2590647D01*
X6311647Y2609340D01*
X6288753Y2622558D01*
X6263218Y2629400D01*
D02*
G37*
G36*
X6237300D02*
X6236782D01*
X6211247Y2622558D01*
X6188353Y2609340D01*
X6169660Y2590647D01*
X6156442Y2567753D01*
X6149600Y2542218D01*
Y2541700D01*
X6237300D01*
Y2629400D01*
D02*
G37*
G36*
X8975400Y2608300D02*
X8887700D01*
Y2520600D01*
X8888218D01*
X8913753Y2527442D01*
X8936647Y2540660D01*
X8955340Y2559353D01*
X8968558Y2582247D01*
X8975400Y2607782D01*
Y2608300D01*
D02*
G37*
G36*
X8862300D02*
X8774600D01*
Y2607782D01*
X8781442Y2582247D01*
X8794660Y2559353D01*
X8813353Y2540660D01*
X8836247Y2527442D01*
X8861782Y2520600D01*
X8862300D01*
Y2608300D01*
D02*
G37*
G36*
X6350400Y2516300D02*
X6262700D01*
Y2428600D01*
X6263218D01*
X6288753Y2435442D01*
X6311647Y2448660D01*
X6330340Y2467353D01*
X6343558Y2490247D01*
X6350400Y2515782D01*
Y2516300D01*
D02*
G37*
G36*
X6237300D02*
X6149600D01*
Y2515782D01*
X6156442Y2490247D01*
X6169660Y2467353D01*
X6188353Y2448660D01*
X6211247Y2435442D01*
X6236782Y2428600D01*
X6237300D01*
Y2516300D01*
D02*
G37*
G36*
X3026403Y3585200D02*
X2815603D01*
Y3374401D01*
X2869616D01*
Y2630208D01*
Y2425001D01*
X2869948Y2423331D01*
X2866529Y2406143D01*
X2855847Y2390157D01*
X2839861Y2379475D01*
X2822673Y2376056D01*
X2821003Y2376388D01*
X2767003D01*
X2764418Y2375874D01*
X2737519Y2373225D01*
X2709169Y2364625D01*
X2683041Y2350659D01*
X2660140Y2331864D01*
X2641345Y2308963D01*
X2627379Y2282835D01*
X2618779Y2254485D01*
X2616130Y2227586D01*
X2615616Y2225001D01*
X2616130Y2222416D01*
X2618779Y2195517D01*
X2627379Y2167167D01*
X2641345Y2141039D01*
X2660140Y2118138D01*
X2683041Y2099343D01*
X2709169Y2085377D01*
X2737519Y2076777D01*
X2764418Y2074128D01*
X2767003Y2073614D01*
X2821003D01*
X2822673Y2073946D01*
X2839861Y2070527D01*
X2855847Y2059845D01*
X2866529Y2043859D01*
X2869948Y2026671D01*
X2869616Y2025001D01*
Y2000000D01*
Y1692288D01*
X2778115Y1600787D01*
X1325091D01*
X1317041Y1614731D01*
X1297231Y1634541D01*
X1272968Y1648549D01*
X1245908Y1655800D01*
X1217892D01*
X1190831Y1648549D01*
X1166569Y1634541D01*
X1146759Y1614731D01*
X1132751Y1590469D01*
X1125500Y1563408D01*
Y1535392D01*
X1132751Y1508331D01*
X1146759Y1484069D01*
X1166569Y1464259D01*
X1190831Y1450251D01*
X1217892Y1443000D01*
X1245908D01*
X1272968Y1450251D01*
X1297231Y1464259D01*
X1317041Y1484069D01*
X1325091Y1498013D01*
X2799400D01*
X2819065Y1501924D01*
X2835736Y1513064D01*
X2957339Y1634667D01*
X2968479Y1651338D01*
X2972390Y1671003D01*
Y2000000D01*
Y2025001D01*
X2971876Y2027586D01*
X2969227Y2054485D01*
X2960627Y2082835D01*
X2946661Y2108963D01*
X2927866Y2131864D01*
X2904965Y2150659D01*
X2878837Y2164625D01*
X2850487Y2173225D01*
X2823588Y2175874D01*
X2821003Y2176388D01*
X2767003D01*
X2765333Y2176056D01*
X2748145Y2179475D01*
X2732159Y2190157D01*
X2721477Y2206143D01*
X2718058Y2223331D01*
X2718390Y2225001D01*
D01*
X2718058Y2226671D01*
X2721477Y2243859D01*
X2732159Y2259845D01*
X2748145Y2270527D01*
X2765333Y2273946D01*
X2767003Y2273614D01*
X2821003D01*
X2823588Y2274128D01*
X2850487Y2276777D01*
X2878837Y2285377D01*
X2904965Y2299343D01*
X2927866Y2318138D01*
X2946661Y2341039D01*
X2960627Y2367167D01*
X2969227Y2395517D01*
X2971876Y2422416D01*
X2972390Y2425001D01*
Y2630208D01*
Y3374401D01*
X3026403D01*
Y3585200D01*
D02*
G37*
G36*
X6263218Y2375400D02*
X6236782D01*
X6211247Y2368558D01*
X6188353Y2355340D01*
X6169660Y2336647D01*
X6156442Y2313753D01*
X6149600Y2288218D01*
Y2261782D01*
X6156442Y2236247D01*
X6169660Y2213353D01*
X6188353Y2194660D01*
X6211247Y2181442D01*
X6236782Y2174600D01*
X6263218D01*
X6288753Y2181442D01*
X6311647Y2194660D01*
X6330340Y2213353D01*
X6343558Y2236247D01*
X6350400Y2261782D01*
Y2288218D01*
X6343558Y2313753D01*
X6330340Y2336647D01*
X6311647Y2355340D01*
X6288753Y2368558D01*
X6263218Y2375400D01*
D02*
G37*
G36*
X1245908Y2163800D02*
X1217892D01*
X1190831Y2156549D01*
X1166569Y2142541D01*
X1146759Y2122731D01*
X1132751Y2098469D01*
X1125500Y2071408D01*
Y2043392D01*
X1132751Y2016331D01*
X1146759Y1992069D01*
X1166569Y1972259D01*
X1190831Y1958251D01*
X1217892Y1951000D01*
X1245908D01*
X1272968Y1958251D01*
X1297231Y1972259D01*
X1317041Y1992069D01*
X1331049Y2016331D01*
X1338300Y2043392D01*
Y2071408D01*
X1331049Y2098469D01*
X1317041Y2122731D01*
X1297231Y2142541D01*
X1272968Y2156549D01*
X1245908Y2163800D01*
D02*
G37*
G36*
Y1909800D02*
X1217892D01*
X1190831Y1902549D01*
X1166569Y1888541D01*
X1146759Y1868731D01*
X1132751Y1844469D01*
X1125500Y1817408D01*
Y1789392D01*
X1132751Y1762331D01*
X1146759Y1738069D01*
X1166569Y1718259D01*
X1190831Y1704251D01*
X1217892Y1697000D01*
X1245908D01*
X1272968Y1704251D01*
X1297231Y1718259D01*
X1317041Y1738069D01*
X1331049Y1762331D01*
X1338300Y1789392D01*
Y1817408D01*
X1331049Y1844469D01*
X1317041Y1868731D01*
X1297231Y1888541D01*
X1272968Y1902549D01*
X1245908Y1909800D01*
D02*
G37*
G36*
X6324600Y1716133D02*
Y1649000D01*
X6391733D01*
X6386821Y1667333D01*
X6376236Y1685667D01*
X6361267Y1700636D01*
X6342933Y1711221D01*
X6324600Y1716133D01*
D02*
G37*
G36*
X6299200D02*
X6280867Y1711221D01*
X6262533Y1700636D01*
X6247564Y1685667D01*
X6236979Y1667333D01*
X6232067Y1649000D01*
X6299200D01*
Y1716133D01*
D02*
G37*
G36*
X6391733Y1623600D02*
X6324600D01*
Y1556467D01*
X6342933Y1561379D01*
X6361267Y1571964D01*
X6376236Y1586933D01*
X6386821Y1605267D01*
X6391733Y1623600D01*
D02*
G37*
G36*
X6299200D02*
X6232067D01*
X6236979Y1605267D01*
X6247564Y1586933D01*
X6262533Y1571964D01*
X6280867Y1561379D01*
X6299200Y1556467D01*
Y1623600D01*
D02*
G37*
G36*
X8005200Y1706000D02*
X7844400D01*
Y1545200D01*
X8005200D01*
Y1706000D01*
D02*
G37*
G36*
X5690908Y1757400D02*
X5662892D01*
X5635831Y1750149D01*
X5611569Y1736141D01*
X5591759Y1716331D01*
X5577751Y1692069D01*
X5570500Y1665008D01*
Y1636992D01*
X5577751Y1609932D01*
X5591759Y1585669D01*
X5611569Y1565859D01*
X5635831Y1551851D01*
X5662892Y1544600D01*
X5690908D01*
X5717969Y1551851D01*
X5742231Y1565859D01*
X5762041Y1585669D01*
X5776049Y1609932D01*
X5783300Y1636992D01*
Y1665008D01*
X5776049Y1692069D01*
X5762041Y1716331D01*
X5742231Y1736141D01*
X5717969Y1750149D01*
X5690908Y1757400D01*
D02*
G37*
G36*
X7126864Y1713100D02*
X7097136D01*
X7068422Y1705406D01*
X7042678Y1690542D01*
X7021658Y1669522D01*
X7006794Y1643778D01*
X6999100Y1615064D01*
Y1585336D01*
X7006794Y1556622D01*
X7021658Y1530878D01*
X7042678Y1509858D01*
X7068422Y1494994D01*
X7097136Y1487300D01*
X7126864D01*
X7155578Y1494994D01*
X7181322Y1509858D01*
X7202342Y1530878D01*
X7217206Y1556622D01*
X7224900Y1585336D01*
Y1615064D01*
X7217206Y1643778D01*
X7202342Y1669522D01*
X7181322Y1690542D01*
X7155578Y1705406D01*
X7126864Y1713100D01*
D02*
G37*
G36*
X7937500Y1455433D02*
Y1388300D01*
X8004633D01*
X7999721Y1406633D01*
X7989136Y1424967D01*
X7974167Y1439936D01*
X7955833Y1450521D01*
X7937500Y1455433D01*
D02*
G37*
G36*
X7912100D02*
X7893767Y1450521D01*
X7875433Y1439936D01*
X7860464Y1424967D01*
X7849879Y1406633D01*
X7844967Y1388300D01*
X7912100D01*
Y1455433D01*
D02*
G37*
G36*
X8891505Y1593800D02*
X8863095D01*
X8835652Y1586447D01*
X8811048Y1572241D01*
X8790959Y1552152D01*
X8776753Y1527548D01*
X8769400Y1500105D01*
Y1471695D01*
X8776753Y1444252D01*
X8790959Y1419648D01*
X8811048Y1399559D01*
X8835652Y1385353D01*
X8863095Y1378000D01*
X8891505D01*
X8918948Y1385353D01*
X8943552Y1399559D01*
X8963641Y1419648D01*
X8977847Y1444252D01*
X8985200Y1471695D01*
Y1500105D01*
X8977847Y1527548D01*
X8963641Y1552152D01*
X8943552Y1572241D01*
X8918948Y1586447D01*
X8891505Y1593800D01*
D02*
G37*
G36*
X3188879Y3585200D02*
X3161127D01*
X3134320Y3578017D01*
X3110286Y3564141D01*
X3090662Y3544518D01*
X3076786Y3520483D01*
X3069603Y3493677D01*
Y3465924D01*
X3076786Y3439118D01*
X3090662Y3415083D01*
X3110286Y3395460D01*
X3123616Y3387764D01*
Y1546288D01*
X2924115Y1346787D01*
X1325091D01*
X1317041Y1360731D01*
X1297231Y1380541D01*
X1272968Y1394549D01*
X1245908Y1401800D01*
X1217892D01*
X1190831Y1394549D01*
X1166569Y1380541D01*
X1146759Y1360731D01*
X1132751Y1336469D01*
X1125500Y1309408D01*
Y1281392D01*
X1132751Y1254331D01*
X1146759Y1230069D01*
X1166569Y1210259D01*
X1190831Y1196251D01*
X1217892Y1189000D01*
X1245908D01*
X1272968Y1196251D01*
X1297231Y1210259D01*
X1317041Y1230069D01*
X1325091Y1244013D01*
X2945400D01*
X2965065Y1247924D01*
X2981736Y1259064D01*
X3211339Y1488667D01*
X3222479Y1505338D01*
X3226390Y1525003D01*
Y3387764D01*
X3239720Y3395460D01*
X3259344Y3415083D01*
X3273220Y3439118D01*
X3280403Y3465924D01*
Y3493677D01*
X3273220Y3520483D01*
X3259344Y3544518D01*
X3239720Y3564141D01*
X3215686Y3578017D01*
X3188879Y3585200D01*
D02*
G37*
G36*
X8004633Y1362900D02*
X7937500D01*
Y1295767D01*
X7955833Y1300679D01*
X7974167Y1311264D01*
X7989136Y1326233D01*
X7999721Y1344567D01*
X8004633Y1362900D01*
D02*
G37*
G36*
X7912100D02*
X7844967D01*
X7849879Y1344567D01*
X7860464Y1326233D01*
X7875433Y1311264D01*
X7893767Y1300679D01*
X7912100Y1295767D01*
Y1362900D01*
D02*
G37*
G36*
X5690908Y1503400D02*
X5662892D01*
X5635831Y1496149D01*
X5611569Y1482141D01*
X5591759Y1462331D01*
X5577751Y1438069D01*
X5570500Y1411008D01*
Y1382992D01*
X5577751Y1355932D01*
X5591759Y1331669D01*
X5611569Y1311859D01*
X5635831Y1297851D01*
X5662892Y1290600D01*
X5690908D01*
X5717969Y1297851D01*
X5742231Y1311859D01*
X5762041Y1331669D01*
X5775978Y1355809D01*
X6231500D01*
Y1305900D01*
X6392300D01*
Y1333809D01*
X6457938D01*
X6518873Y1272873D01*
X6532237Y1263944D01*
X6548000Y1260809D01*
X6611808D01*
X6613341Y1253102D01*
X6621497Y1240897D01*
X6633703Y1232741D01*
X6648100Y1229877D01*
X6763100D01*
X6777497Y1232741D01*
X6789703Y1240897D01*
X6797859Y1253102D01*
X6800723Y1267500D01*
Y1282909D01*
X7018176D01*
X7021658Y1276878D01*
X7042678Y1255858D01*
X7068422Y1240994D01*
X7090419Y1235100D01*
D01*
X7097136Y1233300D01*
X7126864D01*
X7155578Y1240994D01*
X7181322Y1255858D01*
X7202342Y1276878D01*
X7217206Y1302622D01*
X7224900Y1331336D01*
Y1361064D01*
X7217206Y1389778D01*
X7202342Y1415522D01*
X7181322Y1436542D01*
X7155578Y1451406D01*
X7140548Y1455433D01*
X7126864Y1459100D01*
D01*
X7126864Y1459100D01*
X7097136D01*
X7097136Y1459100D01*
D01*
X7068422Y1451406D01*
X7042678Y1436542D01*
X7021658Y1415522D01*
X7006794Y1389778D01*
X7000233Y1365291D01*
X6786428D01*
X6777497Y1371259D01*
X6763100Y1374123D01*
X6648100D01*
X6633703Y1371259D01*
X6621497Y1363103D01*
X6613341Y1350897D01*
X6611808Y1343191D01*
X6565062D01*
X6504127Y1404127D01*
X6490763Y1413056D01*
X6475000Y1416191D01*
X6392300D01*
Y1466700D01*
X6231500D01*
Y1438192D01*
X5775978D01*
X5762041Y1462331D01*
X5742231Y1482141D01*
X5717969Y1496149D01*
X5690908Y1503400D01*
D02*
G37*
G36*
X7224900Y1205100D02*
X6999100D01*
Y1152191D01*
X6799392D01*
X6797859Y1159898D01*
X6789703Y1172103D01*
X6777497Y1180259D01*
X6763100Y1183123D01*
X6648100D01*
X6633703Y1180259D01*
X6621497Y1172103D01*
X6613341Y1159898D01*
X6610477Y1145500D01*
Y1076500D01*
X6613341Y1062103D01*
X6621497Y1049897D01*
X6633703Y1041741D01*
X6648100Y1038877D01*
X6763100D01*
X6777497Y1041741D01*
X6789703Y1049897D01*
X6797859Y1062103D01*
X6799392Y1069809D01*
X6999100D01*
Y979300D01*
X7224900D01*
Y1205100D01*
D02*
G37*
G36*
X8985200Y1085800D02*
X8890000D01*
Y990600D01*
X8985200D01*
Y1085800D01*
D02*
G37*
G36*
X8864600D02*
X8769400D01*
Y990600D01*
X8864600D01*
Y1085800D01*
D02*
G37*
G36*
X1245908Y1147800D02*
X1217892D01*
X1190831Y1140549D01*
X1166569Y1126541D01*
X1146759Y1106731D01*
X1132751Y1082469D01*
X1125500Y1055408D01*
Y1027392D01*
X1132751Y1000331D01*
X1146759Y976069D01*
X1166569Y956259D01*
X1190831Y942251D01*
X1217892Y935000D01*
X1245908D01*
X1272968Y942251D01*
X1297231Y956259D01*
X1317041Y976069D01*
X1331049Y1000331D01*
X1338300Y1027392D01*
Y1055408D01*
X1331049Y1082469D01*
X1317041Y1106731D01*
X1297231Y1126541D01*
X1272968Y1140549D01*
X1245908Y1147800D01*
D02*
G37*
G36*
X8985200Y965200D02*
X8890000D01*
Y870000D01*
X8985200D01*
Y965200D01*
D02*
G37*
G36*
X8864600D02*
X8769400D01*
Y870000D01*
X8864600D01*
Y965200D01*
D02*
G37*
G36*
X1338300Y893800D02*
X1244600D01*
Y800100D01*
X1338300D01*
Y893800D01*
D02*
G37*
G36*
X1219200D02*
X1125500D01*
Y800100D01*
X1219200D01*
Y893800D01*
D02*
G37*
G36*
X1338300Y774700D02*
X1244600D01*
Y681000D01*
X1338300D01*
Y774700D01*
D02*
G37*
G36*
X1219200D02*
X1125500D01*
Y681000D01*
X1219200D01*
Y774700D01*
D02*
G37*
G36*
X6870700Y479641D02*
Y406400D01*
X6943941D01*
X6938419Y427011D01*
X6927057Y446689D01*
X6910989Y462757D01*
X6891311Y474119D01*
X6870700Y479641D01*
D02*
G37*
G36*
X6845300D02*
X6824689Y474119D01*
X6805011Y462757D01*
X6788943Y446689D01*
X6777581Y427011D01*
X6772059Y406400D01*
X6845300D01*
Y479641D01*
D02*
G37*
G36*
X6943941Y381000D02*
X6870700D01*
Y307759D01*
X6891311Y313281D01*
X6910989Y324643D01*
X6927057Y340711D01*
X6938419Y360389D01*
X6943941Y381000D01*
D02*
G37*
G36*
X6845300D02*
X6772059D01*
X6777581Y360389D01*
X6788943Y340711D01*
X6805011Y324643D01*
X6824689Y313281D01*
X6845300Y307759D01*
Y381000D01*
D02*
G37*
G36*
X7123362Y480000D02*
X7100638D01*
X7078689Y474119D01*
X7059011Y462757D01*
X7042943Y446689D01*
X7031581Y427011D01*
X7025700Y405062D01*
Y382338D01*
X7031581Y360389D01*
X7042943Y340711D01*
X7059011Y324643D01*
X7078689Y313281D01*
X7100638Y307400D01*
X7123362D01*
X7145311Y313281D01*
X7164989Y324643D01*
X7181057Y340711D01*
X7192419Y360389D01*
X7198300Y382338D01*
Y405062D01*
X7192419Y427011D01*
X7181057Y446689D01*
X7164989Y462757D01*
X7145311Y474119D01*
X7123362Y480000D01*
D02*
G37*
G36*
X6690300D02*
X6517700D01*
Y307400D01*
X6690300D01*
Y480000D01*
D02*
G37*
G36*
X9200000Y476345D02*
X9161695Y472573D01*
X9124862Y461399D01*
X9090916Y443255D01*
X9061163Y418837D01*
X9036745Y389084D01*
X9018600Y355138D01*
X9007427Y318305D01*
X9003655Y280000D01*
X9007427Y241695D01*
X9018600Y204862D01*
X9036745Y170916D01*
X9061163Y141163D01*
X9090916Y116745D01*
X9124862Y98601D01*
X9161695Y87427D01*
X9200000Y83655D01*
X9238305Y87427D01*
X9275138Y98601D01*
X9309083Y116745D01*
X9338837Y141163D01*
X9363255Y170916D01*
X9381399Y204862D01*
X9392573Y241695D01*
X9396345Y280000D01*
X9392573Y318305D01*
X9381399Y355138D01*
X9363255Y389084D01*
X9338837Y418837D01*
X9309083Y443255D01*
X9275138Y461399D01*
X9238305Y472573D01*
X9200000Y476345D01*
D02*
G37*
G36*
X300000D02*
X261695Y472573D01*
X224862Y461399D01*
X190916Y443255D01*
X161163Y418837D01*
X136745Y389084D01*
X118600Y355138D01*
X107427Y318305D01*
X103655Y280000D01*
X107427Y241695D01*
X118600Y204862D01*
X136745Y170916D01*
X161163Y141163D01*
X190916Y116745D01*
X224862Y98601D01*
X261695Y87427D01*
X300000Y83655D01*
X338305Y87427D01*
X375138Y98601D01*
X409084Y116745D01*
X438837Y141163D01*
X463255Y170916D01*
X481399Y204862D01*
X492573Y241695D01*
X496345Y280000D01*
X492573Y318305D01*
X481399Y355138D01*
X463255Y389084D01*
X438837Y418837D01*
X409084Y443255D01*
X375138Y461399D01*
X338305Y472573D01*
X300000Y476345D01*
D02*
G37*
%LPD*%
D16*
X6775000Y9300000D02*
X6833500Y9241500D01*
X3675000Y9300000D02*
X6775000D01*
X2908300Y8533300D02*
X3675000Y9300000D01*
X6833500Y9042600D02*
Y9241500D01*
X2908300Y5435600D02*
Y8533300D01*
X3912800Y3250000D02*
X6050000D01*
X6200000Y3400000D02*
Y3675000D01*
X6050000Y3250000D02*
X6200000Y3400000D01*
X3683000Y3479800D02*
X3912800Y3250000D01*
X6078900Y4146100D02*
X6796100D01*
X5956300Y4268700D02*
X6078900Y4146100D01*
X6796100D02*
X7025000Y4375000D01*
X5956300Y4268700D02*
Y4673600D01*
X5702300D02*
X5922504Y4893804D01*
X6624401D01*
X7025000Y4375000D02*
Y4925000D01*
X6624401Y5143797D02*
X6806203D01*
X7025000Y4925000D01*
X5702300Y6702300D02*
X5765800Y6765800D01*
X5702300Y5435600D02*
Y6702300D01*
X5765800Y6765800D02*
Y7023100D01*
X5511803Y6761803D02*
Y7023101D01*
X5448300Y6698300D02*
X5511803Y6761803D01*
X5448300Y5435600D02*
Y6698300D01*
X5676900Y1397000D02*
X6301200D01*
X6311900Y1386300D01*
X6323200Y1375000D01*
X6475000D01*
X6548000Y1302000D01*
X6705600D01*
X7089900Y1324100D02*
X7112000Y1346200D01*
X6727700Y1324100D02*
X7089900D01*
X6705600Y1302000D02*
X6727700Y1324100D01*
X7093200Y1111000D02*
X7112000Y1092200D01*
X6705600Y1111000D02*
X7093200D01*
D17*
X3162300Y7737300D02*
X3650000Y8225000D01*
X3162300Y5435600D02*
Y7737300D01*
X3650000Y8225000D02*
X6225000D01*
X6325500Y8325500D01*
Y9042600D01*
D18*
X2921003Y2025001D02*
G03*
X2821003Y2125001I-100000J0D01*
G01*
X2667003Y2225001D02*
G03*
X2767003Y2125001I100000J0D01*
G01*
Y2325001D02*
G03*
X2667003Y2225001I0J-100000D01*
G01*
X2821003Y2325001D02*
G03*
X2921003Y2425001I0J100000D01*
G01*
X7690100Y9690100D02*
X8966200D01*
X7341500Y9341500D02*
X7690100Y9690100D01*
X7341500Y9042600D02*
Y9341500D01*
Y8591500D02*
Y9042600D01*
X6019800Y7269800D02*
X7341500Y8591500D01*
X6019800Y7023100D02*
Y7269800D01*
X6455590Y4475000D02*
X6624401Y4643811D01*
X6100000Y4475000D02*
X6455590D01*
X4432300Y5292700D02*
Y5435600D01*
X2125000Y5200000D02*
X4339600D01*
X4432300Y5292700D01*
X482608Y6286492D02*
X1038508D01*
X2125000Y5200000D01*
X5900000Y3450000D02*
Y3675001D01*
X5788490Y3786510D02*
X5900000Y3675001D01*
X5513490Y3786510D02*
X5788490D01*
X5500000Y3800000D02*
X5513490Y3786510D01*
X1231900Y1295400D02*
X2945400D01*
X3175003Y1525003D01*
Y3479801D01*
X2799400Y1549400D02*
X2921003Y1671003D01*
X1231900Y1549400D02*
X2799400D01*
X2921003Y1671003D02*
Y2000000D01*
Y2025001D01*
X2767003Y2125001D02*
X2821003D01*
X2667003Y2225001D02*
Y2225001D01*
X2767003Y2325001D02*
X2821003D01*
X2921003Y2425001D02*
Y2630208D01*
Y3479801D01*
D19*
X6527800Y7023100D02*
D03*
X4191000Y3479800D02*
D03*
X6019800Y7023100D02*
D03*
X3937000Y3479800D02*
D03*
X3175003Y3479801D02*
D03*
X5765800Y7023100D02*
D03*
X3683000Y3479800D02*
D03*
X3429000D02*
D03*
X5511803Y7023101D02*
D03*
X6273800Y7023100D02*
D03*
D20*
X6624401Y4393810D02*
D03*
Y4643811D02*
D03*
Y4893804D02*
D03*
Y5143797D02*
D03*
X8877300Y1485900D02*
D03*
X9174399Y3918810D02*
D03*
Y4168811D02*
D03*
Y4418812D02*
D03*
Y4668796D02*
D03*
Y4918797D02*
D03*
Y5168798D02*
D03*
Y5418799D02*
D03*
X6624401Y5393798D02*
D03*
D21*
X6579500Y9042600D02*
D03*
X3785500D02*
D03*
X4039500D02*
D03*
X4293500D02*
D03*
X4547500D02*
D03*
X4801500D02*
D03*
X5055500D02*
D03*
X5309500D02*
D03*
X5563500D02*
D03*
X5817500D02*
D03*
X6071500D02*
D03*
X6325500D02*
D03*
X6833500D02*
D03*
X7087500D02*
D03*
X7341500D02*
D03*
D22*
X7595500D02*
D03*
D23*
X482600Y6794500D02*
D03*
X5676900Y1651000D02*
D03*
X482608Y6286492D02*
D03*
X1231900Y1041400D02*
D03*
Y1295400D02*
D03*
Y1549400D02*
D03*
X482600Y6540500D02*
D03*
X1231900Y1803400D02*
D03*
Y2057400D02*
D03*
X5676900Y1397000D02*
D03*
D24*
X8875000Y2621000D02*
D03*
X6250000Y2529000D02*
D03*
Y2275000D02*
D03*
X8875000Y2875000D02*
D03*
D25*
X4178300Y5435600D02*
D03*
X4432300Y4673600D02*
D03*
X3416300Y5435600D02*
D03*
X5194300D02*
D03*
X3162300D02*
D03*
X4940300D02*
D03*
X4432300D02*
D03*
X2908300D02*
D03*
X4686300D02*
D03*
X5702300D02*
D03*
X5448300D02*
D03*
X3924300D02*
D03*
X3670300D02*
D03*
X2654300D02*
D03*
X5956300Y4673600D02*
D03*
X5702300D02*
D03*
X5448300D02*
D03*
X5194300D02*
D03*
X4940300D02*
D03*
X4686300D02*
D03*
X4178300D02*
D03*
X3924300D02*
D03*
X3670300D02*
D03*
X3416300D02*
D03*
X3162300D02*
D03*
X2908300D02*
D03*
X2654300D02*
D03*
D26*
X7924800Y1375600D02*
D03*
X6311900Y1636300D02*
D03*
D27*
X8877300Y977900D02*
D03*
D28*
X6858000Y393700D02*
D03*
X8966200Y9436100D02*
D03*
Y9690100D02*
D03*
X7112000Y393700D02*
D03*
D29*
X8966200Y9182100D02*
D03*
D30*
X1231900Y787400D02*
D03*
D31*
X631500Y12192600D02*
D03*
X8131500D02*
D03*
Y9092600D02*
D03*
X631500D02*
D03*
D32*
X5956300Y5435600D02*
D03*
D33*
X3566000Y6286500D02*
D03*
X4054000D02*
D03*
D34*
X2921003Y3479801D02*
D03*
X5257803Y7023101D02*
D03*
D35*
X7112000Y1600200D02*
D03*
Y1346200D02*
D03*
D36*
Y1092200D02*
D03*
D37*
X7924800Y1625600D02*
D03*
X6311900Y1386300D02*
D03*
D38*
X6604000Y393700D02*
D03*
D39*
X6100000Y4475000D02*
D03*
X5500000Y3800000D02*
D03*
X5900000Y3450000D02*
D03*
X6200000Y3675000D02*
D03*
D40*
X6705600Y1302000D02*
D03*
Y1111000D02*
D03*
%TF.MD5,cdbf3b0f6438597f61d2affcc4d61236*%
M02*
