%TF.GenerationSoftware,Altium Limited,Altium Designer,25.6.2 (33)*%
G04 Layer_Color=0*
%FSLAX45Y45*%
%MOMM*%
%TF.SameCoordinates,105D10E8-5C4D-4F19-AFCE-DBFBABB2216B*%
%TF.FilePolarity,Positive*%
%TF.FileFunction,Plated,1,2,PTH,Drill*%
%TF.Part,Single*%
G01*
G75*
%TA.AperFunction,ComponentDrill*%
%ADD82C,1.00000*%
%ADD83C,1.00000*%
%ADD84C,1.02000*%
%ADD85C,0.80000*%
%ADD86C,0.75000*%
%ADD87C,1.10000*%
%ADD88C,0.71000*%
%ADD89C,0.71000*%
%ADD90C,2.50000*%
%ADD91C,0.68000*%
%ADD92C,1.15000*%
%TA.AperFunction,ViaDrill,NotFilled*%
%ADD93C,0.71120*%
D82*
X6527800Y7023100D02*
D03*
X6624401Y4393810D02*
D03*
X4191000Y3479800D02*
D03*
X6019800Y7023100D02*
D03*
X6624401Y4643811D02*
D03*
X3937000Y3479800D02*
D03*
X6624401Y4893804D02*
D03*
X3175003Y3479801D02*
D03*
X5765800Y7023100D02*
D03*
X2921003Y3479801D02*
D03*
X3683000Y3479800D02*
D03*
X3429000D02*
D03*
X6624401Y5143797D02*
D03*
X5511803Y7023101D02*
D03*
X9174399Y3918810D02*
D03*
Y4168811D02*
D03*
Y4418812D02*
D03*
Y4668796D02*
D03*
Y4918797D02*
D03*
Y5168798D02*
D03*
Y5418799D02*
D03*
X6624401Y5393798D02*
D03*
X6273800Y7023100D02*
D03*
X5257803Y7023101D02*
D03*
D83*
X6579500Y9042600D02*
D03*
X7595500D02*
D03*
X8875000Y2621000D02*
D03*
X6250000Y2529000D02*
D03*
X3785500Y9042600D02*
D03*
X4039500D02*
D03*
X4293500D02*
D03*
X4547500D02*
D03*
X4801500D02*
D03*
X5055500D02*
D03*
X5309500D02*
D03*
X5563500D02*
D03*
X5817500D02*
D03*
X6071500D02*
D03*
X6325500D02*
D03*
X6833500D02*
D03*
X7087500D02*
D03*
X7341500D02*
D03*
X6250000Y2275000D02*
D03*
X8875000Y2875000D02*
D03*
D84*
X482600Y6794500D02*
D03*
X1231900Y787400D02*
D03*
X5676900Y1651000D02*
D03*
X482608Y6286492D02*
D03*
X1231900Y1041400D02*
D03*
Y1295400D02*
D03*
Y1549400D02*
D03*
X482600Y6540500D02*
D03*
X1231900Y1803400D02*
D03*
Y2057400D02*
D03*
X5676900Y1397000D02*
D03*
D85*
X4178300Y5435600D02*
D03*
X4432300Y4673600D02*
D03*
X3416300Y5435600D02*
D03*
X5194300D02*
D03*
X3162300D02*
D03*
X4940300D02*
D03*
X4432300D02*
D03*
X2908300D02*
D03*
X4686300D02*
D03*
X5956300D02*
D03*
X5702300D02*
D03*
X5448300D02*
D03*
X3924300D02*
D03*
X3670300D02*
D03*
X2654300D02*
D03*
X5956300Y4673600D02*
D03*
X5702300D02*
D03*
X5448300D02*
D03*
X5194300D02*
D03*
X4940300D02*
D03*
X4686300D02*
D03*
X4178300D02*
D03*
X3924300D02*
D03*
X3670300D02*
D03*
X3416300D02*
D03*
X3162300D02*
D03*
X2908300D02*
D03*
X2654300D02*
D03*
D86*
X7924800Y1375600D02*
D03*
X6311900Y1636300D02*
D03*
X7924800Y1625600D02*
D03*
X6311900Y1386300D02*
D03*
D87*
X8877300Y977900D02*
D03*
Y1485900D02*
D03*
D88*
X6858000Y393700D02*
D03*
X7112000D02*
D03*
X6604000D02*
D03*
D89*
X8966200Y9182100D02*
D03*
Y9436100D02*
D03*
Y9690100D02*
D03*
D90*
X631500Y12192600D02*
D03*
X8131500D02*
D03*
Y9092600D02*
D03*
X631500D02*
D03*
D91*
X3566000Y6286500D02*
D03*
X4054000D02*
D03*
D92*
X7112000Y1600200D02*
D03*
Y1346200D02*
D03*
Y1092200D02*
D03*
D93*
X6100000Y4475000D02*
D03*
X5500000Y3800000D02*
D03*
X5900000Y3450000D02*
D03*
X6200000Y3675000D02*
D03*
%TF.MD5,a1ae680d51f80407402a0f33ff119d10*%
M02*
